<svg xmlns="http://www.w3.org/2000/svg" viewBox="0 0 2048 2048" version="1.1"> <path d="M 970.2 166.4 C 969.7 167.3, 966.7 168.4, 963.4 169.0 C 947.4 171.9, 924.9 183.8, 912.1 196.3 C 901.2 206.9, 888.5 225.3, 885.2 235 C 882.8 242.3, 880.2 249.0, 879.7 249.5 C 879.4 249.8, 877.4 249.6, 875.3 249.1 C 857.5 244.3, 847.1 243.8, 833.4 247.0 C 828.6 248.2, 824.0 249.5, 823.1 249.9 C 822.2 250.4, 819.4 251.7, 816.8 252.9 C 789.8 265.2, 772.0 292.2, 772.0 320.7 C 772 327.2, 772.5 326.9, 751.7 331.0 C 748.6 331.6, 745.7 332.5, 745.4 333.0 C 745.1 333.5, 744.0 334, 743.0 334 C 737.8 334, 723.0 344.6, 715.5 353.6 C 702.8 369.1, 696.3 394.9, 701.5 409.5 C 702.3 411.7, 702.9 414.1, 702.9 415 C 703.0 417.8, 709.0 429.1, 713.5 434.9 C 719.7 442.8, 731.5 452.1, 740.4 456.2 C 752.8 461.9, 776.0 467, 789.7 467 C 804.8 467, 835.5 460.0, 848.8 453.6 C 851.7 452.2, 853.5 451.8, 854.4 452.5 C 855.1 453.0, 859.2 456.4, 863.4 460 C 867.7 463.5, 872.6 467.2, 874.3 468.1 C 882.1 472.3, 890.0 476.0, 891.2 476.0 C 891.9 476.0, 893.8 476.9, 895.5 478 C 897.1 479.0, 899.1 479.9, 900 479.9 C 900.8 479.9, 904.4 480.8, 908 481.9 C 920.5 485.7, 932.8 487.2, 945.5 486.7 C 960.0 486.0, 978.0 483.5, 983.5 481.5 C 985.7 480.7, 988.2 480.0, 989.2 480.0 C 990.2 480.0, 992.6 479.1, 994.7 478 C 996.7 476.9, 998.9 476, 999.5 476 C 1000.8 476, 1010.8 470.9, 1015.5 467.9 C 1017.1 466.9, 1020.1 465.1, 1022.0 464.1 C 1024.0 463.0, 1026.2 461.4, 1026.9 460.5 C 1028.6 458.5, 1030.5 459.1, 1038.3 464.3 C 1056.8 476.7, 1078.7 483.0, 1103.5 483.1 C 1110.1 483.1, 1116.6 482.7, 1118 482.2 C 1119.3 481.6, 1122.9 480.9, 1126 480.5 C 1129.0 480.0, 1133.1 478.9, 1135.2 477.8 C 1137.2 476.8, 1139.5 475.9, 1140.2 475.9 C 1144.7 475.8, 1165.2 462.8, 1171.8 455.8 C 1178.3 448.8, 1179.1 448.5, 1184.8 450.6 C 1187.3 451.5, 1190.3 452.9, 1191.4 453.6 C 1192.5 454.4, 1194.3 455.0, 1195.4 455.0 C 1196.5 455.0, 1200.3 455.9, 1203.8 457.0 C 1213.9 460.1, 1240.1 459.8, 1253.3 456.4 C 1258.7 455.0, 1263.9 453.5, 1264.8 453.0 C 1265.7 452.5, 1269.2 450.9, 1272.5 449.3 C 1280.1 445.7, 1287.1 440.6, 1293.5 433.8 C 1298.9 428.2, 1304 421.6, 1304 420.3 C 1304 419.9, 1304.5 418.9, 1305.3 418.0 C 1307.8 415.0, 1311.9 402.4, 1313.0 394.1 C 1317.2 362.6, 1299.6 332.1, 1268.8 317.1 C 1261.7 313.7, 1245.4 310.0, 1237.2 310.0 C 1229.1 309.9, 1228 309.0, 1228 302.7 C 1228 294.9, 1222.4 278.3, 1216.4 267.9 C 1204.5 247.3, 1187.7 234.7, 1160 225.4 C 1153.3 223.2, 1131.0 222.2, 1123.5 223.8 C 1114.8 225.6, 1106.5 228.1, 1104.5 229.6 C 1099.7 232.9, 1097.5 231.2, 1090.7 219 C 1077.2 194.7, 1046.5 173.5, 1018.3 168.9 C 1015.0 168.4, 1012.2 167.3, 1011.7 166.5 C 1010.4 164.2, 971.5 164.2, 970.2 166.4 M 971.5 183.4 C 968.7 184.3, 964.2 185.4, 961.5 186.1 C 958.8 186.7, 954.9 188.0, 953.0 189.0 C 951.0 189.9, 947.2 191.8, 944.5 193.1 C 934.5 198.0, 925.7 204.9, 915.5 215.8 C 906.4 225.7, 897.7 243.2, 894.6 258.0 C 892.8 266.6, 890.8 269, 885.4 269 C 882.9 269, 879.2 268.1, 877.1 267.1 C 865.7 261.2, 847.1 259.6, 834 263.3 C 827.7 265.1, 826.6 265.5, 821.7 268.2 C 799.0 280.5, 786.6 302.2, 788.2 327.0 C 789.3 342.8, 788.6 343.4, 770 344.3 C 725.5 346.4, 701.4 390.4, 726.1 424.3 C 731.2 431.3, 738.9 437.8, 745.7 440.9 C 748.3 442.1, 751.8 443.8, 753.5 444.6 C 762.8 448.9, 793.8 451.5, 806.7 448.9 C 822.3 445.8, 825.8 445.0, 830.5 443.5 C 833.2 442.6, 836.8 441.2, 838.5 440.5 C 856.3 432.4, 855.7 432.4, 865.5 441.2 C 869.3 444.6, 874.3 448.9, 876.5 450.6 C 880.6 453.9, 897.3 463, 899.1 463 C 899.7 463, 901.6 463.6, 903.3 464.4 C 906.6 465.9, 916.7 468.3, 927.9 470.1 C 949.5 473.7, 986.2 467.2, 1003 456.9 C 1003.8 456.4, 1005.5 455.5, 1006.7 455.0 C 1007.9 454.4, 1012.6 451.3, 1017.2 448.0 C 1028.0 440.0, 1029.3 440.0, 1041.8 448.2 C 1063.7 462.5, 1076.8 466.5, 1102.5 466.5 C 1121.0 466.5, 1126.8 465.5, 1137.5 460.5 C 1139.1 459.8, 1141.6 458.7, 1143 458.1 C 1148.9 455.4, 1157.9 448.2, 1167.3 438.2 C 1175.4 429.7, 1176.5 429.5, 1186.6 434.0 C 1202.0 441.0, 1208.7 442.3, 1228 442.3 C 1243.5 442.3, 1246.2 442.1, 1252 440.1 C 1268.4 434.4, 1281.9 425.2, 1288.1 415.5 C 1294.8 404.9, 1294.2 406.3, 1297.0 391.8 C 1298.0 387.0, 1297.8 384.4, 1296.0 375.5 C 1294.2 366.0, 1293.1 362.8, 1289.8 357 C 1289.4 356.1, 1288.3 354.1, 1287.4 352.5 C 1284.7 347.5, 1273.6 337.7, 1266.8 334.3 C 1252.8 327.3, 1251.0 326.9, 1233.7 326.2 C 1213.2 325.5, 1213.5 325.7, 1212.5 309.5 C 1211.7 296.2, 1209.0 286.5, 1203.5 277.5 C 1202.1 275.3, 1200.6 272.6, 1200.1 271.5 C 1198.3 267.7, 1181.9 252.8, 1176.2 249.8 C 1173.1 248.2, 1170.0 246.4, 1169.5 246.0 C 1168.9 245.5, 1166.9 244.7, 1165 244.1 C 1163.0 243.5, 1159.4 242.3, 1157 241.4 C 1153.4 240.0, 1149.3 239.6, 1138 239.7 C 1123.5 239.7, 1113.2 241.9, 1104.4 246.8 C 1094.0 252.5, 1091.3 251.9, 1086.4 242.4 C 1083.3 236.4, 1082.4 234.8, 1076.1 225.1 C 1072.0 218.6, 1060.8 206.5, 1056 203.3 C 1054.0 202.1, 1050.7 199.8, 1048.5 198.2 C 1046.3 196.7, 1041.8 194.2, 1038.5 192.6 C 1035.2 191.0, 1031.3 189.2, 1030 188.4 C 1028.6 187.7, 1025.7 186.8, 1023.5 186.4 C 1021.3 186.0, 1017.9 185.0, 1016 184.1 C 1010.8 181.9, 978.3 181.4, 971.5 183.4 M 807.6 496.4 C 806.3 497.8, 803.6 502.9, 800.5 510.5 C 799.8 512.1, 798.3 515.5, 797.2 518 C 796.0 520.4, 794.8 523.6, 794.4 525 C 794.0 526.3, 792.8 529.0, 791.8 530.9 C 790.8 532.9, 790 534.8, 790 535.4 C 790 535.9, 789.1 538.1, 788.0 540.4 C 786.3 544.0, 785.6 548.3, 785.8 553.1 C 786.0 555.8, 788.8 558, 792.1 558 C 796.6 558, 800.1 553.5, 804.4 542.2 C 806.5 536.9, 808.6 531.6, 809.1 530.6 C 810.4 528.1, 813.5 519.5, 816.4 510 C 818.5 503.2, 818.6 502.2, 817.3 499.7 C 815.2 495.5, 810.2 493.8, 807.6 496.4 M 1017.6 500.3 C 1016.2 502.2, 1014.4 505.5, 1013.6 507.6 C 1012.8 509.7, 1011.2 513.9, 1009.9 517 C 1008.7 520.0, 1006.9 524.7, 1005.9 527.6 C 1005.0 530.4, 1003.7 533.5, 1003.1 534.6 C 1001.9 536.9, 998 549.2, 998 550.7 C 998 552.9, 1003.2 558, 1005.4 558 C 1009.2 558, 1014.8 548.5, 1018.5 536 C 1018.9 534.6, 1020.1 531.9, 1021.1 530.0 C 1022.1 528.0, 1023 525.9, 1023 525.1 C 1023 524.4, 1023.6 522.6, 1024.4 521.1 C 1026.1 517.7, 1030 505.5, 1030 503.1 C 1030 500.5, 1025.8 497, 1022.8 497 C 1021.0 497, 1019.4 498.0, 1017.6 500.3 M 1195.1 503.5 C 1193.3 505.4, 1191.9 507.6, 1191.9 508.2 C 1191.9 508.9, 1191.2 510.8, 1190.3 512.5 C 1189.4 514.1, 1188.1 517.5, 1187.4 520 C 1186.7 522.4, 1184.9 527.6, 1183.4 531.5 C 1182.0 535.3, 1179.9 541.4, 1178.8 545 C 1177.7 548.5, 1176.6 552.2, 1176.3 553.2 C 1175.7 554.9, 1181.7 562, 1183.7 562 C 1188.3 562, 1194.9 549.9, 1200.0 532 C 1200.6 530.0, 1201.7 527.1, 1202.4 525.5 C 1207.6 514.1, 1208.7 506.9, 1205.9 503.0 C 1202.7 498.7, 1199.1 498.9, 1195.1 503.5 M 928.4 520.7 C 925.7 522.7, 923.1 528.2, 918.5 541.5 C 917.7 543.7, 915.9 548.6, 914.4 552.5 C 907.8 570.0, 906.9 575.7, 910.0 580.0 C 915.5 587.8, 922.4 580.7, 927.8 562 C 928.3 560.0, 930.3 554.2, 932.2 549 C 938.4 531.4, 939.1 525.3, 935.4 521.5 C 933.7 519.9, 930.2 519.5, 928.4 520.7 M 1100.6 539.0 C 1098.2 540.9, 1096.0 544.9, 1090.0 558.0 C 1088.9 560.5, 1088 563.1, 1088 563.8 C 1088 564.4, 1087.1 566.6, 1086 568.7 C 1084.9 570.7, 1083.9 573.1, 1083.9 573.9 C 1083.9 574.8, 1083.0 577.3, 1082 579.5 C 1075.8 592.2, 1083.9 602.7, 1092.6 593.2 C 1094.5 591.2, 1096.5 587.7, 1097.1 585.5 C 1097.7 583.3, 1098.5 581.0, 1098.9 580.5 C 1099.4 579.9, 1100.4 577.2, 1101.2 574.5 C 1102.1 571.7, 1104.0 566.3, 1105.4 562.5 C 1111.5 546.3, 1111.9 539.0, 1106.6 537.6 C 1103.5 536.7, 1103.5 536.7, 1100.6 539.0 M 843.2 575.2 C 842.1 576.4, 839.9 580.6, 838.4 584.5 C 837.0 588.3, 835.1 592.8, 834.4 594.5 C 833.0 597.6, 829.7 606.4, 825.9 616.8 L 823.7 623.1 825.7 625.8 C 828.9 630.1, 833.8 630.0, 837.8 625.5 C 839.5 623.5, 841 621.3, 841 620.6 C 841 619.9, 841.9 617.6, 843 615.5 C 844.1 613.3, 845 610.9, 845 610.1 C 845 609.4, 845.6 607.6, 846.4 606.1 C 850.0 599.8, 855.3 581.5, 854.5 578.3 C 853.1 572.8, 847.0 571.1, 843.2 575.2 M 963.7 615.5 C 958.3 616.1, 952.7 617.2, 951.2 617.8 C 949.7 618.4, 946.5 619.3, 944.2 619.9 C 941.1 620.7, 939.6 621.8, 938.4 624.1 C 936.8 627.1, 936.9 627.1, 940.4 630.5 C 945.7 635.4, 944.8 637, 936.8 637 C 934.6 637, 931.6 637.6, 930.2 638.3 C 928.7 639.1, 925.2 640.2, 922.4 640.8 C 919.7 641.4, 916.1 642.5, 914.4 643.4 C 912.8 644.2, 910.9 644.9, 910.3 644.9 C 909.1 645.0, 894.3 652.4, 889.5 655.4 C 872.6 665.9, 864.9 672.4, 854.3 685.2 C 846.8 694.3, 836.7 708.9, 835.5 712.6 C 835.2 713.8, 834.2 715.3, 833.4 716.0 C 832.6 716.6, 832 717.8, 832 718.6 C 832 719.4, 831.1 722.0, 830.0 724.3 C 827.3 730.4, 826.2 746.2, 828.2 751.1 C 829.4 753.9, 829.6 755.8, 828.9 758.9 C 827.9 763.0, 828.8 777.8, 831.0 795 C 832.0 803.0, 835.6 816.9, 838.5 823.5 C 841.7 831.1, 841.5 832.8, 836.7 837.8 C 830.6 844.1, 828.5 848.2, 826.6 856.8 C 824.5 866.4, 824.5 873.8, 826.9 882.5 C 831.9 901.4, 842.7 914.3, 858.2 920.0 C 865.9 922.8, 867.7 924.3, 868.4 928.3 C 870.2 937.3, 880.6 957.5, 891.9 974 C 895.4 979.0, 907.8 992, 909.1 992 C 909.6 992, 910 992.7, 910 993.7 C 910 995.5, 903.5 999.1, 897.7 1000.5 C 896.3 1000.8, 894.5 1001.8, 893.9 1002.5 C 893.2 1003.3, 892.0 1004, 891.1 1004 C 890.2 1004, 887.3 1005.1, 884.7 1006.5 C 882.2 1007.8, 879.6 1009, 879.1 1009 C 876.0 1009, 849.7 1025.7, 840.5 1033.5 C 829.6 1042.8, 808.9 1065.2, 804.1 1073 C 803.3 1074.3, 800.3 1079.1, 797.4 1083.5 C 791.3 1092.8, 781.4 1111.6, 775.7 1124.5 C 773.6 1129.4, 770.5 1136.2, 769.0 1139.5 C 767.5 1142.8, 765.0 1148.4, 763.5 1152 C 762.0 1155.5, 760.2 1159.8, 759.5 1161.5 C 756.3 1168.7, 751.0 1184.8, 748.5 1194.9 C 746.9 1201.2, 747.0 1201.6, 749.0 1207.2 L 751.2 1212.9 748.1 1222.7 C 743.9 1236.2, 741.2 1245.7, 740.5 1250.5 C 740.1 1252.7, 739.2 1256.5, 738.5 1259 C 732.2 1280.1, 730.2 1319.1, 734.7 1331.7 C 735.9 1335.1, 737 1338.4, 737 1338.9 C 737 1339.4, 738.5 1342.5, 740.5 1345.8 C 742.4 1349.1, 744 1352.2, 744 1352.6 C 744 1353.1, 737.6 1353.3, 729.9 1353.1 C 687.4 1351.9, 652.8 1370.0, 637.6 1401.3 C 630.4 1416.0, 627.1 1437.1, 629.9 1450.5 C 631.6 1458.5, 634.2 1467.5, 635.6 1470 C 636.3 1471.3, 637.4 1473.6, 637.9 1475 C 638.9 1477.5, 640.9 1480.7, 646.4 1489.0 C 653.9 1500.4, 671.2 1515.0, 688.6 1524.6 C 691.4 1526.2, 696.3 1528.9, 699.6 1530.7 C 702.8 1532.6, 706.4 1534.3, 707.7 1534.6 C 708.9 1534.9, 710.4 1535.8, 711.0 1536.5 C 711.7 1537.3, 712.7 1538, 713.3 1538 C 714.0 1538, 716.6 1539.1, 719.2 1540.5 C 721.7 1541.8, 724.5 1543, 725.3 1543 C 726.1 1543, 727.2 1543.6, 727.9 1544.4 C 728.6 1545.2, 730.5 1546.1, 732.3 1546.5 C 734.0 1546.9, 736.6 1547.8, 738 1548.6 C 740.5 1550.0, 746.0 1552.0, 754 1554.5 C 756.4 1555.3, 759.4 1556.4, 760.5 1556.9 C 761.6 1557.4, 765.2 1558.8, 768.5 1559.9 C 796.2 1569.4, 804.1 1572, 805.4 1572 C 806.2 1572, 808.4 1572.6, 810.2 1573.3 C 812.0 1574.1, 816.0 1575.5, 819.1 1576.4 C 827.1 1578.7, 827.1 1579.9, 819.4 1587.1 C 811.0 1595.0, 804.4 1605.0, 801.3 1614.7 C 797.9 1625.3, 798.3 1640.4, 802.2 1649.1 C 806.3 1658.3, 817.6 1669.0, 824.7 1670.5 C 826.2 1670.9, 829.1 1671.8, 831.2 1672.5 C 842.3 1676.7, 865.9 1671.9, 890.5 1660.5 C 892.1 1659.8, 904.9 1653.5, 919 1646.7 C 933.0 1639.8, 947.4 1633.0, 951 1631.5 C 954.5 1630.0, 959.3 1627.9, 961.6 1626.8 C 963.8 1625.8, 966.2 1625, 966.8 1625 C 967.5 1625, 969.7 1624.1, 971.7 1623.1 C 980.0 1619.0, 981.4 1619.3, 989.2 1626.5 L 996.2 1633 1002.9 1633 C 1007.0 1633, 1011.7 1632.2, 1015.2 1631 C 1018.3 1629.9, 1021.7 1629, 1022.7 1628.9 C 1023.7 1628.9, 1026.8 1628.0, 1029.7 1626.9 C 1032.6 1625.9, 1035.9 1625, 1037.1 1625 C 1038.2 1625, 1040.6 1624.3, 1042.3 1623.5 C 1046.6 1621.5, 1057.6 1618, 1059.3 1618 C 1060.7 1618, 1062.2 1618.6, 1070.2 1622.6 C 1073.2 1624.1, 1107.4 1641.2, 1111.2 1643.1 C 1113.0 1644.0, 1113.6 1644.3, 1121 1647.8 C 1123.4 1649.0, 1125.9 1650.0, 1126.3 1650.0 C 1126.8 1650.0, 1129.1 1650.8, 1131.3 1651.9 C 1137.4 1654.7, 1148.3 1657.8, 1158.1 1659.4 C 1184.4 1663.7, 1204.8 1650.9, 1210.4 1626.6 C 1212.2 1618.8, 1212.2 1618.7, 1209.9 1608.6 C 1207.2 1596.5, 1203.3 1588.3, 1197.3 1581.9 C 1191.2 1575.3, 1191.6 1574.3, 1202.5 1570.2 C 1207.4 1568.3, 1212.8 1566.2, 1214.5 1565.4 C 1216.1 1564.7, 1220.3 1562.9, 1223.7 1561.5 C 1247.2 1551.9, 1248.3 1551.3, 1268.5 1541.3 C 1277.8 1536.6, 1288.6 1530.8, 1292.5 1528.4 C 1296.3 1526.0, 1300.8 1523.3, 1302.5 1522.3 C 1307.2 1519.7, 1314.5 1513.7, 1325.1 1503.7 C 1348.4 1481.8, 1358.3 1453.8, 1353.9 1422.2 C 1350.6 1399.1, 1334.7 1376.8, 1314.2 1366.6 C 1311.0 1365.0, 1307.6 1363.2, 1306.5 1362.6 C 1304.6 1361.7, 1296.7 1359.2, 1288 1356.9 C 1286.0 1356.4, 1281.8 1356.0, 1278.6 1356.0 C 1270.4 1355.9, 1268.5 1354.8, 1270.5 1350.9 C 1271.3 1349.3, 1272.3 1347.9, 1272.7 1347.9 C 1273.5 1347.9, 1276.1 1343.8, 1279.7 1337 C 1287.2 1322.5, 1287.8 1291.0, 1281.2 1261.5 C 1280.3 1257.6, 1279.1 1251.3, 1278.4 1247.5 C 1276.3 1236.4, 1273.4 1224.6, 1272.0 1222.0 C 1269.7 1217.7, 1270.1 1209.8, 1272.8 1207.1 C 1275.0 1204.9, 1275.2 1204.1, 1274.7 1198.1 C 1274.5 1194.4, 1273.7 1190.5, 1273.1 1189.4 C 1272.0 1187.5, 1269.1 1179.4, 1266.5 1171 C 1265.7 1168.5, 1263.9 1163.3, 1262.4 1159.5 C 1261.0 1155.6, 1259.1 1150.7, 1258.3 1148.5 C 1257.5 1146.3, 1256.4 1144.0, 1256.0 1143.5 C 1255.6 1142.9, 1254.9 1141.3, 1254.4 1140 C 1252.7 1134.0, 1233.9 1096.0, 1230.8 1092.1 C 1229.8 1090.8, 1229 1089.3, 1229 1088.8 C 1229 1088.3, 1228.1 1086.7, 1227.1 1085.2 C 1226.1 1083.7, 1223.0 1079.1, 1220.3 1075.0 C 1217.7 1070.9, 1214.8 1066.8, 1214 1065.8 C 1213.1 1064.9, 1211.3 1062.7, 1210 1060.8 C 1206.7 1056.5, 1187.6 1037.3, 1182.5 1033.2 C 1172.8 1025.5, 1170.0 1023.5, 1162.5 1018.4 C 1154.4 1013.1, 1143.6 1006.9, 1139 1004.9 C 1137.6 1004.3, 1133.3 1002.3, 1129.5 1000.4 C 1121.8 996.7, 1115.6 994.3, 1109.5 992.7 C 1107.3 992.1, 1103.3 990.8, 1100.8 989.8 C 1098.2 988.8, 1094.4 988, 1092.4 988 C 1088.5 988, 1085 986.5, 1085 984.9 C 1085 984.3, 1088.2 979.7, 1092.3 974.7 C 1104.0 959.8, 1113.8 943.1, 1117.9 931 C 1119.9 924.9, 1122.0 923.2, 1128.5 922.4 C 1131.8 922.1, 1135.4 921.2, 1136.5 920.5 C 1137.6 919.8, 1139.7 919.0, 1141.1 918.6 C 1142.6 918.2, 1144.4 917.4, 1145.1 916.7 C 1145.9 916.0, 1148.2 914.3, 1150.3 913.0 C 1155.5 909.9, 1164.1 899.2, 1167.9 891.3 C 1177.8 870.4, 1175.1 849.9, 1160.3 835.5 C 1154.4 829.7, 1154.1 828.9, 1157 825.2 C 1158.1 823.8, 1159 821.9, 1159 820.9 C 1159 819.9, 1159.8 816.7, 1160.8 813.8 C 1168.0 793.2, 1171.3 759.3, 1168.1 738.5 C 1164.4 714.9, 1153.5 695.7, 1138 685.8 C 1134.9 683.9, 1130.5 681.1, 1128.2 679.6 C 1123.5 676.6, 1122.0 673.8, 1121.9 668.1 C 1121.9 658.9, 1112.0 646.4, 1106.5 648.6 C 1104.2 649.4, 1101.0 655.3, 1100.9 658.6 C 1100.9 664.2, 1099.3 664.9, 1095.7 660.6 C 1085.0 647.9, 1074.2 638.2, 1065.5 633.4 C 1049.8 624.8, 1044.8 622.7, 1034.5 620.5 C 1031.2 619.8, 1025.8 618.5, 1022.5 617.7 C 1009.3 614.4, 980.5 613.3, 963.7 615.5 M 1071.3 758.2 C 1070.4 759.6, 1069.6 760.2, 1056 769.3 C 1047.5 775.0, 1043.8 777.0, 1029.8 784.1 C 1027.8 785.1, 1025.6 786.0, 1024.8 786.0 C 1024.1 786.0, 1021.7 786.9, 1019.5 788 C 1017.3 789.0, 1014.7 789.9, 1013.7 789.9 C 1012.8 789.9, 1009.8 790.8, 1007.1 791.9 C 1000.7 794.4, 981.4 795.8, 978.0 794.0 C 974.5 792.1, 975.7 786.5, 980.8 780.0 C 983.1 777.1, 984.7 774.3, 984.3 773.8 C 983.5 772.4, 979.2 773.6, 976.1 776.0 C 974.8 777.1, 972.9 778, 972.0 778 C 971.1 778, 969.5 778.6, 968.4 779.3 C 967.3 780.1, 965.3 781.0, 964 781.4 C 962.6 781.8, 959.2 782.9, 956.5 783.9 C 940.3 789.8, 921.7 791.3, 896.2 788.8 L 884.8 787.7 881.4 791.0 C 879.6 792.8, 877.7 795.6, 877.4 797.4 C 877.0 799.1, 876.3 801.0, 875.8 801.6 C 874.3 803.4, 870 833.6, 870.0 841.9 C 870.0 852.4, 874.6 890.0, 876.9 898.5 C 885.0 927.9, 885.0 928.1, 891.5 941.3 C 898.3 955.0, 899.1 956.1, 907.0 966.0 C 923.0 986.1, 945.5 1000.4, 970.6 1006.4 C 986.3 1010.2, 1014.3 1007.9, 1027.5 1001.8 C 1029.8 1000.8, 1032.0 1000, 1032.6 1000 C 1034.9 1000, 1049.2 991.6, 1057.5 985.5 C 1078.5 969.9, 1093.8 949.7, 1102.9 925.5 C 1104.1 922.2, 1105.8 918.1, 1106.5 916.5 C 1107.2 914.8, 1108.5 911.8, 1109.3 909.7 C 1110.2 907.6, 1111.4 905.9, 1112.1 905.8 C 1112.9 905.8, 1117.5 905.6, 1122.5 905.6 C 1130.5 905.5, 1132.0 905.1, 1136.5 902.5 C 1153.1 892.6, 1162.5 868.8, 1155.4 854.6 C 1151.4 846.5, 1146.9 843.7, 1139 844.1 C 1131.8 844.5, 1128.4 846.4, 1124 852.5 C 1120.8 856.7, 1119.4 857.3, 1116.1 855.7 C 1114.4 854.9, 1113.1 853.1, 1112.3 850.5 C 1110.5 844.1, 1107.2 837.2, 1103.5 831.5 C 1101.5 828.6, 1100 826.0, 1100 825.6 C 1100 825.3, 1098.9 823.5, 1097.7 821.7 C 1095.5 818.4, 1089.3 806.2, 1085.9 798.5 C 1083.2 792.2, 1080.8 784.2, 1079.9 778.0 C 1077.1 759.9, 1076.4 757.5, 1074.2 757.1 C 1073.1 757.0, 1071.7 757.4, 1071.3 758.2 M 1018.5 815.5 C 1015.7 818.4, 1016.5 824.4, 1020.2 827.9 C 1022.0 829.6, 1023.9 830.9, 1024.5 830.9 C 1025.0 830.9, 1027.0 831.8, 1029.0 832.8 C 1030.9 833.8, 1034.0 835.0, 1036 835.4 C 1037.9 835.8, 1041.3 836.7, 1043.5 837.5 C 1050.5 839.9, 1063.4 841.2, 1068.0 839.9 C 1072.3 838.8, 1074.6 835.4, 1073.5 831.5 C 1072.5 827.8, 1071.4 827.0, 1066.4 826.0 C 1044.5 821.6, 1035.1 819.0, 1029 815.4 C 1025.6 813.5, 1020.5 813.6, 1018.5 815.5 M 935.7 816.0 C 932.8 817.7, 922.9 821.0, 916.1 822.6 C 912.6 823.4, 909.0 824.4, 908.1 824.9 C 907.2 825.4, 903.8 826.1, 900.7 826.5 C 895.6 827.1, 894.7 827.6, 893.4 830.1 C 891.2 834.2, 893.9 839.0, 899.0 840.1 C 903.5 841.1, 920.6 839.2, 924.1 837.4 C 925.6 836.6, 927.5 836, 928.3 836 C 930.2 836, 941.0 830.2, 943.8 827.6 C 947.7 824.0, 948.3 821.3, 945.8 817.9 C 943.4 814.8, 939.2 814.0, 935.7 816.0 M 846.8 849.7 C 840.1 857.6, 838.7 869.4, 843.1 881.3 C 846.1 889.6, 852.8 899.1, 857.3 901.6 C 861.5 904.0, 861.9 901.2, 859.0 889.9 C 857.1 882.5, 855.1 868.7, 854.0 855.5 C 853.5 848.9, 853.3 848.4, 850.9 848.2 C 849.4 848.0, 847.7 848.6, 846.8 849.7 M 971.9 852.3 C 969.4 853.5, 967.1 859.9, 964.8 871.5 C 964.3 874.2, 963.1 878.7, 962.3 881.5 C 961.4 884.2, 959.9 890.1, 959.0 894.6 C 957.3 902.6, 957.3 902.9, 959.4 907.8 C 964.4 919.8, 980.6 925.2, 992.8 919.0 C 1002.1 914.3, 998.0 907.0, 986.2 907.0 C 982.7 907.0, 978.3 906.3, 976.4 905.5 C 973.2 904.2, 973 903.7, 973 899.5 C 973 897.1, 973.6 893.1, 974.4 890.7 C 976.1 885.7, 980 864.7, 980 860.7 C 980 857.3, 977.6 852.4, 975.6 851.7 C 974.9 851.4, 973.2 851.7, 971.9 852.3 M 1036.5 855.1 C 1030.7 857.9, 1027.6 871.7, 1031.3 877.4 C 1036.2 884.9, 1044.7 883.9, 1048.6 875.5 C 1051.5 869.3, 1051.5 868.1, 1048.8 861.8 C 1045.9 855.2, 1041.3 852.6, 1036.5 855.1 M 918.0 858.1 C 913.0 863.5, 912.8 874.2, 917.6 879.3 C 922.8 884.9, 928.8 883.6, 932.7 876.0 C 935.5 870.4, 935.5 868.1, 932.8 861.8 C 929.5 854.2, 923.0 852.6, 918.0 858.1 M 1130.9 860.2 C 1121.8 868.9, 1116.9 880.1, 1120.5 884.0 C 1122.6 886.3, 1126.7 886.5, 1129.7 884.4 C 1132.1 882.7, 1137.4 875.2, 1138.4 872.0 C 1138.8 870.9, 1140.4 869.2, 1142.0 868.4 C 1150.5 864.0, 1148.4 856, 1138.7 856 C 1136.0 856, 1134.3 856.9, 1130.9 860.2 M 969.5 945.3 C 955.7 949.0, 951.2 952.7, 954.4 957.6 C 956.9 961.3, 958.2 961.4, 970.3 958.9 C 985.9 955.6, 999.0 956.1, 1014.7 960.6 C 1021.6 962.5, 1026 960.5, 1026 955.4 C 1026 945.5, 991.2 939.3, 969.5 945.3 M 1080.6 1002.5 C 1080.2 1003.4, 1080 1006.0, 1079.9 1008.3 C 1079.9 1018.3, 1070.9 1036.0, 1059.8 1047.7 C 1047.6 1060.6, 1023.5 1069.9, 1002.5 1069.9 C 986.9 1069.9, 967.5 1062.9, 956.1 1053.2 C 945.9 1044.5, 936.2 1029.4, 934.5 1019.5 C 933.5 1014.0, 931.3 1010.1, 928.5 1008.8 C 926.1 1007.7, 916.7 1009.1, 914.5 1010.9 C 913.9 1011.3, 910.1 1013.1, 906 1014.7 C 893.6 1019.6, 877.0 1028.1, 867.5 1034.4 C 851.5 1044.9, 835.8 1059.7, 823.6 1075.9 C 816.2 1085.8, 816.0 1086.1, 812.1 1092.6 C 810.9 1094.7, 808.7 1098.3, 807.4 1100.5 C 805.3 1104.1, 803.3 1107.8, 794.1 1125.5 C 791.2 1131.0, 788.5 1136.9, 783.8 1148 C 782.7 1150.4, 781.2 1153.7, 780.4 1155.3 C 779.6 1156.8, 779 1158.6, 779 1159.2 C 779 1159.8, 778.1 1162.1, 777.1 1164.4 C 770.0 1180.0, 764.8 1198.0, 766.6 1200.7 C 767.9 1202.9, 778.0 1208.0, 789.9 1212.5 C 795.2 1214.5, 800.8 1216.8, 802.5 1217.5 C 810.0 1220.8, 835.8 1228.1, 848.9 1230.6 C 854.6 1231.7, 854.9 1230.5, 855.0 1206.0 C 855.0 1194.2, 855.4 1178.0, 855.9 1170.0 C 856.7 1156.6, 856.9 1155.5, 859.1 1153.8 C 862.1 1151.5, 865.1 1151.5, 868.1 1153.9 L 870.5 1155.8 870.2 1214.6 C 870.1 1247.0, 869.6 1282.2, 869.1 1293 C 868.7 1303.7, 868.7 1313.4, 869.1 1314.7 C 869.5 1315.9, 884.3 1331.2, 901.9 1348.7 C 927.2 1374.0, 934.7 1380.9, 937.7 1381.7 C 957.1 1387.4, 1006.3 1391.8, 1031.1 1390.1 C 1047.5 1388.9, 1048.9 1388.4, 1059.6 1378.2 C 1079.8 1359.1, 1100.7 1341.8, 1127 1322.3 C 1136.0 1315.5, 1145.6 1308.4, 1148.2 1306.5 C 1150.8 1304.5, 1154.1 1302.4, 1155.5 1301.7 C 1156.9 1301.1, 1158.3 1299.5, 1158.6 1298.2 C 1159.4 1294.8, 1158.1 1277.1, 1156.4 1268.0 C 1155.6 1263.8, 1155 1258.9, 1155 1256.9 C 1155 1255.0, 1154.2 1250.9, 1153.4 1247.9 C 1152.5 1244.9, 1151.2 1238.6, 1150.4 1234.0 C 1149.6 1229.3, 1148.6 1224.4, 1148.0 1223.0 C 1147.5 1221.6, 1146.6 1217.2, 1146.0 1213.3 C 1145.4 1209.3, 1144.5 1205.0, 1144.0 1203.6 C 1143.5 1202.3, 1142.6 1197.4, 1141.9 1192.8 C 1141.3 1188.2, 1140.1 1182.0, 1139.4 1178.9 C 1136.9 1169.1, 1137.1 1160.5, 1139.9 1157.5 C 1141.2 1156.1, 1143.0 1155, 1143.9 1155 C 1146.3 1155, 1149.9 1160.2, 1150.9 1165.2 C 1151.4 1167.5, 1152.5 1172.6, 1153.4 1176.5 C 1156.3 1189.0, 1159.5 1204.5, 1162.5 1220.3 C 1163.2 1224.1, 1164.4 1227.6, 1165.1 1228.1 C 1166.9 1229.3, 1176.8 1228.3, 1185.5 1226.0 C 1189.3 1225.0, 1194.7 1223.6, 1197.5 1222.9 C 1212.3 1219.2, 1223.5 1215.7, 1229.6 1212.9 C 1231.8 1211.8, 1234.2 1211, 1234.8 1211 C 1235.8 1211, 1241.9 1208.2, 1246.5 1205.7 C 1247.6 1205.1, 1250.1 1203.8, 1252.2 1202.8 C 1257.6 1200.1, 1258.4 1198.0, 1256.1 1192.2 C 1252.1 1182.1, 1250.0 1176.3, 1249.4 1173.5 C 1249.0 1171.8, 1248.1 1169.3, 1247.4 1168 C 1246.7 1166.6, 1244.9 1162.1, 1243.4 1158 C 1242.0 1153.8, 1239.9 1148.6, 1238.8 1146.3 C 1237.8 1144.1, 1237 1141.9, 1237 1141.5 C 1237 1139.4, 1218.6 1102.6, 1213.5 1094.5 C 1206.7 1083.6, 1206.7 1083.5, 1198.1 1072.8 C 1187.8 1060.0, 1176.6 1049.1, 1164.5 1040.0 C 1162.3 1038.3, 1160.0 1036.6, 1159.5 1036.2 C 1158.9 1035.8, 1156.4 1034.1, 1154 1032.5 C 1151.5 1030.9, 1148.3 1028.9, 1147 1028.0 C 1143.0 1025.4, 1117.0 1013, 1115.5 1013 C 1115.0 1013, 1112.8 1012.1, 1110.6 1011.1 C 1099.3 1006.0, 1096.8 1005, 1095.5 1005 C 1094.8 1005, 1092.2 1004.1, 1089.8 1003.0 C 1084.5 1000.6, 1081.4 1000.4, 1080.6 1002.5 M 1053 1008.2 C 1036.2 1017.7, 1010.9 1025, 994.9 1025 C 985.8 1025, 961.2 1021.2, 958.2 1019.3 C 955.6 1017.7, 952.3 1017.5, 951.4 1019.0 C 950.3 1020.8, 957.2 1032.8, 962.6 1038.4 C 978.2 1054.5, 1008.4 1058.2, 1033.4 1046.9 C 1036.1 1045.7, 1039.0 1044.1, 1039.7 1043.3 C 1040.5 1042.6, 1041.4 1042, 1041.8 1042 C 1043.2 1042, 1054.4 1030.3, 1056.4 1026.9 C 1063.3 1014.6, 1066.1 1003.9, 1062.3 1004.0 C 1061.3 1004.0, 1057.1 1005.9, 1053 1008.2 M 764.6 1225.2 C 763.7 1227.5, 762.5 1231.7, 762.0 1234.5 C 761.4 1237.2, 760.3 1241.3, 759.5 1243.5 C 758.7 1245.7, 758.0 1248.4, 758.0 1249.5 C 758.0 1250.7, 757.1 1254.5, 756.1 1258.0 C 748.8 1283.1, 747.0 1316.6, 752.2 1331.2 C 754.9 1338.6, 758.2 1345.2, 760.4 1347.5 C 761.0 1348.1, 762.8 1350.1, 764.5 1352.0 C 769.9 1358.1, 791.9 1373.9, 811.5 1385.7 C 822.2 1392.2, 840.4 1402.3, 848.6 1406.4 C 855.2 1409.7, 856.4 1411.3, 856.2 1416.3 C 855.9 1423.7, 857.8 1435.7, 859.9 1439.6 C 861.0 1441.7, 862 1443.8, 862 1444.2 C 862 1444.6, 863.5 1447.2, 865.5 1450.0 C 867.4 1452.8, 869.5 1456.0, 870.0 1457.3 C 870.5 1458.5, 871.4 1460.1, 871.9 1461 C 873.2 1463.2, 876.7 1474.9, 877.4 1479.5 C 878.4 1485.7, 882.2 1500.3, 883.2 1501.6 C 884.6 1503.5, 886.7 1502.1, 887.9 1498.7 C 889.4 1494.3, 889.2 1485.2, 887.3 1471.8 C 885.5 1458.4, 885.8 1455.3, 889.6 1454.3 C 896.8 1452.5, 901.3 1464.9, 902.9 1491.1 C 903.8 1506.5, 904.8 1510, 907.9 1510 C 912.8 1510, 913.9 1496.3, 910.9 1471.9 L 908.6 1452.9 910.6 1450.9 C 912.3 1449.1, 913.0 1449.0, 915.3 1450.1 C 922.0 1453.1, 926.8 1469.8, 927.8 1494.0 L 928.5 1509.5 931.1 1509.8 C 934.5 1510.1, 935.5 1508.4, 936.5 1500.6 C 937.4 1492.9, 935.1 1467.0, 932.8 1459.6 C 930.7 1452.8, 930.4 1445.9, 932.2 1444.2 C 935.5 1440.8, 944 1445.4, 944 1450.6 C 944 1451.8, 944.8 1455.2, 945.8 1458.1 C 948.6 1465.9, 951.1 1478.2, 951.9 1487.6 C 952.5 1496.5, 952.9 1497.3, 955.2 1496.4 C 957.3 1495.6, 959 1490.7, 959 1485.2 C 959 1479.3, 955.1 1457.1, 953.5 1454.0 C 952.8 1452.6, 952.0 1449.4, 951.6 1446.9 C 951.3 1444.4, 950.4 1441.0, 949.5 1439.4 C 948.7 1437.8, 948.0 1435.9, 948.0 1435.3 C 947.9 1433.9, 943.1 1424.1, 941.4 1422 C 940.7 1421.1, 939.9 1419.5, 939.5 1418.3 C 938.7 1415.5, 931.4 1404.6, 925.4 1397.2 C 918.9 1389.2, 877.6 1347.4, 864.9 1335.9 C 859.1 1330.7, 850.4 1322.9, 845.6 1318.5 C 836.0 1309.8, 836.3 1310.1, 824.0 1300.5 C 819.4 1296.9, 815.4 1293.9, 815.0 1293.9 C 814.7 1293.9, 813.0 1292.6, 811.2 1290.9 C 808.1 1288.0, 808.0 1287.7, 809.4 1285.0 C 812.1 1279.9, 817.3 1279.6, 826.5 1284.1 C 830.1 1285.8, 833.5 1286.9, 834.2 1286.7 C 835.5 1286.2, 838.0 1278.8, 840.4 1268.3 C 841.2 1265.1, 842.7 1259.0, 843.7 1254.7 C 846.0 1245.7, 845.9 1245.5, 838.0 1244.5 C 835.0 1244.1, 831.8 1243.4, 830.9 1242.9 C 830.0 1242.4, 826.3 1241.4, 822.8 1240.6 C 816.9 1239.2, 811.2 1237.5, 798.5 1233.4 C 793.0 1231.7, 785.8 1228.8, 779.3 1225.8 C 777.1 1224.8, 774.8 1224, 774.2 1224 C 773.7 1224, 772.6 1223.3, 772 1222.5 C 769.5 1219.5, 766.3 1220.6, 764.6 1225.2 M 1248 1222.5 C 1241.1 1226.2, 1222.7 1233.1, 1210.5 1236.5 C 1207.7 1237.2, 1203.4 1238.5, 1201 1239.3 C 1196.1 1240.8, 1184.8 1243.4, 1178.8 1244.4 C 1174.1 1245.2, 1173.9 1246.0, 1176.1 1254.5 C 1177.1 1258.3, 1178.7 1265.5, 1179.6 1270.5 C 1181.9 1283.2, 1183.0 1284.0, 1191.6 1279.4 C 1198.2 1275.9, 1202.7 1276.3, 1205.2 1280.6 C 1208.0 1285.5, 1205.9 1288.5, 1194.0 1296.4 C 1188.5 1300.0, 1183.8 1303, 1183.6 1303 C 1183.3 1303, 1178.5 1306.1, 1172.8 1310.0 C 1167.1 1313.8, 1159.5 1319.0, 1156 1321.4 C 1152.4 1323.8, 1147.7 1327.1, 1145.5 1328.8 C 1143.3 1330.5, 1137.7 1334.7, 1133.2 1338.2 C 1120.5 1347.8, 1093.9 1368.9, 1089.5 1372.9 C 1068.8 1391.4, 1056.0 1406.1, 1046.5 1422.2 C 1038.9 1434.8, 1035 1442.2, 1035 1443.5 C 1035 1444.3, 1034.3 1446.4, 1033.4 1448.0 C 1028.2 1458.1, 1024.1 1492.5, 1027.7 1496.1 C 1030.0 1498.4, 1031.6 1495.2, 1032.9 1485.7 C 1036.6 1457.5, 1042.3 1443, 1049.7 1443 C 1053.7 1443, 1056.5 1449.0, 1053.8 1451.7 C 1052.7 1452.8, 1051.6 1457.5, 1048.8 1472.5 C 1048.2 1475.8, 1047.7 1485.1, 1047.6 1493.2 C 1047.6 1506.1, 1047.8 1508.1, 1049.4 1509.9 C 1053.8 1514.8, 1054.6 1512.9, 1055.4 1495 C 1056.3 1472.3, 1061.7 1450.6, 1066.6 1449.3 C 1072.9 1447.7, 1075.4 1452.2, 1073.5 1461.5 C 1071.7 1469.8, 1070.5 1499.4, 1071.7 1506.5 C 1072.3 1510.5, 1072.9 1511.5, 1074.6 1511.8 C 1078.0 1512.2, 1078.7 1509.7, 1079.4 1494.4 C 1079.8 1486.7, 1080.8 1477.8, 1081.6 1474.5 C 1082.5 1471.2, 1083.6 1466.5, 1084.1 1464.0 C 1085.4 1457.5, 1089.4 1452.6, 1092.8 1453.4 C 1094.2 1453.8, 1095.8 1454.6, 1096.2 1455.3 C 1097.4 1457.1, 1097.1 1465.8, 1095.5 1476.5 C 1093.3 1490.9, 1093.4 1502.6, 1095.8 1503.8 C 1096.7 1504.4, 1098.0 1504.5, 1098.6 1504.1 C 1100.0 1503.1, 1103.7 1491.1, 1104.5 1484.8 C 1105.8 1474.1, 1109.8 1463.8, 1119.1 1447.5 C 1125.6 1435.9, 1128.8 1428.2, 1130.1 1421.2 C 1131.4 1413.5, 1134.3 1407.1, 1136.7 1406.3 C 1141.7 1404.8, 1159.6 1397.7, 1164 1395.5 C 1165.3 1394.8, 1171.7 1391.9, 1178.1 1389.1 C 1184.6 1386.2, 1192.6 1382.4, 1196.0 1380.4 C 1199.4 1378.5, 1203.3 1376.7, 1204.6 1376.3 C 1205.9 1376.0, 1207.2 1375.3, 1207.5 1374.8 C 1207.8 1374.3, 1209.5 1373.2, 1211.3 1372.4 C 1213.0 1371.6, 1216.3 1369.8, 1218.5 1368.5 C 1220.7 1367.1, 1223.6 1365.4, 1225 1364.7 C 1226.3 1364.0, 1228.8 1362.6, 1230.5 1361.5 C 1258.6 1343.5, 1264.0 1336.9, 1267.4 1316.9 C 1269.4 1304.9, 1269.2 1293.5, 1266.6 1274.5 C 1265.1 1263.1, 1264.3 1259.5, 1260.4 1242.5 C 1259.5 1238.6, 1258.3 1232.8, 1257.7 1229.5 C 1256.3 1220.8, 1254.1 1219.2, 1248 1222.5 M 850.8 1290.5 C 849.7 1292.5, 849.0 1296.8, 849.6 1298.4 C 851.2 1302.6, 853.4 1297.3, 852.1 1292.4 C 851.7 1290.8, 851.1 1290.0, 850.8 1290.5 M 646.5 1299.5 C 642.2 1301.1, 634.0 1303.2, 622.5 1305.6 C 618.6 1306.4, 613.0 1307.6, 610 1308.4 C 602.2 1310.4, 592.4 1312.8, 586 1314.4 C 582.9 1315.1, 578.3 1316.4, 575.7 1317.3 C 573.0 1318.2, 570.1 1319, 569.0 1319 C 568.0 1319, 565.6 1319.6, 563.6 1320.5 C 561.6 1321.3, 556.7 1322.7, 552.7 1323.5 C 530.5 1328.0, 528.6 1328.6, 525.9 1331.8 C 522.8 1335.6, 519.8 1335.8, 511.7 1333 C 508.6 1331.9, 505.4 1330.9, 504.7 1330.9 C 504.0 1330.9, 502.3 1330.4, 501 1329.7 C 499.6 1329, 494.4 1327.1, 489.5 1325.6 C 484.5 1324.0, 478.4 1321.9, 476 1321.0 C 469.5 1318.5, 462.5 1316.1, 454.6 1313.9 C 446.8 1311.6, 445.4 1311.9, 431.5 1318.9 C 427.1 1321.1, 423.0 1322.9, 422.5 1322.9 C 421.1 1323.0, 403.9 1329.7, 395.5 1333.4 C 382.9 1339.1, 371.0 1344, 369.8 1344 C 369.0 1344, 367.5 1344.6, 366.4 1345.3 C 365.3 1346.1, 362.9 1347.2, 360.9 1347.8 C 355.3 1349.5, 345.6 1352.9, 343.5 1354.0 C 341.6 1354.8, 339.2 1355.7, 328.7 1359.5 C 326.4 1360.3, 323.3 1361.6, 322 1362.3 C 320.6 1363.1, 318.0 1364.0, 316.3 1364.4 C 314.5 1364.8, 312.6 1365.7, 312.0 1366.4 C 311.4 1367.1, 309.4 1368.0, 307.6 1368.4 C 305.8 1368.7, 302.6 1369.9, 300.4 1371.0 C 298.3 1372.1, 295.9 1373, 295.2 1373 C 294.5 1373, 292.3 1373.9, 290.2 1375 C 288.2 1376.1, 286.0 1377, 285.4 1377 C 283.9 1377, 279.3 1382.1, 278.5 1384.7 C 277.5 1388.0, 282.2 1392.0, 293 1397.0 C 301.0 1400.8, 303.8 1402, 304.5 1402 C 305.2 1402, 307.0 1402.8, 318.5 1408.0 C 320.7 1409.0, 323.6 1410.1, 325 1410.5 C 326.3 1410.9, 328.0 1411.7, 328.8 1412.2 C 330.2 1413.4, 338.4 1416.5, 344.5 1418.1 C 349.2 1419.4, 351.4 1421.3, 350.7 1423.2 C 350.3 1424.2, 346.6 1425.0, 337.8 1425.9 C 331.0 1426.6, 324.4 1427.6, 323.1 1428.1 C 321.8 1428.6, 316.1 1429.4, 310.6 1430.0 C 305.0 1430.5, 297.1 1431.6, 293 1432.4 C 288.8 1433.2, 281.4 1434.1, 276.5 1434.5 C 271.5 1434.8, 264.8 1435.7, 261.5 1436.5 C 258.2 1437.2, 251.4 1438.1, 246.5 1438.5 C 241.5 1438.9, 234.5 1439.8, 230.9 1440.5 C 227.3 1441.2, 220.9 1442.1, 216.6 1442.5 C 209.9 1443.1, 208.4 1443.6, 206.4 1445.8 C 201.4 1451.2, 203.3 1455.0, 221.9 1477.2 C 223.2 1478.7, 233.6 1492.2, 245 1507.0 C 249.6 1513.1, 256.4 1521.8, 259.9 1526.3 C 263.5 1530.8, 267.1 1535.3, 267.9 1536.4 C 272.3 1541.9, 282.5 1553.5, 283.2 1553.8 C 283.7 1554.0, 284.9 1555.0, 285.9 1556.1 C 286.8 1557.1, 289.0 1558.4, 290.7 1558.9 C 294.1 1559.9, 308.0 1558.7, 312.3 1557.0 C 313.9 1556.4, 318.4 1555.5, 322.3 1554.9 C 326.2 1554.4, 332.4 1553.3, 336 1552.5 C 353.8 1548.5, 360.9 1547.0, 365.5 1546.4 C 368.2 1546.0, 372.7 1545.1, 375.5 1544.4 C 378.2 1543.7, 383.2 1542.7, 386.5 1542.4 C 389.8 1542.0, 394.1 1541.1, 396.1 1540.4 C 398.0 1539.7, 402.8 1538.8, 406.6 1538.4 C 410.3 1538.0, 415.1 1537.1, 417.1 1536.4 C 419.1 1535.7, 423.4 1534.8, 426.6 1534.4 C 429.8 1534.0, 434.0 1533.1, 436.0 1532.4 C 437.9 1531.8, 442.0 1530.9, 445.0 1530.5 C 448.0 1530.1, 453.8 1528.9, 457.9 1527.9 C 462.0 1526.8, 466.3 1526.0, 467.4 1526.0 C 468.5 1526.0, 473.3 1525.1, 478 1524.0 C 497.7 1519.3, 499.8 1518.9, 521 1514.5 C 525.1 1513.6, 530.5 1512.4, 533 1511.8 C 535.4 1511.2, 540.4 1510.1, 544 1509.4 C 547.5 1508.8, 553.1 1507.5, 556.4 1506.6 C 559.7 1505.7, 563.4 1505, 564.6 1505 C 565.9 1505, 568.4 1504.3, 570.2 1503.5 C 572.0 1502.8, 574.8 1501.6, 576.5 1501.0 C 579.5 1499.9, 583.0 1495.2, 582.9 1492.1 C 582.9 1489.3, 573.1 1480, 570.1 1480 C 569.6 1480, 568.6 1479.3, 568.0 1478.5 C 567.3 1477.7, 564.4 1475.4, 561.6 1473.5 C 558.8 1471.6, 554.4 1468.6, 552 1466.8 C 549.5 1465.1, 542.7 1460.5, 537 1456.6 C 531.2 1452.7, 526.1 1449.0, 525.7 1448.5 C 524.5 1446.7, 524.9 1444.9, 526.7 1444.3 C 530.0 1443.2, 572.6 1422.6, 577 1420.0 C 577.8 1419.5, 581.4 1417.6, 585 1415.9 C 592.8 1412.0, 604.2 1406.0, 608.9 1403.4 C 613.5 1400.8, 620.7 1394.2, 621.5 1391.9 C 622.3 1389.1, 620.2 1386, 617.5 1386 C 614.1 1386, 610.6 1387.5, 577 1404.1 C 560.2 1412.4, 545.1 1419.8, 543.5 1420.5 C 537.2 1423.1, 535.4 1424.0, 534 1424.8 C 533.1 1425.3, 527.2 1428.4, 520.8 1431.5 L 509.2 1437.4 502.3 1432.6 C 494.4 1427.2, 490.5 1424.4, 476.0 1413.7 C 464.3 1405.0, 460.9 1404.2, 448.9 1407.4 C 445.9 1408.2, 439.1 1409.3, 433.8 1409.9 C 428.4 1410.5, 421.2 1411.6, 417.8 1412.4 C 414.3 1413.3, 409.9 1413.9, 407.9 1413.9 C 406.0 1413.9, 401.7 1414.7, 398.4 1415.5 C 387.8 1418.3, 380.7 1418.5, 376.3 1416.2 C 369.9 1412.8, 351.3 1405, 349.8 1405 C 349.0 1405, 347.9 1404.5, 347.4 1404.0 C 346.9 1403.5, 342.4 1401.5, 337.5 1399.6 C 332.5 1397.7, 327.1 1395.4, 325.5 1394.5 C 323.8 1393.7, 322.0 1393.0, 321.6 1393.0 C 321.1 1393.0, 318.8 1392.1, 316.6 1391.0 C 314.3 1390.0, 311.2 1388.8, 309.7 1388.5 C 307.8 1388.1, 307 1387.3, 307 1385.9 C 307 1383.9, 307.9 1383.3, 316 1380.6 C 322.7 1378.4, 329.2 1376.0, 331.5 1375 C 333.3 1374.1, 335.7 1373.2, 346.2 1369.4 C 348.5 1368.6, 351.6 1367.3, 353.1 1366.4 C 354.6 1365.6, 356.6 1364.9, 357.6 1364.9 C 358.6 1364.9, 360.8 1364.1, 362.5 1363.1 C 364.1 1362.1, 366.8 1361.0, 368.5 1360.6 C 371.5 1359.8, 378.0 1357.1, 383.3 1354.4 C 384.8 1353.6, 386.7 1353, 387.3 1353 C 388.0 1353, 390.2 1352.1, 392.2 1351.1 C 394.3 1350.0, 397.2 1348.9, 398.7 1348.5 C 400.2 1348.2, 403.5 1346.9, 406 1345.8 C 413.3 1342.3, 417.6 1340.5, 433 1334.3 C 437.6 1332.4, 442.8 1330.2, 444.5 1329.3 C 448.6 1327.2, 451.4 1327.7, 469 1333.9 C 476.9 1336.7, 485.1 1339.5, 487.2 1340.0 C 489.2 1340.5, 492.3 1341.6, 494.2 1342.4 C 498.1 1344.1, 505.6 1346.5, 512.5 1348.4 C 515.2 1349.1, 518.8 1350.2, 520.5 1350.8 C 527.8 1353.4, 533.9 1355.2, 540.2 1356.5 C 543.8 1357.2, 547.7 1358.3, 548.7 1358.8 C 549.6 1359.3, 552.5 1360.0, 555 1360.5 C 557.4 1360.9, 560.6 1361.8, 562.0 1362.5 C 563.3 1363.2, 566.7 1364.1, 569.5 1364.5 C 572.2 1364.9, 575.9 1365.8, 577.6 1366.5 C 579.3 1367.2, 583.8 1368.3, 587.6 1368.9 C 591.4 1369.5, 596.3 1370.6, 598.5 1371.4 C 600.7 1372.2, 603.8 1372.9, 605.5 1372.9 C 607.1 1372.9, 612.2 1373.9, 616.8 1375.0 C 627.5 1377.5, 628.6 1377.5, 633.1 1374.3 C 639.1 1370.2, 637.8 1365.7, 630 1364.0 C 623.4 1362.6, 613.4 1360.0, 605.9 1357.9 C 602.3 1356.8, 598.5 1356, 597.6 1356 C 596.7 1356, 593.3 1355.1, 590.2 1354 C 587.1 1352.9, 583.4 1351.9, 582.0 1351.9 C 580.6 1351.9, 577.7 1351.2, 575.5 1350.4 C 573.3 1349.6, 569.2 1348.5, 566.4 1348.0 C 557.3 1346.4, 547 1342.9, 547 1341.3 C 547 1339.7, 549.1 1338.8, 557 1337.0 C 560.0 1336.3, 565.4 1334.9, 569 1333.9 C 579.5 1330.9, 588.0 1328.8, 595.5 1327.4 C 599.3 1326.7, 603.6 1325.7, 605 1325.2 C 606.3 1324.6, 609.9 1323.9, 613 1323.5 C 616.0 1323.0, 619.6 1322.2, 621 1321.5 C 622.3 1320.8, 625.3 1319.9, 627.5 1319.6 C 629.7 1319.2, 636.5 1317.5, 642.8 1315.8 L 654.1 1312.6 660.3 1314.9 C 667.7 1317.6, 677.2 1320.4, 690 1323.4 C 695.2 1324.7, 701.3 1326.2, 703.5 1326.8 C 712.8 1329.5, 720.4 1327.3, 719.8 1322.1 C 719.5 1319.8, 718.6 1319.2, 712 1317.1 C 707.8 1315.8, 702.2 1314.0, 699.5 1313.0 C 693.7 1310.9, 686.5 1308.5, 680 1306.4 C 671.7 1303.9, 663.5 1300.8, 662.3 1299.8 C 660.1 1298.0, 650.7 1297.8, 646.5 1299.5 M 1424.6 1322.9 C 1423.1 1323.4, 1421.3 1324.2, 1420.6 1324.7 C 1420.0 1325.2, 1412.0 1328.0, 1403 1330.9 C 1393.9 1333.8, 1384.9 1336.7, 1383 1337.5 C 1375.0 1340.4, 1363.6 1343.9, 1348.5 1347.9 C 1329.9 1352.8, 1328.3 1355.9, 1341.9 1361.2 C 1346.5 1363.0, 1350.6 1362.4, 1359.7 1358.4 C 1361.5 1357.6, 1364.0 1356.9, 1365.2 1356.9 C 1366.5 1356.9, 1369.3 1356.2, 1371.5 1355.3 C 1373.7 1354.5, 1377.3 1353.4, 1379.5 1352.9 C 1385.1 1351.6, 1396.6 1348.0, 1402.1 1345.8 C 1404.7 1344.8, 1407.5 1344, 1408.4 1344 C 1409.2 1344, 1411.9 1343.1, 1414.4 1342 C 1416.9 1340.9, 1421.0 1339.1, 1423.5 1338 C 1426.0 1336.9, 1429.9 1336, 1432.2 1336 C 1434.6 1336, 1439.7 1336.9, 1443.7 1338 C 1447.7 1339.1, 1451.9 1340, 1453.1 1340 C 1454.3 1340, 1459.1 1340.8, 1463.8 1341.9 C 1477.2 1345.0, 1491.0 1347.8, 1496.2 1348.5 C 1502.4 1349.3, 1502.3 1351.0, 1495.7 1353.9 C 1492.8 1355.1, 1488.5 1357.0, 1486.2 1358.1 C 1483.8 1359.1, 1481.3 1360.0, 1480.7 1360.0 C 1480.0 1360.0, 1477.2 1361.1, 1474.5 1362.5 C 1471.7 1363.8, 1468.8 1364.9, 1467.9 1364.9 C 1467.0 1364.9, 1465.9 1365.4, 1465.3 1366.0 C 1464.7 1366.6, 1462.0 1367.7, 1459.3 1368.4 C 1456.7 1369.2, 1451.3 1371.0, 1447.5 1372.5 C 1443.6 1373.9, 1438.1 1375.7, 1435.2 1376.4 C 1432.3 1377.1, 1429.4 1378.1, 1428.7 1378.7 C 1428.0 1379.3, 1425.9 1380.0, 1424 1380.4 C 1422.0 1380.8, 1418.2 1381.9, 1415.5 1382.9 C 1412.7 1383.9, 1408.7 1385.2, 1406.5 1385.8 C 1401.5 1387.1, 1391.1 1390.3, 1384.5 1392.5 C 1378.9 1394.4, 1374 1398.4, 1374 1401.1 C 1374 1404.1, 1378.7 1408.5, 1385.2 1411.7 C 1395.2 1416.7, 1400.5 1419, 1401.8 1419 C 1402.4 1419, 1404.6 1419.9, 1406.7 1421 C 1408.7 1422.1, 1411.0 1423, 1411.7 1423 C 1412.4 1423, 1414.6 1423.9, 1416.7 1425 C 1418.7 1426.1, 1420.9 1427.0, 1421.4 1427.0 C 1423.3 1427.0, 1434.4 1431.8, 1434.7 1432.7 C 1435.1 1433.9, 1425.6 1437.3, 1416 1439.6 C 1405.1 1442.0, 1395.9 1442.4, 1390.2 1440.6 C 1380.9 1437.6, 1375.1 1437.5, 1372.4 1440.0 C 1365.8 1446.2, 1371.6 1450.2, 1394.4 1455.5 C 1400.5 1456.9, 1408.5 1456.2, 1414 1453.8 C 1415.3 1453.2, 1418.9 1452.1, 1422 1451.4 C 1425.0 1450.7, 1428.8 1449.7, 1430.5 1449.1 C 1449.5 1442.4, 1459.5 1441.0, 1466 1444.2 C 1467.9 1445.1, 1471.5 1446.6, 1474 1447.4 C 1476.4 1448.2, 1481.6 1450.0, 1485.5 1451.4 C 1489.3 1452.8, 1497.3 1455.6, 1503.2 1457.6 C 1511.5 1460.4, 1513.7 1461.5, 1512.9 1462.5 C 1511.6 1464.1, 1498.5 1467.4, 1479 1471.1 C 1475.9 1471.6, 1470.5 1472.7, 1467 1473.5 C 1463.4 1474.3, 1457.2 1475.4, 1453.3 1475.9 C 1449.4 1476.5, 1445.0 1477.4, 1443.5 1477.9 C 1442.1 1478.5, 1437.9 1479.4, 1434.3 1480.0 C 1423.2 1481.7, 1419.8 1485.0, 1422.0 1491.7 C 1423.5 1496.4, 1461.9 1535, 1465.0 1535 C 1465.5 1535, 1466 1535.6, 1466 1536.5 C 1466 1538.6, 1461.7 1538.3, 1457.2 1536 C 1455.2 1534.9, 1452.6 1534, 1451.6 1534 C 1449.6 1534, 1441.5 1537.5, 1439 1539.6 C 1438.1 1540.2, 1434.3 1542.4, 1430.5 1544.4 C 1426.6 1546.4, 1421.7 1549.1, 1419.5 1550.4 C 1417.3 1551.7, 1414.1 1553.5, 1412.5 1554.4 C 1409.1 1556.1, 1400.5 1560.9, 1392 1565.8 C 1386.9 1568.7, 1383.6 1570.5, 1375.5 1574.5 C 1373.8 1575.4, 1371.8 1576.4, 1371 1576.9 C 1368.1 1578.6, 1335.4 1594.9, 1333 1595.9 C 1331.6 1596.5, 1329.8 1597.4, 1329 1597.9 C 1328.1 1598.4, 1324.3 1600.2, 1320.5 1602 C 1316.6 1603.7, 1312.8 1605.5, 1312 1606.0 C 1311.1 1606.5, 1309.8 1607.2, 1309 1607.5 C 1303.8 1609.5, 1294.1 1614.5, 1292.2 1616.2 C 1286.2 1621.7, 1293.7 1630.4, 1307.4 1633.9 C 1310.2 1634.5, 1312.9 1635.5, 1313.4 1635.9 C 1314.0 1636.4, 1316.0 1637.1, 1318 1637.5 C 1319.9 1637.9, 1323.0 1639.1, 1324.9 1640.1 C 1326.9 1641.1, 1329.1 1642.0, 1329.9 1642.0 C 1330.8 1642.0, 1332.8 1642.9, 1334.5 1644 C 1336.1 1645.0, 1338.3 1645.9, 1339.2 1645.9 C 1340.2 1645.9, 1342.7 1646.8, 1344.7 1647.8 C 1346.8 1648.8, 1350.0 1650.0, 1352 1650.3 C 1357.5 1651.3, 1362.4 1654.7, 1360.9 1656.5 C 1360.3 1657.3, 1358.7 1658.0, 1357.6 1658.0 C 1356.4 1658.0, 1353.7 1658.9, 1351.5 1660 C 1349.3 1661.0, 1346.8 1661.9, 1346.1 1661.9 C 1345.4 1661.9, 1343.3 1662.6, 1341.6 1663.4 C 1339.9 1664.2, 1336.4 1665.6, 1334 1666.4 C 1331.5 1667.1, 1326.3 1669.0, 1322.5 1670.5 C 1318.6 1671.9, 1313.3 1673.6, 1310.6 1674.3 L 1305.8 1675.4 1298.1 1667.4 C 1288.7 1657.5, 1284.1 1654.5, 1279.7 1655.3 C 1273.3 1656.4, 1263.7 1658.8, 1259.9 1660.4 C 1257.7 1661.2, 1254.8 1662, 1253.5 1662 C 1252.1 1662, 1249.2 1662.7, 1247.0 1663.5 C 1243.3 1665.0, 1239.8 1665.9, 1224 1669.5 C 1220.4 1670.3, 1215.9 1671.6, 1214 1672.3 C 1212.0 1673.1, 1208.2 1674.0, 1205.5 1674.4 C 1202.7 1674.8, 1199.3 1675.7, 1198.0 1676.4 C 1196.6 1677.1, 1193.7 1678.0, 1191.5 1678.3 C 1189.3 1678.7, 1184.5 1679.8, 1181 1680.9 C 1177.4 1681.9, 1172.4 1683.2, 1170 1683.9 C 1167.5 1684.5, 1162.1 1686.0, 1158 1687.1 C 1153.8 1688.2, 1147.8 1689.7, 1144.5 1690.4 C 1141.2 1691.1, 1136.3 1692.4, 1133.7 1693.3 C 1131.0 1694.2, 1128.1 1695, 1127.0 1695 C 1125.0 1695, 1112.2 1699.0, 1110.1 1700.3 C 1105.3 1703.4, 1106.9 1710.5, 1114.8 1720.5 C 1124.8 1733.0, 1147.2 1760.3, 1150.9 1764.5 C 1152.8 1766.7, 1157.2 1771.6, 1160.5 1775.5 C 1177.6 1795.3, 1193.3 1812.4, 1219 1839.3 C 1237.3 1858.6, 1242.4 1863.6, 1244.9 1864.9 C 1247.9 1866.6, 1258.5 1865.6, 1264.9 1863.0 C 1267.4 1862.0, 1271.3 1860.8, 1273.5 1860.2 C 1275.7 1859.6, 1278.8 1858.7, 1280.5 1858.1 C 1287.1 1855.7, 1293.7 1853.8, 1298 1852.9 C 1300.4 1852.4, 1304.0 1851.3, 1306 1850.5 C 1307.9 1849.7, 1311.3 1848.6, 1313.5 1848.0 C 1315.7 1847.5, 1319.4 1846.4, 1321.9 1845.5 C 1326.6 1843.7, 1330.4 1844.1, 1332.9 1846.5 C 1334.3 1847.8, 1343.4 1855.4, 1355.4 1865.5 C 1358.0 1867.7, 1360.7 1869.9, 1361.3 1870.5 C 1363.4 1872.5, 1370.9 1877, 1372.2 1877 C 1372.8 1877, 1375.7 1876.1, 1378.4 1875.1 C 1381.2 1874.0, 1387.1 1872.0, 1391.5 1870.6 C 1399.0 1868.1, 1403.6 1866.5, 1419.7 1860.4 C 1423.4 1859.0, 1428.6 1857.2, 1431.2 1856.4 C 1433.7 1855.6, 1436.1 1854.5, 1436.5 1853.9 C 1436.8 1853.4, 1438.1 1852.9, 1439.3 1852.9 C 1440.5 1852.9, 1443.7 1851.8, 1446.5 1850.4 C 1449.2 1849.1, 1452.0 1848.0, 1452.7 1848.0 C 1453.4 1848.0, 1455.6 1847.1, 1457.7 1846 C 1459.7 1844.9, 1462.0 1844, 1462.7 1844 C 1463.4 1844, 1465.6 1843.1, 1467.7 1842 C 1469.7 1840.9, 1472.0 1840, 1472.7 1840 C 1473.4 1840, 1475.6 1839.1, 1477.7 1838 C 1479.7 1836.9, 1482.0 1836, 1482.7 1836 C 1483.4 1836, 1485.6 1835.1, 1487.7 1834 C 1489.7 1832.9, 1492.1 1832, 1493.0 1832 C 1493.8 1832, 1495.4 1831.3, 1496.5 1830.6 C 1497.6 1829.8, 1500.3 1828.7, 1502.5 1828 C 1504.7 1827.2, 1507.3 1826.1, 1508.4 1825.3 C 1509.5 1824.6, 1511.1 1823.9, 1511.9 1823.9 C 1512.8 1823.9, 1514.6 1823.3, 1516.1 1822.6 C 1517.5 1821.8, 1521.0 1820.4, 1523.8 1819.5 C 1526.6 1818.6, 1529.2 1817.4, 1529.5 1816.9 C 1529.8 1816.4, 1530.7 1816, 1531.6 1816 C 1533 1816, 1537.8 1813.9, 1548.6 1808.9 C 1550.8 1807.8, 1553.0 1807, 1553.3 1807 C 1553.7 1807, 1557.9 1805.1, 1562.7 1802.8 C 1567.5 1800.6, 1574.7 1797.2, 1578.7 1795.3 C 1588.9 1790.5, 1593.0 1786.7, 1592.9 1782.1 C 1592.9 1776.5, 1594.3 1777.7, 1568.5 1760.1 C 1556.8 1752.2, 1551.5 1748.5, 1544 1743.0 C 1540.9 1740.8, 1537.3 1738.2, 1536.0 1737.2 C 1533.3 1735.3, 1519.5 1725.0, 1503.5 1712.8 C 1488.3 1701.2, 1475.7 1689.8, 1476.8 1688.7 C 1477.4 1688.1, 1478.5 1688.2, 1479.9 1688.9 C 1481.1 1689.5, 1485.0 1690.9, 1488.7 1691.9 C 1492.4 1692.9, 1499.1 1694.7, 1503.5 1695.9 C 1507.9 1697.1, 1513.9 1698.7, 1517 1699.4 C 1522.0 1700.6, 1526.5 1701.7, 1539 1704.9 C 1545.4 1706.6, 1557.7 1709.6, 1566.7 1711.8 C 1580.6 1715.2, 1587.4 1716.9, 1592 1718.4 C 1594.4 1719.2, 1598.0 1720.1, 1600 1720.4 C 1603.4 1721.0, 1616.1 1724.2, 1623.2 1726.2 C 1629.9 1728.1, 1633.6 1725.6, 1657.0 1703 C 1682.0 1678.8, 1685.4 1675.6, 1690.5 1671 C 1705.5 1657.5, 1715.5 1648.7, 1721.0 1644 C 1740.4 1627.2, 1749.7 1618.4, 1751.9 1614.5 L 1754.4 1610.3 1752.1 1607.4 C 1749.5 1604.1, 1741.6 1601.5, 1731 1600.4 C 1727.4 1600.1, 1722.0 1599.1, 1719.0 1598.3 C 1716.0 1597.4, 1709.9 1596.2, 1705.5 1595.4 C 1701.1 1594.7, 1695.0 1593.6, 1692 1592.9 C 1676.1 1589.7, 1669.7 1588.5, 1662.5 1587.5 C 1658.2 1586.9, 1654.4 1585.9, 1654.2 1585.3 C 1653.7 1583.5, 1658.9 1581.1, 1666.7 1579.5 C 1674.7 1577.8, 1680.2 1576.4, 1688.7 1573.9 C 1692.1 1572.8, 1696.8 1571.7, 1699.2 1571.3 C 1701.5 1571.0, 1704.6 1570.1, 1706 1569.4 C 1707.3 1568.8, 1710.3 1567.9, 1712.5 1567.5 C 1714.7 1567.1, 1719.2 1566.0, 1722.5 1565.0 C 1730.3 1562.6, 1735.8 1561.3, 1744.8 1559.4 C 1748.9 1558.6, 1754.3 1557.3, 1756.8 1556.5 C 1759.4 1555.7, 1765.3 1554.1, 1770 1553.0 C 1774.6 1551.8, 1781.8 1550.0, 1786 1548.9 C 1790.1 1547.9, 1795.3 1546.7, 1797.5 1546.3 C 1799.7 1545.9, 1802.8 1545.1, 1804.5 1544.4 C 1806.1 1543.7, 1809.9 1542.8, 1813 1542.4 C 1816.0 1542.0, 1819.2 1541.3, 1820.2 1540.8 C 1821.1 1540.3, 1825.4 1539.3, 1829.7 1538.6 C 1848.4 1535.3, 1851.8 1528.4, 1839.4 1518.5 C 1830.1 1511.1, 1806.2 1492.5, 1798.0 1486.5 C 1793.6 1483.2, 1787.7 1478.7, 1784.9 1476.5 C 1782.1 1474.4, 1774.3 1468.7, 1767.6 1463.8 C 1760.9 1459.0, 1750.7 1451.5, 1745 1447.3 C 1718.9 1428.0, 1713.5 1425.3, 1706.5 1427.9 C 1705.1 1428.5, 1699.8 1429.6, 1694.7 1430.4 C 1689.6 1431.2, 1684.1 1432.2, 1682.5 1432.6 L 1679.6 1433.3 1681.7 1430.5 C 1683.9 1427.8, 1687.8 1425.2, 1693.2 1422.9 C 1694.7 1422.3, 1696 1421.4, 1696 1420.9 C 1696 1420.4, 1697.4 1419.3, 1699.2 1418.4 C 1703.8 1416.2, 1707.6 1414.0, 1714 1409.8 C 1717.0 1407.9, 1722.3 1404.5, 1725.7 1402.3 C 1740.9 1393.0, 1743.9 1390.8, 1746.9 1387.2 C 1752.3 1380.6, 1747.8 1373.8, 1737.0 1372.4 C 1733.9 1372.1, 1730.3 1371.2, 1728.9 1370.4 C 1727.6 1369.7, 1724.2 1368.8, 1721.4 1368.4 C 1718.7 1368.0, 1715.1 1367.1, 1713.3 1366.4 C 1711.6 1365.7, 1708.3 1364.9, 1705.8 1364.5 C 1703.4 1364.1, 1699.9 1363.2, 1698 1362.5 C 1694.6 1361.2, 1687.9 1359.4, 1676 1356.5 C 1672.9 1355.8, 1668.2 1354.5, 1665.5 1353.6 C 1662.7 1352.8, 1656.9 1351.1, 1652.5 1349.9 C 1648.1 1348.7, 1642.4 1347.1, 1640 1346.3 C 1637.5 1345.5, 1633.2 1344.3, 1630.4 1343.6 C 1627.6 1342.9, 1624.8 1342.0, 1624.1 1341.6 C 1623.0 1340.8, 1614.8 1338.3, 1604.5 1335.4 C 1599.6 1334.1, 1593.6 1331.9, 1579.2 1326.3 C 1567.1 1321.6, 1564.3 1321.9, 1550.7 1328.9 C 1544.2 1332.2, 1538.3 1335, 1537.6 1335 C 1536.9 1335, 1534.7 1335.8, 1532.6 1336.9 C 1523.2 1341.7, 1520.8 1342.0, 1513.3 1339.3 C 1509.5 1338.0, 1502.6 1336.0, 1498 1334.9 C 1493.3 1333.8, 1485.6 1332.0, 1481 1330.9 C 1476.3 1329.8, 1470.0 1328.4, 1467 1327.8 C 1463.9 1327.3, 1458.1 1326.0, 1454 1324.9 C 1445.2 1322.7, 1428.7 1321.6, 1424.6 1322.9 M 1554.5 1342.9 C 1549 1345.6, 1543.3 1348.3, 1542 1348.9 C 1540.6 1349.5, 1538.8 1350.3, 1538 1350.8 C 1537.1 1351.3, 1534.4 1352.6, 1532 1353.7 C 1529.5 1354.9, 1523.6 1357.6, 1519 1359.8 C 1507.5 1365.1, 1502.6 1367.3, 1495 1370.4 C 1491.4 1371.9, 1486.8 1374.0, 1484.8 1375.0 C 1482.7 1376.1, 1480.5 1377.0, 1479.8 1377.0 C 1479.0 1377.0, 1477.1 1377.7, 1475.5 1378.6 C 1473.8 1379.5, 1470.2 1380.8, 1467.5 1381.5 C 1460.9 1383.3, 1453.6 1385.7, 1447.8 1388.0 C 1445.2 1389.1, 1442.4 1390, 1441.5 1390 C 1440.7 1390, 1438.5 1390.6, 1436.7 1391.4 C 1434.9 1392.1, 1429.4 1394.0, 1424.5 1395.5 C 1405.0 1401.4, 1403 1402.1, 1403 1403.5 C 1403 1404.2, 1404.4 1405.3, 1406.2 1405.8 C 1408.0 1406.4, 1412.6 1408.0, 1416.5 1409.5 C 1420.3 1411.0, 1425.3 1412.8, 1427.5 1413.6 C 1429.7 1414.3, 1432.6 1415.6, 1434.1 1416.5 C 1435.6 1417.3, 1437.5 1418, 1438.5 1418 C 1439.5 1418, 1442.1 1418.8, 1444.3 1419.8 C 1450.7 1422.8, 1469.1 1429.8, 1472.5 1430.5 C 1474.1 1430.9, 1475.9 1431.6, 1476.5 1432.0 C 1477.5 1432.7, 1485.4 1435.9, 1498.5 1440.6 C 1502.3 1442.0, 1507.0 1443.8, 1509 1444.5 C 1515.0 1446.9, 1536.4 1454.2, 1542 1455.8 C 1543.9 1456.3, 1549.3 1458.1, 1554 1459.8 C 1581.5 1469.3, 1582.1 1469.4, 1591.1 1464.4 C 1594.6 1462.5, 1598.8 1460.2, 1600.5 1459.4 C 1602.1 1458.5, 1604.8 1457.0, 1606.5 1456.1 C 1621.4 1447.7, 1627.7 1444.2, 1630.5 1442.5 C 1632.3 1441.4, 1636.8 1438.7, 1640.5 1436.5 C 1644.1 1434.3, 1648.8 1431.5, 1650.8 1430.3 C 1652.8 1429.0, 1655.4 1427.6, 1656.6 1427.0 C 1657.9 1426.5, 1661.1 1424.4, 1664 1422.5 C 1666.8 1420.5, 1670.0 1418.4, 1671.3 1417.9 C 1672.5 1417.3, 1675.3 1415.8, 1677.5 1414.4 C 1679.7 1413.1, 1683.2 1411.0, 1685.3 1409.7 C 1687.5 1408.5, 1689.9 1407.0, 1690.8 1406.4 C 1691.7 1405.9, 1694.7 1404.1, 1697.5 1402.5 C 1700.2 1400.9, 1705.8 1397.2, 1710 1394.4 C 1714.1 1391.6, 1718.2 1389.0, 1719.2 1388.6 C 1721.7 1387.8, 1722.5 1385.1, 1720.8 1383.5 C 1720.1 1382.8, 1716.5 1381.7, 1713 1381.1 C 1709.4 1380.6, 1704.4 1379.5, 1702 1378.7 C 1699.5 1377.9, 1695.2 1376.6, 1692.5 1375.9 C 1689.7 1375.2, 1684.5 1373.8, 1681 1372.9 C 1677.4 1371.9, 1672.4 1370.5, 1670 1369.9 C 1663.8 1368.3, 1652.4 1365.0, 1647 1363.3 C 1640.6 1361.3, 1629.4 1358.1, 1623 1356.5 C 1617.6 1355.1, 1610.7 1353.0, 1604.5 1350.8 C 1602.8 1350.2, 1599.0 1349.1, 1596 1348.3 C 1592.9 1347.4, 1590.0 1346.4, 1589.4 1345.9 C 1588.8 1345.4, 1586.6 1344.6, 1584.4 1344.1 C 1582.2 1343.5, 1577.3 1341.9, 1573.5 1340.5 C 1564.7 1337.3, 1566.2 1337.1, 1554.5 1342.9 M 453 1421.0 C 448.8 1422.0, 433.4 1424.6, 423.5 1426.0 C 419.6 1426.6, 413.5 1427.7, 410 1428.4 C 406.4 1429.2, 401.2 1430.1, 398.5 1430.5 C 395.7 1430.8, 389.4 1431.9, 384.5 1433.0 C 368.3 1436.4, 354.6 1438.8, 348.1 1439.4 C 344.6 1439.7, 338.1 1440.6, 333.6 1441.4 C 319.8 1443.9, 305.0 1446.1, 291.9 1447.5 C 285.0 1448.2, 277.6 1449.2, 275.4 1449.8 C 273.2 1450.4, 267.6 1451.1, 263 1451.5 C 258.3 1451.8, 250.9 1452.8, 246.6 1453.5 C 242.3 1454.3, 235.9 1455, 232.5 1455 C 224.0 1455, 222.9 1456.4, 227.5 1461.5 C 229.4 1463.7, 235.2 1470.8, 240.2 1477.3 C 245.3 1483.8, 259.5 1501.7, 271.9 1517.1 L 294.2 1545.1 297.9 1544.7 C 301.9 1544.2, 309.1 1542.8, 322.5 1540.0 C 333.6 1537.7, 340.7 1536.3, 348.5 1534.9 C 354.3 1533.8, 362.7 1532.1, 382 1528.0 C 398.9 1524.4, 407.3 1522.8, 416 1521.4 C 420.6 1520.7, 427.1 1519.4, 430.4 1518.5 C 433.7 1517.7, 437.6 1517, 439.0 1517 C 440.5 1517, 443.5 1516.3, 445.7 1515.5 C 448.0 1514.7, 452.0 1513.8, 454.6 1513.5 C 457.3 1513.1, 463.1 1512.0, 467.5 1511.0 C 471.9 1510.0, 478.2 1508.7, 481.5 1508.1 C 484.8 1507.6, 489.3 1506.7, 491.5 1506.1 C 498.7 1504.2, 509.3 1501.8, 516.5 1500.4 C 520.3 1499.7, 524.6 1498.7, 526 1498.2 C 527.3 1497.7, 530.8 1496.9, 533.6 1496.6 C 536.5 1496.2, 540.3 1495.3, 542.1 1494.5 C 544.0 1493.8, 547.8 1492.9, 550.7 1492.5 C 553.6 1492.1, 556.2 1491.3, 556.5 1490.8 C 557.4 1489.4, 554.3 1485.2, 551.8 1484.4 C 550.6 1484.0, 546.6 1481.6, 543.0 1479.1 C 539.4 1476.6, 535.1 1473.7, 533.5 1472.5 C 531.8 1471.4, 530.2 1470.2, 530 1469.9 C 529.7 1469.6, 525.6 1466.8, 521 1463.7 C 508.9 1455.6, 502.6 1451.2, 501.4 1450.2 C 500.9 1449.7, 498.2 1447.8, 495.4 1445.9 C 492.7 1444.0, 484.4 1437.9, 477 1432.4 C 464.7 1423.3, 459.1 1419.8, 457.2 1420.1 C 456.8 1420.1, 454.9 1420.5, 453 1421.0 M 1698.5 1443.1 C 1694.6 1443.6, 1690.1 1444.4, 1688.5 1445.0 C 1685.6 1446.0, 1681.5 1446.9, 1663 1450.4 C 1643.1 1454.1, 1635.1 1456.5, 1627 1461.1 C 1626.1 1461.6, 1624.1 1462.7, 1622.5 1463.5 C 1620.8 1464.3, 1617.7 1466.1, 1615.5 1467.4 C 1613.3 1468.8, 1609.9 1470.8, 1608 1472.0 C 1606.0 1473.1, 1602.7 1475.1, 1600.5 1476.4 C 1598.3 1477.8, 1595.3 1479.3, 1594 1479.9 C 1592.6 1480.4, 1590.2 1481.6, 1588.6 1482.4 C 1585.1 1484.3, 1579.7 1484.4, 1576.2 1482.6 C 1574.7 1481.8, 1571.7 1480.9, 1569.6 1480.5 C 1567.4 1480.1, 1564.7 1479.2, 1563.6 1478.5 C 1562.4 1477.7, 1559.7 1476.8, 1557.5 1476.4 C 1555.3 1476.0, 1552.5 1475.1, 1551.2 1474.3 C 1548.4 1472.6, 1540.3 1472.6, 1535.3 1474.3 C 1533.2 1475.0, 1528.6 1476.0, 1525.2 1476.4 C 1521.7 1476.7, 1517.2 1477.6, 1515.2 1478.4 C 1513.1 1479.1, 1508.8 1480.0, 1505.5 1480.4 C 1502.2 1480.7, 1497.4 1481.7, 1495 1482.4 C 1492.5 1483.2, 1487.1 1484.3, 1483.1 1484.9 C 1479.0 1485.5, 1475.0 1486.4, 1474.1 1486.9 C 1473.2 1487.3, 1469.1 1488.2, 1465.1 1488.9 C 1461.0 1489.5, 1456.9 1490.4, 1456.0 1490.9 C 1455.1 1491.4, 1452.0 1492.1, 1449.1 1492.5 C 1441.9 1493.5, 1442.4 1494.9, 1453.2 1504.5 C 1458.1 1508.9, 1469.6 1519.9, 1478.7 1529 C 1496.3 1546.6, 1497.3 1547.2, 1511.0 1550.4 C 1514.1 1551.1, 1517.2 1552.0, 1517.9 1552.4 C 1518.7 1552.9, 1522.0 1553.8, 1525.3 1554.6 C 1533.9 1556.4, 1543.6 1558.8, 1549.5 1560.5 C 1552.2 1561.3, 1556.5 1562.4, 1559 1562.9 C 1564.8 1564.0, 1576.2 1566.7, 1582.5 1568.4 C 1585.2 1569.2, 1590.2 1570.3, 1593.7 1570.9 C 1597.1 1571.5, 1601.4 1572.7, 1603.3 1573.4 C 1608.7 1575.7, 1620.6 1576.2, 1627.5 1574.5 C 1630.8 1573.7, 1637.1 1572.2, 1641.5 1571.2 C 1645.9 1570.1, 1650.5 1568.7, 1651.7 1568.1 C 1652.9 1567.5, 1654.6 1567.0, 1655.6 1567.0 C 1656.6 1567.0, 1660.4 1566.1, 1664 1565.1 C 1671.9 1562.7, 1681.5 1560.3, 1689.5 1558.6 C 1692.8 1557.9, 1696.4 1556.8, 1697.5 1556.3 C 1698.6 1555.7, 1701.7 1554.9, 1704.4 1554.5 C 1707.2 1554.1, 1710.6 1553.2, 1712 1552.5 C 1713.3 1551.7, 1716.7 1550.8, 1719.5 1550.4 C 1722.2 1550.0, 1725.6 1549.2, 1727 1548.7 C 1728.3 1548.1, 1733.1 1546.9, 1737.5 1545.9 C 1741.9 1544.9, 1749.1 1543.2, 1753.5 1542.1 C 1757.9 1541.0, 1765.4 1539.2, 1770.2 1538.0 C 1775.1 1536.9, 1779.4 1535.8, 1779.9 1535.5 C 1780.4 1535.2, 1783.9 1534.3, 1787.6 1533.5 C 1808.1 1529.1, 1818.8 1526.2, 1820.8 1524.4 C 1821.9 1523.4, 1821.0 1522.4, 1816.3 1518.8 C 1802.7 1508.4, 1792.1 1500.4, 1787.5 1496.8 C 1772.9 1485.5, 1760.4 1476.0, 1755.5 1472.5 C 1752.4 1470.3, 1747.2 1466.4, 1744.0 1464 C 1714.1 1441.4, 1713.6 1441.2, 1698.5 1443.1 M 543 1529.4 C 537.7 1531.1, 507.5 1541.2, 501 1543.5 C 498.5 1544.4, 494.6 1545.5, 492.3 1546.0 C 490.0 1546.5, 486.4 1547.6, 484.4 1548.4 C 482.4 1549.3, 479.7 1550.0, 478.6 1550.0 C 477.4 1550.0, 474.7 1550.7, 472.5 1551.6 C 470.3 1552.4, 466.0 1553.7, 463 1554.4 C 459.9 1555.2, 456.1 1556.3, 454.5 1556.9 C 451.2 1558.0, 442.7 1560.3, 433.9 1562.4 C 430.8 1563.1, 427.4 1564.2, 426.4 1564.7 C 425.3 1565.3, 422.2 1566.1, 419.5 1566.4 C 416.7 1566.8, 411.3 1567.9, 407.5 1568.9 C 403.6 1569.9, 395.1 1571.7, 388.5 1572.8 C 381.9 1574.0, 371.5 1575.8, 365.5 1576.9 C 359.4 1577.9, 351.8 1579.1, 348.5 1579.5 C 345.2 1579.9, 339.8 1580.8, 336.5 1581.5 C 333.2 1582.2, 326.6 1583.1, 322 1583.5 C 309.4 1584.6, 305 1587.0, 305 1592.9 C 305 1597.1, 309.1 1600.7, 330 1614.4 C 339.6 1620.7, 348.5 1626.7, 349.9 1627.7 C 352.8 1630.0, 352.1 1633, 348.6 1633 C 347.2 1633, 343.7 1633.8, 340.8 1634.9 C 337.9 1635.9, 332.3 1637.7, 328.5 1638.8 C 302.6 1646.4, 291.1 1649.8, 287.5 1651.1 C 285.8 1651.7, 282.4 1652.6, 280 1653.1 C 277.5 1653.6, 272.3 1654.9, 268.5 1656.1 C 264.6 1657.2, 258.3 1659.0, 254.5 1660.1 C 250.6 1661.2, 244.5 1663.0, 241 1664.0 C 224.1 1668.9, 220.1 1669.9, 215.2 1670.9 C 208.1 1672.3, 204.1 1674.5, 202.9 1677.6 C 200.7 1683.3, 204.2 1687.2, 219 1695.3 C 223.6 1697.9, 228.1 1700.5, 229 1701.0 C 229.8 1701.5, 232.1 1702.8, 234.2 1703.9 C 242.7 1708.5, 245.8 1710.2, 252.1 1713.7 C 255.7 1715.8, 259.3 1717.9, 260.1 1718.5 C 260.8 1719.1, 264.4 1721.1, 268 1722.9 C 271.5 1724.7, 276.3 1727.3, 278.5 1728.6 C 280.7 1729.8, 283.6 1731.4, 285 1732.0 C 288.2 1733.3, 288.7 1733.6, 293.5 1736.5 C 295.7 1737.8, 299.0 1739.7, 301 1740.7 C 302.9 1741.8, 306.3 1743.7, 308.5 1745 C 310.7 1746.2, 314.0 1748.1, 316 1749.2 C 317.9 1750.2, 321.3 1752.1, 323.5 1753.4 C 325.7 1754.8, 328.4 1756.3, 329.7 1756.9 C 330.9 1757.4, 341.2 1763.2, 352.7 1769.7 C 382.6 1786.8, 386.0 1788.1, 392.3 1784.8 C 393.5 1784.1, 396.7 1783.0, 399.5 1782.3 C 402.2 1781.7, 407.6 1779.9, 411.5 1778.4 C 415.3 1777.0, 420.5 1775.2, 423.1 1774.5 C 425.6 1773.7, 429.1 1772.4, 430.8 1771.5 C 432.5 1770.7, 434.4 1769.9, 435.2 1769.9 C 435.9 1769.9, 437.8 1769.2, 439.5 1768.3 C 441.1 1767.4, 444.5 1766.1, 447 1765.4 C 454.2 1763.3, 461.2 1760.8, 464.6 1759.3 C 466.3 1758.6, 468.3 1758, 468.9 1758 C 469.6 1758, 472.2 1757.1, 474.8 1756.0 C 479.7 1754.0, 486.4 1751.7, 494 1749.4 C 498.2 1748.1, 502.4 1746.6, 518.7 1740.4 C 522.4 1739.0, 527.2 1737.4, 529.3 1736.9 C 531.5 1736.3, 534.2 1735.2, 535.3 1734.4 C 536.5 1733.6, 538.2 1733, 539.2 1733 C 540.3 1733, 543.2 1732.1, 545.8 1731.1 C 548.3 1730.1, 552.9 1728.3, 556 1727.2 C 569.9 1722.2, 576.8 1719.5, 580.5 1717.8 C 582.8 1716.8, 585.3 1716, 586.3 1716 C 587.2 1716, 589.6 1715.1, 591.7 1714 C 593.7 1712.9, 596.2 1712, 597.2 1712 C 598.2 1712, 600.6 1711.1, 602.7 1710 C 604.7 1708.9, 607.0 1708, 607.7 1708 C 609.2 1708, 620.2 1703.6, 624.1 1701.4 C 625.6 1700.6, 627.3 1700, 628.0 1700 C 628.7 1700, 631.1 1699.1, 633.3 1698.1 C 639.0 1695.5, 647.9 1692.2, 651.4 1691.3 C 658 1689.8, 665.5 1685.1, 667.5 1681.5 C 669.4 1678.0, 669.4 1678.0, 667.4 1675.3 C 665.2 1672.4, 652.7 1665.7, 640.7 1661.1 C 638.9 1660.4, 638 1659.3, 638 1658 C 638 1655.9, 638.4 1655.6, 646 1653.0 C 647.9 1652.3, 651.6 1650.9, 654.2 1649.9 C 656.8 1648.8, 661.1 1647.1, 663.7 1646.1 C 675.3 1641.4, 686.7 1636.8, 689.5 1635.5 C 691.1 1634.7, 695.2 1632.9, 698.5 1631.4 C 713.3 1624.9, 717.7 1621.2, 716.3 1616.5 C 715.3 1613.0, 713.1 1611.6, 696.5 1603.9 C 691.5 1601.6, 685.2 1598.7, 682.5 1597.5 C 679.7 1596.2, 675.2 1594.2, 672.5 1592.9 C 669.7 1591.7, 659.4 1586.7, 649.5 1581.8 C 632.8 1573.6, 627.1 1570.5, 613.5 1562.8 C 610.7 1561.3, 607.1 1559.3, 605.5 1558.4 C 603.8 1557.6, 600.8 1555.9, 598.8 1554.7 C 596.8 1553.4, 591.9 1550.5, 587.8 1548.2 C 583.8 1545.8, 577.8 1542.1, 574.5 1540.0 C 556.6 1528.4, 551.7 1526.7, 543 1529.4 M 544 1544.4 C 541.5 1545.8, 536.2 1547.7, 527 1550.5 C 522.5 1551.9, 517.0 1553.7, 507.5 1556.9 C 502.1 1558.7, 494.1 1561.2, 479.5 1565.5 C 474.5 1566.9, 469.1 1568.6, 467.5 1569.2 C 465.8 1569.7, 462.0 1570.8, 459 1571.5 C 455.9 1572.3, 449.4 1574.0, 444.5 1575.4 C 433.9 1578.3, 429.6 1579.3, 417.5 1581.9 C 412.5 1583.0, 404.5 1584.8, 399.7 1585.9 C 394.8 1587.0, 389.7 1588.0, 388.2 1588.0 C 386.7 1588.0, 381.4 1588.8, 376.5 1589.9 C 371.5 1590.9, 364.4 1592.0, 360.8 1592.4 C 357.1 1592.8, 351.7 1593.7, 348.8 1594.5 C 345.8 1595.3, 341.9 1596.0, 340 1596.0 C 330.3 1596.2, 330.8 1596.9, 353 1611.6 C 357.6 1614.7, 362.6 1618.0, 364.0 1619.0 C 367.0 1621.0, 370.3 1623.2, 399.5 1642.6 C 411.0 1650.3, 427.6 1661.4, 436.4 1667.4 C 445.2 1673.3, 453.1 1678.5, 454.0 1678.8 C 456.4 1679.8, 475.8 1692.9, 476.5 1694.0 C 477.4 1695.4, 481.7 1695.2, 485.3 1693.5 C 487.0 1692.6, 490.7 1691.3, 493.5 1690.5 C 498.7 1689.1, 506.0 1686.7, 512 1684.5 C 520.4 1681.5, 525.8 1679.7, 530.7 1678.5 C 533.6 1677.8, 536.5 1676.7, 537.2 1676.2 C 537.9 1675.6, 540.2 1674.8, 542.4 1674.4 C 544.6 1674.0, 548.2 1672.8, 550.4 1671.8 C 552.6 1670.8, 555.4 1670.0, 556.5 1670.0 C 557.6 1670, 559.8 1669.2, 561.4 1668.4 C 563.0 1667.6, 565.9 1666.5, 567.9 1666.0 C 569.8 1665.5, 574.6 1663.9, 578.5 1662.4 C 582.3 1661.0, 587.5 1659.1, 590 1658.4 C 592.4 1657.6, 595.8 1656.3, 597.5 1655.6 C 602.2 1653.3, 611.4 1650, 612.6 1650 C 613.7 1650, 621.1 1646.9, 629.6 1642.9 C 631.8 1641.8, 634.2 1641, 634.8 1641 C 635.4 1641, 637.8 1640.1, 640.2 1639.1 C 642.5 1638.0, 646.9 1636.2, 650 1634.9 C 653.0 1633.7, 657.3 1631.9, 659.5 1630.9 C 661.7 1629.9, 664.9 1628.8, 666.6 1628.5 C 668.4 1628.1, 670.3 1627.2, 671.0 1626.4 C 671.7 1625.6, 672.9 1625, 673.7 1625 C 674.5 1625, 677.1 1624.1, 679.3 1623.1 C 681.6 1622.0, 684.7 1620.7, 686.3 1620.0 C 689.1 1618.9, 689.1 1618.8, 687.5 1617.0 C 686.5 1615.9, 683.4 1614.3, 680.6 1613.4 C 677.8 1612.4, 674.7 1611.1, 673.9 1610.3 C 673.0 1609.6, 671.8 1609, 671.2 1609 C 670.5 1609, 664.7 1606.3, 658.2 1603.0 C 651.8 1599.7, 645.3 1596.6, 644 1596.0 C 642.6 1595.4, 637.9 1592.9, 633.5 1590.5 C 629.1 1588.0, 623.7 1585.1, 621.5 1584.0 C 619.3 1582.9, 613.9 1579.9, 609.5 1577.4 C 605.1 1574.9, 600.1 1572.2, 598.5 1571.4 C 596.8 1570.5, 593.4 1568.6, 591 1567 C 588.5 1565.3, 585.1 1563.3, 583.5 1562.5 C 581.8 1561.6, 577.3 1558.9, 573.5 1556.5 C 569.6 1554.0, 565.1 1551.3, 563.5 1550.5 C 561.8 1549.7, 558.2 1547.6, 555.5 1546.0 C 549.8 1542.7, 547.6 1542.4, 544 1544.4 M 947.5 1544.9 C 947.2 1545.4, 944.6 1546.1, 941.7 1546.4 C 925.6 1548.4, 915.3 1550.2, 913.3 1551.3 C 912.1 1551.9, 906.6 1555.5, 900.9 1559.3 C 891.8 1565.5, 872.7 1576, 870.7 1576 C 869.8 1576, 855.1 1582.7, 847.5 1586.7 C 836.2 1592.5, 825.7 1603.0, 820.2 1614 C 816.6 1621.1, 816.5 1622.0, 816.5 1631 C 816.5 1644.0, 819.7 1650.0, 829.5 1655.0 C 834.4 1657.5, 849.8 1657.8, 855.3 1655.5 C 857.3 1654.6, 859.9 1653.9, 861.2 1653.9 C 862.4 1653.9, 865.3 1653.0, 867.5 1652 C 869.7 1650.9, 872.1 1650.0, 873.0 1650.0 C 874.4 1650.0, 889.9 1642.6, 907.5 1633.7 C 910.8 1632.0, 918.4 1628.2, 924.5 1625.3 C 930.5 1622.3, 936.3 1619.4, 937.3 1618.8 C 939.5 1617.6, 948.4 1614.4, 954.5 1612.6 C 956.7 1611.9, 959.4 1610.9, 960.5 1610.3 C 961.6 1609.7, 964.4 1608.6, 966.7 1608.0 C 973.4 1606.2, 973.6 1604.6, 968.4 1594.3 C 966.0 1589.4, 964.0 1584.8, 964.0 1583.9 C 964.0 1583.1, 963.3 1581.5, 962.6 1580.4 C 961.8 1579.3, 960.9 1576.9, 960.5 1575 C 960.1 1573.0, 959.0 1569.0, 958.0 1566 C 957.0 1562.9, 955.7 1557.4, 955.1 1553.7 C 954.6 1549.9, 953.6 1546.2, 952.9 1545.4 C 951.6 1543.8, 948.4 1543.5, 947.5 1544.9 M 1448.6 1551.0 C 1447.0 1551.5, 1445.0 1552.4, 1444.1 1553.2 C 1443.2 1553.9, 1441.3 1555.1, 1440 1555.7 C 1438.6 1556.4, 1436.8 1557.4, 1436 1557.9 C 1435.1 1558.4, 1425.9 1563.6, 1415.5 1569.4 C 1405.0 1575.3, 1395.8 1580.4, 1395 1581.0 C 1385.3 1587.0, 1333.3 1612.5, 1319.2 1618.0 C 1315.2 1619.6, 1316.2 1623.7, 1320.7 1624.5 C 1322.8 1624.8, 1325.8 1625.7, 1327.5 1626.4 C 1329.1 1627.2, 1332.0 1628.3, 1334 1628.9 C 1335.9 1629.4, 1344.0 1632.2, 1352 1635.0 C 1359.9 1637.8, 1368.2 1640.5, 1370.3 1641.0 C 1372.4 1641.6, 1375.1 1642.6, 1376.3 1643.4 C 1381.4 1646.8, 1386.0 1646.4, 1395.5 1641.9 C 1400.4 1639.6, 1406.3 1637.5, 1408.5 1637.2 C 1413.0 1636.7, 1412.6 1636.5, 1428.4 1650.3 C 1433.9 1655.1, 1438.9 1659.4, 1439.5 1659.9 C 1441.4 1661.3, 1450.3 1665.1, 1455 1666.5 C 1457.4 1667.2, 1460.8 1668.2, 1462.5 1668.8 C 1464.1 1669.4, 1469.5 1671.0, 1474.5 1672.4 C 1479.4 1673.9, 1484.8 1675.5, 1486.5 1676.1 C 1491.5 1677.8, 1503.2 1681.0, 1509.5 1682.3 C 1512.8 1683.0, 1516.4 1684.1, 1517.5 1684.7 C 1518.6 1685.2, 1521.5 1686.0, 1524 1686.4 C 1526.4 1686.8, 1531.0 1688.0, 1534.2 1689.0 C 1537.4 1690.1, 1541.1 1691, 1542.5 1691 C 1543.9 1691, 1547.9 1691.8, 1551.3 1692.9 C 1554.7 1694.0, 1559.7 1695.4, 1562.5 1696.0 C 1596.5 1704.2, 1603.0 1705.9, 1615.3 1709.6 C 1619.6 1710.9, 1623.9 1712, 1624.9 1712 C 1625.9 1712, 1633.4 1705.3, 1641.9 1697.0 C 1650.2 1688.8, 1660.9 1678.5, 1665.7 1674.3 C 1670.5 1670.0, 1678.2 1662.8, 1682.9 1658.3 C 1687.6 1653.9, 1693.9 1648.0, 1697.0 1645.3 C 1706.4 1637.0, 1715.2 1629.4, 1721.5 1624.0 C 1731.5 1615.3, 1731.3 1614.7, 1719 1613.0 C 1714.3 1612.4, 1708.2 1611.2, 1705.5 1610.5 C 1702.7 1609.7, 1698.0 1608.8, 1695 1608.4 C 1691.9 1608.1, 1687.7 1607.2, 1685.5 1606.5 C 1683.3 1605.7, 1678.3 1604.8, 1674.5 1604.4 C 1670.6 1604.0, 1666.6 1603.3, 1665.6 1602.8 C 1664.6 1602.2, 1660.1 1601.2, 1655.6 1600.4 C 1648.1 1599.2, 1640.9 1597.6, 1630.5 1594.8 C 1628.3 1594.3, 1623.5 1593.2, 1620 1592.5 C 1616.4 1591.8, 1611.9 1590.8, 1610 1590.2 C 1608.0 1589.6, 1604.4 1588.8, 1602 1588.4 C 1597.5 1587.7, 1578.2 1583.1, 1571.7 1581.1 C 1569.9 1580.6, 1564.7 1579.2, 1560.2 1578.1 C 1555.7 1576.9, 1548.5 1575.1, 1544.2 1574.0 C 1525.8 1569.3, 1523.2 1568.6, 1518 1567.5 C 1514.9 1566.8, 1509.8 1565.5, 1506.5 1564.5 C 1503.2 1563.6, 1497.5 1562.0, 1494 1561.0 C 1490.4 1559.9, 1485.4 1558.6, 1483 1558.0 C 1474.1 1555.7, 1470.4 1554.7, 1464.5 1552.9 C 1456.6 1550.6, 1452.1 1550.1, 1448.6 1551.0 M 1168.7 1581.5 C 1168.2 1582.0, 1161.0 1584.9, 1153.5 1587.6 C 1151.3 1588.4, 1148.6 1589.4, 1147.5 1589.9 C 1145.2 1591.0, 1135.7 1594.4, 1129 1596.4 C 1121.0 1598.9, 1114.5 1601.0, 1111.5 1602.1 C 1108.0 1603.3, 1096.5 1606.5, 1090.2 1608.1 C 1085.5 1609.2, 1084.6 1611.4, 1088.2 1613.0 C 1089.4 1613.5, 1091.1 1614.4, 1092 1614.9 C 1094.9 1616.7, 1124.6 1630.6, 1133.5 1634.3 C 1147.1 1639.9, 1149.8 1640.8, 1157.7 1642.4 C 1165.5 1644.0, 1166.5 1644.0, 1173.9 1642.4 C 1190.3 1638.9, 1196.0 1628.2, 1191.8 1608.9 C 1189.2 1596.6, 1172.9 1577.3, 1168.7 1581.5 M 361.5 1644.0 C 359.3 1645.0, 356.3 1645.9, 355 1646.0 C 353.6 1646.0, 350.7 1646.9, 348.5 1648 C 346.3 1649.0, 343.3 1649.9, 342 1649.9 C 340.6 1650.0, 337.5 1650.9, 335.1 1652.0 C 332.7 1653.1, 330.0 1654.0, 329.1 1654.0 C 328.2 1654.0, 325.7 1654.7, 323.5 1655.6 C 321.3 1656.4, 317.2 1657.7, 314.5 1658.5 C 300.5 1662.4, 295.2 1663.9, 292.5 1664.9 C 288.7 1666.1, 274.9 1670.1, 264.5 1672.9 C 260.1 1674.0, 253.3 1675.9, 249.5 1676.9 C 245.6 1678.0, 240.0 1679.4, 237 1680.1 C 228.7 1682.1, 228.9 1684.5, 237.7 1688.8 C 248.0 1693.8, 259.7 1700.3, 261.1 1701.7 C 261.8 1702.4, 262.8 1703, 263.3 1703 C 264.0 1703, 283.6 1713.7, 289 1717.0 C 289.8 1717.5, 292.0 1718.8, 294 1719.8 C 295.9 1720.8, 299.3 1722.7, 301.5 1724 C 303.7 1725.2, 307.0 1727.1, 309 1728.2 C 310.9 1729.2, 314.5 1731.2, 317 1732.6 C 319.4 1734.0, 324.4 1736.7, 328 1738.6 C 331.5 1740.5, 335.1 1742.4, 336 1742.9 C 341.0 1746.0, 352.7 1752.6, 354.3 1753.2 C 355.3 1753.6, 358.4 1755.4, 361.3 1757.2 C 381.9 1770.2, 386.0 1771.6, 393.6 1768.5 C 399.5 1766.0, 414.6 1761, 416.1 1761 C 416.9 1761, 419.2 1760.1, 421.2 1759 C 423.3 1757.9, 425.6 1757, 426.5 1757 C 427.3 1757, 429.8 1756.1, 432 1755 C 434.1 1753.9, 436.6 1753, 437.5 1753 C 438.4 1753, 440.6 1752.3, 442.3 1751.5 C 444.0 1750.7, 447.5 1749.3, 450 1748.6 C 452.4 1747.8, 457.6 1745.9, 461.5 1744.5 C 465.3 1743.0, 470.5 1741.2, 473 1740.4 C 483.3 1737.3, 493.2 1733.7, 503.1 1729.8 C 505.7 1728.8, 508.5 1728, 509.4 1728 C 510.3 1728, 512.6 1727.1, 514.7 1726 C 516.7 1724.9, 519.2 1724, 520.2 1724 C 521.1 1724, 523.8 1723.1, 526.2 1722.1 C 530.7 1720.1, 534.6 1718.7, 542 1716.2 C 544.4 1715.4, 548.0 1714.2, 550 1713.5 C 551.9 1712.8, 556.6 1711.0, 560.5 1709.6 C 570.6 1705.9, 580.9 1702.1, 585 1700.5 C 586.9 1699.7, 591.2 1698.1, 594.5 1696.9 C 597.8 1695.7, 602.5 1693.9, 605 1693.0 C 607.4 1692.0, 611.0 1690.7, 613 1690.0 C 614.9 1689.3, 618.7 1687.9, 621.5 1686.8 C 624.2 1685.6, 628.3 1684.1, 630.5 1683.3 C 637.8 1680.6, 643.0 1677.7, 642.7 1676.6 C 642.5 1676.0, 640.8 1675.0, 638.9 1674.4 C 634.3 1673.0, 630.6 1671.4, 623.6 1667.8 C 618.1 1664.9, 617.6 1664.8, 612.6 1666.0 C 609.8 1666.7, 606.3 1667.8, 605 1668.6 C 602.5 1669.9, 598.7 1671.3, 588 1674.9 C 584.9 1676.0, 579.3 1678.0, 575.5 1679.4 C 571.6 1680.9, 566.4 1682.6, 564 1683.4 C 561.5 1684.1, 558.1 1685.2, 556.5 1685.8 C 551.0 1687.8, 543.5 1690.1, 539.5 1691.0 C 537.3 1691.5, 533.9 1692.6, 532 1693.4 C 526.8 1695.4, 519.2 1697.9, 512.9 1699.4 C 509.9 1700.2, 506.1 1701.5, 504.4 1702.4 C 502.8 1703.2, 500.6 1703.9, 499.6 1703.9 C 498.7 1703.9, 495.7 1704.9, 493.1 1706.1 C 489.7 1707.7, 486.4 1708.3, 480.4 1708.4 L 472.4 1708.5 463.1 1702.2 C 458.0 1698.8, 453.6 1696, 453.2 1696 C 452.9 1696, 451.2 1694.8, 449.4 1693.5 C 447.6 1692.1, 445.8 1691, 445.5 1691 C 445.1 1691, 443.7 1690.1, 442.2 1689.1 C 438.0 1686.2, 398.0 1659.6, 396.0 1658.5 C 395.1 1657.9, 392.6 1656.1, 390.4 1654.4 C 374.8 1642.4, 369.1 1640.4, 361.5 1644.0 M 1400.5 1656 C 1398.8 1657.0, 1396.8 1657.9, 1396.1 1657.9 C 1395.3 1657.9, 1392.8 1658.8, 1390.6 1659.9 C 1385.7 1662.2, 1380.2 1664.6, 1374 1667.0 C 1371.5 1667.9, 1367.0 1669.7, 1364 1670.9 C 1360.9 1672.1, 1356.7 1673.7, 1354.5 1674.4 C 1352.3 1675.2, 1349.1 1676.5, 1347.5 1677.3 C 1345.8 1678.2, 1343.7 1678.9, 1342.7 1678.9 C 1341.8 1678.9, 1339.1 1679.8, 1336.7 1680.8 C 1334.4 1681.9, 1329.9 1683.7, 1326.7 1684.8 C 1323.5 1685.9, 1318.6 1687.7, 1315.7 1688.8 C 1308.4 1691.5, 1301.0 1693.9, 1283 1699.5 C 1274.0 1702.3, 1268.4 1704.1, 1265.5 1705.1 C 1263.8 1705.7, 1259.3 1707.0, 1255.5 1708 C 1248.4 1709.8, 1246.8 1710.3, 1237.5 1713.5 C 1234.7 1714.4, 1231.0 1715.4, 1229.1 1715.7 C 1222.5 1716.7, 1222.9 1717.3, 1240.3 1736.4 C 1250.9 1748.0, 1290.4 1787.8, 1300.0 1796.5 C 1317.3 1812.3, 1324.7 1819.0, 1327.9 1821.6 C 1329.8 1823.2, 1332.1 1825.1, 1333.0 1826 C 1333.9 1826.8, 1337.7 1830.2, 1341.5 1833.6 C 1345.3 1836.9, 1353.6 1844.3, 1360 1849.9 C 1373.4 1861.8, 1374.2 1861.9, 1391.5 1854.4 C 1393.1 1853.6, 1396.0 1852.6, 1398 1852.1 C 1401.5 1851.0, 1410.2 1847.8, 1420 1843.9 C 1423.0 1842.7, 1427.3 1841.1, 1429.5 1840.3 C 1431.7 1839.5, 1437.3 1837.4, 1442 1835.5 C 1446.6 1833.7, 1454.1 1830.8, 1458.5 1829.2 C 1462.9 1827.5, 1467.8 1825.4, 1469.5 1824.5 C 1471.1 1823.7, 1472.9 1823.0, 1473.5 1823.0 C 1474.0 1822.9, 1477.8 1821.5, 1482 1819.8 C 1490.2 1816.4, 1496.3 1814.0, 1504.1 1811.0 C 1507.0 1809.9, 1509.8 1808.5, 1510.3 1808.0 C 1510.9 1807.4, 1512.0 1806.9, 1512.9 1806.9 C 1513.8 1806.9, 1516.7 1805.8, 1519.5 1804.5 C 1522.2 1803.1, 1525.2 1802.0, 1526.1 1802.0 C 1527.1 1802.0, 1528.1 1801.5, 1528.4 1801.0 C 1528.7 1800.5, 1530.7 1799.6, 1532.7 1798.9 C 1537.6 1797.4, 1549.7 1792.1, 1558.1 1787.8 C 1560.2 1786.8, 1562.3 1786, 1562.9 1786 C 1564.4 1786, 1572 1781.1, 1572 1780.1 C 1572 1779.6, 1570.8 1778.7, 1569.3 1778.1 C 1566.7 1776.9, 1554.1 1768.6, 1539.9 1758.7 C 1532.6 1753.7, 1531.0 1752.5, 1523.5 1747 C 1521.7 1745.6, 1519.2 1743.8, 1518 1743 C 1515.0 1741.0, 1508.8 1736.3, 1507.0 1734.7 C 1506.2 1734.0, 1504.8 1733.0, 1503.9 1732.5 C 1502.9 1731.9, 1500.4 1730.0, 1498.3 1728.2 C 1496.2 1726.4, 1491.6 1722.6, 1488.0 1719.9 C 1484.5 1717.1, 1481.1 1714.3, 1480.5 1713.6 C 1479.9 1712.9, 1477.4 1710.7, 1475 1708.8 C 1467.6 1703.0, 1436.9 1677.9, 1435.0 1676.1 C 1434.1 1675.2, 1430.4 1672.0, 1426.9 1669 C 1423.4 1665.9, 1418.2 1661.3, 1415.4 1658.7 C 1409.5 1653.3, 1405.6 1652.6, 1400.5 1656 M 1268 1673.1 C 1249.8 1678.7, 1233.9 1682.9, 1231.5 1683.0 C 1230.4 1683.0, 1227.7 1683.7, 1225.5 1684.5 C 1223.3 1685.4, 1218.5 1686.7, 1215 1687.5 C 1204.0 1689.9, 1195.6 1692.1, 1192 1693.5 C 1188.7 1694.7, 1184.3 1695.9, 1170 1699.4 C 1166.9 1700.1, 1161.5 1701.5, 1158 1702.4 C 1150.0 1704.5, 1137.9 1707.6, 1132.2 1709.0 C 1127.6 1710.1, 1126.3 1713.4, 1129.5 1716.0 C 1130.3 1716.7, 1135.6 1722.9, 1141.2 1729.9 C 1150.7 1741.8, 1158.3 1750.7, 1167.4 1761.0 C 1169.6 1763.4, 1174.2 1768.6, 1177.5 1772.4 C 1180.8 1776.2, 1184.6 1780.5, 1186 1782.0 C 1190.9 1787.2, 1199.5 1796.6, 1208.5 1806.5 C 1219.1 1818.1, 1221.9 1821.1, 1238.7 1838.3 C 1249.0 1848.8, 1251.7 1851.0, 1253.4 1850.4 C 1254.5 1850.1, 1258.6 1849.0, 1262.5 1848.0 C 1266.4 1847.1, 1270.2 1845.9, 1271.0 1845.4 C 1271.8 1845.0, 1274.2 1844.2, 1276.4 1843.8 C 1278.6 1843.4, 1282.5 1842.5, 1285 1841.6 C 1295.8 1838.0, 1302.7 1836.0, 1306.7 1835.4 C 1310.7 1834.8, 1314 1832.8, 1314 1831.1 C 1314 1830.6, 1310.3 1827.0, 1305.8 1822.9 C 1278.1 1797.8, 1227.5 1746.3, 1210.5 1725.9 C 1204.1 1718.3, 1203 1716.4, 1203 1714.0 C 1203 1708.2, 1204.2 1707.6, 1227.5 1700.8 C 1231.3 1699.7, 1236.9 1697.9, 1239.8 1696.9 C 1242.7 1695.8, 1246.1 1694.9, 1247.3 1694.9 C 1248.5 1694.9, 1250.8 1694.2, 1252.4 1693.4 C 1254.1 1692.5, 1257.6 1691.4, 1260.3 1690.8 C 1262.9 1690.2, 1266.3 1689.1, 1267.8 1688.4 C 1269.2 1687.6, 1271.3 1687.0, 1272.3 1687.0 C 1273.3 1687.0, 1276.2 1686.1, 1278.8 1685.0 C 1281.3 1684.0, 1284.7 1682.8, 1286.2 1682.5 C 1290.0 1681.7, 1289.7 1679.9, 1285.0 1675.1 C 1280.3 1670.3, 1278.1 1670.0, 1268 1673.1 M 724.5 1678.4 C 722.8 1679.1, 719.8 1681.3, 717.8 1683.1 C 715.8 1684.9, 709.3 1691, 703.3 1696.5 C 687.8 1710.8, 684.2 1714.0, 677.2 1719.7 C 673.8 1722.5, 670.0 1725.8, 668.7 1727.0 C 667.5 1728.2, 658.6 1735.4, 649 1743.0 C 639.3 1750.6, 630.6 1757.6, 629.5 1758.6 C 628.4 1759.6, 623.4 1763.5, 618.5 1767.1 C 613.5 1770.8, 606.8 1775.8, 603.7 1778.1 C 594.0 1785.4, 588.5 1789.3, 585.4 1791.5 C 583.8 1792.7, 580.0 1795.3, 577.0 1797.4 C 567.5 1804.1, 557.1 1811, 556.6 1811 C 556.3 1811, 554.6 1812.0, 552.7 1813.2 C 540.7 1821.5, 539.0 1823.8, 541.5 1828.3 C 543.8 1832.6, 550.6 1835.2, 573 1840.4 C 576.0 1841.1, 579.6 1842.1, 581 1842.7 C 582.3 1843.2, 585.7 1844.0, 588.5 1844.4 C 591.2 1844.8, 594.4 1845.6, 595.5 1846.2 C 596.6 1846.8, 600.4 1847.9, 604 1848.5 C 611.0 1849.8, 621.3 1852.2, 630 1854.6 C 633.0 1855.4, 637.7 1856.4, 640.5 1856.9 C 643.2 1857.3, 648.4 1858.4, 652 1859.3 C 664.6 1862.3, 679.2 1865.3, 694.5 1868.0 C 697.8 1868.6, 704.3 1869.9, 709 1871.0 C 713.6 1872.0, 719.7 1873.2, 722.5 1873.6 C 725.2 1873.9, 728.5 1874.6, 729.7 1875.1 C 731.0 1875.5, 735.0 1876.4, 738.7 1876.9 C 742.4 1877.5, 750 1878.8, 755.5 1879.9 C 779.0 1884.5, 792.8 1885.8, 798.6 1884.0 C 807.2 1881.2, 884.2 1800.7, 918.7 1758.4 C 955.7 1712.9, 955.8 1711.3, 920.0 1707.4 C 912.5 1706.6, 904.9 1705.5, 903 1705.0 C 901.0 1704.5, 895 1703.6, 889.5 1703.0 C 884 1702.4, 877.9 1701.5, 876 1701.0 C 874.0 1700.5, 869.1 1699.8, 865 1699.5 C 858.3 1698.9, 846.4 1697.4, 823.5 1694.0 C 812.2 1692.4, 803.0 1690.9, 794.5 1689.3 C 790.1 1688.5, 783.3 1687.4, 779.5 1686.8 C 775.6 1686.3, 771.1 1685.4, 769.5 1684.9 C 767.8 1684.3, 762.9 1683.2, 758.5 1682.4 C 754.1 1681.6, 748.2 1680.4, 745.5 1679.6 C 737.2 1677.3, 727.9 1676.8, 724.5 1678.4 M 728.5 1694.3 C 726.9 1695.5, 723.5 1698.4, 721.0 1700.8 C 711.0 1710.4, 680.8 1737.0, 670.5 1745.5 C 664.4 1750.4, 659.2 1754.7, 659 1755.1 C 658.6 1755.6, 643.0 1768.2, 638.5 1771.7 C 626.2 1781.1, 620.6 1785.3, 615.1 1789.2 C 603.6 1797.3, 597.8 1801.4, 595.5 1803 C 594.2 1803.8, 588.8 1807.4, 583.3 1811.1 C 577.9 1814.7, 572.0 1818.4, 570.2 1819.3 C 568.2 1820.4, 567.2 1821.5, 567.6 1822.4 C 568.2 1824.1, 575.3 1826.5, 582.4 1827.5 C 585.2 1827.9, 588.8 1828.8, 590.4 1829.5 C 592.1 1830.2, 595.9 1831.1, 599 1831.5 C 602.0 1831.9, 605.2 1832.6, 606.2 1833.1 C 607.1 1833.6, 612.1 1834.9, 617.2 1836.0 C 632.5 1839.3, 638.2 1840.6, 644.5 1842.2 C 655.7 1845.1, 668.7 1848, 670.6 1848 C 671.7 1848, 675.9 1848.8, 680.0 1849.9 C 684.1 1851.0, 688.8 1851.9, 690.5 1851.9 C 692.2 1851.9, 696.2 1852.7, 699.5 1853.5 C 702.8 1854.4, 709.3 1855.7, 714 1856.5 C 718.6 1857.3, 724.3 1858.4, 726.5 1858.9 C 732.2 1860.3, 746.0 1862.8, 756.7 1864.4 C 761.8 1865.2, 767.4 1866.3, 769.2 1866.8 C 771.0 1867.4, 776.0 1868.3, 780.3 1868.9 C 784.6 1869.5, 788.5 1870.1, 788.8 1870.4 C 793.1 1873.0, 854.4 1811.1, 892.6 1765.4 C 912.9 1741.1, 919.6 1733.2, 923.0 1729.6 C 924.6 1727.9, 925.9 1725.9, 925.9 1725.2 C 926.0 1723.4, 919.8 1722.0, 904.1 1720.4 C 896.2 1719.6, 889.4 1718.7, 888.9 1718.4 C 888.3 1718.1, 881.6 1717.2, 873.9 1716.4 C 866.2 1715.6, 858.2 1714.6, 856.2 1714.0 C 854.1 1713.5, 849.5 1712.8, 846 1712.4 C 842.4 1712.1, 834.5 1711.0, 828.5 1710.0 C 822.4 1708.9, 814.3 1707.6, 810.5 1707.0 C 785.9 1703.0, 779.3 1701.9, 769.5 1700.1 C 763.4 1699.0, 757.3 1697.7, 756 1697.2 C 754.6 1696.6, 750.8 1695.9, 747.6 1695.5 C 744.4 1695.1, 739.9 1694.1, 737.7 1693.4 C 732.6 1691.6, 732.0 1691.6, 728.5 1694.3" stroke="none" fill="#191919" fill-rule="evenodd"/> </svg>