<svg xmlns="http://www.w3.org/2000/svg" viewBox="0 0 2048 2048" version="1.1"> <path d="M 1114.5 208.4 C 1113.9 208.6, 1112.3 209.0, 1110.8 209.4 C 1109.3 209.7, 1105.7 211.8, 1102.8 214.2 C 1097.6 218.3, 1097.3 218.4, 1091 218.1 C 1081.4 217.7, 1080.1 218.5, 1067.7 232.0 C 1066.2 233.7, 1063.8 234.9, 1061.1 235.3 C 1055.1 236.3, 1049.1 241.0, 1045.5 247.7 C 1043.2 251.9, 1041.7 253.5, 1039.6 254.1 C 1032.0 256.1, 1025.5 264.7, 1024.4 274.5 C 1023.7 280.9, 1025.3 295.5, 1027.0 297.5 C 1028.1 298.8, 1031.4 307.8, 1033.5 315.5 C 1037.6 329.5, 1049.3 346.2, 1065.3 360.5 C 1073.8 368.1, 1074.1 368.5, 1073.5 371.9 C 1071.6 383.8, 1071.6 383.9, 1074.9 394.3 C 1076.6 399.9, 1078.6 405.8, 1079.1 407.5 C 1079.7 409.1, 1080.6 412.3, 1081.2 414.5 C 1083.7 424.8, 1087.2 436.6, 1088.2 438.5 C 1088.8 439.6, 1089.9 442.9, 1090.6 446 C 1091.3 449.0, 1092.6 453.7, 1093.4 456.5 C 1094.3 459.2, 1096.2 465.3, 1097.6 470 C 1099.0 474.6, 1100.7 479.9, 1101.5 481.6 C 1102.2 483.3, 1103.1 486.5, 1103.5 488.6 C 1103.9 490.7, 1104.8 493.4, 1105.5 494.6 C 1106.3 495.8, 1107.4 498.9, 1108.0 501.6 C 1108.7 504.3, 1109.8 507.4, 1110.4 508.5 C 1111.1 509.6, 1112.0 511.9, 1112.4 513.6 C 1112.8 515.3, 1113.9 518.5, 1115.0 520.6 C 1116.1 522.7, 1117 525.2, 1117 526.2 C 1117 527.2, 1117.7 529.4, 1118.5 531.1 C 1119.4 532.8, 1120.7 536.3, 1121.5 538.8 C 1122.2 541.4, 1123.9 546.4, 1125.3 550 C 1126.6 553.5, 1128.3 558.0, 1129.0 560 C 1133.4 572.7, 1151.7 609.7, 1159.4 621.5 C 1166.4 632.2, 1177.8 649.2, 1182.5 655.9 C 1184.1 658.3, 1185.9 661.0, 1186.5 661.9 C 1187.0 662.8, 1188.0 664.2, 1188.7 665.0 C 1189.4 665.8, 1191.8 669.2, 1193.9 672.5 C 1196.1 675.8, 1200.9 682.8, 1204.7 688.2 C 1208.4 693.5, 1214.2 701.8, 1217.5 706.7 C 1220.8 711.5, 1223.7 715.7, 1224.0 716 C 1224.3 716.2, 1225.3 717.6, 1226.2 719 C 1227.2 720.3, 1229.8 724.2, 1232.2 727.6 C 1234.5 730.9, 1238.2 736.3, 1240.4 739.6 C 1242.6 742.8, 1246.0 747.5, 1248 750 C 1251.1 753.8, 1254.1 758.2, 1261 768.5 C 1261.8 769.7, 1264.1 773.2, 1266.2 776.2 C 1268.3 779.2, 1270 782.1, 1270 782.7 C 1270 783.2, 1270.7 784.3, 1271.6 785.0 C 1272.4 785.8, 1273.6 787.3, 1274.1 788.4 C 1274.6 789.5, 1276.3 792.5, 1277.9 795 C 1284.1 804.5, 1287.1 810.3, 1287.5 813.3 C 1289.1 826.3, 1291.0 873.7, 1292.5 935 C 1293.2 964.0, 1291.5 1016.1, 1289.4 1026.9 C 1284.8 1051.1, 1289.6 1090.7, 1298.4 1100.8 C 1300.9 1103.7, 1300.9 1117.7, 1298.4 1141 C 1297.5 1148.9, 1296.2 1165.8, 1295.4 1178.5 C 1293.9 1204.1, 1291.7 1232.6, 1289.5 1256 C 1288.6 1264.5, 1287.7 1276, 1287.4 1281.5 C 1287.1 1287, 1286.0 1301.1, 1284.9 1313 C 1283.9 1324.8, 1282.5 1342.8, 1282.0 1353 C 1281.4 1363.1, 1280.5 1377.1, 1280.0 1384 C 1279.5 1390.8, 1278.6 1410.4, 1278.0 1427.5 C 1277.4 1444.5, 1276.5 1464.1, 1276.0 1471 C 1275.5 1477.8, 1274.6 1514.1, 1274.0 1551.5 C 1273.4 1588.9, 1272.2 1635.2, 1271.4 1654.5 C 1269.4 1700.5, 1269.5 1704.1, 1271.8 1707.1 C 1276.2 1712.7, 1276.2 1713.6, 1272.2 1716.1 C 1264.6 1720.9, 1261.1 1722.9, 1249.5 1728.9 C 1242.9 1732.3, 1236.8 1735.4, 1236 1735.9 C 1231.5 1738.4, 1223.8 1741.8, 1221.1 1742.4 C 1219.5 1742.8, 1217.6 1743.7, 1216.9 1744.5 C 1216.2 1745.3, 1215.2 1746, 1214.7 1746 C 1212.1 1746, 1190.5 1757.6, 1185.4 1761.8 C 1174.9 1770.3, 1169.6 1782.8, 1172.4 1792.5 C 1174.1 1798.3, 1178.2 1802.7, 1183.1 1804.0 C 1184.9 1804.4, 1188.5 1805.5, 1191 1806.3 C 1206.0 1811.2, 1275.2 1810.7, 1295.9 1805.5 C 1298.9 1804.8, 1303.7 1803.8, 1306.4 1803.4 C 1309.2 1803.1, 1312.6 1802.2, 1313.9 1801.5 C 1315.3 1800.8, 1318.3 1799.9, 1320.5 1799.5 C 1322.7 1799.2, 1325.7 1798.4, 1327.3 1797.8 C 1329.7 1796.8, 1331.0 1797.1, 1336.0 1799.5 L 1341.9 1802.3 1360.2 1800.2 C 1390.7 1796.7, 1391.5 1795.8, 1391.4 1766.5 C 1391.4 1755.5, 1390.8 1744.0, 1390.2 1741 C 1387.3 1726.7, 1387.3 1726.3, 1392.3 1721.4 C 1396.3 1717.5, 1396.9 1716.4, 1397.5 1711.2 C 1397.8 1708.1, 1398.5 1703.7, 1399.0 1701.5 C 1399.5 1699.3, 1400.3 1688.2, 1400.9 1677 C 1401.5 1665.7, 1402.7 1650.2, 1403.4 1642.5 C 1404.2 1634.8, 1405.1 1623.3, 1405.4 1617 C 1405.8 1610.6, 1406.7 1600.5, 1407.5 1594.5 C 1408.2 1588.4, 1409.4 1576.3, 1410.0 1567.5 C 1410.6 1558.7, 1411.5 1549.2, 1412.0 1546.5 C 1412.5 1543.7, 1413.4 1534.7, 1414.0 1526.5 C 1414.6 1518.2, 1415.7 1507.9, 1416.4 1503.5 C 1417.2 1499.1, 1418.1 1492.1, 1418.5 1488 C 1418.8 1483.8, 1420.0 1475.5, 1421.0 1469.5 C 1422.1 1463.5, 1423.0 1456.8, 1423.0 1454.5 C 1423.0 1452.3, 1423.6 1447.4, 1424.4 1443.6 C 1425.2 1439.8, 1426.4 1432.0, 1427.0 1426.1 C 1427.5 1420.2, 1428.7 1412.3, 1429.4 1408.5 C 1430.2 1404.6, 1431.4 1397, 1432.0 1391.5 C 1432.6 1386, 1433.7 1378.2, 1434.5 1374.2 C 1435.3 1370.3, 1436 1364.9, 1436 1362.2 C 1436 1359.5, 1436.6 1354.7, 1437.5 1351.5 C 1438.3 1348.3, 1439.5 1341.1, 1440.0 1335.6 C 1440.9 1326.7, 1442.6 1315.9, 1444.8 1305.1 C 1445.8 1300.2, 1447.3 1300.8, 1448.2 1306.5 C 1448.7 1309.2, 1449.9 1315.5, 1451.0 1320.5 C 1452.0 1325.4, 1453.2 1331.5, 1453.5 1334 C 1453.8 1336.4, 1454.7 1340.7, 1455.5 1343.5 C 1456.8 1348.3, 1459.1 1359.8, 1461.1 1371 C 1461.6 1374.0, 1462.5 1378.5, 1463.1 1381 C 1463.6 1383.4, 1464.9 1390, 1465.9 1395.5 C 1467.0 1401, 1468.2 1406.6, 1468.7 1408 C 1469.2 1409.3, 1470.0 1413.3, 1470.4 1416.7 C 1470.7 1420.2, 1471.6 1424.7, 1472.4 1426.7 C 1473.1 1428.8, 1474.0 1433.0, 1474.4 1436.0 C 1474.7 1439.0, 1475.9 1445.3, 1476.9 1450 C 1479.2 1460.1, 1481.8 1473.2, 1483.2 1481.5 C 1483.7 1484.8, 1484.8 1489.6, 1485.6 1492.3 C 1486.4 1494.9, 1487.7 1500.3, 1488.4 1504.3 C 1490.2 1513.3, 1493.7 1528.5, 1494.9 1532.5 C 1495.4 1534.1, 1496.2 1538.2, 1496.5 1541.5 C 1496.9 1544.8, 1498.1 1549.9, 1499.1 1552.9 C 1500.1 1555.8, 1501.0 1559.7, 1501.0 1561.4 C 1501.0 1563.1, 1501.7 1566.3, 1502.5 1568.5 C 1503.3 1570.7, 1504.7 1575.6, 1505.4 1579.5 C 1506.8 1586.1, 1507.7 1589.9, 1511.9 1607 C 1512.9 1611.1, 1514.1 1616.9, 1514.5 1620 C 1514.9 1623.0, 1515.6 1626.3, 1516.1 1627.2 C 1516.6 1628.2, 1517.7 1632.7, 1518.5 1637.2 C 1519.3 1641.8, 1521.1 1651.1, 1522.5 1658 C 1523.8 1664.8, 1525.6 1674.5, 1526.5 1679.5 C 1527.3 1684.4, 1528.5 1689.9, 1529.1 1691.7 C 1529.6 1693.5, 1530.9 1699.3, 1531.9 1704.7 C 1535.3 1722.4, 1537.7 1727.8, 1543.1 1729.5 C 1544.1 1729.8, 1545 1730.8, 1545 1731.6 C 1545 1733.3, 1535.9 1744.3, 1532 1747.4 C 1530.6 1748.5, 1526.1 1752.6, 1522 1756.6 C 1517.8 1760.5, 1507.3 1769.6, 1498.5 1776.7 C 1481.1 1790.8, 1477.7 1794.4, 1473.6 1803.3 C 1466.6 1818.8, 1472.0 1830.4, 1489 1836.0 C 1496.2 1838.4, 1497.3 1838.4, 1521.5 1838.3 C 1550.1 1838.0, 1555.9 1837.0, 1581 1827.7 C 1586.6 1825.6, 1606.2 1816.6, 1609 1814.9 C 1612.5 1812.6, 1623.3 1808, 1624.8 1808 C 1625.8 1808, 1629.1 1807.1, 1632.2 1806 C 1635.3 1804.9, 1638.5 1803.9, 1639.2 1803.9 C 1641.3 1803.9, 1651.6 1798.4, 1655.0 1795.6 C 1656.7 1794.2, 1658.5 1791.5, 1659.0 1789.7 C 1661.2 1781.9, 1659.1 1749.7, 1655.4 1735.5 C 1653.0 1726.1, 1653.1 1724.8, 1656.9 1721.0 C 1659.7 1718.2, 1661.3 1709.2, 1660.1 1702.3 C 1659.5 1699.1, 1658.8 1690.4, 1658.4 1683 C 1658.1 1675.5, 1657.3 1667.0, 1656.8 1664 C 1656.3 1660.9, 1655.2 1652.8, 1654.5 1646 C 1653.0 1632.1, 1650.9 1616.0, 1647.9 1594 C 1646.8 1586.0, 1645.5 1575.7, 1645.0 1571.2 C 1644.4 1566.6, 1643.8 1562.5, 1643.5 1562.0 C 1642.9 1561.0, 1639.8 1539.3, 1637.8 1522.5 C 1637.3 1517.5, 1636.0 1509, 1634.9 1503.5 C 1633.9 1498, 1632.8 1489.6, 1632.4 1485 C 1632.1 1480.3, 1631.2 1472.5, 1630.4 1467.7 C 1629.7 1462.9, 1628.8 1453.2, 1628.4 1446.2 C 1628.1 1439.2, 1627.2 1428.7, 1626.4 1423 C 1625.7 1417.2, 1624.3 1401.2, 1623.5 1387.5 C 1622.6 1373.7, 1621.7 1361.8, 1621.5 1361 C 1621.2 1360.1, 1620.6 1342.6, 1620.0 1322 C 1619.4 1301.3, 1618.2 1274.8, 1617.4 1263 C 1616.6 1251.1, 1615.5 1232.5, 1614.9 1221.5 C 1614.3 1210.5, 1613.2 1195.4, 1612.5 1188 C 1611.7 1180.5, 1610.8 1170.6, 1610.4 1166 C 1610.1 1161.3, 1609.2 1153.9, 1608.5 1149.5 C 1607.7 1145.1, 1606.8 1138.8, 1606.5 1135.5 C 1606.1 1132.2, 1605.1 1125.6, 1604.3 1120.8 C 1602.7 1112.4, 1602.7 1112.1, 1604.8 1107.8 C 1606.0 1105.3, 1607 1102.9, 1607 1102.5 C 1607 1102.0, 1607.6 1100.9, 1608.3 1100.0 C 1609.6 1098.6, 1610.7 1095.1, 1614.1 1082.5 C 1614.8 1079.9, 1615.2 1051.7, 1615.4 1002.5 C 1615.5 944.2, 1616.0 920.9, 1617.2 902.5 C 1618.1 889.3, 1619.4 866.0, 1619.9 850.8 C 1621.3 814.2, 1621.5 813.6, 1639.1 788.5 C 1645.7 779.0, 1659.2 759.1, 1668.9 744.5 C 1673.3 737.9, 1678.4 730.4, 1680.2 728 C 1682.0 725.5, 1685.1 721.0, 1687.0 718 C 1688.8 714.9, 1690.7 712.2, 1691.0 712 C 1691.3 711.7, 1695.6 705.5, 1700.5 698.1 C 1705.4 690.8, 1711.3 682.2, 1713.5 679.0 C 1724.5 663.0, 1746.4 629.4, 1750.4 622.5 C 1751.3 620.8, 1753.1 617.8, 1754.3 615.8 C 1760.1 605.9, 1764.0 598.5, 1769.7 586 C 1771.4 582.4, 1773.7 577.4, 1774.8 574.9 C 1776.0 572.4, 1777 569.7, 1777 568.8 C 1777 568.0, 1777.4 566.9, 1777.9 566.4 C 1778.5 565.8, 1779.8 562.9, 1780.8 559.9 C 1781.9 556.9, 1784.0 551.3, 1785.4 547.5 C 1786.9 543.6, 1788.7 538.6, 1789.5 536.3 C 1790.2 534.0, 1791.5 530.8, 1792.4 529.1 C 1793.2 527.4, 1794 525.3, 1794 524.4 C 1794 523.4, 1794.8 520.8, 1795.9 518.6 C 1798.0 514.1, 1800.3 507.2, 1802.5 499.5 C 1804.3 492.8, 1806.8 485.4, 1809.0 480.3 C 1810.0 478.0, 1811.1 474.4, 1811.5 472.3 C 1811.9 470.2, 1812.7 467.6, 1813.2 466.5 C 1813.8 465.4, 1815.0 461.6, 1816.0 458.0 C 1816.9 454.4, 1818.2 450.1, 1818.8 448.5 C 1821.0 442.4, 1823.1 435.3, 1824.4 430 C 1825.1 426.9, 1826.2 423.2, 1826.8 421.6 C 1827.5 420.0, 1828.6 416.0, 1829.4 412.6 C 1830.2 409.2, 1832.0 402.4, 1833.4 397.5 C 1838.3 380.9, 1838.6 378.5, 1836.1 375.4 C 1834.9 373.9, 1834 372.0, 1834 371.3 C 1834 370.5, 1839.0 365.0, 1845.1 359.1 C 1863.1 341.9, 1874.3 325.7, 1876.6 313.8 C 1877.0 311.9, 1877.9 309.1, 1878.8 307.5 C 1883.6 297.9, 1885.6 272.1, 1882.0 265.1 C 1879.8 260.8, 1872.9 254.6, 1869 253.5 C 1865.2 252.3, 1864.2 251.2, 1863.5 247.5 C 1863.2 245.7, 1861.2 242.2, 1859.1 239.9 C 1855.5 235.9, 1854.9 235.6, 1849.1 235.2 C 1843.1 234.7, 1842.8 234.6, 1840.9 230.9 C 1836.7 222.5, 1827.5 217.4, 1818.3 218.3 L 1811.9 218.9 1807.2 214.5 C 1797.1 205.0, 1783.9 206.2, 1774.7 217.5 C 1771.8 221.1, 1767 231.9, 1767 234.9 C 1767 239.9, 1764.3 243.6, 1758.6 246.5 C 1750.7 250.5, 1742.8 259.0, 1739.3 267 C 1736.8 273.0, 1736.6 274.4, 1736.6 287.5 C 1736.6 298.3, 1737.0 302.5, 1738.3 306 C 1739.3 308.4, 1740.5 312.0, 1741.1 313.9 C 1741.7 315.8, 1742.7 318.2, 1743.4 319.4 C 1744.2 320.5, 1745.1 322.6, 1745.5 324 C 1745.9 325.3, 1747.0 327.5, 1748.0 328.7 C 1751.2 332.8, 1751.5 338.7, 1748.8 341.8 C 1745.9 345.0, 1741 352.2, 1741 353.3 C 1741 354.0, 1738.2 360.4, 1733.9 369.6 C 1732.8 371.8, 1732.0 374.1, 1732.0 374.6 C 1732.0 375.0, 1731.1 377.3, 1730.0 379.5 C 1728.2 383.3, 1725.6 389.1, 1720.9 399.5 C 1719.7 402.2, 1716.9 408.3, 1714.8 413 C 1709.2 425.0, 1703.7 437.1, 1701.1 443 C 1700.5 444.3, 1699.5 446.1, 1699.0 447 C 1698.5 447.8, 1691.9 461.1, 1684.4 476.5 C 1676.9 491.9, 1670.4 505.2, 1669.9 506.2 C 1669.3 507.2, 1666.3 513.1, 1663.1 519.2 C 1659.9 525.4, 1656.2 532.0, 1654.9 534 C 1650.2 540.7, 1645.4 547.1, 1638.5 555.9 C 1634.6 560.8, 1630.6 566.0, 1629.5 567.6 C 1628.4 569.1, 1626.7 571.2, 1625.7 572.2 C 1624.7 573.2, 1622.3 576.0, 1620.4 578.5 C 1618.5 581.0, 1616.4 583.7, 1615.7 584.5 C 1615.0 585.3, 1613.6 587.1, 1612.5 588.5 C 1611.4 590.0, 1609.6 592.2, 1608.5 593.4 C 1577.3 629.3, 1548.4 659, 1544.5 659 C 1542.8 659, 1541.6 658.2, 1540.9 656.7 C 1539.5 653.4, 1531.4 642.1, 1526.9 637.2 C 1521.4 631.4, 1520.9 629.4, 1521.9 620.2 C 1523.1 610.3, 1523.3 609.8, 1529.6 601.5 C 1541.4 585.6, 1544.2 582.8, 1551.4 579.1 C 1561.3 574.0, 1569.3 565.6, 1575.2 554.1 C 1581.5 541.7, 1582.9 533.1, 1581.0 516.6 C 1579.7 505.7, 1579.7 504.6, 1581.4 501.2 C 1582.4 499.1, 1583.8 495.2, 1584.5 492.5 C 1585.2 489.7, 1586.5 485.0, 1587.3 482 C 1590.4 470.2, 1592.2 457.9, 1592.7 444.5 C 1593.9 410.1, 1580.7 385.1, 1554.6 372.1 C 1546.7 368.2, 1546.4 367.9, 1543.5 361.8 C 1535.5 344.4, 1526.1 334.8, 1508.5 326.2 C 1498.5 321.3, 1492.7 319.1, 1488.0 318.4 C 1485.5 318.0, 1481.7 317.1, 1479.6 316.3 C 1474.1 314.4, 1443.2 314.4, 1436.4 316.4 C 1433.7 317.1, 1429.2 318.0, 1426.5 318.4 C 1423.7 318.7, 1418.1 319.9, 1414 321.0 C 1393.8 326.2, 1379.0 327.9, 1370.5 326.0 C 1355.6 322.6, 1352.7 321.8, 1350.7 320.6 C 1349.5 319.8, 1347.0 318.8, 1345.3 318.5 C 1343.5 318.1, 1341.6 317.2, 1340.9 316.4 C 1340.2 315.6, 1338.1 315.0, 1336.1 315.0 C 1330.6 315.0, 1326.8 322.2, 1326.2 333.8 L 1325.7 342.1 1322.6 341.5 C 1320.9 341.2, 1317.9 339.8, 1315.9 338.4 C 1308.8 333.5, 1303.6 337.1, 1300.3 349 C 1299.7 351.4, 1298.5 356.0, 1297.6 359.0 C 1295.9 365.4, 1296.3 376.5, 1298.4 382 C 1299.2 383.9, 1300.0 386.6, 1300.3 388 C 1300.6 389.3, 1302.5 392.8, 1304.4 395.7 C 1307.7 400.8, 1307.8 401.2, 1306.5 404.2 C 1298.7 422.1, 1298.0 441.6, 1304.4 459.6 L 1307.8 469.1 1306.7 478.8 C 1304.6 496.7, 1305.2 549.0, 1307.6 568.5 C 1308.8 577.8, 1310.5 587.1, 1311.4 589.2 C 1312.2 591.2, 1313 593.7, 1313 594.7 C 1313 595.7, 1313.9 598.3, 1315 600.5 C 1316.9 604.4, 1317.7 610, 1316.2 610 C 1315.0 610, 1306.2 600.4, 1296.4 588.3 C 1291.5 582.3, 1286.5 576.5, 1285.2 575.2 C 1284.0 574.0, 1282.9 572.7, 1282.9 572.2 C 1282.9 571.8, 1280.9 569.3, 1278.5 566.7 C 1272.9 560.8, 1260.3 545.0, 1255.9 538.5 C 1250.1 529.7, 1249.6 528.7, 1242.6 514.5 C 1236.5 502.0, 1234.3 497.3, 1230.1 488 C 1229.5 486.6, 1228.6 484.8, 1228.0 484 C 1227.5 483.1, 1225.9 479.8, 1224.4 476.5 C 1221.3 469.6, 1220.7 468.2, 1219.2 465.5 C 1217.6 462.6, 1206.0 437.5, 1202.0 428.5 C 1200.8 425.7, 1199.0 421.7, 1198.0 419.5 C 1195.7 414.4, 1191.1 404.4, 1189.4 400.5 C 1188.7 398.8, 1186.9 394.9, 1185.5 391.8 C 1184.1 388.6, 1183 385.6, 1183 385.0 C 1183 384.3, 1182.1 382.2, 1181.0 380.1 C 1179.9 378.1, 1178.0 374.0, 1176.6 371 C 1175.2 367.9, 1172.3 361.6, 1170.2 357 C 1168.1 352.3, 1165.7 347.0, 1165.0 345.2 C 1164.3 343.5, 1162.7 341.3, 1161.3 340.5 C 1158.2 338.4, 1158.3 336.7, 1162.0 329.6 C 1163.6 326.3, 1165 323.2, 1165 322.5 C 1165 321.9, 1165.9 319.6, 1167.0 317.4 C 1168.1 315.2, 1169.7 310.8, 1170.5 307.5 C 1171.4 304.2, 1172.5 299.9, 1173.0 298 C 1174.9 290.6, 1174.1 276.5, 1171.3 268.2 C 1167.0 255.9, 1163.4 251.7, 1152.3 246.4 C 1145.1 243.0, 1145.1 242.9, 1144.4 238.2 C 1143.0 227.9, 1133.1 212.4, 1126.5 210.0 C 1123.9 209.0, 1115.8 208.0, 1114.5 208.4 M 1111.9 225.7 C 1108.1 230.5, 1110.9 240.8, 1116.6 243.0 C 1120.3 244.4, 1128.9 244.2, 1129.5 242.7 C 1130.2 240.8, 1125.2 227.9, 1122.7 225.2 C 1119.7 221.9, 1114.7 222.2, 1111.9 225.7 M 1787.7 224.7 C 1785.1 227.6, 1781 237.6, 1781 240.9 C 1781 243.9, 1781.1 244, 1785.5 244 C 1791.7 244, 1796.7 241.7, 1798.0 238.2 C 1799.4 234.8, 1798.7 226.6, 1797.0 224.5 C 1795.3 222.4, 1789.6 222.5, 1787.7 224.7 M 1818.8 232.6 C 1816.7 233.2, 1812 241.0, 1812 244.0 C 1812 245.2, 1812.9 247.8, 1814.1 249.7 C 1818.3 256.5, 1812.8 272.3, 1803.5 280.0 C 1799.3 283.6, 1806.4 287.7, 1811.2 284.5 C 1815.7 281.6, 1824.7 256.4, 1826.6 242 C 1827.1 238.1, 1826.8 237.1, 1824.6 234.7 C 1822.0 231.9, 1821.8 231.8, 1818.8 232.6 M 1085.3 235.7 C 1083.6 237.2, 1082.0 239.2, 1081.6 240.1 C 1081.0 242.1, 1083.1 250.2, 1085.3 254.5 C 1086.2 256.1, 1086.9 258.3, 1086.9 259.3 C 1086.9 260.2, 1087.7 262.5, 1088.6 264.3 C 1089.5 266.0, 1090.6 268.8, 1091.0 270.5 C 1091.5 272.1, 1093.1 276.5, 1094.6 280.3 C 1097.0 286.2, 1097.7 287.0, 1099.4 286.4 C 1100.5 286.1, 1103.7 285.1, 1106.3 284.4 C 1109.0 283.6, 1111.5 282.7, 1111.8 282.4 C 1112.8 281.4, 1109.5 280.0, 1106.1 280.0 C 1102.6 279.9, 1097.7 275.7, 1095.9 271.1 C 1094.4 267.3, 1094.8 256.2, 1096.5 252.8 C 1098.0 250.0, 1098.0 249.1, 1096.6 244.1 C 1095.8 241.0, 1094.9 237.2, 1094.5 235.7 C 1093.7 232.0, 1089.6 232.0, 1085.3 235.7 M 1063.1 249.6 C 1062.4 249.9, 1060.7 251.3, 1059.3 252.7 C 1056.5 255.5, 1056.5 256.7, 1059.5 265.5 C 1061.7 272.1, 1061.6 271.8, 1064.7 277.2 C 1075.4 295.4, 1074.8 294.7, 1079.3 293.0 C 1082.6 291.8, 1082.8 288.1, 1080 282.7 C 1078.9 280.6, 1078 278.2, 1078 277.3 C 1078 276.3, 1077.1 273.8, 1076.0 271.5 C 1074.9 269.3, 1073.3 265.4, 1072.4 263 C 1067.1 248.5, 1066.9 248.1, 1063.1 249.6 M 1840.6 251.2 C 1839.2 252.6, 1838.0 255.4, 1837.6 258.0 C 1836.8 263.3, 1833.4 273.5, 1830.3 280.5 C 1826.8 288.1, 1826.3 291.6, 1828.7 292.8 C 1834.2 295.7, 1837.2 291.9, 1848.8 266.9 C 1852.1 259.8, 1850.9 252.6, 1846.0 250.0 C 1843.4 248.6, 1843.2 248.6, 1840.6 251.2 M 1109.3 259.4 C 1107.6 264.0, 1114.5 269.8, 1124 271.5 C 1125.9 271.8, 1129.9 273.3, 1133 274.8 C 1138.0 277.2, 1138.5 277.7, 1138.8 281.2 C 1139.1 285.3, 1135.7 289.4, 1129.5 292.4 C 1126.7 293.7, 1123.3 296.9, 1120.1 301.2 C 1118.9 302.7, 1116.9 309.6, 1113.8 322.4 C 1112.6 327.6, 1111.3 329, 1108 329 C 1104.4 329, 1102.8 327.0, 1102.2 321.5 C 1101.6 316.2, 1103.5 304.3, 1105.5 301.3 C 1107.9 297.6, 1104.4 296.6, 1100.2 300 C 1098.8 301.1, 1096.8 302, 1095.8 302 C 1094.7 302, 1092.2 302.8, 1090.1 303.9 C 1083.5 307.4, 1079.7 309, 1077.5 309 C 1076.3 309, 1074.2 310.1, 1072.9 311.5 C 1066.8 318.0, 1059.2 320.3, 1053.5 317.4 C 1043.0 311.9, 1052.3 327.2, 1069.1 342.8 C 1081.0 353.9, 1086.1 359.2, 1087.0 361.7 C 1088.2 364.8, 1091.6 364.6, 1099.5 361 C 1103.0 359.3, 1106.2 358, 1106.7 358 C 1107.1 358, 1109.0 357.1, 1111.0 356.1 C 1112.9 355.1, 1115.9 353.9, 1117.6 353.5 C 1119.3 353.1, 1122.5 352.0, 1124.6 350.9 C 1126.7 349.8, 1129.1 348.9, 1129.9 348.9 C 1130.8 348.9, 1133.9 347.6, 1137 346.1 C 1142.2 343.5, 1142.5 343.2, 1143.0 338.9 C 1143.5 334.6, 1147.1 324.8, 1150.4 318.4 C 1151.2 316.8, 1151.9 314.9, 1151.9 314.2 C 1151.9 313.4, 1152.7 311.4, 1153.6 309.7 C 1157.9 301.5, 1159.9 283.6, 1157.5 274.7 C 1153.9 261.5, 1148.5 258.6, 1126.2 258.1 C 1112.1 257.8, 1109.9 258.0, 1109.3 259.4 M 1778 258.9 C 1762.2 259.7, 1758.0 261.6, 1753.6 270.0 C 1750.9 275.1, 1750.7 276.2, 1750.7 286.2 C 1750.7 297.6, 1751.9 302.4, 1757.7 315 C 1765.8 332.7, 1767 335.7, 1767 339.5 C 1767 343.1, 1771.0 346.7, 1777 348.4 C 1780.9 349.5, 1793.1 354.0, 1797.6 356.1 C 1799.8 357.1, 1802.0 358, 1802.4 358 C 1803.1 358, 1813.2 362.4, 1816.3 364.1 C 1818.3 365.2, 1823 362.9, 1823 360.8 C 1823 360.1, 1828.9 353.5, 1836.3 346.0 C 1843.6 338.6, 1850.5 331.2, 1851.5 329.6 C 1857.9 320.0, 1858.9 318.3, 1858.9 316.7 C 1859.0 314.7, 1857.8 314.5, 1853.4 316.1 C 1847.2 318.3, 1838.3 315.6, 1832.7 309.6 C 1828.4 305.1, 1827.6 304.6, 1823.2 304.4 C 1820.6 304.3, 1815.4 303.1, 1811.6 301.7 C 1803.8 298.8, 1802.6 299.5, 1805.2 305.8 C 1807.0 309.9, 1808.2 320.9, 1807.3 324.5 C 1807.0 325.8, 1805.2 327.8, 1803.2 329.0 C 1798.5 331.8, 1797.4 330.6, 1794.9 319.9 C 1792.5 310.2, 1789.4 301.9, 1786.2 297.1 C 1784.0 293.8, 1777.4 288, 1775.9 288 C 1774.4 288, 1770 282.5, 1770 280.8 C 1770 276.3, 1772.8 274.8, 1786.1 272.0 C 1792.7 270.7, 1799.3 264.7, 1798.8 260.6 C 1798.4 258.1, 1797.0 257.9, 1778 258.9 M 1041.7 270.4 C 1039.2 272.2, 1037.8 277.7, 1038.5 282.4 C 1039.7 289.3, 1050.8 303.9, 1056.1 305.3 C 1060.7 306.5, 1061.8 301.4, 1058.1 296 C 1055.6 292.4, 1047.4 275.0, 1046.6 271.7 C 1045.8 268.7, 1044.4 268.3, 1041.7 270.4 M 1862.0 272.1 C 1860.9 273.3, 1860 274.9, 1860 275.6 C 1860 277.8, 1853.9 291.9, 1851.4 295.6 C 1846.9 302.3, 1849.2 305.3, 1856.5 302.3 C 1861.9 300.1, 1865.1 295.9, 1868.6 286 C 1871.5 277.7, 1871.5 274.8, 1868.6 272.1 C 1865.7 269.4, 1864.5 269.4, 1862.0 272.1 M 1144.9 358.9 C 1143.6 359.3, 1141.0 360.4, 1139.2 361.3 C 1137.5 362.2, 1135.1 363, 1133.9 363 C 1132.8 363, 1130.2 363.8, 1128.1 364.9 C 1121.3 368.5, 1115.9 371, 1114.8 371 C 1113.6 371, 1100.2 376.6, 1098 378.0 C 1097.1 378.5, 1095.2 379.5, 1093.6 380.1 C 1089.5 381.7, 1088.7 384.8, 1090.6 392.2 C 1091.5 395.6, 1092.6 399.3, 1093.2 400.3 C 1093.7 401.4, 1094.7 404.3, 1095.3 406.8 C 1096.7 412.4, 1098.7 412.6, 1107.4 408.5 C 1110.4 407.1, 1113.5 406, 1114.4 406 C 1115.3 406, 1117.8 405.1, 1120 404 C 1122.1 402.9, 1124.6 402, 1125.5 402 C 1126.3 402, 1129.2 400.8, 1131.7 399.5 C 1134.3 398.1, 1137.0 397, 1137.7 397 C 1138.5 397, 1140.7 396.1, 1142.8 395.0 C 1144.8 394.0, 1150.5 391.1, 1155.5 388.7 C 1165.2 383.9, 1166.4 382.4, 1163.2 378.1 C 1162.1 376.6, 1160.9 374.3, 1160.5 372.9 C 1159.8 370.5, 1156.6 363.0, 1155.0 360 C 1154.1 358.3, 1148.7 357.7, 1144.9 358.9 M 1753.5 363.5 C 1752.1 366.6, 1751 369.8, 1751 370.4 C 1751 371.1, 1749.8 373.8, 1748.5 376.4 C 1747.1 378.9, 1746 381.5, 1746 382.0 C 1746 384.6, 1751.8 388.0, 1769 395.4 C 1773.6 397.4, 1777.9 399.5, 1778.4 400.0 C 1778.9 400.5, 1780.1 401, 1781.0 401 C 1781.9 401, 1784.8 402.1, 1787.4 403.5 C 1789.9 404.8, 1792.7 406, 1793.6 406 C 1794.9 406, 1803.7 409.6, 1808.2 412.0 C 1812.7 414.5, 1813.2 413.8, 1817.3 400 C 1820.3 390.0, 1821.3 383.9, 1820.2 382.4 C 1819.0 380.7, 1797.5 371, 1795.0 371 C 1794.3 371, 1792.6 370.3, 1791.1 369.5 C 1789.6 368.6, 1786.7 367.3, 1784.5 366.6 C 1782.3 365.8, 1778.9 364.6, 1777 363.9 C 1775.0 363.3, 1771.1 361.8, 1768.3 360.8 C 1765.5 359.7, 1761.6 358.6, 1759.6 358.3 C 1756.1 357.7, 1756.0 357.7, 1753.5 363.5 M 1162.0 399.5 C 1160.1 400.8, 1158.1 402, 1157.6 402 C 1157.1 402, 1154.1 403.2, 1151.1 404.6 C 1141.7 409.1, 1137.4 410.9, 1120.7 417.3 C 1117.0 418.8, 1112.6 420, 1110.9 420 C 1106.6 420, 1101.3 422.4, 1100.5 424.7 C 1100.2 425.8, 1100.8 428.6, 1101.9 431.0 C 1103.0 433.5, 1103.9 436.1, 1103.9 437 C 1103.9 438.9, 1108.6 454.2, 1111.0 460.1 C 1112.1 462.7, 1113.0 465.6, 1113.0 466.6 C 1113.0 467.6, 1113.6 469.7, 1114.4 471.3 C 1115.3 472.8, 1116.4 476.0, 1117.0 478.3 C 1117.6 480.6, 1118.9 484.7, 1119.9 487.5 C 1122.3 494.1, 1124.8 501.5, 1126.5 507 C 1129.4 516.5, 1131.1 521.6, 1132.5 524.5 C 1133.2 526.1, 1134.3 529.0, 1134.8 531 C 1135.3 532.9, 1136.7 536.7, 1137.8 539.5 C 1139 542.2, 1141.0 547.4, 1142.4 551.0 C 1143.7 554.6, 1145.5 558.8, 1146.4 560.5 C 1147.2 562.1, 1147.9 563.8, 1147.9 564.3 C 1148.0 566.4, 1160.6 592.2, 1165.5 600 C 1167.4 603.0, 1169.2 606.1, 1169.6 607 C 1170.0 607.8, 1171.1 609.6, 1172.0 611 C 1172.9 612.3, 1177.1 618.6, 1181.2 625 C 1195.5 646.9, 1194.0 644.7, 1202.5 656.9 C 1205.2 660.9, 1207.9 664.9, 1208.5 665.7 C 1209.0 666.6, 1211.5 670.1, 1214 673.5 C 1216.4 676.9, 1219.1 680.7, 1220 681.9 C 1220.8 683.2, 1222.6 685.7, 1224 687.5 C 1225.3 689.4, 1227.6 692.5, 1229 694.5 C 1230.3 696.4, 1232.8 699.9, 1234.5 702.2 C 1237.5 706.3, 1241.8 712.4, 1250.5 724.9 C 1262.2 742.0, 1286.3 778.5, 1288.2 782.3 C 1289.4 784.8, 1289.7 784.9, 1290.9 783.5 C 1292.7 781.3, 1295.2 781.6, 1297.8 784.3 C 1301.6 788.4, 1303.5 808.7, 1306.0 873 C 1306.5 887.5, 1307.5 909.8, 1308.0 922.4 C 1309.2 948.2, 1308.0 993.0, 1305.4 1026.5 C 1303.6 1049.2, 1304.1 1073.7, 1306.6 1080.4 C 1307.4 1082.6, 1308.5 1085.7, 1308.9 1087.2 C 1310.6 1092.4, 1316.1 1098.1, 1321.9 1100.7 C 1328.0 1103.4, 1341.3 1107.4, 1347.5 1108.4 C 1349.7 1108.8, 1355.5 1109.9, 1360.5 1110.9 C 1379.2 1114.8, 1404.0 1117.5, 1405.0 1115.9 C 1405.5 1115.1, 1405.7 1109.3, 1405.3 1102.5 L 1404.7 1090.5 1398.5 1081 C 1395.1 1075.7, 1389.6 1067.5, 1386.4 1062.6 C 1383.1 1057.7, 1380.0 1052.9, 1379.4 1051.9 C 1378.8 1050.8, 1377.5 1049.1, 1376.6 1048.1 C 1375.7 1047.1, 1375 1045.8, 1375 1045.3 C 1375 1044.7, 1374.0 1043.0, 1372.9 1041.6 C 1369.6 1037.4, 1367.9 1029.6, 1368.9 1023.6 C 1369.4 1020.8, 1370.1 1014, 1370.5 1008.5 C 1370.8 1003, 1371.7 996.0, 1372.4 993 C 1373.2 989.9, 1374.1 983.2, 1374.4 978 C 1374.8 972.7, 1375.7 966.0, 1376.5 963 C 1377.3 959.9, 1378.4 952.6, 1379.0 946.6 C 1379.6 940.7, 1380.5 934.8, 1381 933.5 C 1381.4 932.1, 1382.4 926.2, 1383.0 920.3 C 1383.6 914.3, 1384.7 907.0, 1385.5 904 C 1386.2 900.9, 1387.1 895.3, 1387.4 891.5 C 1388.1 883.8, 1391.1 865.9, 1393.6 854 C 1394.5 849.8, 1395.6 843.3, 1396.1 839.5 C 1396.6 835.6, 1397.7 830.3, 1398.4 827.7 C 1399.2 825.1, 1400.2 820.1, 1400.5 816.7 C 1400.9 813.3, 1401.9 808.7, 1402.6 806.5 C 1403.4 804.4, 1404.5 799.4, 1405.0 795.5 C 1405.6 791.6, 1406.8 786.1, 1407.7 783.3 C 1409.2 778.4, 1409.2 778.0, 1407.1 774.0 C 1405.9 771.7, 1405 769.3, 1405 768.7 C 1405 768.0, 1404.1 765.9, 1403.1 763.9 C 1402.1 762.0, 1401.0 759.2, 1400.6 757.7 C 1399.6 753.6, 1398.1 754.2, 1390.3 762 C 1381.6 770.6, 1378.0 771.3, 1373.4 765.3 C 1370.9 762.0, 1370.6 760.7, 1369.8 749.1 C 1368.2 722.8, 1369.3 688.2, 1371.9 685.6 C 1373.6 683.9, 1373.1 681.2, 1370.7 679.4 C 1369.5 678.6, 1363.5 674.6, 1357.5 670.6 C 1351.4 666.6, 1344.5 661.6, 1342.0 659.4 C 1334.3 652.5, 1319.9 638.6, 1314.6 633.0 C 1311.8 630.0, 1308.4 626.5, 1307.2 625.2 C 1306.0 623.9, 1299.9 616.7, 1293.6 609.1 C 1287.4 601.5, 1281.5 594.4, 1280.6 593.4 C 1279.7 592.3, 1275.8 587.6, 1272.0 583 C 1268.3 578.3, 1263.5 572.7, 1261.5 570.5 C 1251.8 560.0, 1239 542.9, 1239 540.3 C 1239 539.7, 1238.1 538.5, 1237.0 537.5 C 1236.0 536.6, 1234.8 534.6, 1234.5 533.2 C 1234.1 531.8, 1233.0 529.5, 1231.9 528.1 C 1230.8 526.8, 1230 525.0, 1230 524.2 C 1230 523.4, 1229.1 521.6, 1228 520.2 C 1226.9 518.8, 1226 517.1, 1226 516.4 C 1226 515.8, 1224.2 511.6, 1222.1 507.3 C 1218.5 500.0, 1216.5 495.8, 1210.6 482.7 C 1209.3 479.8, 1206.3 473.4, 1204.0 468.5 C 1201.7 463.5, 1199.0 457.7, 1198.0 455.5 C 1196.0 451.1, 1192.6 443.5, 1188.7 435 C 1187.3 431.9, 1184.4 425.6, 1182.2 421 C 1180.0 416.3, 1176.7 409.3, 1174.9 405.5 C 1170.4 395.9, 1168.4 394.9, 1162.0 399.5 M 1737.0 401.7 C 1734.4 406.7, 1732.2 411.4, 1725.9 425.5 C 1722.7 432.8, 1716.6 445.7, 1709.5 460.5 C 1706.0 467.6, 1700.8 478.4, 1698.0 484.5 C 1695.1 490.5, 1692.4 496.1, 1691.9 497 C 1691.4 497.8, 1690.5 499.6, 1689.9 501 C 1689.4 502.3, 1688.5 504.1, 1688.0 505 C 1687.5 505.8, 1684.5 511.6, 1681.3 518 C 1674.8 531.1, 1668.2 542.6, 1663.9 548.5 C 1662.2 550.7, 1660.1 553.6, 1659.2 555 C 1658.3 556.3, 1657.0 558.1, 1656.3 559 C 1655.6 559.8, 1650.8 565.6, 1645.8 572 C 1640.8 578.3, 1635.7 584.4, 1634.6 585.7 C 1631.3 589.1, 1629.9 590.8, 1623.5 599.0 C 1607.8 619.1, 1568.0 661.6, 1554.7 672.4 C 1550.2 676.0, 1546 683.0, 1546 686.7 C 1546 687.5, 1544.9 690.7, 1543.5 693.8 C 1542.2 696.9, 1540.9 700.1, 1540.5 701 C 1540.2 701.8, 1537.7 706.5, 1535.0 711.5 C 1532.2 716.4, 1529.1 722.3, 1528.0 724.5 C 1525.0 730.3, 1516.0 744.3, 1511.5 750.1 C 1510.4 751.5, 1508.8 753.7, 1508 755.0 C 1500.1 767.0, 1485.9 781, 1481.4 781 C 1479.2 781, 1472.1 774.7, 1468.5 769.5 C 1467.4 767.9, 1465.0 765.0, 1463.3 763.0 L 1460.1 759.5 1457.9 761.5 C 1456.7 762.6, 1454.5 765.2, 1453.1 767.3 C 1451.6 769.5, 1449.2 773.1, 1447.6 775.3 C 1444.8 779.4, 1444.8 779.5, 1445.4 792 C 1445.7 798.8, 1446.4 808.0, 1446.9 812.3 C 1447.5 816.6, 1448.4 830.5, 1449.0 843.3 C 1449.6 856.0, 1450.5 870.3, 1451.0 875 C 1451.6 879.6, 1452.6 894.5, 1453.4 908 C 1454.2 921.4, 1455.5 940.1, 1456.3 949.5 C 1457.1 958.8, 1458.3 973.4, 1459.0 982 C 1459.6 990.5, 1460.5 1001.1, 1461.0 1005.5 C 1461.5 1009.9, 1462.2 1018.5, 1462.6 1024.7 C 1463.2 1035.8, 1463.2 1035.9, 1460.4 1040.2 C 1457.9 1044.0, 1448.6 1055.7, 1447.1 1057 C 1446.7 1057.2, 1445.1 1059.3, 1443.5 1061.5 C 1440.1 1066.1, 1431.0 1077.0, 1429.3 1078.4 C 1426.8 1080.6, 1416.7 1093.6, 1415.9 1095.6 C 1415.4 1096.9, 1415.5 1099.3, 1416.0 1101.1 C 1416.5 1102.9, 1417 1107.0, 1417 1110.1 C 1417 1113.8, 1417.4 1116.1, 1418.4 1116.9 C 1420.8 1118.9, 1499.4 1117.7, 1511.5 1115.6 C 1516.4 1114.7, 1527.7 1113.6, 1536.6 1113.0 C 1545.4 1112.5, 1553.8 1111.6, 1555.2 1111.0 C 1556.6 1110.5, 1561.2 1109.6, 1565.5 1109.0 C 1569.8 1108.4, 1574.3 1107.3, 1575.4 1106.6 C 1576.5 1105.9, 1578.9 1105.0, 1580.7 1104.6 C 1594.4 1101.9, 1600.8 1082.2, 1599.6 1046 C 1597.7 990.9, 1597.7 973.4, 1599.3 954 C 1600.1 943.2, 1601.1 924.3, 1601.4 912 C 1601.8 899.6, 1602.5 883.4, 1603.0 876 C 1603.5 868.5, 1604.6 851.2, 1605.4 837.5 C 1606.7 815.6, 1607.2 811.8, 1609.2 807 C 1611.7 801.1, 1611.9 800.6, 1621.5 786 C 1633.6 767.2, 1647.9 746.0, 1664.4 722 C 1668.7 715.7, 1671.3 711.9, 1680.2 698.5 C 1682.4 695.2, 1685.1 691.3, 1686.1 690 C 1687.2 688.6, 1689.6 685.2, 1691.5 682.5 C 1693.4 679.7, 1697.1 674.4, 1699.7 670.6 C 1702.3 666.8, 1704.9 663.0, 1705.4 662.1 C 1707.7 658.5, 1725.1 631.3, 1729.6 624.3 C 1731.4 621.5, 1733 618.9, 1733 618.6 C 1733 618.2, 1733.8 616.7, 1734.8 615.2 C 1736.6 612.5, 1744.3 600.4, 1746.7 596.5 C 1747.8 594.7, 1752.5 585.1, 1756.5 576.5 C 1759.1 571.0, 1766.1 553.5, 1767.1 550.0 C 1767.7 548.1, 1769.0 545.0, 1770.0 543.0 C 1771.1 541.1, 1772 538.9, 1772 538.1 C 1772 537.4, 1772.6 535.3, 1773.4 533.6 C 1774.2 531.9, 1775.6 528.4, 1776.4 526 C 1777.1 523.5, 1779.0 518.3, 1780.4 514.5 C 1781.9 510.6, 1783.7 505.4, 1784.4 503 C 1785.1 500.5, 1786.4 496.9, 1787.2 495 C 1789.1 490.4, 1791.7 482.7, 1793.4 476.5 C 1794.2 473.7, 1796.2 467.6, 1797.9 463 C 1799.7 458.3, 1801.5 452.5, 1802.0 450.2 C 1802.5 447.9, 1803.6 444.7, 1804.4 443.1 C 1805.2 441.5, 1806.2 438.2, 1806.6 435.8 C 1806.9 433.4, 1807.9 430.3, 1808.7 428.8 C 1810.8 425.1, 1809.8 423.3, 1805.3 422.7 C 1799.2 421.9, 1787.6 418.8, 1786 417.4 C 1785.1 416.7, 1783.1 415.8, 1781.5 415.4 C 1779.8 415.0, 1776.9 413.9, 1775 412.9 C 1773.0 411.9, 1768.8 409.9, 1765.5 408.4 C 1762.2 407.0, 1757.8 404.9, 1755.8 403.8 C 1753.8 402.8, 1751.6 402, 1751.0 402 C 1750.3 402, 1748.6 401.1, 1747.2 400 C 1743.0 396.7, 1739.3 397.3, 1737.0 401.7 M 1460.9 414.9 C 1456.1 415.4, 1449.6 416.5, 1446.4 417.3 C 1443.1 418.2, 1436.9 419.6, 1432.5 420.5 C 1399.6 427.2, 1387.0 428.2, 1368.7 425.4 C 1354.3 423.3, 1346.9 421.2, 1339.2 417.2 C 1336.7 415.9, 1335.5 415.7, 1334.2 416.6 C 1332.0 418.0, 1328.1 427.8, 1326.8 435.5 C 1326.2 438.8, 1325.1 443.3, 1324.4 445.5 C 1323.7 447.8, 1322.8 454.6, 1322.4 460.7 C 1321.6 473.4, 1322.4 475.1, 1327.0 470.1 L 1329.8 467 1342.1 467 C 1353.7 467, 1354.5 467.1, 1358.1 469.6 C 1361.3 471.8, 1362 472.8, 1362 475.6 C 1362 480.7, 1359.2 481.5, 1348.2 480.1 C 1340.8 479.1, 1338.7 479.1, 1334.5 480.4 C 1331.6 481.3, 1327.9 481.7, 1325.9 481.3 C 1322.3 480.8, 1322.2 480.8, 1321.6 484.6 C 1318.9 500.4, 1320.6 564.1, 1324.1 577.5 C 1324.7 579.7, 1325.8 584.4, 1326.6 587.9 C 1327.4 591.5, 1328.4 594.8, 1328.9 595.4 C 1329.4 596.0, 1330.3 598.5, 1331.0 600.9 C 1333.7 611.2, 1343.1 627.4, 1352.7 638.5 C 1355.5 641.7, 1367.0 651, 1368.2 651 C 1368.8 651, 1370.0 651.6, 1370.9 652.4 C 1375.6 656.6, 1393.0 661, 1405 660.9 C 1414.5 660.9, 1430.6 658.5, 1434.5 656.5 C 1436.1 655.7, 1438.1 655.0, 1439 654.9 C 1439.8 654.9, 1442.7 653.8, 1445.5 652.5 C 1448.2 651.1, 1450.8 650.0, 1451.2 650.0 C 1451.7 650.0, 1453.3 649.1, 1454.7 648.1 C 1465.2 640.9, 1469.0 638.9, 1471.3 639.5 C 1474.5 640.3, 1476.5 644.0, 1475.1 646.7 C 1473.1 650.4, 1456.8 663.9, 1454.2 664.0 C 1453.8 664.0, 1451.2 665.1, 1448.5 666.5 C 1445.7 667.8, 1442.9 668.9, 1442.2 668.9 C 1441.4 668.9, 1439.5 669.7, 1437.8 670.5 C 1435.4 671.8, 1417.6 674.8, 1412.3 674.9 C 1408.8 675.0, 1410.5 681.4, 1417.3 694.8 C 1420.2 700.6, 1428.7 710, 1431.0 710 C 1432.0 710, 1434.4 709.3, 1436.2 708.5 C 1438.0 707.7, 1440.1 706.8, 1441 706.5 C 1445.3 704.8, 1466.7 690.8, 1474 684.9 C 1476.4 682.9, 1479.2 680.9, 1480.1 680.4 C 1483.0 678.8, 1490.0 672.7, 1497.4 665.2 C 1506.3 656.4, 1507 654.3, 1507 635.7 C 1507 627.9, 1507.8 616.7, 1508.9 608.5 C 1510.7 595.6, 1511.6 591.9, 1515.6 580 C 1516.4 577.5, 1517.6 573.8, 1518.1 571.7 C 1519.4 567.2, 1523.1 565.8, 1529.4 567.2 C 1553.2 572.5, 1577.2 532.3, 1562.1 512.4 C 1553.5 500.9, 1537.9 505.2, 1529.8 521.3 C 1526.1 528.6, 1525.7 528.9, 1519.9 528.9 C 1512.1 529.0, 1509.8 525.5, 1508.8 512.7 C 1508.4 507.1, 1507.7 500.9, 1507.1 499 C 1506.6 497.0, 1505.9 494.3, 1505.6 492.8 C 1505.2 491.3, 1503.2 487.9, 1501.0 485.1 C 1498.8 482.3, 1497 479.6, 1497 479.1 C 1497 478.6, 1496.1 477.1, 1495.1 475.8 C 1494.1 474.5, 1492.0 469.4, 1490.5 464.6 C 1487.8 456.1, 1487.7 455.0, 1488.2 442.1 C 1488.5 434.6, 1489.3 427.0, 1490.0 425.1 C 1491.4 421.2, 1489.9 417.3, 1486.3 415.9 C 1482.7 414.5, 1470.1 414.1, 1460.9 414.9 M 1421 470.1 C 1415.0 472.4, 1414.0 473.3, 1414.0 476.6 C 1413.9 480.8, 1416.2 481.4, 1431.5 481.1 C 1444.2 480.8, 1446.2 481.0, 1449.8 482.9 C 1462.3 489.2, 1470.0 483.0, 1460.0 474.6 C 1452.3 468.2, 1432.2 465.9, 1421 470.1 M 1337.9 500.5 C 1336.0 502.6, 1335.4 504.4, 1335.1 509.8 C 1334.8 516.3, 1334.9 516.8, 1338.0 520.3 C 1342.3 525.3, 1345.2 524.9, 1349.7 519.1 C 1354.5 512.8, 1354.1 506.6, 1348.5 500.7 C 1345.1 497.2, 1341.1 497.1, 1337.9 500.5 M 1375.3 502.1 C 1373.6 504.4, 1370 513.7, 1370 515.9 C 1370 517.7, 1368.6 521.2, 1363.9 531.5 C 1357.1 546.3, 1359.6 556.3, 1371.5 560.8 C 1378.5 563.5, 1382.9 563.5, 1388.0 560.9 C 1395.7 557.0, 1392.2 550.9, 1381.9 550.1 C 1376.6 549.8, 1375.7 549.4, 1374.5 547.0 C 1373.0 544.2, 1374.0 538.4, 1376.9 532.5 C 1379.2 527.8, 1384 511.7, 1384 508.6 C 1384 506.8, 1383.4 504.6, 1382.7 503.7 C 1381.0 501.4, 1376.6 500.5, 1375.3 502.1 M 1430.0 502.2 C 1425.2 504.7, 1423.6 516.8, 1427.4 522.6 C 1429.1 525.1, 1434.5 526.6, 1437.9 525.5 C 1439.0 525.1, 1440.9 523.1, 1442.0 520.9 C 1447.4 510.2, 1439.3 497.5, 1430.0 502.2 M 479 518.3 C 467.7 519.6, 457.6 521.1, 456.5 521.7 C 455.4 522.3, 452.2 523.1, 449.5 523.4 C 446.7 523.8, 441.5 525.0, 438 526.0 C 429.2 528.5, 420.6 530.8, 414 532.4 C 408.7 533.7, 405.4 534.8, 393.2 539.0 C 366.5 548.3, 337.3 562.5, 321.1 574 C 317.6 576.4, 313.7 579.1, 312.6 579.9 C 290.7 595.2, 254.2 632.8, 238.5 656.3 C 237.4 658.0, 235.8 660.3, 235 661.5 C 230.5 668.1, 225.3 676.1, 221.9 682 C 220.8 683.9, 218.8 687.3, 217.5 689.5 C 216.1 691.7, 214.5 694.6, 213.9 696 C 213.2 697.3, 211.0 702.1, 208.9 706.5 C 206.8 710.9, 204.6 715.6, 204.0 717 C 203.4 718.3, 202.5 720.1, 202.0 721 C 201.1 722.3, 199.7 725.7, 193.9 740 C 190.7 747.8, 189.0 753.4, 182.5 776.5 C 181.1 781.4, 179.5 787.9, 178.9 791 C 178.4 794.0, 177.0 800.3, 176.0 805 C 171.6 824.3, 168 852.0, 168 866.3 C 168 870.2, 167.4 872.6, 166.4 873.7 C 164.4 875.6, 164.6 913.5, 166.6 914.7 C 167.2 915.1, 168.0 920.0, 168.4 926 C 169.5 943.3, 171.0 956.9, 172.0 959.6 C 172.5 961.0, 173.4 965.4, 173.8 969.3 C 174.6 976.0, 175.5 980.1, 179.4 996 C 180.3 999.5, 181.7 1005.4, 182.4 1009 C 183.2 1012.5, 184.5 1017.1, 185.4 1019.2 C 186.2 1021.2, 187 1024.0, 187 1025.4 C 187 1026.8, 187.8 1029.8, 188.9 1032.2 C 190.9 1036.7, 193.2 1043.3, 195.5 1051.2 C 196.2 1053.8, 197.5 1057.0, 198.4 1058.2 C 199.3 1059.4, 200 1061.1, 200 1061.9 C 200 1062.7, 200.9 1065.4, 202.1 1067.9 C 203.2 1070.4, 205.3 1074.9, 206.7 1078 C 208.0 1081.0, 210.0 1085.3, 211.0 1087.5 C 213.9 1093.8, 223.2 1112.5, 226.1 1117.7 C 227.6 1120.3, 229.7 1124.3, 230.9 1126.5 C 232.0 1128.7, 233.7 1131.6, 234.7 1133.1 C 235.7 1134.5, 237.3 1137.0, 238.3 1138.6 C 239.4 1140.1, 241.1 1142.7, 242.1 1144.2 C 243.1 1145.7, 244 1147.1, 244 1147.4 C 244 1147.8, 247.8 1153.5, 252.5 1159.9 C 253.6 1161.4, 255.3 1164.0, 256.4 1165.6 C 259.3 1169.7, 270.3 1183.4, 276.8 1190.9 C 294.1 1210.7, 307.5 1224.2, 322.8 1237.3 C 331.3 1244.7, 333.0 1246.6, 332.5 1248.3 C 332.2 1249.5, 331.4 1252.7, 330.8 1255.5 C 330.2 1258.2, 329.4 1260.9, 328.9 1261.5 C 328.5 1262.0, 327.4 1264.9, 326.6 1268 C 325.8 1271.0, 324.4 1275.3, 323.6 1277.5 C 322.7 1279.7, 322.0 1282.3, 322.0 1283.3 C 322.0 1284.3, 321.3 1286.3, 320.5 1287.8 C 319.7 1289.3, 318.3 1292.9, 317.5 1296 C 315.9 1302.0, 313.5 1309.5, 311.5 1315 C 310.7 1316.9, 308.7 1323.2, 307 1329 C 305.2 1334.7, 303.1 1341.0, 302.4 1343 C 301.6 1344.9, 300.6 1348.3, 300.0 1350.5 C 299.0 1354.9, 296.4 1362.7, 294.3 1367.7 C 293.6 1369.6, 292.5 1373.2, 291.9 1375.7 C 291.3 1378.3, 290.0 1382.7, 289.0 1385.5 C 288.0 1388.2, 285.9 1394.7, 284.5 1400 C 283.0 1405.2, 281.2 1410.9, 280.5 1412.6 C 279.7 1414.3, 278.8 1417.8, 278.4 1420.3 C 278.0 1422.9, 277.3 1425.2, 276.9 1425.5 C 276.4 1425.8, 275.5 1427.9, 274.9 1430.2 C 274.3 1432.6, 273.0 1436.7, 272.0 1439.5 C 271.0 1442.2, 268.9 1448.5, 267.4 1453.5 C 266.0 1458.4, 264.2 1464.0, 263.5 1466 C 261.3 1471.9, 257.2 1485.3, 256.4 1488.9 C 256.0 1490.9, 255.1 1493.8, 254.4 1495.4 C 252.8 1499.1, 250.3 1506.7, 248.4 1513.5 C 246.8 1519.1, 243.4 1529.8, 241.5 1535 C 240.7 1536.9, 238.9 1542.5, 237.4 1547.5 C 235.9 1552.4, 233.9 1558.9, 232.9 1562 C 231.9 1565.0, 229.9 1571.5, 228.4 1576.5 C 226.9 1581.4, 225.1 1587.0, 224.4 1589 C 223.6 1590.9, 222.4 1594.9, 221.6 1598 C 220.8 1601.0, 219.7 1604.8, 219.1 1606.5 C 212.2 1626.1, 212.1 1629.0, 218.5 1634.2 C 230.4 1644.0, 247.6 1648.1, 261.8 1644.5 C 264.9 1643.8, 270.4 1642.8, 274 1642.4 C 279.6 1641.8, 280.9 1641.3, 284.2 1638.1 C 286.3 1636.2, 288 1633.7, 288 1632.7 C 288 1631.7, 288.7 1629.2, 289.6 1627.2 C 290.5 1625.1, 291.8 1621.2, 292.5 1618.5 C 293.2 1615.7, 294.2 1612.1, 294.8 1610.5 C 295.4 1608.8, 297.0 1603.4, 298.5 1598.5 C 299.9 1593.5, 302.0 1587.2, 303.0 1584.5 C 304.0 1581.7, 305.1 1577.9, 305.5 1576 C 305.8 1574.0, 306.9 1570.2, 307.9 1567.5 C 308.9 1564.7, 310.7 1559.1, 312.0 1555 C 313.2 1550.8, 315.0 1545.0, 315.9 1542 C 316.9 1538.9, 318.9 1532.4, 320.4 1527.5 C 321.9 1522.5, 324.0 1516.0, 325.1 1513.1 C 326.1 1510.2, 327 1506.9, 327 1505.8 C 327 1504.7, 327.8 1501.7, 328.9 1499.1 C 331.3 1493.2, 333.6 1486.2, 336.0 1478 C 338.0 1470.9, 340.4 1463.2, 342.1 1458.5 C 342.7 1456.8, 343.8 1452.9, 344.5 1449.8 C 345.3 1446.7, 346.6 1442.9, 347.4 1441.3 C 348.3 1439.7, 349 1437.3, 349.0 1436 C 349.0 1434.6, 349.9 1431.5, 351.0 1429.1 C 352.1 1426.7, 353.0 1424.0, 353.0 1423.1 C 353.0 1422.2, 353.7 1419.7, 354.5 1417.5 C 356.5 1412.1, 360.8 1398.5, 362.0 1393.5 C 362.6 1391.3, 363.7 1388.0, 364.5 1386.3 C 365.3 1384.6, 366 1382.4, 366 1381.5 C 366 1380.5, 367.1 1376.3, 368.5 1372.1 C 369.8 1367.9, 371.9 1361.3, 373.1 1357.5 C 374.3 1353.6, 375.9 1348.7, 376.7 1346.5 C 377.5 1344.3, 378.9 1339.5, 379.9 1336 C 380.9 1332.4, 382.2 1328.1, 382.8 1326.5 C 385.4 1318.7, 389 1306.9, 389 1305.5 C 389 1304.7, 389.6 1302.5, 390.4 1300.7 C 391.2 1298.9, 392.4 1295.5, 393.0 1293.1 C 393.9 1289.5, 394.4 1288.9, 396.3 1289.1 C 398.0 1289.4, 398.4 1290.1, 398.3 1292.5 C 398.1 1298.6, 394.9 1331.6, 394.0 1336 C 393.5 1338.4, 392.9 1345.6, 392.5 1352 C 392.1 1358.3, 391.2 1367.3, 390.4 1372 C 389.6 1376.6, 388.5 1386.1, 387.9 1393 C 387.3 1399.8, 386.3 1409.3, 385.5 1414 C 384.7 1418.6, 383.8 1426.7, 383.5 1432 C 383.1 1437.2, 382.2 1445.7, 381.4 1451 C 380.6 1456.2, 379.5 1466.5, 378.9 1473.8 C 378.4 1481.2, 377.4 1489.2, 376.9 1491.8 C 376.3 1494.3, 375.4 1502.5, 374.9 1509.9 C 374.4 1517.4, 373.3 1526.8, 372.5 1531 C 371.8 1535.1, 370.8 1543.6, 370.5 1550 C 370.1 1556.3, 369.2 1565.1, 368.4 1569.5 C 367.6 1573.9, 366.5 1583.7, 366.0 1591.3 C 365.4 1598.9, 364.5 1607.0, 364.0 1609.3 C 363.5 1611.6, 362.6 1620.2, 362.0 1628.5 C 361.4 1636.7, 360.2 1647.1, 359.5 1651.5 C 358.7 1655.9, 357.6 1666.6, 356.9 1675.3 C 356.3 1684.1, 355.4 1692.2, 355.0 1693.4 C 354.5 1694.6, 353.9 1699.5, 353.5 1704.5 C 353.1 1709.4, 352.4 1718.4, 351.9 1724.5 C 350.3 1741.7, 351.6 1743.4, 374 1752.7 C 382.3 1756.2, 395.6 1756.4, 409.7 1753.1 C 414.8 1751.9, 420.9 1751, 423.3 1751 C 425.9 1751, 429.4 1750.0, 432.0 1748.6 C 437.9 1745.5, 439.5 1740.7, 440.9 1721.4 C 441.4 1713.2, 442.3 1704.2, 442.8 1701.5 C 443.3 1698.7, 444.3 1689.7, 444.9 1681.5 C 445.5 1673.2, 446.5 1664.2, 447.0 1661.5 C 447.5 1658.7, 448.6 1647.9, 449.4 1637.5 C 450.2 1627.0, 451.3 1616.2, 451.8 1613.5 C 452.3 1610.7, 453.0 1604.2, 453.4 1599 C 454.8 1578.4, 456.2 1566.4, 457.5 1563.8 C 458.8 1561.4, 459.7 1561.1, 467.7 1560.0 C 472.5 1559.4, 481 1558.0, 486.5 1557.0 C 492 1555.9, 500.1 1554.8, 504.5 1554.4 C 508.9 1554.1, 514.7 1553.2, 517.5 1552.4 C 520.2 1551.7, 525.8 1550.8, 530 1550.4 C 534.1 1550.1, 540.2 1549.1, 543.5 1548.4 C 546.9 1547.7, 554.5 1546.6, 560.5 1545.9 C 566.4 1545.3, 574.3 1544.2, 577.9 1543.5 C 581.5 1542.8, 587.8 1541.8, 592 1541.5 C 596.1 1541.1, 602.2 1540.2, 605.5 1539.4 C 608.8 1538.7, 614.4 1537.8, 618 1537.5 C 623.9 1536.9, 631.3 1535.9, 660 1531.4 C 665.7 1530.5, 675.6 1529.1, 682 1528.4 C 688.3 1527.7, 694.9 1526.6, 696.6 1526.1 C 698.4 1525.6, 703.3 1524.8, 707.6 1524.5 C 711.9 1524.1, 719.8 1522.9, 725.1 1521.9 C 740.3 1518.9, 746 1519.4, 746 1524.0 C 746 1525.5, 748.7 1532.4, 752.5 1540.5 C 753.2 1542.1, 754.2 1544.8, 754.6 1546.5 C 755.0 1548.1, 755.9 1550.5, 756.7 1551.7 C 757.5 1552.9, 758.5 1555.4, 759.0 1557.2 C 759.8 1560.4, 766.6 1577.9, 769.9 1585.5 C 772.5 1591.1, 775.9 1600.3, 776.0 1601.5 C 776.0 1602.0, 777.1 1604.7, 778.5 1607.5 C 779.8 1610.2, 780.9 1613.1, 780.9 1614.0 C 780.9 1614.8, 781.6 1616.4, 782.3 1617.5 C 783.1 1618.6, 784.0 1620.6, 784.4 1622 C 784.8 1623.3, 785.8 1625.8, 786.5 1627.5 C 787.2 1629.1, 788.8 1632.9, 790.0 1636 C 791.2 1639.0, 793.0 1643.6, 794.0 1646.2 C 795.1 1648.8, 796.8 1653.1, 797.8 1655.7 C 801.6 1665.6, 806.8 1670.9, 814.1 1672.5 C 815.9 1672.9, 818.0 1673.6, 818.7 1674.2 C 820.0 1675.2, 829.7 1678.2, 838.2 1680.2 C 841.8 1681.1, 844.3 1681.0, 848.2 1680.1 C 851.1 1679.5, 856.4 1678.5, 860 1677.9 C 876.2 1675.2, 887.4 1672.0, 889.8 1669.2 C 892.8 1665.9, 892.3 1659.5, 888.5 1651.4 C 887.1 1648.5, 886 1645.8, 886 1645.4 C 886 1645.0, 885.1 1642.8, 884.1 1640.6 C 883.0 1638.3, 881.0 1633.5, 879.5 1630 C 878.1 1626.4, 876.0 1621.7, 875.0 1619.5 C 874.0 1617.3, 872.1 1613.0, 870.9 1610 C 869.6 1606.9, 867.6 1602.1, 866.3 1599.3 C 865.0 1596.4, 864 1593.6, 864 1593.0 C 864 1592.4, 863.1 1590.3, 862 1588.2 C 860.9 1586.2, 859.9 1583.8, 859.9 1583.0 C 859.9 1582.1, 859.0 1580.1, 858 1578.5 C 856.9 1576.8, 856.0 1574.8, 856.0 1574.0 C 856.0 1573.2, 855.1 1570.8, 854.0 1568.5 C 852.9 1566.3, 851.4 1562.7, 850.6 1560.5 C 847.0 1550.5, 844.9 1545.5, 844.0 1544.6 C 843.4 1544.0, 843 1542.9, 843 1542.1 C 843 1541.3, 841.8 1538.1, 840.5 1534.8 C 839.1 1531.6, 836.8 1526.1, 835.4 1522.7 C 833.9 1519.3, 832.0 1514.7, 830.9 1512.5 C 829.9 1510.3, 827.9 1505.5, 826.5 1502 C 825.0 1498.4, 823.2 1494.3, 822.4 1492.8 C 821.6 1491.3, 820.9 1489.5, 820.9 1488.8 C 820.9 1488.1, 819.8 1485.2, 818.5 1482.5 C 817.1 1479.7, 816.0 1476.8, 816.0 1476 C 816.0 1475.1, 815.0 1473.1, 814 1471.5 C 812.9 1469.8, 812.0 1467.8, 812.0 1466.9 C 812.0 1466.1, 811.1 1463.7, 810 1461.7 C 808.9 1459.6, 807.9 1457.4, 807.9 1456.7 C 807.9 1456.0, 806.8 1453.2, 805.5 1450.5 C 804.1 1447.7, 803.0 1444.8, 803.0 1444 C 803.0 1443.1, 802.0 1441.1, 801 1439.5 C 799.9 1437.8, 799.0 1435.8, 799 1435 C 798.9 1434.1, 798.2 1432.1, 797.4 1430.5 C 796.5 1428.8, 794.3 1423.6, 792.4 1419 C 788.8 1409.7, 785.7 1402.2, 783.5 1397.5 C 779.4 1388.5, 777 1382.6, 777 1381.6 C 777 1380.9, 776.1 1378.9, 775.1 1376.9 C 774.1 1375.0, 772.9 1372.3, 772.5 1371 C 772.1 1369.6, 771.0 1366.7, 769.9 1364.5 C 768.9 1362.3, 766.9 1357.5, 765.5 1354 C 760.9 1342.6, 758.8 1337.6, 756.8 1333.3 C 755.8 1331.1, 755 1328.8, 755 1328.2 C 755 1327.3, 754.0 1325.0, 748.5 1312.5 C 747.8 1310.8, 746.2 1306.8, 745.0 1303.5 C 742.2 1296.3, 737.4 1284.6, 735.5 1280.5 C 730.2 1269.2, 728.6 1263, 730.8 1263 C 731.7 1263, 747.6 1250.4, 760.5 1239.6 C 777.4 1225.4, 800.9 1198.3, 815.5 1176.1 C 821.2 1167.5, 824.7 1162.1, 825.7 1160.0 C 826.4 1158.6, 828.1 1155.7, 829.4 1153.5 C 832.7 1148.0, 845.0 1123.0, 848.4 1115 C 854.2 1101.2, 855.0 1099.3, 856.5 1095 C 857.4 1092.5, 858.8 1088.2, 859.5 1085.5 C 860.3 1082.7, 861.4 1079.6, 861.9 1078.5 C 863.0 1076.3, 866.3 1064.4, 868.5 1054.5 C 869.3 1051.2, 870.5 1045.8, 871.4 1042.5 C 874.1 1031.4, 876.1 1019.5, 877.5 1006 C 878.3 998.5, 879.4 989.2, 879.9 985.1 C 882.7 964.9, 879.4 889.7, 874.9 873 C 874.4 871.0, 873.5 865.0, 872.9 859.5 C 872.3 854.0, 871.3 848.7, 870.8 847.7 C 870.3 846.7, 869.2 842.4, 868.4 838.1 C 864.8 817.7, 861.9 812, 855.5 812 C 849.2 812, 846.1 816.5, 848.9 821.7 C 849.7 823.3, 850.4 826.5, 854.3 846 C 855.1 849.5, 856.4 855.6, 857.3 859.5 C 868.6 907.4, 868.6 987.5, 857.3 1034 C 856.5 1037.5, 855.2 1043.4, 854.4 1047 C 852.9 1054.4, 851.3 1060.5, 849.2 1067 C 848.4 1069.4, 847.2 1073.9, 846.4 1077 C 843.7 1087.7, 839.9 1097.6, 832.4 1113.5 C 830.1 1118.4, 826.9 1125.2, 825.3 1128.5 C 822.8 1133.8, 815.9 1146.2, 810.8 1154.5 C 809.8 1156.1, 808.3 1158.8, 807.3 1160.5 C 806.4 1162.1, 804.4 1165.1, 802.8 1167.1 C 801.2 1169.2, 798.3 1173.2, 796.3 1176.1 C 782.8 1195.9, 754.3 1225.6, 737.5 1237.5 C 736.0 1238.6, 733.5 1240.4, 732.1 1241.5 C 730.6 1242.7, 726.1 1245.8, 722 1248.5 C 717.8 1251.1, 711.5 1255.2, 708 1257.5 C 701.9 1261.3, 684.8 1270, 683.2 1270 C 682.8 1270, 680.0 1271.1, 677.0 1272.6 C 663.2 1279.0, 655.0 1282.2, 648 1283.8 C 645.5 1284.4, 641.0 1285.5, 638 1286.3 C 618.1 1291.6, 609.8 1292.4, 577.5 1292.4 C 543.9 1292.4, 539.3 1291.9, 510 1285.2 C 496.5 1282.1, 474.0 1274.3, 471.5 1271.9 C 471.0 1271.4, 469.9 1271, 469.1 1271 C 467.3 1271, 434.6 1254.9, 429.9 1251.7 C 428.0 1250.4, 425.7 1249.1, 424.9 1248.7 C 424.0 1248.4, 418.8 1245.1, 413.4 1241.4 C 398.8 1231.5, 397.9 1230.8, 393 1226.9 C 390.5 1224.9, 387.7 1222.9, 386.8 1222.3 C 382.6 1220.1, 362.3 1201.4, 349.9 1188.5 C 335.6 1173.5, 318.0 1152.9, 312.2 1144.3 C 311.5 1143.3, 309.3 1140.2, 307.3 1137.5 C 303.6 1132.1, 298.0 1123.7, 294.5 1118 C 293.4 1116.0, 291.9 1113.6, 291.2 1112.5 C 276.1 1087.5, 257.4 1048.8, 252.5 1032 C 251.8 1029.5, 250.0 1024.3, 248.5 1020.5 C 245.8 1013.1, 242.6 1002.5, 240.8 995 C 240.3 992.5, 239.0 987.3, 237.9 983.5 C 235.3 973.6, 230.9 950.1, 230.9 945.9 C 230.9 943.9, 230.3 940.1, 229.5 937.4 C 225.0 921.7, 224.6 832.9, 229.0 821.3 C 229.5 820.0, 230.4 814.7, 231.0 809.6 C 231.5 804.6, 232.6 798.4, 233.4 796 C 234.2 793.5, 235.1 789.0, 235.5 786 C 235.9 782.9, 236.8 778.9, 237.5 777 C 238.2 775.0, 239.4 770.8, 240.0 767.5 C 240.6 764.2, 241.5 761.0, 242.0 760.4 C 242.4 759.9, 243.5 756.7, 244.3 753.4 C 246.3 745.5, 248.7 738.4, 251.0 733.3 C 252.1 731.1, 253 728.8, 253 728.2 C 253 726.7, 257.6 716.2, 266.5 697.5 C 271.8 686.4, 283.4 665.4, 285.8 662.7 C 286.6 661.7, 287.8 660.1, 288.4 659.0 C 299.8 638.9, 331.8 605.0, 358.5 584.9 C 370.7 575.7, 382.2 568, 383.7 568 C 384.2 568, 385.2 567.3, 385.8 566.6 C 387.5 564.6, 415.7 551.0, 418.2 550.9 C 418.9 550.9, 421.7 549.8, 424.5 548.5 C 427.2 547.1, 430.4 546.0, 431.5 546.0 C 432.6 546.0, 434.7 545.3, 436.2 544.5 C 437.8 543.7, 440.7 542.7, 442.7 542.4 C 444.8 542.1, 448.5 541.2, 451 540.4 C 455.3 539.0, 471.9 535.7, 482.6 534.0 C 500.1 531.2, 545.4 532.0, 558.6 535.3 C 561.8 536.1, 567.2 537.1, 570.5 537.4 C 573.8 537.8, 579.0 538.9, 582.2 540.0 C 585.4 541.1, 588.9 542, 590.0 542 C 591.2 542, 594.2 542.8, 596.8 543.8 C 599.3 544.8, 603.3 546.1, 605.5 546.7 C 610.9 548.1, 618.6 550.9, 623.6 553.1 C 625.8 554.1, 628.2 555, 628.9 555 C 629.6 555, 631.8 555.8, 633.8 556.8 C 635.8 557.9, 640.4 560.1, 644 561.9 C 647.5 563.7, 652.7 566.4, 655.5 568.0 C 658.2 569.5, 661.8 571.5, 663.5 572.2 C 665.1 573.0, 667.1 574.4, 667.8 575.3 C 668.6 576.2, 669.7 577, 670.2 577 C 670.8 577, 674.5 579.0, 678.4 581.6 C 682.3 584.2, 687.3 587.4, 689.5 588.8 C 693.6 591.5, 705.1 600.0, 706 601.0 C 706.2 601.4, 710.7 605.2, 716 609.4 C 728.0 619.3, 741.8 632.8, 752.3 644.9 C 756.8 650.1, 761.7 655.7, 763.2 657.4 C 764.8 659.1, 767.7 662.9, 769.7 666 C 771.7 669.0, 773.9 671.9, 774.4 672.5 C 775.4 673.3, 779.5 679.3, 785 687.5 C 785.8 688.7, 789.0 693.5, 792.2 698.2 C 795.4 702.9, 798 707.1, 798 707.7 C 798 708.2, 798.8 709.8, 799.8 711.1 C 800.9 712.4, 803.2 716.3, 805.1 719.7 C 806.9 723.1, 809.7 728.0, 811.1 730.7 C 814.7 737.0, 823.9 755.8, 824.0 756.7 C 824.0 757.1, 825.1 759.7, 826.5 762.5 C 827.8 765.2, 828.9 768.0, 828.9 768.7 C 829.0 771.6, 835.1 779, 837.6 779 C 842.0 779, 846 776.2, 846 773.2 C 846 767.9, 833.0 738.3, 822.5 719.5 C 820.0 715.1, 817.5 710.4, 817.0 709.2 C 816.4 707.9, 815.1 705.7, 814.1 704.2 C 813.1 702.7, 810.6 698.9, 808.6 695.7 C 801.8 685.0, 797.5 678.5, 794.5 674.4 C 792.8 672.1, 790.1 668.4, 788.5 666.0 C 767.9 636.9, 728.0 596.9, 700.5 578 C 698.5 576.6, 696.3 575.0, 695.6 574.4 C 694.0 573.0, 681.2 564.7, 677.5 562.6 C 675.8 561.6, 672.7 559.8, 670.5 558.5 C 665.4 555.6, 647.9 546.8, 642 544.2 C 639.5 543.1, 634.9 541.0, 631.8 539.6 C 628.6 538.1, 625.6 537, 625.0 537 C 624.5 537, 622.1 536.1, 619.7 535.1 C 610.5 531.1, 599.7 527.9, 576.5 522.4 C 572.6 521.4, 565.9 520.3, 561.5 519.8 C 557.1 519.3, 550.3 518.4, 546.5 517.8 C 532.7 515.6, 501.3 515.9, 479 518.3 M 1542.5 519.2 C 1532.7 524.8, 1526.5 546.3, 1534.3 547.8 C 1536.5 548.2, 1541 545.4, 1541 543.6 C 1541 542.8, 1542.3 539.3, 1543.9 535.6 C 1546.7 529.5, 1547.2 529.0, 1550.7 528.4 C 1556.4 527.5, 1556.9 527.2, 1557.8 524.7 C 1560.3 518.2, 1550.5 514.7, 1542.5 519.2 M 1428 574.1 C 1426.6 574.7, 1422.5 575.5, 1419 576.0 C 1415.4 576.5, 1409.8 577.6, 1406.5 578.4 C 1403.0 579.2, 1391.7 580.0, 1380.0 580.4 C 1358.1 581.1, 1356.0 581.6, 1353.8 586.4 C 1352.7 588.8, 1352.9 589.5, 1359.3 603 C 1361.9 608.4, 1373.1 619.7, 1376.8 620.6 C 1378.3 621.0, 1380.6 622.0, 1381.9 622.9 C 1383.8 624.1, 1387.0 624.4, 1396.4 624.4 C 1407.8 624.3, 1408.8 624.1, 1415.4 621.1 C 1436.2 611.4, 1449.5 582.7, 1436.7 575.0 C 1433.1 572.7, 1431.6 572.6, 1428 574.1 M 1421.8 588.4 C 1421.5 588.7, 1416.4 589.6, 1410.4 590.5 C 1404.4 591.3, 1397.2 592.4, 1394.5 592.9 C 1391.7 593.4, 1385.3 593.9, 1380.2 593.9 C 1368.9 594.0, 1368.0 595.0, 1373.5 601.2 C 1381.3 609.9, 1384.9 611.5, 1397.4 611.5 C 1407.3 611.5, 1408.8 611.2, 1411.6 609.2 C 1413.3 608.0, 1415.2 607, 1415.8 607 C 1419.1 607, 1428.5 592.6, 1427.3 589.5 C 1426.8 588.1, 1422.9 587.3, 1421.8 588.4 M 494.5 593.0 C 486.8 594.1, 478.8 595.6, 476.7 596.4 C 474.6 597.3, 471.7 598.0, 470.2 598.0 C 468.7 598.0, 465.7 598.7, 463.5 599.6 C 461.3 600.4, 457.1 601.7, 454.2 602.4 C 451.3 603.1, 448.4 604.1, 447.7 604.7 C 447.0 605.3, 444.9 606.1, 443 606.5 C 441.0 606.9, 437.9 608.0, 436 609.0 C 434.0 610.0, 427.2 613.4, 420.7 616.6 C 405.8 624.0, 403.2 625.4, 401.1 627.4 C 400.1 628.2, 398.8 629, 398.2 629 C 397.6 629, 396.7 629.6, 396.3 630.3 C 395.8 631.0, 394.3 632.2, 393 633 C 381.4 638.9, 346.7 674.1, 334.4 692.3 C 333.3 693.9, 331.8 696.3, 331 697.5 C 330.1 698.7, 327.9 701.9, 326.1 704.5 C 324.3 707.2, 322.3 710.3, 321.8 711.4 C 321.3 712.5, 319.8 715.3, 318.5 717.5 C 316.4 720.9, 309.7 734.2, 302.9 748.5 C 301.8 750.7, 300.5 753.8, 300.0 755.5 C 299.5 757.1, 297.9 761.6, 296.4 765.5 C 293.5 773.2, 289.5 786.7, 287.9 794.5 C 287.3 797.2, 286.2 801.5, 285.4 804 C 284.6 806.4, 283.3 813.2, 282.5 819 C 281.7 824.7, 280.6 831.7, 280.1 834.5 C 276.2 854.4, 276.7 913.2, 280.9 939 C 282.0 945.3, 283.3 953.4, 283.9 957 C 284.4 960.5, 285.4 965.3, 285.9 967.5 C 287.3 973.1, 289.8 983.5, 291.4 990 C 292.8 995.8, 295.8 1005.2, 299.0 1013.5 C 300.0 1016.2, 302.0 1021.6, 303.5 1025.5 C 304.9 1029.3, 307.0 1034.4, 308.0 1036.7 C 309.1 1039.0, 310.9 1043.1, 312.0 1045.7 C 313.2 1048.3, 314.5 1051.1, 315.0 1052 C 315.5 1052.8, 317.8 1057.1, 320.0 1061.5 C 322.3 1065.9, 325.4 1071.7, 327.0 1074.5 C 328.5 1077.2, 330.3 1080.4, 330.8 1081.5 C 331.3 1082.6, 332.5 1084.1, 333.3 1084.9 C 334.2 1085.6, 335 1086.7, 335 1087.3 C 335 1088.5, 338.8 1094.4, 344.4 1101.6 C 346.6 1104.5, 349.6 1108.5, 351 1110.5 C 363.2 1128.3, 387.3 1154.1, 405.3 1168.5 C 410.8 1172.8, 412.6 1174.2, 415.5 1176.0 C 417.1 1177.1, 420.9 1179.7, 424 1182.0 C 430.6 1186.8, 444.9 1196.4, 447 1197.4 C 447.8 1197.7, 450.7 1199.3, 453.5 1200.9 C 473.0 1212.1, 491.3 1219.4, 513.5 1224.8 C 517.9 1225.9, 525.7 1227.8, 531 1229.1 C 540.0 1231.3, 542.2 1231.5, 574 1231.5 C 602.9 1231.5, 608.1 1231.2, 612.5 1229.7 C 615.2 1228.8, 620.6 1227.6, 624.6 1227.1 C 628.5 1226.6, 633.0 1225.4, 634.8 1224.6 C 636.5 1223.7, 638.9 1223, 640.2 1223 C 641.4 1223, 644.1 1222.1, 646.1 1221.0 C 648.1 1220.0, 651.3 1218.8, 653.3 1218.4 C 655.3 1218.0, 657.4 1217.1, 658.0 1216.3 C 658.7 1215.6, 659.7 1215, 660.4 1215 C 662.0 1215, 682.9 1204.2, 685.0 1202.4 C 685.9 1201.6, 687.0 1200.9, 687.5 1200.9 C 688.7 1200.9, 708.3 1187.6, 714.0 1183 C 728.0 1171.6, 759.3 1137.7, 764.1 1128.7 C 764.7 1127.6, 765.6 1126.1, 766.1 1125.5 C 768.4 1122.8, 772.9 1115.3, 772.9 1114.3 C 772.9 1113.7, 773.5 1112.7, 774.3 1112.1 C 775.0 1111.5, 777.2 1107.8, 779.3 1103.7 C 781.4 1099.7, 783.4 1095.8, 783.9 1095 C 784.4 1094.1, 786.1 1090.5, 787.8 1087 C 789.4 1083.4, 791.7 1078.4, 792.8 1075.9 C 794.0 1073.4, 795 1070.7, 795 1070.0 C 795 1069.3, 795.6 1067.6, 796.4 1066.1 C 798.5 1062.1, 802.6 1049.1, 806.4 1034.5 C 807.3 1031.2, 808.6 1026.2, 809.5 1023.5 C 810.3 1020.7, 811.4 1015.4, 812.0 1011.7 C 812.5 1008.0, 813.5 1003.8, 814.0 1002.2 C 819.2 988.7, 819.7 901.2, 814.8 882.6 C 814.3 880.4, 813.0 873.9, 811.9 868.1 C 806.1 835.0, 804.3 831.1, 796.6 835.9 C 794.7 837.0, 792.4 838, 791.5 838 C 790.5 838, 788.1 838.8, 786.1 839.8 C 781.1 842.4, 772.1 846.0, 768.5 846.9 C 766.8 847.3, 764.0 848.4, 762.3 849.3 C 760.5 850.2, 758.4 851, 757.5 851 C 751.3 851, 749.0 855.6, 751.8 862.7 C 752.9 865.3, 754.1 870.2, 754.4 873.5 C 754.8 876.8, 755.8 881.7, 756.5 884.5 C 760.9 900.4, 761.0 962.1, 756.6 979.6 C 755.8 982.8, 754.8 988.4, 754.5 991.9 C 754.1 995.5, 753.2 999.8, 752.5 1001.5 C 751.8 1003.2, 750.9 1006.6, 750.5 1008.9 C 750.1 1011.3, 748.9 1015.1, 747.9 1017.3 C 746.8 1019.6, 746.0 1022.4, 746.0 1023.5 C 746.0 1024.6, 745.1 1027.3, 744 1029.5 C 742.9 1031.6, 742 1033.8, 742 1034.4 C 742 1035.0, 740.8 1037.8, 739.5 1040.7 C 738.1 1043.6, 735.8 1048.5, 734.4 1051.7 C 732.9 1054.9, 731.4 1058.1, 730.9 1059 C 730.4 1059.8, 729.1 1062.3, 728.0 1064.5 C 725.3 1069.7, 723.7 1072.2, 716.2 1083 C 708.1 1094.7, 692.3 1111.6, 680.5 1121.3 C 676.6 1124.5, 672.8 1127.6, 672 1128.3 C 668.2 1131.5, 651.2 1142.3, 648 1143.5 C 645.5 1144.5, 642.6 1145.9, 641 1146.8 C 635.4 1150.1, 614.1 1157.0, 609.4 1157.0 C 607.8 1157.0, 603.3 1157.9, 599.4 1159.1 C 589.3 1162.1, 553.9 1162.2, 540.5 1159.1 C 535.5 1158.0, 529.7 1156.8, 527.5 1156.4 C 522.1 1155.6, 511.4 1152.2, 506.3 1149.9 C 504.1 1148.8, 501.7 1148, 501.1 1148 C 499.9 1148, 496.9 1146.5, 481.5 1138.8 C 476 1136.0, 470.8 1133.2, 470 1132.5 C 469.1 1131.8, 466.2 1130.0, 463.5 1128.4 C 460.7 1126.9, 456.2 1123.9, 453.5 1121.8 C 450.7 1119.7, 446.2 1116.3, 443.5 1114.2 C 436.3 1108.7, 425.8 1098.7, 416.7 1088.5 C 405.4 1075.8, 403.9 1074.1, 399.7 1068.4 C 397.7 1065.7, 395.4 1062.8, 394.8 1062.0 C 393.2 1060.2, 385.3 1048.5, 383.3 1045.0 C 382.5 1043.6, 380.8 1040.7, 379.5 1038.5 C 368.6 1019.7, 357.3 993.1, 353.5 977 C 352.8 973.9, 351.7 970.3, 351.1 969 C 349.7 966.0, 347.5 955.7, 344.9 940.0 C 343.9 933.7, 342.6 926.4, 342.0 923.9 C 340.5 916.6, 339.7 881.7, 340.8 868 C 341.9 854.2, 345.2 832.9, 346.8 829 C 347.3 827.6, 348.3 823.5, 349.0 820 C 349.6 816.4, 350.6 812.6, 351.2 811.5 C 351.8 810.5, 352.8 807.3, 353.5 804.5 C 355.3 797.4, 357.9 790.1, 360.1 785.8 C 361.1 783.7, 362 781.6, 362 780.9 C 362 779.8, 366.3 769.7, 368.0 767 C 368.5 766.1, 369.8 763.7, 370.9 761.5 C 373.3 756.6, 374.7 754.4, 377.7 750.6 C 378.9 749.1, 380 747.3, 380 746.8 C 380 746.2, 381.0 744.5, 382.2 743.0 C 383.4 741.4, 385.3 739.0, 386.4 737.5 C 387.4 736.1, 389.3 733.8, 390.6 732.4 C 391.9 731.0, 393 729.5, 393 729.1 C 393 728.6, 397.1 724.0, 402.2 718.7 C 415.4 705.1, 436.1 688.8, 447.5 683.1 C 450.2 681.7, 453.1 680.0, 454 679.4 C 454.8 678.8, 456.8 677.8, 458.5 677.2 C 460.1 676.6, 464.8 674.7, 469 672.9 C 476.0 669.9, 485.3 667.0, 494.5 665.0 C 496.7 664.5, 505.4 663.3, 514 662.4 C 529.2 660.7, 529.7 660.7, 550 662.9 C 561.2 664.2, 571.6 665.8, 573 666.4 C 574.3 667.1, 577.7 668.0, 580.4 668.4 C 583.1 668.8, 586.9 670.0, 588.8 671.0 C 590.8 672.1, 593.2 673, 594.2 673 C 599.4 673, 635.1 691.4, 646.6 700.0 C 662.3 711.9, 692.1 741.5, 700.7 753.8 C 707.4 763.3, 713.9 773.4, 715.7 777 C 716.4 778.3, 718.3 781.7, 719.9 784.5 C 721.5 787.2, 725.4 794.6, 728.6 801 C 731.7 807.3, 735.2 813.5, 736.3 814.7 C 738.8 817.5, 743.3 817.6, 747.5 815.1 C 749.2 814.0, 752.2 812.8, 754.0 812.4 C 755.9 812.0, 759.0 810.8, 760.9 809.8 C 762.9 808.8, 765.2 808, 766.2 808 C 767.2 808, 769.8 807.1, 772 806 C 774.1 804.9, 776.4 804, 777.1 804 C 777.7 804, 780.7 802.7, 783.7 801.2 C 789.8 798.1, 789.9 797.6, 786.6 786.1 C 784.7 779.8, 772.2 753.9, 767.3 746.2 C 765.5 743.3, 764 740.7, 764 740.5 C 764 740.0, 759.5 733.1, 755 726.5 C 754.1 725.3, 752.3 722.5, 750.8 720.4 C 749.4 718.2, 746.9 714.8, 745.3 712.9 C 743.7 710.9, 741.3 707.8, 740 705.9 C 726.2 687.6, 705.8 666.9, 684 649.3 C 672.1 639.8, 666.6 635.7, 653.5 627.4 C 640.5 619.1, 612.0 606.4, 597.5 602.4 C 594.7 601.7, 590.7 600.4, 588.5 599.6 C 586.3 598.7, 583.3 598.0, 581.9 598.0 C 580.4 598.0, 577.1 597.3, 574.4 596.4 C 559.5 591.8, 517.0 590.0, 494.5 593.0 M 1519.0 658.4 C 1518.4 659.9, 1518 661.3, 1518 661.7 C 1518 665.8, 1494.6 687.4, 1474.5 701.8 C 1469 705.7, 1463.8 709.5, 1463.0 710.2 C 1462.2 710.9, 1460.8 711.9, 1459.9 712.5 C 1453.4 716.4, 1450 719.2, 1450 720.5 C 1450 722.1, 1452.1 725.5, 1458.5 733.5 C 1460.7 736.3, 1463.4 739.8, 1464.5 741.3 C 1479.3 761.6, 1480.7 763.2, 1483.0 761.9 C 1484.6 761.1, 1493.3 750.7, 1497 745.4 C 1506.2 731.7, 1514.2 719.5, 1515.0 717.7 C 1515.6 716.5, 1517.1 713.7, 1518.4 711.5 C 1520.8 707.4, 1526.5 696.0, 1530.2 688 C 1531.3 685.5, 1532.9 682.3, 1533.6 680.8 C 1535.7 676.7, 1535.4 675.6, 1528.7 665.8 C 1521.7 655.5, 1520.4 654.6, 1519.0 658.4 M 1028.5 679.4 C 1026.8 680.1, 1022.1 682.0, 1018 683.6 C 1013.8 685.2, 1008.9 687.2, 1007.0 688.2 C 1005.1 689.2, 1002.8 690.0, 1002.0 690.0 C 1001.1 690.0, 999.1 690.9, 997.5 692 C 995.8 693.0, 993.5 693.9, 992.4 693.9 C 991.3 693.9, 988.8 694.8, 986.7 695.9 C 984.7 697.0, 981.3 698.4, 979.2 698.9 C 977.1 699.4, 972.5 700.9, 969 702.3 C 948.0 710.3, 944.1 712.6, 942.2 718.4 C 941.4 720.6, 938.2 728.0, 934.8 734.9 C 923.4 758.7, 924.0 757.9, 917.6 759.9 C 915.5 760.6, 912.6 761.8, 911.1 762.6 C 909.6 763.3, 907.8 763.9, 907.1 763.9 C 906.3 763.9, 903.8 764.8, 901.6 765.8 C 899.3 766.9, 894.1 768.9, 890 770.4 C 885.8 771.9, 881.1 773.7, 879.5 774.5 C 874.5 776.7, 863.4 781, 862.5 781 C 861.6 781, 853.3 784.7, 846.8 788.1 C 844.7 789.1, 842.5 790, 841.7 790 C 841.0 790, 838.7 790.8, 836.6 791.9 C 834.5 793.0, 831.3 794.1, 829.6 794.5 C 827.9 794.9, 824.9 796.1, 823.0 797.1 C 821.0 798.1, 818.8 799, 818.1 799 C 817.3 799, 814.8 799.8, 812.6 800.8 C 808.8 802.6, 796.6 807.4, 784.6 812.0 C 782.0 813.0, 779.3 814.3, 778.6 814.8 C 778.0 815.3, 775.9 816.0, 774 816.5 C 772.0 816.9, 769.3 817.8, 768 818.6 C 766.6 819.3, 763.7 820.6, 761.5 821.4 C 759.3 822.1, 755.4 823.5, 753 824.4 C 750.5 825.3, 747.3 826.6, 746 827.3 C 744.6 828.1, 741.9 829.0, 740 829.5 C 738.0 829.9, 735.3 830.8, 734 831.6 C 732.6 832.3, 729.4 833.7, 727 834.5 C 720.5 836.9, 714.0 839.4, 709.7 841.3 C 707.7 842.2, 705.4 843.0, 704.7 843.0 C 704.0 843.0, 702.1 843.9, 700.5 845 C 698.8 846.0, 696.6 846.9, 695.5 847 C 694.4 847.0, 692.1 847.9, 690.5 849 C 688.8 850.0, 686.8 851.0, 686 851.0 C 685.1 851.0, 682.2 852.1, 679.5 853.5 C 676.7 854.8, 673.8 855.9, 673 855.9 C 672.1 856.0, 670.1 856.9, 668.5 858 C 666.8 859.0, 664.6 859.9, 663.7 859.9 C 662.7 859.9, 659.7 861.1, 657.2 862.5 C 654.6 863.8, 651.5 865, 650.3 865 C 649.2 865, 647.7 865.6, 647.0 866.4 C 646.3 867.2, 644.4 868.1, 642.6 868.5 C 640.9 868.9, 637.9 870.1, 636.0 871.1 C 634.0 872.1, 631.9 873, 631.2 873 C 630.6 873, 628.1 873.8, 625.7 874.9 C 617.5 878.5, 609.2 880.8, 608.0 879.6 C 607.4 879.0, 606.9 875.8, 606.9 872.5 C 606.9 865.6, 605.5 862.0, 602.2 860.8 C 600.3 860.1, 599.2 860.9, 594.7 865.6 C 591.8 868.7, 582.2 878.8, 573.3 888.0 C 558.0 903.9, 554.1 909.4, 556.4 911.7 C 557.0 912.3, 565.9 914.1, 577.4 915.9 C 580.6 916.4, 591.9 917.2, 602.4 917.5 C 619.7 918.2, 621.7 918.1, 623.2 916.5 C 626.0 913.8, 625.3 911.2, 620.4 906.0 C 617.7 903.2, 615.9 900.3, 616.1 899.3 C 616.6 896.8, 625.8 892.1, 640.9 886.8 C 643.9 885.8, 646.8 884.5, 647.4 883.9 C 647.9 883.4, 649.0 883, 649.8 883 C 650.7 883, 653.1 882.1, 655.4 881.0 C 659.2 879.2, 661.7 878.2, 673.5 874.0 C 676.2 873.0, 681.8 870.7, 686 869.0 C 690.1 867.2, 694.8 865.4, 696.5 864.9 C 698.1 864.4, 701.2 863.1, 703.4 862.0 C 705.6 860.9, 708.1 860, 709.0 860 C 709.8 860, 711.4 859.3, 712.5 858.5 C 713.6 857.7, 715.1 857.0, 716 857.0 C 716.8 857, 719.7 855.8, 722.5 854.5 C 725.2 853.1, 728.1 852.0, 729.0 852.0 C 729.8 852.0, 732.0 851.1, 734.0 850.1 C 735.9 849.1, 738.6 847.9, 740 847.5 C 744.4 846.2, 755.4 841.9, 758.1 840.4 C 759.6 839.6, 761.3 839, 762.0 839 C 762.7 839, 765.1 838.1, 767.3 837.1 C 769.6 836.0, 774.8 833.9, 779 832.4 C 783.1 830.9, 788.3 828.8, 790.5 827.8 C 792.7 826.9, 795.9 825.8, 797.5 825.4 C 799.1 825.0, 801.6 824.1, 803 823.3 C 804.3 822.6, 807.3 821.3, 809.5 820.6 C 818.4 817.4, 824.4 814.9, 825.3 814.0 C 825.9 813.4, 827.0 813, 827.8 813 C 828.7 813, 831.1 812.1, 833.4 811.0 C 835.6 809.9, 839.3 808.4, 841.5 807.6 C 843.7 806.8, 847.9 805.2, 851 803.9 C 854.0 802.7, 859.2 800.7, 862.5 799.4 C 865.8 798.2, 870.9 796.2, 874 795 C 882.5 791.6, 892.1 788.0, 896.5 786.5 C 898.7 785.7, 901.8 784.4, 903.5 783.6 C 905.1 782.7, 907.1 782.0, 907.8 782.0 C 908.6 782.0, 911.1 781.1, 913.3 780.1 C 930.4 772.3, 931.5 772.3, 946.1 780.0 C 948.2 781.1, 950.4 782, 951.0 782 C 951.7 782, 954.1 782.8, 956.3 783.9 C 974.1 792.2, 977.4 791.9, 1003.2 780.0 C 1012.9 775.5, 1030.5 768.7, 1041 765.3 C 1043.4 764.5, 1046.6 763.2, 1048 762.5 C 1049.3 761.7, 1052.1 760.8, 1054.2 760.4 C 1059.2 759.5, 1062.1 755.8, 1061.7 751.0 C 1061.5 747.8, 1060.9 747.2, 1056 744.8 C 1049.1 741.4, 1042.4 738.5, 1038.2 736.9 C 1033.8 735.3, 1032.4 732.6, 1034.0 728.8 C 1036.1 723.7, 1034.1 720.9, 1028.3 721.2 C 1024.5 721.4, 1023.5 721.1, 1023.2 719.8 C 1022.9 718.3, 1027.3 708.6, 1035.0 694.1 C 1039.4 685.9, 1039.6 683.5, 1036.4 680.5 C 1033.3 677.6, 1032.7 677.5, 1028.5 679.4 M 1389.5 680.2 C 1383.6 689.3, 1381.5 703.8, 1382.6 729.8 C 1383.1 742.9, 1383.6 746.2, 1384.8 746.7 C 1385.6 747.0, 1386.9 746.4, 1387.6 745.4 C 1388.8 743.8, 1403.1 728.2, 1411.2 719.8 C 1414.8 716.0, 1414.7 714.7, 1410.1 709.1 C 1404.0 701.7, 1398.0 689.5, 1396.3 681.2 C 1395.6 677.2, 1391.8 676.7, 1389.5 680.2 M 521 720.9 C 517.9 721.4, 512.8 722.5, 509.5 723.4 C 506.2 724.2, 502.8 725, 502.0 725 C 499.6 725, 481.2 732.4, 477 735.0 C 476.1 735.6, 474.1 736.6, 472.4 737.4 C 464.5 741.1, 452.6 750.2, 442.7 760.2 C 436.8 766.2, 432 771.5, 432 771.9 C 432 772.3, 430.7 774.3, 429.2 776.2 C 427.7 778.1, 425.9 780.6, 425.2 781.6 C 424.5 782.6, 422.0 786.4, 419.6 790.1 C 417.2 793.7, 414.6 798.0, 413.8 799.6 C 413.0 801.2, 411.9 803.4, 411.3 804.5 C 407.3 812.1, 400.9 827.6, 401.0 829.5 C 401.0 830.0, 400.1 833.4, 399.0 837 C 392.4 858.9, 390.0 883.8, 391.8 911.4 C 392.5 920.8, 393.6 930.5, 394.3 933 C 395.1 935.4, 396.0 940.4, 396.4 944 C 396.9 947.5, 397.8 951.6, 398.5 953.0 C 399.2 954.4, 400.1 957.3, 400.5 959.5 C 400.9 961.7, 402.0 965.5, 402.9 968 C 403.9 970.4, 405.7 975.2, 406.9 978.5 C 408.8 983.5, 415.4 997.3, 422.2 1010.5 C 424.0 1014.1, 436.4 1032.5, 438.6 1035 C 439.3 1035.8, 441.8 1038.7, 444.2 1041.5 C 451.4 1050.0, 468.4 1065.9, 474.5 1069.9 C 480.9 1074.2, 487.7 1078.6, 489.5 1079.7 C 497.1 1084.2, 501.2 1086.4, 508.3 1089.5 C 512.8 1091.5, 517.6 1093.7, 519 1094.4 C 520.3 1095.1, 523.6 1096.0, 526.2 1096.4 C 528.9 1096.8, 532.6 1097.8, 534.6 1098.6 C 544.1 1102.6, 591.9 1102.6, 599.7 1098.6 C 601.2 1097.8, 604.0 1096.9, 606 1096.5 C 609.6 1095.8, 616.0 1093.4, 624.6 1089.3 C 627.4 1088.0, 630.0 1087, 630.3 1087 C 630.7 1087, 632.3 1086.1, 633.7 1085.1 C 635.2 1084.1, 638.5 1082.0, 640.9 1080.4 C 643.4 1078.8, 646.1 1076.8, 647.0 1076 C 647.9 1075.1, 650.4 1073.1, 652.5 1071.5 C 660.9 1064.8, 676.0 1047.8, 682.4 1038 C 684.0 1035.5, 686.0 1032.3, 686.9 1031 C 687.8 1029.6, 690.1 1025.3, 691.8 1021.5 C 693.6 1017.6, 695.7 1013.3, 696.5 1011.8 C 697.3 1010.3, 698.0 1008.5, 698.0 1007.8 C 698.0 1007.1, 699.1 1004.2, 700.5 1001.5 C 701.8 998.7, 702.9 995.8, 702.9 995 C 702.9 994.1, 703.8 990.8, 704.9 987.5 C 710.7 970.1, 711.4 963.5, 711.4 930.5 C 711.4 901.7, 711.3 898.7, 709.1 888.5 C 707.8 882.4, 706.3 876.7, 705.8 875.7 C 704.6 873.5, 698.7 873.3, 697.0 875.4 C 696.3 876.2, 694.1 877.2, 692.1 877.6 C 690.1 878.0, 687.1 879.1, 685.5 880.1 C 683.8 881.1, 681.5 881.9, 680.3 881.9 C 679.1 881.9, 676.2 882.8, 673.8 883.9 C 671.4 885.0, 668.6 885.9, 667.6 885.9 C 665.1 886.0, 654.1 891.1, 653.6 892.4 C 653.4 893.0, 653.7 897.1, 654.2 901.5 C 655.4 912.3, 654.6 947.6, 653.0 951.5 C 652.3 953.1, 650.9 957.4, 649.9 961 C 642.5 988.0, 625.1 1010.7, 603.7 1021.1 C 586.1 1029.7, 582.9 1030.5, 562.5 1030.4 C 543.0 1030.4, 538.6 1029.5, 523 1022.2 C 508.4 1015.5, 487.9 998.5, 480.1 986.6 C 469.9 971.2, 469.8 971.1, 466.0 963.5 C 462.1 955.5, 458 945.4, 458 943.6 C 458 942.8, 457.1 940.2, 456.0 937.8 C 455.0 935.4, 453.6 929.9, 453.1 925.5 C 452.5 921.1, 451.5 913.9, 450.9 909.5 C 449.7 901.1, 450.0 896.2, 452.6 879 C 456.5 853.4, 468.4 829.3, 485.1 813.4 C 491.9 806.9, 502.6 799, 504.4 799 C 504.8 799, 506.3 798.1, 507.7 797 C 509.1 795.9, 510.9 795, 511.6 795 C 512.4 795, 515.0 794.1, 517.3 793.0 C 528.1 788.1, 558.7 788.1, 569.8 793.0 C 572.2 794.1, 574.8 795, 575.4 795 C 576.8 795, 585.6 799.3, 590.5 802.4 C 598.2 807.2, 601.5 809.5, 602.5 810.5 C 603.0 811.1, 606.3 814.0, 609.8 816.9 C 619.4 825.0, 632.3 841.7, 637.1 852.1 C 639.4 857.1, 642.6 857.7, 649.6 854.5 C 652.7 853.1, 655.7 852, 656.3 852 C 657.0 852, 659.2 851.1, 661.2 850 C 663.3 848.9, 665.5 847.9, 666.2 847.9 C 666.9 847.9, 669.7 846.8, 672.5 845.5 C 675.2 844.1, 678.0 843.0, 678.6 843.0 C 680.2 842.9, 690.3 837.7, 691.2 836.5 C 692.9 834.0, 689.2 824.1, 682.5 813.5 C 681.5 811.8, 679.3 808.4, 677.8 806 C 665.7 786.4, 650.7 769.3, 633.5 755.5 C 629.6 752.4, 625.8 749.4, 625.0 748.7 C 624.2 748.0, 622.4 746.9, 621.0 746.2 C 619.6 745.5, 616.4 743.6, 614 742.0 C 603.2 735.0, 583.7 726.6, 574.4 724.9 C 571.7 724.4, 567.2 723.3, 564.4 722.4 C 558.5 720.6, 529.4 719.6, 521 720.9 M 959.8 724.2 C 957.6 726.2, 955.1 730.1, 953.3 734.3 C 951.8 738.1, 949.7 741.6, 948.7 742.1 C 946.7 743.2, 946.3 748.0, 948.2 747.9 C 948.9 747.9, 951.7 746.6, 954.5 745.0 C 958.6 742.7, 959.9 741.2, 961.8 736.8 C 963.1 733.9, 965.0 729.8, 966.0 727.8 C 969.9 720.3, 966.4 718.4, 959.8 724.2 M 963.4 762.4 C 953.4 764.1, 951.3 765.9, 956.7 768.1 C 958.2 768.7, 961.0 770.0, 963 770.8 C 966.9 772.7, 985.3 773.0, 987.0 771.3 C 987.7 770.6, 985.9 768.7, 982.0 765.6 C 975.4 760.5, 975.0 760.4, 963.4 762.4 M 537.9 850.3 C 525.1 854.5, 518.0 860.8, 508.6 876.2 C 501.8 887.3, 500.0 907.9, 504.4 924.5 C 516.4 969.4, 563.8 988.0, 590.8 958.4 C 600.3 948.0, 605.4 934.3, 601.5 930.0 C 599.5 927.8, 591.4 926.4, 576.4 925.5 C 558.5 924.4, 546 918.6, 546 911.5 C 546 907.2, 551.1 896.2, 555.2 891.7 C 557.3 889.4, 561.6 884.8, 564.8 881.5 C 574.2 871.7, 580 864.4, 580 862.3 C 580 857.7, 572.8 853.1, 561.2 850.1 C 551.2 847.5, 546.4 847.5, 537.9 850.3 M 344.4 1260.7 C 344.1 1262.2, 343.2 1264.9, 342.4 1266.7 C 341.6 1268.5, 340.9 1270.8, 340.9 1271.7 C 340.9 1272.7, 340.2 1275.3, 339.3 1277.5 C 338.5 1279.7, 337.0 1284.4, 336.0 1288 C 334.1 1294.4, 332.3 1300, 329.0 1309.5 C 325.4 1319.5, 324.7 1321.6, 323 1327.5 C 322.0 1330.8, 320.7 1334.8, 320.1 1336.5 C 319.5 1338.1, 317.9 1343.3, 316.5 1348 C 315.1 1352.6, 313.0 1359.6, 311.8 1363.5 C 310.7 1367.3, 308.9 1372.7, 307.9 1375.5 C 306.9 1378.2, 305.6 1382.3, 305.0 1384.5 C 304.0 1388.8, 301.8 1395.8, 299.3 1403 C 298.5 1405.4, 297.2 1409.5, 296.6 1412 C 295.9 1414.4, 294.9 1417.4, 294.2 1418.6 C 293.6 1419.7, 292.7 1422.7, 292.3 1425.1 C 292.0 1427.5, 291.1 1430.6, 290.4 1432 C 289.6 1433.3, 288.4 1436.9, 287.6 1440 C 286.8 1443.0, 285.7 1446.8, 285.1 1448.5 C 284.0 1451.6, 282.1 1457.4, 279.0 1467.5 C 277.2 1473.4, 276.7 1475.0, 273.5 1484.5 C 272.5 1487.2, 271.2 1491.7, 270.4 1494.5 C 269.1 1499.3, 268.0 1502.7, 264.5 1513.5 C 263.6 1516.2, 262.3 1520.5, 261.7 1523 C 261.2 1525.4, 260.1 1528.3, 259.3 1529.4 C 258.6 1530.5, 258 1532.2, 258 1533.2 C 258 1535.0, 254.2 1547.5, 250.9 1556.5 C 249.9 1559.2, 248.8 1563.0, 248.4 1564.9 C 248.0 1566.9, 247.1 1569.3, 246.4 1570.4 C 245.7 1571.5, 244.8 1574.3, 244.4 1576.5 C 244.0 1578.7, 243.1 1581.6, 242.5 1583 C 241.8 1584.3, 240.6 1587.9, 240.0 1591 C 239.3 1594.0, 238.3 1596.9, 237.9 1597.5 C 237.5 1598.0, 236.6 1600.5, 236.0 1603 C 235.4 1605.4, 234.0 1609.6, 232.9 1612.1 C 230.0 1619.2, 230.3 1623.1, 234.0 1625.9 C 237.9 1628.7, 241.3 1628.0, 242.7 1624.2 C 246.4 1613.5, 247.2 1611.0, 248.0 1607.2 C 248.5 1604.9, 249.5 1601.7, 250.3 1600.2 C 251.1 1598.6, 252.1 1595.6, 252.5 1593.4 C 252.9 1591.2, 253.6 1588.9, 254.1 1588.3 C 254.6 1587.7, 255.8 1584.1, 256.8 1580.3 C 257.9 1576.5, 259.2 1572.1, 259.8 1570.5 C 260.4 1568.8, 263.2 1560.3, 265.9 1551.5 C 268.7 1542.7, 271.6 1533.9, 272.4 1532 C 273.1 1530.0, 274.5 1526.2, 275.4 1523.5 C 276.9 1518.9, 277.9 1515.5, 282.4 1500 C 283.3 1496.9, 284.6 1493.1, 285.4 1491.5 C 286.2 1489.8, 287.1 1486.7, 287.5 1484.5 C 287.8 1482.3, 288.9 1478.2, 289.9 1475.5 C 290.9 1472.7, 292.7 1467.3, 293.8 1463.5 C 294.9 1459.6, 296.6 1454.2, 297.5 1451.5 C 298.4 1448.7, 299.7 1444.2, 300.4 1441.5 C 301.2 1438.7, 302.4 1434.7, 303.3 1432.5 C 304.1 1430.3, 306.9 1421.7, 309.4 1413.5 C 312.0 1405.2, 315.0 1396.0, 316.0 1393.1 C 317.1 1390.2, 318 1387.1, 318 1386.2 C 318 1385.3, 318.8 1382.8, 319.8 1380.5 C 321.5 1376.8, 323.5 1370.8, 329.1 1352.5 C 330.3 1348.6, 332.0 1343.0, 333.0 1340 C 334.0 1336.9, 336.0 1330.4, 337.5 1325.5 C 338.9 1320.5, 340.8 1314.7, 341.6 1312.5 C 342.5 1310.3, 343.7 1306.2, 344.5 1303.5 C 346.2 1297.0, 348.7 1289.3, 350.4 1285.4 C 351.1 1283.8, 352.0 1280.9, 352.4 1278.9 C 352.8 1277.0, 354.1 1273.0, 355.3 1270.1 C 357.4 1264.8, 357.4 1264.6, 355.6 1263.6 C 354.5 1262.9, 352.4 1261.4, 350.9 1260.2 C 347.2 1257.2, 345.1 1257.3, 344.4 1260.7 M 708 1277.5 C 706.1 1278.8, 703.9 1280, 703.1 1280 C 701.5 1280, 694.8 1283.8, 693.8 1285.3 C 693.4 1285.8, 693.7 1288.1, 694.5 1290.4 C 697.2 1298.7, 699.8 1305.5, 701.4 1308.5 C 702.2 1310.1, 702.9 1312.0, 702.9 1312.7 C 702.9 1313.3, 703.8 1315.8, 704.9 1318.2 C 705.9 1320.5, 708.0 1325.8, 709.5 1330 C 711.0 1334.1, 713.1 1339.3, 714.1 1341.5 C 715.1 1343.8, 716 1346.1, 716 1346.8 C 716 1347.5, 716.8 1349.7, 717.9 1351.8 C 720.7 1357.0, 723.9 1364.4, 724.0 1365.5 C 724.0 1366.0, 725.1 1368.7, 726.5 1371.5 C 727.8 1374.2, 728.9 1377.1, 728.9 1378.0 C 728.9 1378.8, 729.6 1380.4, 730.4 1381.5 C 731.1 1382.6, 733.4 1387.8, 735.5 1393.0 C 737.5 1398.2, 739.5 1402.9, 739.9 1403.5 C 740.3 1404.0, 741.3 1406.3, 742.0 1408.5 C 742.7 1410.7, 744.1 1414.0, 745.1 1415.9 C 746.1 1417.9, 747 1420.0, 747 1420.8 C 747 1421.5, 747.6 1423.3, 748.4 1424.8 C 749.2 1426.3, 751.0 1430.4, 752.5 1434 C 754.0 1437.5, 756.0 1442.5, 757.0 1445 C 758.0 1447.4, 760.0 1452.4, 761.5 1456 C 762.9 1459.5, 765.0 1464.4, 766.0 1466.7 C 767.1 1469.1, 768 1471.5, 768 1472.2 C 768 1472.8, 768.8 1475.1, 769.8 1477.4 C 773.3 1485.3, 776.2 1492.5, 776.9 1495.7 C 777.4 1497.5, 778.2 1499.6, 778.7 1500.2 C 779.3 1500.9, 780.5 1503.8, 781.4 1506.7 C 782.3 1509.6, 783.5 1512.2, 783.9 1512.4 C 784.4 1512.7, 785.0 1514.6, 785.4 1516.6 C 785.8 1518.7, 786.9 1521.9, 788.0 1523.9 C 789.0 1525.9, 791.2 1531.1, 792.8 1535.5 C 794.5 1539.9, 796.5 1544.8, 797.4 1546.5 C 798.2 1548.1, 798.9 1550.1, 799 1551 C 799.0 1551.8, 799.9 1553.8, 801 1555.5 C 802.0 1557.1, 802.9 1559.0, 802.9 1559.8 C 802.9 1560.5, 804.0 1563.4, 805.3 1566.3 C 806.6 1569.1, 808.6 1573.9, 809.9 1577 C 811.1 1580.0, 813.0 1584.3, 814.0 1586.5 C 815.1 1588.7, 816.0 1591.0, 816.0 1591.8 C 816 1593.0, 818.1 1598.1, 823.0 1608.6 C 824.1 1610.8, 825 1613.4, 825 1614.2 C 825 1615.5, 827.3 1621.4, 831.4 1630.5 C 832.2 1632.1, 834.0 1636.4, 835.5 1640 C 836.9 1643.5, 839.2 1648.7, 840.5 1651.6 C 841.9 1654.4, 843 1657.1, 843 1657.7 C 843 1658.2, 843.9 1659.9, 845.1 1661.4 C 847.1 1664.0, 847.5 1664.1, 853.3 1663.5 C 861.9 1662.6, 869.1 1661.0, 871.8 1659.3 C 874.3 1657.7, 874.3 1657.1, 870.3 1647.7 C 869.0 1644.5, 866.8 1639.1, 865.3 1635.7 C 863.9 1632.3, 861.9 1627.6, 860.8 1625.4 C 859.8 1623.1, 859 1620.7, 859 1619.9 C 859 1619.1, 858.3 1617.5, 857.6 1616.4 C 856.8 1615.3, 855.7 1612.8, 855.1 1610.9 C 854.4 1608.9, 853.0 1605.5, 851.9 1603.4 C 850.8 1601.3, 850 1598.9, 850 1598.2 C 850 1597.4, 849.1 1595.2, 848.0 1593.1 C 844.9 1587.1, 842 1580.3, 842 1579.2 C 842 1578.2, 838.7 1570.6, 834.9 1562.3 C 833.8 1560.1, 832.9 1557.6, 832.9 1556.8 C 832.9 1556.1, 832.0 1554.0, 830.9 1552.2 C 829.8 1550.4, 828.9 1548.4, 828.9 1547.7 C 828.9 1547.0, 827.8 1544.2, 826.5 1541.5 C 825.1 1538.7, 824.0 1535.8, 824.0 1534.9 C 824.0 1534.0, 823.5 1532.9, 822.9 1532.3 C 822.0 1531.4, 819.6 1525.8, 816.3 1516.5 C 815.5 1514.3, 814.2 1511.1, 813.4 1509.5 C 812.7 1507.8, 810.6 1503.1, 808.9 1499 C 807.2 1494.8, 805.2 1490.3, 804.4 1488.8 C 803.6 1487.3, 802.9 1485.5, 802.9 1484.8 C 802.9 1484.1, 801.8 1481.2, 800.5 1478.5 C 799.1 1475.7, 798.0 1472.8, 798.0 1471.9 C 798.0 1471.1, 797.3 1469.5, 796.6 1468.4 C 795.8 1467.3, 794.7 1464.8, 794.1 1462.9 C 793.4 1460.9, 792.0 1457.5, 790.9 1455.4 C 789.8 1453.3, 789 1451.0, 789 1450.3 C 789 1449.6, 788.1 1447.5, 787.0 1445.7 C 785.9 1443.9, 785.0 1441.8, 785.0 1440.9 C 785.0 1440.1, 784.1 1437.7, 783 1435.7 C 781.9 1433.6, 781 1431.4, 781 1430.7 C 781 1430.0, 780.1 1427.9, 779.1 1425.9 C 778.1 1424.0, 776.9 1421.3, 776.5 1420 C 775.8 1417.3, 773.0 1411.0, 769.8 1404.8 C 768.8 1402.7, 767.9 1400.5, 767.9 1399.8 C 767.9 1399.0, 766.8 1396.2, 765.5 1393.5 C 764.1 1390.7, 763.0 1388.0, 762.9 1387.5 C 762.9 1386.9, 762.0 1384.7, 761 1382.5 C 759.9 1380.3, 759.0 1377.9, 759.0 1377.3 C 759.0 1376.6, 757.8 1373.9, 756.5 1371.4 C 755.1 1368.8, 754 1366.1, 754 1365.5 C 754 1364.9, 753.1 1362.6, 752 1360.5 C 750.9 1358.3, 750 1355.9, 750 1355.1 C 750 1354.4, 749.3 1352.6, 748.5 1351.1 C 746.2 1346.6, 742.2 1337.6, 741.4 1335 C 741.0 1333.6, 739.9 1331.0, 738.8 1329.3 C 737.8 1327.6, 736.9 1325.6, 736.9 1324.8 C 736.9 1324.1, 736.2 1322.1, 735.4 1320.5 C 733.8 1317.4, 727.0 1300.9, 724.3 1293.5 C 723.5 1291.3, 722.2 1288.4, 721.5 1287.0 C 720.8 1285.6, 719.3 1282.3, 718.1 1279.7 C 715.6 1274.1, 713.2 1273.6, 708 1277.5 M 675.3 1292.7 C 670.4 1293.5, 670.1 1299.6, 674.4 1306.5 C 675.1 1307.6, 676.0 1310.0, 676.4 1312.0 C 676.8 1313.9, 677.8 1316.6, 678.6 1318 C 679.3 1319.3, 680.5 1322.3, 681.3 1324.5 C 683.5 1330.6, 689.9 1347.0, 692.1 1351.6 C 693.1 1353.8, 694 1356.3, 694 1357.1 C 694 1357.8, 694.8 1360.0, 695.8 1362.0 C 696.8 1363.9, 698.0 1366.9, 698.4 1368.6 C 698.8 1370.4, 699.7 1372.3, 700.5 1373.0 C 701.3 1373.6, 702.2 1375.8, 702.5 1377.8 C 702.9 1379.8, 704.0 1382.9, 705.1 1384.6 C 706.1 1386.3, 707 1388.3, 707 1389.1 C 707 1389.9, 707.9 1392.2, 709 1394.2 C 710.1 1396.3, 711 1398.5, 711 1399.2 C 711 1399.9, 711.8 1402.0, 712.8 1404.0 C 713.8 1405.9, 715.2 1409.3, 715.9 1411.5 C 716.7 1413.7, 717.8 1416.3, 718.6 1417.4 C 719.3 1418.5, 720 1420.1, 720 1420.9 C 720 1421.7, 720.8 1424.1, 721.9 1426.4 C 723.0 1428.6, 724.5 1432.3, 725.3 1434.5 C 728.5 1443.4, 729.4 1445.7, 731.7 1451 C 735.3 1459.2, 735.5 1459.4, 738.2 1460.3 C 745.1 1462.8, 748.1 1458.0, 743.9 1451.2 C 742.8 1449.4, 741.9 1447.4, 741.9 1446.7 C 741.9 1446.0, 740.8 1443.2, 739.5 1440.5 C 738.1 1437.7, 737.0 1434.8, 737.0 1434 C 737.0 1433.1, 736.0 1431.1, 735 1429.5 C 733.9 1427.8, 733.0 1425.8, 732.9 1425 C 732.9 1424.1, 731.8 1421.2, 730.5 1418.5 C 729.1 1415.7, 728.0 1412.5, 728.0 1411.4 C 728.0 1410.3, 727.2 1408.3, 726.3 1407.1 C 725.4 1405.8, 724.3 1403.3, 723.9 1401.6 C 723.1 1398.2, 716.1 1381.1, 712.9 1374.3 C 711.8 1372.1, 711 1369.7, 711 1369.0 C 711 1368.4, 709.8 1365.7, 708.5 1363.2 C 707.1 1360.6, 706 1357.7, 706 1356.8 C 706 1355.9, 705.3 1354.7, 704.6 1354.0 C 703.8 1353.4, 702.8 1351.2, 702.5 1349.2 C 702.1 1347.1, 700.9 1344.0, 699.9 1342.3 C 698.8 1340.6, 698 1338.4, 698 1337.5 C 698 1336.5, 697.1 1334.1, 696.0 1332.1 C 693.1 1326.6, 689 1316.9, 689 1315.6 C 689 1314.9, 688.1 1312.9, 687.1 1310.9 C 686.1 1309.0, 684.9 1305.8, 684.5 1303.7 C 683.8 1299.4, 680.5 1293.3, 678.7 1292.7 C 678.0 1292.5, 676.5 1292.5, 675.3 1292.7 M 414.5 1298.2 C 413.3 1302.7, 410.8 1320.6, 409.9 1332 C 409.3 1339.4, 408.4 1347.3, 407.9 1349.5 C 407.4 1351.8, 406.5 1359.9, 406.0 1367.5 C 405.4 1375.2, 404.2 1385.7, 403.4 1391 C 402.6 1396.2, 401.5 1405.6, 400.9 1412 C 400.4 1418.3, 399.3 1428.2, 398.5 1434 C 397.7 1439.7, 397.0 1446.9, 397.0 1450 C 396.9 1453.0, 396.2 1460.2, 395.4 1466 C 394.6 1471.7, 393.4 1481.6, 392.9 1488 C 392.4 1494.3, 391.3 1504.2, 390.5 1510 C 389.7 1515.7, 388.6 1525.9, 388.0 1532.5 C 387.5 1539.1, 386.4 1549.6, 385.5 1556 C 382.9 1575.8, 380.0 1601.1, 379.4 1610.5 C 379.1 1615.4, 378.2 1623.3, 377.4 1628 C 376.6 1632.6, 375.5 1643.2, 375.0 1651.5 C 374.4 1659.7, 373.5 1668.9, 373.0 1672 C 372.4 1675.0, 371.5 1683.1, 371.0 1690.1 C 370.4 1697.1, 369.2 1706.5, 368.4 1711.1 C 367.6 1715.7, 367.0 1722.3, 367.0 1725.7 C 367 1731.9, 367.0 1731.9, 371.0 1734.5 C 377.0 1738.2, 378.3 1737.6, 379.2 1730.4 C 379.6 1727.1, 380.6 1719.1, 381.5 1712.5 C 382.3 1705.9, 383.4 1695.1, 384.0 1688.5 C 384.5 1681.9, 385.4 1673.8, 385.9 1670.5 C 386.4 1667.2, 387.4 1657.9, 388.0 1650 C 388.6 1642.0, 389.5 1633.9, 390.0 1632 C 390.5 1630.0, 391.4 1622.2, 391.9 1614.5 C 392.5 1606.8, 393.6 1596, 394.4 1590.5 C 395.3 1585, 396.4 1573.6, 396.9 1565.2 C 397.5 1556.8, 398.4 1548.0, 398.9 1545.7 C 399.4 1543.3, 400.3 1534.9, 400.9 1526.9 C 401.5 1518.9, 402.4 1510.1, 402.9 1507.3 C 403.4 1504.5, 404.3 1495.2, 404.9 1486.8 C 405.5 1478.4, 406.6 1467, 407.4 1461.5 C 408.2 1456, 409.3 1445.7, 409.9 1438.7 C 410.5 1431.7, 411.4 1424.0, 411.9 1421.5 C 412.5 1419.1, 413.4 1410.7, 414.0 1402.8 C 414.6 1394.9, 415.6 1384.6, 416.4 1380 C 417.2 1375.3, 418.1 1365.6, 418.4 1358.5 C 418.8 1351.3, 419.7 1341, 420.5 1335.5 C 423.1 1316.7, 424.1 1303.1, 423.0 1301.0 C 421.1 1297.5, 415.3 1295.6, 414.5 1298.2 M 647 1302.9 C 645.0 1303.9, 641.1 1305.2, 638.2 1305.8 C 635.3 1306.4, 631.9 1307.6, 630.7 1308.3 C 629.5 1309.1, 626.7 1310.0, 624.5 1310.4 C 622.3 1310.8, 619.4 1311.7, 618.0 1312.4 C 616.6 1313.1, 613.0 1314.1, 610.0 1314.5 C 607.0 1314.9, 602.8 1315.8, 600.7 1316.5 C 598.6 1317.3, 592.3 1318.4, 586.7 1318.9 C 581.0 1319.5, 573.8 1320.5, 570.5 1321.2 C 561.3 1323.0, 519.0 1322.7, 506 1320.7 C 490.4 1318.3, 482.3 1317.8, 481.2 1319.2 C 480.6 1319.9, 479.9 1325.0, 479.6 1330.5 C 479.2 1336.1, 478.5 1342.8, 478.0 1345.5 C 477.5 1348.2, 476.6 1356.8, 476.0 1364.5 C 475.4 1372.2, 474.2 1383.4, 473.4 1389.5 C 472.6 1395.5, 471.5 1407.0, 470.9 1415 C 470.3 1422.9, 469.4 1432.2, 468.9 1435.5 C 468.4 1438.8, 467.6 1448.2, 467.0 1456.5 C 466.5 1464.7, 465.3 1477.1, 464.3 1484.0 C 462.3 1499.1, 462.5 1500.5, 467.7 1499.6 C 469.8 1499.2, 476.4 1498.2, 482.5 1497.4 C 488.5 1496.7, 497.3 1495.3, 502 1494.6 C 506.6 1493.8, 513.6 1492.8, 517.4 1492.4 C 521.2 1492.1, 525.4 1491.4, 526.6 1490.9 C 527.9 1490.4, 533.7 1489.6, 539.7 1489.0 C 545.6 1488.4, 554.3 1487.3, 559 1486.5 C 568.7 1484.8, 587.1 1482.1, 598 1480.8 C 602.1 1480.3, 610.6 1479.0, 617 1477.9 C 623.3 1476.9, 632.8 1475.5, 638.1 1475.0 C 643.4 1474.4, 648.9 1473.5, 650.2 1473.0 C 651.6 1472.5, 656.4 1471.8, 661.1 1471.4 C 665.7 1471.0, 672.8 1470.1, 677 1469.3 C 681.1 1468.5, 689.6 1467.2, 696 1466.4 C 711.1 1464.5, 719.2 1462.6, 719.8 1461.0 C 720.0 1460.3, 719.3 1458.5, 718.1 1457.0 C 717.0 1455.4, 715.7 1452.9, 715.4 1451.3 C 715.0 1449.7, 714.1 1447.4, 713.3 1446.1 C 712.5 1444.9, 711.2 1441.9, 710.5 1439.6 C 708.1 1432.3, 705.9 1426.6, 703.9 1422.4 C 702.8 1420.1, 702 1417.8, 702 1417.1 C 702 1416.5, 701.1 1414.3, 700 1412.2 C 698.9 1410.2, 697.9 1407.8, 697.9 1407.0 C 697.9 1406.1, 696.8 1403.2, 695.4 1400.5 C 694.1 1397.7, 693.0 1394.8, 693.0 1394 C 692.9 1393.1, 692.0 1391.1, 691 1389.5 C 689.9 1387.8, 689.0 1385.8, 689.0 1385.1 C 689.0 1384.3, 688.1 1381.8, 687.0 1379.6 C 682.1 1369.1, 679.9 1364.0, 679.9 1362.8 C 679.9 1362.0, 679.0 1360.1, 678 1358.5 C 676.9 1356.8, 675.9 1354.8, 675.9 1354 C 675.9 1353.1, 674.8 1350.2, 673.4 1347.5 C 672.1 1344.7, 671.0 1341.8, 671.0 1341.1 C 671.0 1340.4, 670.3 1338.6, 669.5 1337.1 C 668.1 1334.6, 667.3 1332.7, 662.9 1320.1 C 661.8 1317.1, 660.6 1314.2, 660.1 1313.6 C 659.6 1312.9, 658.9 1311.0, 658.5 1309.3 C 657.8 1305.8, 653.8 1300.9, 651.7 1301.0 C 651.0 1301.0, 648.9 1301.9, 647 1302.9 M 437.5 1307.2 C 437.3 1307.9, 436.8 1313.6, 436.5 1320 C 436.1 1326.3, 435.2 1334.4, 434.5 1338 C 433.7 1341.5, 432.6 1350.8, 432.0 1358.5 C 431.4 1366.2, 430.5 1375.2, 429.9 1378.5 C 429.4 1381.8, 428.3 1392.6, 427.5 1402.6 C 426.7 1412.6, 425.6 1422.7, 425.1 1425.1 C 424.6 1427.5, 423.8 1434.9, 423.5 1441.5 C 423.1 1448.1, 422.0 1460.2, 421.0 1468.5 C 419.9 1476.7, 418.8 1488, 418.4 1493.5 C 418.1 1499, 417.4 1505.5, 416.9 1508.1 C 416.4 1510.6, 415.5 1519.6, 414.9 1528.1 C 414.3 1536.5, 413.2 1546.8, 412.5 1551 C 411.7 1555.1, 410.8 1563.2, 410.5 1569 C 410.1 1574.7, 409.0 1586.0, 407.9 1594 C 406.9 1601.9, 405.8 1613, 405.4 1618.5 C 405.1 1624, 404.2 1632.3, 403.5 1637 C 402.7 1641.6, 401.9 1650, 401.5 1655.5 C 401.2 1661, 400.1 1672.9, 399.0 1682 C 397.9 1691.0, 396.6 1703.2, 396.0 1709 C 395.5 1714.7, 394.5 1723.6, 393.8 1728.7 C 393.0 1734.6, 392.9 1738.3, 393.5 1738.9 C 394.1 1739.5, 398.0 1739.2, 404.0 1737.9 C 409.2 1736.9, 415.1 1736.0, 417.0 1736.0 C 423.7 1735.9, 424.7 1733.3, 426.9 1707 C 427.5 1700.1, 428.6 1689.5, 429.4 1683.5 C 430.3 1677.4, 431.4 1666.3, 431.9 1658.8 C 432.4 1651.2, 433.3 1643.1, 433.9 1640.8 C 434.5 1638.4, 435.4 1629.2, 435.9 1620.4 C 436.4 1611.6, 437.5 1599.9, 438.3 1594.4 C 439.1 1588.9, 440.0 1580, 440.4 1574.5 C 440.7 1569, 441.7 1559.5, 442.5 1553.5 C 443.2 1547.4, 444.4 1536.2, 444.9 1528.5 C 445.5 1520.8, 446.4 1512.0, 446.9 1509 C 447.5 1505.9, 448.4 1496.5, 449.0 1488 C 449.6 1479.4, 450.7 1467.7, 451.4 1462 C 452.2 1456.2, 453.1 1446.1, 453.4 1439.5 C 453.8 1432.9, 454.7 1423.2, 455.4 1417.9 C 456.2 1412.7, 457.1 1403.7, 457.5 1397.9 C 457.8 1392.2, 458.7 1382.9, 459.5 1377.4 C 460.3 1371.8, 461.4 1360.4, 461.9 1351.9 C 462.9 1337.3, 464.2 1325.3, 465.5 1318.4 C 466.1 1315.5, 465.9 1315.3, 460.8 1313.2 C 457.8 1312.0, 453.6 1310.6, 451.3 1310.1 C 449.0 1309.6, 446.1 1308.5, 444.8 1307.6 C 442.1 1305.6, 438.0 1305.4, 437.5 1307.2 M 733.5 1476.6 C 731.3 1476.8, 726.1 1477.7, 722 1478.4 C 717.8 1479.2, 710.6 1480.2, 706 1480.5 C 701.3 1480.9, 695.0 1481.8, 692 1482.5 C 688.9 1483.3, 681.7 1484.3, 676 1484.9 C 670.2 1485.4, 663.9 1486.4, 662 1486.9 C 660.0 1487.5, 654 1488.5, 648.5 1489.0 C 643 1489.6, 636.0 1490.7, 633 1491.4 C 629.9 1492.2, 623.4 1493.1, 618.5 1493.5 C 613.5 1493.9, 606.7 1494.8, 603.2 1495.5 C 599.8 1496.3, 592.0 1497.4, 585.9 1498.0 C 579.8 1498.5, 571.8 1499.6, 568.2 1500.4 C 564.5 1501.1, 557.9 1502.1, 553.5 1502.4 C 549.1 1502.8, 542.8 1503.7, 539.5 1504.5 C 536.2 1505.2, 529.9 1506.1, 525.5 1506.5 C 521.1 1506.8, 515.0 1507.7, 512 1508.5 C 508.9 1509.2, 501.3 1510.4, 495.0 1511.0 C 488.8 1511.6, 482.5 1512.5, 481.2 1513.0 C 479.9 1513.5, 475.7 1514.2, 471.9 1514.6 C 468.1 1514.9, 464.3 1515.7, 463.6 1516.3 C 462.1 1517.5, 459 1534.7, 459 1541.2 C 459 1544.9, 459.0 1545, 462.7 1544.9 C 464.8 1544.9, 469.2 1544.3, 472.5 1543.5 C 475.8 1542.7, 483.1 1541.6, 488.6 1541.0 C 494.1 1540.5, 501.5 1539.4, 505.0 1538.6 C 508.6 1537.8, 514.8 1536.8, 519 1536.5 C 523.1 1536.1, 529.4 1535.2, 533 1534.4 C 536.5 1533.7, 544.1 1532.6, 549.8 1531.9 C 555.5 1531.3, 561.2 1530.4, 562.4 1530.0 C 563.6 1529.5, 569.6 1528.6, 575.8 1528.0 C 581.9 1527.4, 588.0 1526.5, 589.3 1526.0 C 590.5 1525.5, 596.7 1524.6, 603.0 1524.0 C 609.3 1523.4, 617.6 1522.2, 621.5 1521.5 C 625.3 1520.7, 632.8 1519.6, 638.1 1519.0 C 643.4 1518.4, 650.8 1517.3, 654.6 1516.6 C 658.4 1515.8, 665.3 1514.9, 670 1514.5 C 674.6 1514.2, 680.7 1513.2, 683.5 1512.5 C 686.2 1511.8, 692.3 1510.9, 697 1510.5 C 701.6 1510.1, 708.2 1509.2, 711.5 1508.5 C 714.8 1507.7, 721.7 1506.6, 727 1506.0 C 732.2 1505.5, 739.6 1504.3, 743.5 1503.5 C 747.3 1502.7, 752.3 1502.0, 754.6 1502.0 C 762.1 1501.9, 763.2 1500.7, 760.5 1495.3 C 757.3 1488.7, 755.4 1484.2, 754.4 1480.5 L 753.4 1476.5 745.4 1476.4 C 741.0 1476.3, 735.7 1476.4, 733.5 1476.6 M 761.2 1515.6 C 759.3 1516.4, 759.7 1521.5, 762 1525.7 C 763.1 1527.7, 764 1530.1, 764 1531.0 C 764 1531.8, 764.6 1533.4, 765.3 1534.5 C 766.1 1535.6, 767.2 1538.3, 767.9 1540.5 C 768.6 1542.7, 769.6 1544.9, 770.1 1545.6 C 770.6 1546.2, 771.8 1549.1, 772.8 1552.1 C 773.9 1555.0, 775.7 1559.9, 777 1563 C 778.2 1566.0, 780.0 1570.7, 781.0 1573.5 C 781.9 1576.2, 783.5 1579.8, 784.3 1581.5 C 785.2 1583.1, 785.9 1585.0, 785.9 1585.8 C 785.9 1586.5, 786.8 1588.7, 787.9 1590.8 C 789.6 1594.1, 794.9 1607.1, 798.6 1617.3 C 799.4 1619.4, 800.6 1622.1, 801.4 1623.3 C 802.1 1624.5, 803.1 1626.9, 803.4 1628.6 C 803.8 1630.4, 804.7 1632.3, 805.5 1633 C 806.2 1633.6, 807.1 1635.3, 807.4 1636.8 C 808.4 1641.4, 813.3 1652.5, 815.6 1655.3 C 817.8 1658.0, 825.4 1661.4, 827.1 1660.4 C 828.5 1659.5, 828.1 1655.3, 826.5 1654 C 825.6 1653.3, 825 1652.3, 825 1651.7 C 825 1650.5, 820.5 1639.9, 818.0 1635 C 817.0 1633.0, 815.9 1630.0, 815.5 1628.3 C 815.1 1626.5, 814.2 1624.6, 813.5 1624 C 812.7 1623.3, 811.8 1621.4, 811.4 1619.6 C 811.0 1617.9, 809.9 1615.0, 808.8 1613.3 C 807.8 1611.6, 807 1609.6, 807 1608.8 C 807 1608.0, 806.1 1605.9, 805.1 1603.9 C 804.1 1602.0, 802.9 1599.0, 802.5 1597.3 C 802.1 1595.6, 801.0 1592.4, 799.9 1590.3 C 798.8 1588.2, 798 1586.0, 798 1585.3 C 798 1584.6, 797.1 1582.1, 796.1 1579.7 C 795.0 1577.4, 793.1 1573.0, 791.9 1570 C 790.6 1566.9, 788.6 1562.1, 787.3 1559.3 C 786.0 1556.4, 785 1553.6, 785 1553.0 C 785 1552.0, 782.9 1547.1, 778.3 1537.4 C 777.0 1534.5, 776 1531.7, 776 1531.1 C 776 1530.5, 775.1 1528.5, 774.0 1526.7 C 772.9 1524.9, 772.0 1522.2, 772.0 1520.8 C 771.9 1516.4, 766.1 1513.6, 761.2 1515.6" stroke="none" fill="#191919" fill-rule="evenodd"/> </svg>