<svg xmlns="http://www.w3.org/2000/svg" viewBox="0 0 2048 2048" version="1.1"> <path d="M 1105 169.0 C 1101.4 169.5, 1096.7 170.5, 1094.5 171.3 C 1092.3 172.1, 1089.1 173.1, 1087.5 173.4 C 1079.0 175.3, 1053.8 188.6, 1043.5 196.7 C 1033.6 204.4, 1028.7 209.0, 1010.7 227.7 C 1003.3 235.4, 996.6 240.6, 981.2 250.7 C 973.1 256.1, 966.5 264.0, 965.2 269.8 C 964.8 271.8, 964.5 278, 964.5 283.5 C 964.5 292.7, 964.7 294.0, 967.7 300.0 C 972.3 309.4, 978.7 315.4, 989 320.0 C 998.0 324.0, 1000.5 325.8, 1001.1 328.6 C 1001.5 330.1, 1002.3 333.5, 1002.8 336 C 1005.3 346.9, 1010.4 363.1, 1012.5 367.1 C 1013.3 368.6, 1014 370.4, 1014 371.1 C 1014 371.9, 1014.9 374.3, 1016 376.5 C 1017.1 378.6, 1018 380.8, 1018 381.2 C 1018 381.7, 1019.1 384.6, 1020.6 387.8 C 1022.0 390.9, 1024.1 395.5, 1025.1 398 C 1032.7 415.5, 1041.3 432.3, 1050.5 447.7 C 1057.5 459.5, 1072.3 476.2, 1084.5 485.9 C 1090.7 490.9, 1106.9 500, 1109.5 500 C 1110.4 500, 1112.4 500.7, 1114.1 501.5 C 1115.8 502.4, 1120.6 503.7, 1124.8 504.3 C 1135.1 505.9, 1135.4 507.5, 1126.9 516.2 C 1123.5 519.6, 1116.9 527.2, 1112.2 533 C 1107.4 538.7, 1103.0 544.1, 1102.3 545 C 1098.1 549.8, 1089.6 562.2, 1087.2 566.9 C 1086.5 568.3, 1084.8 571.3, 1083.5 573.5 C 1082.2 575.7, 1080.6 578.6, 1080.0 580 C 1079.4 581.3, 1078.5 583.2, 1078.1 584.0 C 1072.6 593.6, 1066.0 618.0, 1063.4 638 C 1062.6 644.3, 1061.6 651.5, 1061.0 654 C 1060.5 656.4, 1059.8 663.2, 1059.5 669 C 1059.1 674.7, 1058.2 684.9, 1057.4 691.5 C 1056.6 698.1, 1055.6 714.0, 1055.0 727 C 1054.4 739.9, 1053.5 754.7, 1052.9 760 C 1052.4 765.2, 1051.5 781.6, 1051 796.5 C 1050.4 811.3, 1049.5 827.7, 1048.9 833 C 1046.3 858.1, 1045.1 950.7, 1046.8 1002 L 1047.5 1022.5 1051.4 1028.3 L 1055.3 1034.2 1053.2 1042.8 C 1047.1 1067.7, 1045.5 1090.6, 1049.1 1103.5 C 1053.3 1118.7, 1053.4 1119.5, 1050.5 1125.4 C 1049.1 1128.3, 1046.8 1132.4, 1045.4 1134.4 C 1044.1 1136.4, 1042.9 1138.4, 1042.9 1138.7 C 1042.9 1139.1, 1041.1 1142.0, 1038.9 1145.2 C 1036.7 1148.4, 1034.9 1151.3, 1034.9 1151.7 C 1034.9 1152.1, 1032.9 1155.4, 1030.5 1159 C 1028.0 1162.5, 1026.0 1165.8, 1026.0 1166.2 C 1026.0 1166.6, 1023.4 1170.6, 1020.3 1175.1 C 1017.3 1179.6, 1014.5 1184.0, 1014.2 1184.9 C 1013.8 1185.7, 1011.9 1189.0, 1009.8 1192.1 C 1007.7 1195.3, 1006 1198.1, 1006 1198.4 C 1006 1198.7, 1004.3 1201.5, 1002.2 1204.7 C 998.1 1210.9, 997.1 1212.5, 993.9 1218 C 992.8 1219.9, 991.0 1222.8, 990 1224.5 C 988.9 1226.1, 987.0 1229.2, 985.7 1231.3 C 984.5 1233.5, 983.0 1236.0, 982.4 1237.0 C 981.8 1237.9, 980.7 1239.5, 980 1240.5 C 979.2 1241.4, 978.1 1243.0, 977.5 1243.9 C 976.9 1244.9, 975.3 1247.6, 974 1250 C 972.6 1252.3, 971.0 1254.9, 970.5 1255.8 C 965.9 1263.2, 954.7 1281.3, 951.2 1286.7 C 948.9 1290.4, 946.1 1295.0, 945.0 1297 C 943.8 1298.9, 942.0 1301.8, 941.0 1303.5 C 939.9 1305.1, 938.3 1307.8, 937.4 1309.4 C 936.5 1311.0, 934.3 1314.4, 932.6 1316.9 C 930.8 1319.4, 928.9 1322.6, 928.2 1324 C 927.5 1325.3, 926.4 1327.3, 925.7 1328.4 C 925.0 1329.5, 922.8 1332.9, 920.9 1336.0 C 918.9 1339.0, 917.1 1342.2, 916.8 1343.0 C 916.4 1343.8, 914.2 1347.5, 911.8 1351.1 C 900.5 1368.4, 896 1375.8, 896 1376.7 C 896 1377.2, 895.1 1378.5, 894 1379.5 C 892.9 1380.4, 892 1381.6, 892 1382.0 C 892 1382.3, 889.5 1386.7, 886.5 1391.6 C 883.4 1396.4, 880.3 1401.8, 879.5 1403.5 C 878.6 1405.1, 876.8 1408.3, 875.5 1410.5 C 874.2 1412.7, 872.4 1415.8, 871.6 1417.5 C 869.5 1421.9, 866.2 1425, 863.6 1425 C 861.0 1425, 855.2 1430.2, 851.4 1435.8 C 850.1 1437.8, 847.7 1441.4, 846.0 1443.7 C 844.3 1446.1, 843 1448.2, 843 1448.4 C 843 1448.6, 840.9 1451.9, 838.4 1455.6 C 832.0 1465.1, 831.0 1465.5, 823.5 1461.4 C 810.0 1454.2, 783.6 1441, 782.6 1440.9 C 782.0 1440.9, 780.2 1440.3, 778.7 1439.5 C 775.0 1437.6, 760.3 1434, 756.2 1434 C 748.0 1434, 736.6 1438.9, 729.4 1445.7 C 725.1 1449.6, 713 1464.3, 713 1465.5 C 713 1465.8, 712.0 1467.4, 710.9 1469.0 C 709.7 1470.7, 708.7 1474.3, 708.3 1478.0 C 707.9 1481.5, 706.9 1485.0, 706.0 1486.0 C 696.5 1496.1, 692.9 1499.8, 683.9 1508.1 C 653.4 1536.2, 625.1 1559.1, 604.7 1572.1 C 593.4 1579.3, 592.6 1582.8, 599.9 1591.2 C 604.6 1596.5, 610.7 1598.5, 619.1 1597.3 C 624.7 1596.6, 624.7 1596.6, 621.9 1601.4 C 619.8 1604.8, 619.8 1605.0, 621.5 1609.4 C 623.7 1615.2, 629.9 1621, 633.9 1621 C 636.0 1621, 637.6 1621.9, 639.6 1624.4 C 642.4 1627.8, 649.2 1633, 650.9 1633 C 651.4 1633, 654.9 1635.4, 658.7 1638.4 C 663.2 1641.9, 666.8 1643.9, 668.9 1644.1 C 671.7 1644.4, 672.4 1645.0, 673.3 1647.9 C 674.4 1651.4, 675.6 1652.2, 685.5 1657.4 C 687.1 1658.3, 692.1 1661.0, 696.5 1663.4 C 700.9 1665.8, 707.8 1669.5, 712 1671.6 C 716.1 1673.6, 721.7 1676.6, 724.4 1678.2 C 728.0 1680.3, 730.1 1681.0, 732.1 1680.5 C 741.5 1678.6, 740.9 1678.6, 741.0 1681.1 C 741.0 1687.2, 747.9 1694, 754.2 1694 C 756.9 1694, 766 1688.5, 766 1687.0 C 766 1686.3, 771.4 1683, 772.6 1683 C 772.7 1683, 772.2 1684.5, 771.4 1686.4 C 768.3 1693.9, 770.3 1698.7, 778.6 1703.4 C 781.6 1705.1, 784.7 1706, 787.7 1706 C 791.8 1706, 802.1 1710.5, 803.1 1712.7 C 803.5 1713.6, 812.1 1718.0, 813.3 1718.0 C 815.3 1717.9, 823.5 1710.3, 826.3 1705.7 C 831 1698.2, 831.2 1698.6, 831.0 1712.0 L 830.8 1720.6 834.4 1723.8 C 837.6 1726.6, 838.7 1727, 843.9 1727 C 847.8 1727, 850.1 1727.4, 851 1728.5 C 852.7 1730.6, 857.7 1730.4, 858.9 1728.1 C 860.2 1725.6, 863.7 1715.1, 864.5 1711.2 C 865.7 1705.0, 867.9 1708.0, 868.0 1715.8 C 868.0 1721.2, 871.2 1729.8, 875.2 1735.1 C 880.6 1742.1, 890.9 1742.0, 892.4 1735.0 C 893.3 1731.2, 895.6 1731.0, 896.4 1734.7 C 897.9 1741.1, 906.2 1746.0, 916.0 1746.1 C 926.0 1746.3, 927.3 1742.2, 928.3 1705.3 C 929.1 1678.7, 929.2 1678.0, 934.5 1650 C 935.4 1645.3, 936.7 1638.0, 937.5 1633.8 C 938.2 1629.5, 939.2 1625.2, 939.8 1624.3 C 940.3 1623.3, 941.0 1620.4, 941.4 1618 C 942.3 1612.7, 944.2 1609.3, 946.8 1608.5 C 949.5 1607.6, 960.4 1585.3, 962.9 1575.5 C 968.8 1552.5, 961.9 1538.2, 936.9 1521.9 C 922.2 1512.3, 922.0 1512.2, 918.5 1510.4 C 916.8 1509.5, 913.7 1507.7, 911.5 1506.4 C 909.3 1505.1, 904.2 1502.4, 900.1 1500.4 C 888.9 1494.8, 888.9 1494.4, 900.6 1474.2 C 907.9 1461.7, 909.2 1458.1, 908.6 1453.0 C 907.9 1448.1, 908.8 1444.7, 912.2 1439.5 C 918.8 1429.2, 920.7 1426.2, 921.2 1424.9 C 921.5 1424.0, 924.3 1419.6, 927.3 1415.1 C 930.4 1410.6, 933 1406.6, 933 1406.3 C 933 1405.9, 939.3 1394.9, 942.4 1389.8 C 943.0 1388.9, 944.5 1386.5, 945.7 1384.3 C 947.0 1382.2, 948.9 1379.1, 950 1377.5 C 951.0 1375.8, 952.8 1372.9, 953.9 1371 C 955.1 1369.0, 957.8 1364.8, 960.0 1361.5 C 962.2 1358.2, 964.6 1354.1, 965.4 1352.4 C 966.2 1350.7, 967.5 1348.7, 968.4 1348.0 C 969.2 1347.3, 970 1346.3, 970 1345.8 C 970 1345.3, 970.8 1343.7, 971.8 1342.2 C 977.8 1333.3, 982.0 1326.8, 982.0 1326.2 C 982.0 1325.8, 984.0 1322.5, 986.5 1319 C 988.9 1315.4, 990.9 1312.1, 990.9 1311.7 C 990.9 1311.3, 992.4 1308.8, 994.2 1306.2 C 996.0 1303.6, 998.1 1300.3, 998.7 1299 C 999.4 1297.6, 1002.0 1293.3, 1004.4 1289.5 C 1006.9 1285.6, 1009.9 1280.7, 1011.2 1278.6 C 1013.6 1274.5, 1014.3 1273.3, 1017.4 1268.5 C 1018.4 1266.8, 1020.9 1263.0, 1022.8 1260 C 1024.7 1256.9, 1027.2 1252.9, 1028.4 1251 C 1029.7 1249.0, 1032.4 1244.6, 1034.6 1241.1 C 1036.7 1237.6, 1040.3 1232.0, 1042.5 1228.6 C 1044.7 1225.2, 1048.9 1218.4, 1051.8 1213.4 C 1054.7 1208.5, 1061.0 1197.9, 1065.9 1190 C 1074.9 1175.4, 1076.6 1172.5, 1079.5 1167.0 C 1080.4 1165.3, 1081.5 1163.7, 1082.0 1163.4 C 1082.6 1163.1, 1083.6 1161.4, 1084.3 1159.6 C 1085.1 1157.9, 1087.1 1154.9, 1088.8 1153.1 C 1091.7 1150.0, 1092.2 1149.8, 1095.7 1150.6 C 1108.2 1153.4, 1116.3 1150.4, 1122.8 1140.5 C 1126.0 1135.6, 1128.6 1132.9, 1131.2 1131.6 C 1135.6 1129.5, 1142.0 1122.5, 1145.0 1116.6 C 1148.7 1109.2, 1154.0 1100.8, 1155.5 1099.7 C 1158.4 1097.9, 1161.8 1090.7, 1163.5 1083.1 C 1165.3 1075.1, 1165.3 1074.6, 1163.5 1067.1 C 1162.5 1062.9, 1160.8 1058.0, 1159.8 1056.1 C 1157.5 1052.0, 1157.5 1048.6, 1159.7 1045.2 C 1160.7 1043.7, 1162.1 1041.6, 1162.7 1040.5 C 1166.5 1033.9, 1171.4 1025.9, 1174.0 1022 C 1175.6 1019.5, 1177.6 1016.1, 1178.4 1014.5 C 1179.3 1012.8, 1180.8 1010.1, 1181.9 1008.5 C 1183.0 1006.8, 1184.8 1003.9, 1186 1002 C 1187.1 1000.0, 1188.9 997.1, 1190 995.5 C 1191.0 993.8, 1192.8 990.9, 1194 989 C 1195.1 987.0, 1198.0 982.3, 1200.5 978.5 C 1202.9 974.6, 1205.5 970.3, 1206.2 969 C 1206.9 967.6, 1208.3 965.1, 1209.4 963.5 C 1216.4 952.3, 1216.1 952.6, 1219.3 956.7 C 1226.5 965.8, 1227.5 970.4, 1224.5 980.5 C 1223.7 983.2, 1222.8 989.2, 1222.4 993.9 C 1222.1 998.6, 1221.2 1005.6, 1220.4 1009.5 C 1219.7 1013.3, 1218.6 1021.0, 1218.0 1026.6 C 1217.4 1032.2, 1216.6 1037.8, 1216.1 1039.1 C 1215.6 1040.4, 1214.9 1045.5, 1214.5 1050.5 C 1214.1 1055.4, 1213.2 1062.2, 1212.4 1065.6 C 1211.6 1069.0, 1210.7 1075.6, 1210.4 1080.1 C 1210.0 1084.7, 1209.2 1091.2, 1208.4 1094.5 C 1207.7 1097.8, 1206.6 1105.8, 1206.0 1112.3 C 1205.3 1118.9, 1204.4 1125.2, 1203.9 1126.5 C 1203.5 1127.7, 1202.6 1134.9, 1202.0 1142.6 C 1201.3 1150.2, 1200.4 1158.0, 1199.9 1160 C 1199.4 1161.9, 1198.5 1169.5, 1198.0 1177 C 1197.4 1184.4, 1196.4 1193.3, 1195.9 1196.7 C 1195.3 1200.2, 1194.5 1209.8, 1193.9 1218.0 C 1193.4 1226.2, 1192.3 1238.0, 1191.5 1244.2 C 1186.0 1285.8, 1184.8 1339.8, 1187.9 1401 C 1188.5 1411.7, 1189.4 1434.0, 1189.9 1450.7 C 1190.4 1467.3, 1191.6 1493.2, 1192.4 1508.2 C 1193.2 1523.2, 1194.3 1545.6, 1194.9 1558 C 1196.9 1601.9, 1197.8 1610.1, 1200.8 1613.2 C 1202.2 1614.8, 1204.4 1616.3, 1205.7 1616.6 C 1210.0 1617.7, 1207.3 1620.7, 1196.1 1627.4 C 1195.2 1628.0, 1192.0 1630.0, 1189.0 1631.9 C 1186.0 1633.9, 1180.4 1637.1, 1176.5 1639.2 C 1172.6 1641.2, 1168.1 1643.6, 1166.5 1644.5 C 1164.8 1645.4, 1161.7 1647.2, 1159.5 1648.5 C 1155.7 1650.7, 1153.1 1652.0, 1139 1658.8 C 1119.7 1668.0, 1108.1 1679.3, 1104.5 1692.6 C 1103.1 1697.5, 1107.6 1703.7, 1115.3 1707.5 C 1126.5 1713.1, 1173.6 1715.6, 1202.0 1712.0 C 1206.7 1711.4, 1213.6 1710.6, 1217.5 1710.1 C 1230.2 1708.5, 1244.2 1704.3, 1254.4 1699.0 C 1259.5 1696.3, 1261.1 1696.4, 1263.7 1699.4 C 1264.9 1700.8, 1268.0 1702.8, 1270.6 1704.0 C 1275.9 1706.4, 1279.5 1706.4, 1302.5 1703.4 C 1316.7 1701.5, 1319.2 1700.7, 1322.6 1696.6 L 1325.2 1693.5 1324.6 1668.0 C 1324.2 1650.8, 1323.5 1640.3, 1322.5 1636 C 1319.8 1624.1, 1320.5 1621, 1325.9 1621 C 1326.8 1621, 1328.7 1619.8, 1330.0 1618.4 C 1332.9 1615.3, 1333.1 1611.1, 1334.9 1480.5 C 1336.7 1352.2, 1337.5 1331.1, 1342.1 1308 C 1342.7 1304.9, 1344.0 1298.4, 1345.0 1293.5 C 1346.0 1288.5, 1347.7 1279.6, 1348.8 1273.7 C 1349.9 1267.8, 1351.0 1262.6, 1351.3 1262.1 C 1351.6 1261.7, 1352.3 1258.2, 1352.9 1254.4 C 1354.0 1247.7, 1355.1 1242.2, 1358.5 1227.5 C 1359.4 1223.6, 1360.7 1217.1, 1361.5 1213 C 1362.8 1205.7, 1363.4 1202.5, 1366.6 1189 C 1367.5 1185.4, 1368.7 1179.5, 1369.5 1176 C 1371.0 1168.2, 1373.5 1157.4, 1375.4 1150.5 C 1376.2 1147.7, 1377.1 1143.2, 1377.5 1140.5 C 1377.9 1137.7, 1378.7 1133.2, 1379.5 1130.5 C 1380.2 1127.7, 1381.0 1124.2, 1381.4 1122.7 C 1382.4 1118.1, 1384.6 1119.4, 1385.8 1125.2 C 1386.4 1128.1, 1388.0 1134.5, 1389.4 1139.5 C 1390.8 1144.4, 1392.4 1150.7, 1393.0 1153.5 C 1393.6 1156.2, 1394.7 1160.5, 1395.5 1163 C 1396.3 1165.4, 1397.6 1170.2, 1398.5 1173.5 C 1399.3 1176.8, 1400.9 1182.6, 1402.0 1186.5 C 1403.1 1190.3, 1404.6 1195.9, 1405.3 1199 C 1406.1 1202.0, 1407.4 1206.9, 1408.4 1210 C 1409.3 1213.0, 1410.9 1218.6, 1412.0 1222.5 C 1413.9 1229.1, 1415.7 1235.0, 1420.2 1250 C 1421.3 1253.5, 1423.0 1258.7, 1423.9 1261.5 C 1424.9 1264.2, 1426.1 1268.3, 1426.7 1270.5 C 1427.3 1272.7, 1428.2 1275.8, 1428.7 1277.5 C 1432.4 1288.4, 1433.2 1291.0, 1434.3 1295.5 C 1435.0 1298.2, 1436.1 1301.4, 1436.7 1302.5 C 1437.3 1303.6, 1438.3 1306.3, 1438.8 1308.5 C 1440.4 1314.7, 1443.0 1322.2, 1444.5 1325.1 C 1445.3 1326.6, 1446 1328.3, 1446 1328.9 C 1446 1330.1, 1450.4 1340.4, 1452.0 1343 C 1452.6 1343.8, 1453.3 1345.2, 1453.6 1346.2 C 1453.9 1347.2, 1455.7 1350.8, 1457.5 1354.2 C 1465.5 1369.6, 1468.3 1374.7, 1470.3 1378.1 C 1471.5 1380.2, 1479.0 1393.1, 1487 1406.9 C 1494.9 1420.7, 1502.4 1433.7, 1503.7 1435.7 C 1504.9 1437.8, 1506.7 1441.0, 1507.8 1443 C 1512.4 1451.7, 1516.4 1458.7, 1517.9 1461 C 1518.9 1462.3, 1519.9 1464.1, 1520.3 1465 C 1520.7 1465.8, 1522.1 1468.3, 1523.5 1470.5 C 1524.8 1472.7, 1526.8 1476.0, 1527.9 1478 C 1529.0 1479.9, 1530.5 1482.3, 1531.2 1483.4 C 1536.3 1491.4, 1539.6 1496.8, 1540.7 1499 C 1541.4 1500.3, 1544.0 1504.6, 1546.4 1508.5 C 1548.9 1512.3, 1551.9 1517.2, 1553.2 1519.3 C 1554.4 1521.5, 1555.9 1524.0, 1556.5 1524.8 C 1558.0 1527.4, 1569.0 1544.2, 1571.1 1547.2 C 1572.1 1548.7, 1573 1550.1, 1573 1550.4 C 1573 1550.8, 1577.7 1558.2, 1583.1 1566.2 C 1584.1 1567.7, 1585 1569.3, 1585 1569.8 C 1585 1570.2, 1585.9 1571.5, 1587 1572.5 C 1588.1 1573.4, 1589 1574.7, 1589 1575.2 C 1589 1575.7, 1590.0 1577.4, 1591.2 1578.9 C 1592.4 1580.5, 1594.6 1583.1, 1596 1584.9 C 1598.6 1588.2, 1603.1 1591, 1606.0 1591 C 1609.8 1591, 1610.1 1593.4, 1607.5 1601.3 C 1606.1 1605.4, 1605 1609.4, 1605 1610.1 C 1605 1612.6, 1600.3 1623.9, 1593.9 1637.3 C 1589.7 1646.0, 1585.1 1652.4, 1576.0 1662.5 C 1568.7 1670.6, 1565.6 1674.2, 1563.3 1677.6 C 1560.2 1682.1, 1556.7 1694.1, 1557.5 1697.6 C 1559.1 1704.6, 1561.4 1709.0, 1564.8 1711.7 C 1568.4 1714.4, 1568.5 1714.5, 1585 1714.5 C 1597.8 1714.5, 1602.4 1714.1, 1606 1712.8 C 1608.4 1711.9, 1611.8 1710.9, 1613.5 1710.5 C 1622.4 1708.6, 1641.8 1699.9, 1651.5 1693.4 C 1665.5 1684.1, 1680.0 1669.1, 1686.8 1656.9 C 1689.7 1651.7, 1692.5 1646.8, 1693.0 1646 C 1693.5 1645.1, 1694.4 1643.3, 1695.0 1642 C 1697.1 1636.5, 1697.3 1636.4, 1704.7 1636.8 L 1711.7 1637.1 1720.8 1628.4 C 1739.1 1611.0, 1743.7 1602.8, 1741.1 1591.9 C 1740.5 1589.0, 1739.0 1585.6, 1737.9 1584.2 C 1736.8 1582.8, 1736 1581.3, 1736 1580.9 C 1736 1580.2, 1731 1572.6, 1722.8 1561 C 1721.1 1558.5, 1716.8 1552.9, 1713.3 1548.7 C 1706.4 1540.3, 1706.1 1539.1, 1710.1 1534.1 C 1711.1 1532.8, 1712 1530.2, 1712 1528.4 C 1712 1524.4, 1708.1 1515.7, 1691.7 1482 C 1686.7 1471.8, 1681.1 1460.1, 1679.2 1456 C 1677.3 1451.8, 1673.7 1444.3, 1671.3 1439.2 C 1668.9 1434.1, 1665.0 1425.8, 1662.6 1420.7 C 1660.2 1415.6, 1656.6 1408.1, 1654.7 1404 C 1652.8 1399.8, 1649.4 1392.6, 1647.2 1388 C 1641.3 1375.3, 1639.2 1370.7, 1638.0 1368 C 1637.4 1366.6, 1636.5 1364.8, 1636.0 1364 C 1635.5 1363.1, 1633.0 1358, 1630.4 1352.5 C 1627.9 1347, 1625.3 1341.8, 1624.8 1341 C 1624.3 1340.1, 1623.7 1338.8, 1623.3 1338 C 1623.0 1337.1, 1619.4 1329.7, 1615.4 1321.5 C 1606.1 1302.1, 1602.4 1294.1, 1601.5 1291 C 1601.0 1289.6, 1600.3 1288.0, 1599.8 1287.4 C 1597.6 1284.6, 1590.4 1254.6, 1589.4 1244.5 C 1589.1 1240.6, 1588.2 1234.8, 1587.5 1231.5 C 1586.7 1228.2, 1585.8 1221.4, 1585.5 1216.5 C 1585.1 1211.5, 1584.2 1203.9, 1583.4 1199.5 C 1582.7 1195.1, 1581.8 1188.1, 1581.5 1184 C 1581.1 1179.8, 1580.2 1173.1, 1579.4 1169 C 1578.7 1164.8, 1577.6 1156.3, 1577.0 1150 C 1576.4 1143.6, 1575.7 1137.8, 1575.4 1137 C 1574.8 1135.0, 1571.1 1104.2, 1569.8 1091.5 C 1569.3 1086, 1568.2 1076.3, 1567.4 1070 C 1566.6 1063.6, 1565.5 1053.3, 1564.9 1047 C 1564.4 1040.6, 1563.5 1033.0, 1562.9 1030 C 1562.4 1026.9, 1561.5 1018.8, 1560.9 1012.0 C 1560.3 1005.1, 1559.2 996.4, 1558.4 992.7 C 1557.6 988.9, 1557 984.4, 1557 982.6 C 1557 980.8, 1556.2 976.7, 1555.4 973.4 C 1554.5 970.1, 1553.4 964.5, 1552.8 961 C 1552.3 957.4, 1551.3 952.2, 1550.5 949.5 C 1549.8 946.7, 1548.4 941.3, 1547.5 937.5 C 1544.1 923.4, 1543.0 919.3, 1541.1 912.5 C 1540.0 908.6, 1538.7 904.3, 1538.1 903 C 1534.7 894.6, 1534.6 891.4, 1537.5 885.3 C 1541.0 877.8, 1542.0 863.5, 1539.5 855 C 1538.6 851.9, 1537.2 847.0, 1536.5 844 C 1535.8 840.9, 1534.7 837.1, 1534.1 835.5 C 1531.7 828.7, 1529.8 822.1, 1528.6 817 C 1527.9 813.9, 1526.8 810.6, 1526.2 809.5 C 1525.7 808.4, 1524.9 805.4, 1524.5 803 C 1524.0 800.5, 1523.3 797.6, 1522.7 796.5 C 1522.1 795.5, 1521.1 792.3, 1520.4 789.5 C 1518.8 783.2, 1516.4 775.9, 1513.8 769.6 C 1512.7 767.0, 1512.0 763.4, 1512.1 761.6 L 1512.5 758.5 1527.5 757.3 C 1535.7 756.7, 1544.9 755.5, 1548 754.6 C 1551.0 753.8, 1555.3 752.8, 1557.5 752.4 C 1574.6 749.6, 1596.5 737.9, 1607.5 725.8 C 1616.1 716.3, 1619.1 711.6, 1623.7 700 C 1627.4 690.5, 1627.6 665.1, 1624.1 654.5 C 1620.2 643.0, 1617.6 636.6, 1615.7 634.1 C 1614.8 632.8, 1614 631.3, 1614 630.7 C 1614 626.6, 1589.1 589.8, 1572.6 569.5 C 1559.1 552.9, 1527.5 520.4, 1513.5 508.5 C 1504.8 501.1, 1497 493.7, 1497 492.9 C 1497 492.2, 1501.1 484.8, 1504.2 480.1 C 1505.1 478.6, 1506.6 476.1, 1507.6 474.5 C 1508.5 472.8, 1509.5 471.2, 1509.9 471 C 1512.5 469.1, 1520.0 451.3, 1519.9 447.2 C 1519.9 439.5, 1511.2 428.3, 1503.2 425.5 C 1491.2 421.4, 1483.2 425.9, 1472.8 442.5 C 1462.9 458.5, 1457.8 466, 1456.8 466 C 1456.3 466, 1453.8 464.5, 1451.2 462.7 C 1448.6 460.9, 1445.3 458.8, 1444 458.1 C 1442.6 457.4, 1439.7 455.8, 1437.5 454.5 C 1422.5 445.5, 1395.7 436.2, 1379 434.0 C 1375.4 433.6, 1368.6 432.5, 1364 431.6 C 1351.6 429.4, 1332.5 427.8, 1307.4 427.0 C 1286.8 426.4, 1285.2 426.2, 1282.3 424.2 C 1280.5 422.9, 1278.9 422, 1278.6 422 C 1277.8 422, 1269.1 416.0, 1268.5 415.0 C 1268.2 414.5, 1266.5 413.8, 1264.7 413.4 C 1259.5 412.3, 1255.5 408.6, 1251.6 401.1 C 1247.7 393.7, 1247.1 389.1, 1249.5 385 C 1250.2 383.6, 1250.9 381.3, 1251.0 380 C 1251.0 378.6, 1251.7 375.7, 1252.5 373.5 C 1256.9 361.6, 1259.6 335.4, 1258.1 319 C 1255.2 287.0, 1253.7 278.0, 1248.9 262 C 1247.8 258.4, 1246.9 255.0, 1246.9 254.5 C 1246.9 253.9, 1246.0 251.7, 1245 249.5 C 1243.9 247.3, 1243.0 244.6, 1243.0 243.6 C 1243.0 242.1, 1241.0 237.7, 1237.8 232 C 1237.3 231.1, 1236.0 228.7, 1234.9 226.5 C 1233.0 222.7, 1232.2 221.3, 1227.5 214.3 C 1223.3 208.1, 1207.2 194, 1204.3 194 C 1204.1 194, 1201.9 193.1, 1199.6 192.0 C 1195.0 189.9, 1180.6 187.7, 1177.3 188.6 C 1174.5 189.3, 1171.1 187.7, 1165 182.7 C 1160.1 178.8, 1155.9 176.3, 1145.5 171.2 C 1139.5 168.3, 1119.0 167.2, 1105 169.0 M 1136.0 269.4 C 1135.3 270.2, 1133.8 271.2, 1132.7 271.5 C 1131.5 271.9, 1128.4 273.8, 1125.8 275.8 C 1115.4 283.8, 1100.4 294.0, 1095 296.7 C 1093.6 297.4, 1090.7 299.1, 1088.5 300.4 C 1076.2 307.6, 1061.9 313.6, 1050 316.4 C 1046.9 317.2, 1043.1 318.3, 1041.5 318.9 C 1039.8 319.5, 1033.3 320.5, 1027 321.2 C 1013.5 322.7, 1013.1 323.1, 1016.9 334.0 C 1018.0 337.3, 1018.9 340.5, 1018.9 341.2 C 1018.9 342.6, 1022.2 353.5, 1025.2 362.2 C 1027.5 368.8, 1028.4 369.1, 1033.4 364.7 C 1037.3 361.2, 1048.5 357.0, 1053.7 357.0 C 1057.1 357, 1061 359.8, 1061 362.3 C 1061 364.5, 1057.8 366.6, 1052.5 368.0 C 1044.5 370.1, 1032 377.1, 1032 379.5 C 1032 380.2, 1032.6 382.1, 1033.4 383.6 C 1034.2 385.2, 1036.9 391.4, 1039.5 397.5 C 1045.0 410.2, 1055.3 430.5, 1059.5 436.9 C 1061.1 439.3, 1062.9 442.0, 1063.5 442.8 C 1072.2 456.4, 1087.1 472.0, 1098.3 479.3 C 1105.9 484.2, 1110.9 487, 1112.3 487 C 1112.9 487, 1115.3 488.0, 1117.5 489.2 C 1123.5 492.6, 1147.8 492.5, 1156 489.1 C 1165.0 485.3, 1165.2 485.2, 1173.7 479.7 C 1182.1 474.3, 1194.1 460.0, 1201.2 447.2 C 1206.4 437.6, 1207.3 436.7, 1210.5 438.1 C 1215.5 440.4, 1212.6 451.8, 1203.3 466.5 C 1198.8 473.7, 1190.5 482.7, 1183.8 487.9 C 1176.8 493.4, 1176.5 495.4, 1181.9 499.8 C 1186.4 503.4, 1198.0 507.4, 1201.4 506.5 C 1206.8 505.2, 1219.6 489.2, 1230.6 470.1 C 1234.8 462.8, 1243 446.1, 1243 444.8 C 1243 444.0, 1243.6 442.5, 1244.3 441.4 C 1246.2 438.8, 1248.3 425.6, 1247.5 422.2 C 1247.1 420.7, 1244.0 414.5, 1240.5 408.5 C 1233.2 395.6, 1230 388.9, 1230 386.8 C 1230 386.0, 1229.3 384.5, 1228.5 383.4 C 1227.7 382.3, 1227.0 380.8, 1227.0 380 C 1227 379.1, 1225.8 376.2, 1224.5 373.5 C 1223.1 370.7, 1222.0 367.5, 1222.0 366.3 C 1221.9 363.8, 1225.4 361, 1228.4 361 C 1232.0 361, 1237.6 356.1, 1240.6 350.2 C 1243.2 344.9, 1243.4 343.6, 1243.4 334 C 1243.4 321.7, 1241.4 316.0, 1235.2 311.3 C 1230.4 307.7, 1221.0 306.7, 1217.9 309.5 C 1214.8 312.3, 1211.0 320.7, 1210.9 324.8 C 1210.8 332.5, 1209.6 335.8, 1206.0 338.4 C 1199.7 343.1, 1195.5 341.4, 1189.2 331.6 C 1185.4 325.5, 1179.1 319.1, 1173.0 315.1 C 1166.2 310.7, 1163.4 308.0, 1158.9 301.5 C 1157.0 298.7, 1155.2 296.2, 1154.9 296 C 1154.6 295.7, 1152.8 292.3, 1151.1 288.5 C 1149.3 284.6, 1147.2 280.3, 1146.4 278.8 C 1145.6 277.3, 1145 275.3, 1145 274.3 C 1145 269.3, 1138.8 266.0, 1136.0 269.4 M 1221.6 319.6 C 1217.9 322.8, 1216.8 328.5, 1218.0 337.1 C 1219.4 347.1, 1223.8 349.9, 1229.4 344.4 C 1231.6 342.1, 1231.3 339.6, 1228.4 336.5 C 1225.5 333.4, 1225.8 331.2, 1229.6 326.6 C 1235.7 319.3, 1228.8 313.2, 1221.6 319.6 M 1125.8 330.5 C 1125.5 330.7, 1122.8 331.4, 1119.9 332.0 C 1111.8 333.5, 1101 339.6, 1101 342.7 C 1101 343.7, 1105.8 349.0, 1106.7 348.9 C 1107.1 348.9, 1108.8 348.2, 1110.5 347.4 C 1116.3 344.3, 1128.3 341, 1133.4 341 C 1142.5 341, 1147.4 334.8, 1141.0 331.5 C 1138.3 330.1, 1126.9 329.3, 1125.8 330.5 M 1123.5 362.2 C 1119.3 368.2, 1125.8 380, 1133.5 380 C 1136.8 380, 1139.4 374.4, 1138.4 369.6 C 1136.8 361.8, 1127.1 357.0, 1123.5 362.2 M 1080.6 375.6 C 1079.5 376.8, 1079.9 389.3, 1081.4 398.1 C 1082.2 402.7, 1083.1 410.3, 1083.5 415 C 1084.6 429.3, 1088.3 434, 1098.4 434 C 1108.1 434, 1118.9 426.9, 1117.5 421.5 C 1116.6 417.8, 1114.3 417.3, 1109.6 419.7 C 1103.4 422.9, 1098.7 423.4, 1095.9 421.1 C 1093.9 419.5, 1093.5 417.8, 1092.3 404.9 C 1090.9 388.8, 1088.4 378.8, 1085.4 376.5 C 1083.3 374.9, 1081.7 374.6, 1080.6 375.6 M 1056 385.7 C 1050.0 387.6, 1048.8 396.7, 1053.9 401.9 C 1057.8 405.9, 1061.0 405.8, 1064.4 401.9 C 1067.3 398.4, 1067.6 396.1, 1065.6 392.1 C 1063.2 387.5, 1059.0 384.7, 1056 385.7 M 1261.7 429.7 C 1260.9 430.7, 1259.8 433.7, 1259.2 436.5 C 1257.5 444.1, 1253.3 455.9, 1249.8 462.3 C 1249.3 463.3, 1247.0 467.7, 1244.6 472.1 C 1236.7 487.1, 1223.3 506.5, 1219.8 507.8 C 1218.3 508.4, 1218.9 511.4, 1220.8 513.1 C 1222.4 514.4, 1227.2 517.4, 1237.9 523.5 C 1238.9 524.1, 1240.5 525.2, 1241.5 526 C 1242.4 526.7, 1244.0 527.8, 1244.9 528.4 C 1245.9 529.0, 1249.6 531.4, 1253.1 533.7 C 1256.6 536.1, 1260.1 537.9, 1260.8 537.7 C 1262.2 537.5, 1266.9 525.1, 1266.9 521.7 C 1266.9 520.7, 1267.8 517.4, 1268.9 514.2 C 1269.9 511.0, 1271.1 506.4, 1271.5 504 C 1271.8 501.5, 1272.7 497.7, 1273.4 495.5 C 1274.1 493.3, 1275.0 488.3, 1275.4 484.5 C 1275.8 480.6, 1276.8 473.2, 1277.5 468 C 1278.3 462.7, 1278.9 454.1, 1278.9 448.8 L 1279 439.1 1274.2 435.2 C 1269.7 431.6, 1264.5 428, 1263.6 428 C 1263.4 428, 1262.6 428.7, 1261.7 429.7 M 1144.9 437.0 C 1143.6 438.1, 1141.7 439.6, 1140.8 440.5 C 1138.6 442.6, 1122.1 451, 1120.1 451 C 1119.2 451, 1116.1 451.9, 1113.2 453.1 C 1107.7 455.4, 1106.1 458.7, 1109.2 461.8 C 1113.0 465.6, 1137.5 456.1, 1148.7 446.5 C 1153.3 442.5, 1154.0 440.1, 1151.2 437.8 C 1148.2 435.2, 1147.5 435.1, 1144.9 437.0 M 1489.0 443.2 C 1486.7 445.5, 1484.1 448.9, 1483.2 450.7 C 1482.2 452.4, 1477.9 459.7, 1473.5 466.9 C 1469.1 474.0, 1464.8 481.1, 1463.9 482.7 C 1462.5 485.3, 1460.6 488.2, 1451.2 502.7 C 1446.8 509.5, 1446.2 510.4, 1443.2 515.6 C 1441.9 517.7, 1439.8 521.3, 1438.5 523.5 C 1437.1 525.7, 1435.6 528.4, 1435.0 529.6 C 1434.5 530.9, 1432.4 534.1, 1430.5 536.9 C 1428.5 539.7, 1426.9 542.3, 1426.9 542.7 C 1426.9 543.1, 1425.1 546.0, 1422.9 549.2 C 1420.7 552.4, 1419 555.3, 1419 555.6 C 1419 556.0, 1417.0 559.3, 1414.6 562.9 C 1412.2 566.5, 1408.5 572.4, 1406.3 575.9 C 1404.2 579.5, 1402.0 583.2, 1401.5 584.1 C 1400.9 585.0, 1399.4 587.4, 1398.2 589.6 C 1396.9 591.7, 1395.0 594.8, 1394 596.5 C 1392.9 598.1, 1391.1 601.0, 1389.9 603 C 1388.8 604.9, 1386.9 608.1, 1385.7 610.1 C 1384.4 612.2, 1381.9 616.4, 1380.0 619.6 C 1375.9 626.6, 1373.2 630.7, 1370.6 633.6 C 1367.8 636.9, 1368.8 640.2, 1373 641.2 C 1374.9 641.7, 1378.9 642.8, 1381.8 643.7 L 1387.1 645.3 1389.0 642.9 C 1390.1 641.6, 1391.8 638.7, 1393.0 636.5 C 1394.1 634.3, 1396.1 630.8, 1397.3 628.8 C 1398.5 626.8, 1401.3 622.1, 1403.5 618.5 C 1405.7 614.8, 1408.4 610.1, 1409.7 608.1 C 1410.9 606.1, 1412.8 602.9, 1413.9 601 C 1416.6 596.4, 1417.3 595.3, 1424.2 584.6 C 1427.4 579.7, 1430 575.4, 1430 574.9 C 1430 574.5, 1430.6 573.5, 1431.3 572.7 C 1432.1 572.0, 1433.4 570.0, 1434.3 568.4 C 1435.2 566.8, 1436.5 564.6, 1437.2 563.5 C 1437.9 562.4, 1440.0 559.1, 1441.9 556.0 C 1445.3 550.6, 1446.5 548.6, 1450.3 541.8 C 1451.4 539.9, 1454.6 534.9, 1457.4 530.5 C 1460.3 526.1, 1465.3 518, 1468.5 512.5 C 1471.8 507, 1475.0 501.6, 1475.7 500.5 C 1476.3 499.4, 1477.5 497.3, 1478.2 496 C 1479.6 493.3, 1486.8 481.5, 1491.2 474.7 C 1492.7 472.3, 1494.3 469.5, 1494.9 468.3 C 1495.4 467.0, 1497.5 463.8, 1499.4 461.0 C 1503.5 455.2, 1506.3 447.7, 1505.5 445.1 C 1503.1 437.7, 1495.2 436.8, 1489.0 443.2 M 1292.6 441.6 C 1292.3 442.0, 1291.9 447.0, 1291.9 452.9 C 1291.8 458.7, 1291.4 465.7, 1291.0 468.5 C 1290.6 471.2, 1289.7 477.7, 1289.0 483 C 1286.5 503.1, 1279.1 531.6, 1272.8 545.5 C 1268.3 555.7, 1264.5 555.9, 1250.5 546.8 C 1239.9 539.9, 1240.1 539.9, 1237.1 552.0 C 1234.6 562.0, 1234.4 567.0, 1236.4 571.3 C 1237.2 573.0, 1238.6 576.5, 1239.4 579 C 1240.1 581.4, 1242.0 586.6, 1243.4 590.5 C 1244.9 594.3, 1246.5 599.2, 1247.0 601.3 C 1247.6 603.5, 1248.5 606.1, 1249.1 607.3 C 1249.7 608.4, 1250.8 611.6, 1251.5 614.4 C 1252.2 617.2, 1253.2 620.8, 1253.8 622.5 C 1255.8 628.1, 1258.1 635.5, 1259.0 639.5 C 1259.5 641.7, 1260.6 645.0, 1261.4 647 C 1262.2 648.9, 1264.0 654.5, 1265.5 659.5 C 1266.9 664.4, 1268.9 670.9, 1269.9 674 C 1270.9 677.0, 1272.8 682.8, 1274.0 687 C 1275.2 691.1, 1277.1 696.6, 1278.1 699.1 C 1279.1 701.7, 1280.0 704.6, 1280.0 705.6 C 1280.0 706.6, 1280.9 709.3, 1282 711.5 C 1283.0 713.7, 1283.9 716.3, 1283.9 717.2 C 1283.9 718.2, 1284.7 720.7, 1285.5 722.7 C 1286.4 724.8, 1287.5 728.7, 1288.0 731.4 C 1288.6 734.1, 1289.4 736.8, 1289.9 737.3 C 1291.4 738.8, 1294.7 737.0, 1295.8 734.2 C 1296.4 732.7, 1298.5 728.6, 1300.4 725.2 C 1304.4 718.1, 1304.8 714.7, 1302.3 707.7 C 1300.6 703.1, 1300.6 702.9, 1302.9 698.1 C 1304.7 694.3, 1305.0 692.3, 1304.5 689.0 C 1304.0 686.1, 1304.2 684.2, 1305.2 682.7 C 1306.0 681.4, 1307.0 679.1, 1307.4 677.5 C 1307.8 675.8, 1308.9 673.6, 1309.9 672.5 C 1311.0 671.4, 1312.2 668.2, 1312.8 665.5 C 1314.5 657.1, 1316.8 652.0, 1320.4 648.8 C 1322.7 646.8, 1324.1 644.6, 1324.5 642.1 C 1326.6 629.6, 1329.8 623.7, 1336.4 620.3 C 1340.8 618.0, 1353.5 615, 1358.5 615 C 1366.1 615, 1366.9 614.2, 1378.2 596 C 1379.4 594.0, 1380.8 591.7, 1381.4 590.8 C 1382.0 589.9, 1383.5 587.5, 1384.7 585.3 C 1386.0 583.2, 1389.0 578.3, 1391.4 574.5 C 1396.1 566.9, 1404.8 552.7, 1409.9 544 C 1411.1 542.0, 1412.9 539.1, 1414 537.5 C 1415.0 535.8, 1416.8 532.9, 1418 531 C 1419.1 529.0, 1420.9 526.1, 1422 524.5 C 1423.0 522.8, 1424.8 519.9, 1426 518 C 1427.1 516.0, 1428.9 513.1, 1429.9 511.5 C 1431.0 509.8, 1432.6 507.1, 1433.5 505.5 C 1434.4 503.9, 1436.6 500.5, 1438.3 498.0 C 1440.1 495.5, 1442.1 492.3, 1442.8 491 C 1443.5 489.6, 1445.1 486.4, 1446.4 484 C 1449.7 477.9, 1449.6 477.7, 1444.2 474.3 C 1435.8 469.0, 1406.2 455, 1403.4 455 C 1402.6 455, 1400.8 454.4, 1399.6 453.8 C 1395.8 451.7, 1380.3 448.4, 1360.5 445.4 C 1341.3 442.6, 1294.3 439.9, 1292.6 441.6 M 1160.5 502.5 C 1159.4 503.3, 1157.8 504, 1156.8 504 C 1153.1 504, 1152.5 510.4, 1155.7 516.5 C 1156.2 517.6, 1157.2 520.8, 1157.9 523.7 C 1158.6 526.6, 1159.6 529.2, 1160.1 529.5 C 1160.5 529.8, 1161 530.8, 1161 531.7 C 1161 534.9, 1170.1 553.3, 1173.5 556.9 L 1175.8 559.3 1176.8 556.9 C 1177.3 555.5, 1178.7 551.1, 1179.9 547 C 1182.2 539.4, 1182.7 538.1, 1187.4 527.9 C 1190.7 520.5, 1190.7 518.2, 1187.2 516.9 C 1184.3 515.8, 1175.1 511.1, 1173.5 509.8 C 1172.9 509.3, 1170.4 507.2, 1168.0 505.0 C 1163.0 500.4, 1163.1 500.5, 1160.5 502.5 M 1488.2 507.7 C 1487.5 507.9, 1484.9 511.6, 1482.4 515.8 C 1476.8 525.2, 1467.3 540.9, 1466.0 543 C 1465.4 543.8, 1464.4 545.6, 1463.7 547 C 1463.0 548.3, 1460.8 551.9, 1458.7 555 C 1456.6 558.0, 1455.0 561.0, 1455.0 561.6 C 1455.0 562.2, 1454.2 563.3, 1453.3 564.0 C 1452.5 564.8, 1451.3 566.3, 1450.9 567.4 C 1450.4 568.5, 1448.9 571.3, 1447.5 573.5 C 1446.1 575.7, 1444.0 579.2, 1442.7 581.3 C 1441.5 583.5, 1440.0 586.1, 1439.4 587.1 C 1438.8 588.1, 1437.5 589.8, 1436.5 590.9 C 1433.6 594.1, 1435.1 596.3, 1446.5 605.5 C 1457.5 614.4, 1459.1 615.8, 1471 626.7 C 1474.5 630.0, 1478.8 633.9, 1480.3 635.3 C 1483.8 638.4, 1488.6 638.7, 1499.5 636.4 C 1513.3 633.5, 1537.6 631.7, 1540.9 633.4 C 1544.0 635.0, 1545.4 637.7, 1544.4 640.2 C 1543.5 642.6, 1533.5 645.8, 1524 646.9 C 1519.3 647.4, 1514.3 648.2, 1513 648.7 C 1511.6 649.3, 1507.3 650.0, 1503.5 650.4 C 1499.6 650.7, 1492.4 651.9, 1487.5 652.9 C 1477.1 655.1, 1468.9 656.5, 1453.5 658.5 C 1432.2 661.3, 1432.8 660.9, 1436.0 671.2 C 1438.7 679.7, 1439.4 709.7, 1437.0 715.5 C 1436.4 717.1, 1435.4 720.7, 1434.9 723.5 C 1434.3 726.2, 1432.7 730.8, 1431.2 733.7 C 1429.1 737.7, 1428.8 739.2, 1429.7 739.8 C 1436.1 743.8, 1521.3 745.2, 1540 741.6 C 1554.4 738.9, 1565.5 735.9, 1571 733.3 C 1596.7 721.2, 1606.5 709.8, 1611.1 686.5 L 1613.4 675.6 1611.1 664.9 C 1608.4 651.8, 1604.4 641.4, 1597.4 629.5 C 1596.1 627.3, 1594.3 624.2, 1593.5 622.7 C 1591.7 619.6, 1581.7 604.8, 1578.8 601 C 1572.0 592.0, 1562.7 580.4, 1557.1 574 C 1553.6 569.8, 1548.4 563.8, 1545.6 560.5 C 1536.1 549.3, 1507.1 520.9, 1496.5 512.3 C 1490.4 507.4, 1489.8 507.1, 1488.2 507.7 M 1132.9 529.7 C 1119.4 545.6, 1115.4 550.8, 1105.7 565.5 C 1098.7 576.0, 1098.2 576.9, 1096.4 580.5 C 1095.6 582.1, 1094.5 584.1, 1094.0 585 C 1089.5 592.3, 1083.2 611.3, 1080.9 624.5 C 1080.3 627.8, 1079.2 633.1, 1078.4 636.3 C 1077.5 639.5, 1076.5 647.6, 1076.0 654.3 C 1075.4 661.0, 1074.6 668.8, 1074.0 671.7 C 1073.5 674.6, 1072.5 684.0, 1071.9 692.7 C 1071.4 701.4, 1070.5 710.8, 1069.9 713.7 C 1069.4 716.6, 1068.6 731.0, 1068.0 745.7 C 1067.4 760.4, 1066.7 774.5, 1066.5 777 C 1066.2 779.4, 1065.3 795.2, 1064.5 812 C 1063.6 828.7, 1062.4 847.2, 1061.7 853 C 1060.8 860.5, 1060.5 884.2, 1060.5 938.2 C 1060.5 1024.0, 1059.7 1017.6, 1069.2 1014.7 C 1086.5 1009.3, 1107.6 1007.3, 1118.5 1010.1 C 1123.8 1011.4, 1124.6 1010.9, 1129.3 1003.5 C 1139.7 987.0, 1140.0 986.1, 1141.0 971.5 C 1141.4 964.3, 1142.3 955.3, 1142.9 951.5 C 1143.4 947.6, 1144.4 937.3, 1144.9 928.6 C 1145.5 919.8, 1146.4 909.9, 1146.9 906.6 C 1147.5 903.2, 1148.4 892.8, 1148.9 883.5 C 1149.5 874.1, 1150.4 864.7, 1150.9 862.5 C 1151.4 860.3, 1152.3 852.1, 1152.9 844.3 C 1153.5 836.6, 1154.4 828.0, 1154.9 825.3 C 1155.4 822.5, 1156.3 813.8, 1156.9 805.9 C 1157.5 797.9, 1158.6 787.2, 1159.5 782 L 1161.0 772.5 1157.4 762.5 C 1155.4 757, 1153.4 750.7, 1152.8 748.5 C 1152.3 746.3, 1151.5 744.1, 1151.0 743.5 C 1150.6 742.9, 1149.5 740.2, 1148.7 737.5 C 1146.1 729.2, 1144.0 723.6, 1142.4 720.8 C 1141.6 719.3, 1141 717.3, 1141 716.3 C 1141 715.3, 1140.1 712.7, 1139 710.7 C 1137.9 708.6, 1137 706.2, 1137 705.2 C 1137 704.2, 1136.1 701.9, 1135.1 699.9 C 1134.1 698.0, 1132.9 694.9, 1132.5 693.0 C 1132.0 691.0, 1131.1 688.6, 1130.4 687.5 C 1129.7 686.4, 1128.8 683.3, 1128.4 680.7 C 1127.6 675.1, 1128.9 673, 1132.9 673 C 1136.3 673, 1138.6 676.1, 1142.9 686.0 C 1144.6 690.1, 1146.4 694.2, 1146.9 695.0 C 1147.4 695.9, 1150.1 702.6, 1152.9 710.0 C 1155.8 717.4, 1158.8 724.8, 1159.5 726.5 C 1160.3 728.1, 1161.4 730.8, 1161.9 732.5 C 1162.4 734.1, 1164.0 738.6, 1165.5 742.5 C 1167.0 746.3, 1168.7 751.5, 1169.5 754 C 1170.2 756.4, 1171.5 759.8, 1172.3 761.5 C 1173.2 763.1, 1173.9 765.3, 1173.9 766.2 C 1173.9 767.2, 1174.9 769.8, 1176 772 C 1177.1 774.1, 1178 776.8, 1178 778.0 C 1178 779.1, 1178.8 782.2, 1179.8 784.8 C 1182.5 791.7, 1184.9 798.8, 1186.4 804.5 C 1187.1 807.2, 1188.2 810.8, 1188.7 812.5 C 1192.0 822.2, 1194.0 829.1, 1194.0 830.6 C 1194.0 831.6, 1194.7 834.3, 1195.6 836.5 C 1196.4 838.7, 1197.7 842.9, 1198.5 846 C 1199.3 849.0, 1200.6 854.4, 1201.5 858 C 1204.2 868.7, 1206.5 875.3, 1207.7 875.7 C 1208.3 875.9, 1210.5 873.1, 1212.6 869.4 C 1214.7 865.8, 1217.2 861.6, 1218.2 860.1 C 1219.1 858.6, 1220.6 856.1, 1221.5 854.5 C 1222.4 852.9, 1224.6 849.5, 1226.4 847.0 C 1233.3 837.1, 1234.2 834.3, 1232.6 828.6 C 1231.8 825.8, 1230.8 819.9, 1230.5 815.5 C 1230.1 811.1, 1229.2 804.8, 1228.4 801.5 C 1227.7 798.2, 1226.8 791.4, 1226.4 786.5 C 1226.0 781.5, 1225.1 774.5, 1224.4 770.9 C 1223.7 767.3, 1222.8 759.7, 1222.4 753.9 C 1222.1 748.2, 1221.2 739.9, 1220.4 735.5 C 1219.7 731.1, 1218.8 723, 1218.4 717.5 C 1218.1 712, 1217.2 704.1, 1216.4 700 C 1215.6 695.8, 1214.5 686.2, 1214.0 678.5 C 1213.4 670.8, 1212.5 662.9, 1212.0 661.1 C 1211.5 659.2, 1210.5 650.2, 1209.9 641.1 C 1209.4 631.9, 1208.4 621.8, 1207.9 618.5 C 1207.4 615.2, 1206.7 603.7, 1206.3 593 C 1206.0 582.2, 1205.4 572.9, 1205.1 572.3 C 1204.7 571.7, 1202.3 568.8, 1199.8 565.8 C 1197.2 562.9, 1194.2 559.3, 1193.0 558 L 1191 555.5 1189.0 557.7 C 1187.9 559.0, 1186.8 562.2, 1186.4 564.7 C 1185.7 570.0, 1181.8 576.6, 1178.8 577.5 C 1174.7 578.8, 1168.5 574.7, 1164.8 568 C 1163.8 566.0, 1161.8 562.7, 1160.5 560.5 C 1159.2 558.3, 1156.7 553.5, 1155.0 550 C 1153.2 546.4, 1151.2 542.3, 1150.4 540.8 C 1149.6 539.3, 1149 537.5, 1149 536.8 C 1149 536.0, 1148.1 533.9, 1147.1 531.9 C 1146.1 530.0, 1144.9 526.8, 1144.6 524.7 C 1143.5 518.9, 1141.2 519.9, 1132.9 529.7 M 1425.6 608.2 C 1424.5 610.0, 1422.5 613.7, 1421.0 616.5 C 1419.5 619.2, 1416.7 623.8, 1414.6 626.7 C 1410.5 632.5, 1410.2 634.4, 1412.6 637.1 C 1414.5 639.2, 1416.1 641.9, 1418.3 646.6 C 1420.3 650.8, 1422.5 651.3, 1429.0 649.1 C 1432.0 648.1, 1437.9 646.9, 1442.1 646.5 C 1450.3 645.8, 1463.6 642.7, 1465.1 641.2 C 1465.9 640.4, 1455.3 630.0, 1444.5 620.8 C 1438.6 615.9, 1435.5 612.6, 1433.0 608.5 C 1430.3 604.1, 1428.0 604.0, 1425.6 608.2 M 1345.0 628.9 C 1342.9 632.9, 1351.3 634.6, 1355.0 630.9 C 1357.8 628.1, 1356.7 627, 1350.9 627 C 1347.1 627, 1345.8 627.4, 1345.0 628.9 M 1336.5 645.5 C 1333.1 650.7, 1335.4 653.5, 1348.5 660.4 C 1359.2 666.1, 1362.3 670.2, 1358.8 673.8 C 1357.1 675.4, 1352.4 675.3, 1351.0 673.5 C 1350.3 672.7, 1348.8 671.7, 1347.6 671.4 C 1346.4 671.0, 1344.3 669.8, 1342.8 668.8 C 1341.3 667.8, 1339.3 667, 1338.2 667 C 1337.1 667, 1335.0 666.0, 1333.6 664.9 C 1329.6 661.8, 1325.5 662.6, 1325.1 666.6 C 1324.8 670.0, 1324.1 669.3, 1339.4 681 C 1348.1 687.6, 1349.5 689.5, 1348.5 692.8 C 1347.0 697.4, 1342.3 695.9, 1329 686.7 C 1322.5 682.3, 1321.5 682.1, 1319.4 685.4 C 1316.2 690.3, 1319.6 694.4, 1335 704.4 C 1342.1 709.0, 1344.0 713.0, 1340.5 715.9 C 1338.9 717.2, 1327.4 712.4, 1324.9 709.4 C 1324.3 708.6, 1323.2 708, 1322.7 708 C 1322.1 708, 1320.8 707.2, 1319.8 706.4 C 1315.1 702.1, 1315.0 709.7, 1319.7 715.4 C 1326.5 723.6, 1333.1 727.6, 1349.5 733.2 C 1358.1 736.1, 1359.1 736.3, 1374.5 736.2 C 1383.3 736.2, 1392.3 735.7, 1394.5 735.1 C 1401.7 733.2, 1407.4 732.0, 1412.1 731.4 C 1418.7 730.6, 1420.6 727.1, 1423.0 711.1 C 1425.4 695.9, 1425.4 692.9, 1423.3 681.5 C 1421.8 673.0, 1421.4 672.1, 1417.0 667.4 C 1414.4 664.6, 1410.6 658.9, 1408.5 654.7 C 1406.5 650.4, 1404.3 647, 1403.6 647 C 1402.9 647, 1400.9 648.9, 1399.2 651.4 C 1394.8 657.6, 1391.2 659.3, 1385.2 658.0 C 1377.1 656.3, 1368.6 653.9, 1365 652.3 C 1355.5 648.0, 1353.0 647.0, 1347.6 645.0 C 1340.1 642.3, 1338.5 642.4, 1336.5 645.5 M 1312.1 733.2 C 1311.4 734.4, 1309.9 737.1, 1308.7 739.1 C 1307.4 741.1, 1304.7 745.6, 1302.6 749.1 C 1300.5 752.6, 1297.5 757.5, 1295.9 760 C 1294.3 762.4, 1292.7 765.1, 1292.3 766 C 1291.9 766.8, 1290.8 768.6, 1289.9 770 C 1283.8 778.9, 1280.2 784.8, 1274 795.5 C 1271.5 799.7, 1268.5 804.8, 1267.3 806.8 C 1266.1 808.8, 1264.4 811.8, 1263.5 813.5 C 1262.6 815.1, 1259.9 819.6, 1257.5 823.5 C 1255.1 827.3, 1251.4 833.2, 1249.5 836.5 C 1247.5 839.8, 1244.6 844.5, 1243.0 847 C 1241.4 849.4, 1238.7 853.7, 1237 856.5 C 1235.2 859.2, 1232.5 863.5, 1230.9 866 C 1229.3 868.4, 1227.7 871.1, 1227.3 872 C 1226.9 872.8, 1225.0 875.9, 1223.0 879.0 C 1221.0 882.0, 1219.1 885.2, 1218.8 886.0 C 1218.4 886.8, 1216.2 890.4, 1213.8 894.1 C 1208.4 902.3, 1201.1 913.8, 1198.5 918.4 C 1193.0 927.6, 1188.5 935.1, 1184.5 941.5 C 1182.0 945.3, 1179.0 950.2, 1177.7 952.3 C 1174.4 958.1, 1172.4 961.2, 1163.4 975 C 1156.4 985.7, 1152.7 991.6, 1147.2 1000.7 C 1145.2 1004.2, 1142.4 1008.7, 1141.2 1010.7 C 1140.0 1012.8, 1138.4 1015.6, 1137.8 1017 C 1137.1 1018.3, 1135.9 1020.2, 1135.1 1021.2 C 1133.3 1023.3, 1131.5 1026.4, 1129.5 1030.6 C 1128.7 1032.4, 1127.5 1034.1, 1127 1034.5 C 1126.4 1034.8, 1125.3 1036.5, 1124.4 1038.3 C 1123.6 1040.0, 1122.2 1042.6, 1121.2 1044.1 C 1120.2 1045.6, 1117.7 1049.8, 1115.6 1053.6 C 1113.4 1057.4, 1111.1 1061.2, 1110.3 1062.0 C 1109.6 1062.9, 1108.7 1065.6, 1108.3 1068.1 C 1107.1 1076.9, 1112.1 1076.2, 1116.9 1067 C 1119.4 1062.2, 1126.8 1054, 1128.6 1054 C 1134.2 1054, 1145 1045.6, 1145 1041.3 C 1145 1040.7, 1145.9 1039.4, 1147 1038.5 C 1148.1 1037.5, 1149 1036.3, 1149 1035.8 C 1149 1035.1, 1152.9 1028.7, 1154.8 1026.4 C 1155.6 1025.4, 1162.2 1014.1, 1164.8 1009.4 C 1165.5 1008.0, 1168.0 1004.1, 1170.3 1000.6 C 1172.6 997.1, 1175.6 992.2, 1177.1 989.8 C 1180.7 983.9, 1193.7 962.8, 1194.9 961 C 1195.5 960.1, 1196.8 957.9, 1198.0 956 C 1199.1 954.0, 1201.0 950.9, 1202.1 949 C 1203.3 947.0, 1204.8 944.6, 1205.4 943.5 C 1206.8 941.0, 1208.8 937.7, 1215.9 927 C 1218.9 922.3, 1222.1 917.2, 1222.9 915.7 C 1226.5 909.4, 1231.6 901.1, 1235.1 896 C 1237.2 892.9, 1238.9 890.1, 1238.9 889.7 C 1238.9 889.3, 1240.7 886.4, 1242.9 883.2 C 1245.1 880.0, 1246.9 877.1, 1246.9 876.8 C 1246.9 876.4, 1248.7 873.5, 1250.8 870.3 C 1252.9 867.1, 1254.9 863.8, 1255.3 863 C 1255.7 862.1, 1257.1 859.7, 1258.5 857.5 C 1259.8 855.3, 1261.8 851.9, 1262.9 850 C 1264.1 848.0, 1265.9 845.1, 1267 843.5 C 1268.0 841.8, 1269.8 838.9, 1271.0 837 C 1272.1 835.0, 1274.0 831.8, 1275.2 829.8 C 1276.5 827.8, 1280.1 821.7, 1283.3 816.3 C 1286.5 810.9, 1290.4 804.4, 1292.0 802 C 1293.5 799.5, 1295.4 796.5, 1296.1 795.2 C 1297.4 793.2, 1304.3 782.1, 1308.2 776.1 C 1309.1 774.7, 1310.8 771.9, 1312.0 770 C 1313.1 768.0, 1315.1 764.7, 1316.4 762.5 C 1317.8 760.3, 1319.3 757.5, 1319.9 756.3 C 1320.4 755.0, 1322.5 751.8, 1324.4 749.0 C 1328.6 743.0, 1328.8 740.7, 1325.4 738.2 C 1323.9 737.3, 1321.9 735.7, 1320.9 734.8 C 1316.3 730.6, 1313.7 730.1, 1312.1 733.2 M 1403.5 747.0 C 1398.1 749.5, 1376.4 750.6, 1359.3 749.2 L 1342.5 747.9 1339.7 751.2 C 1338.2 753.0, 1337.0 754.8, 1337.0 755.2 C 1337.0 755.7, 1336.1 757.3, 1335.1 758.7 C 1329.3 767.3, 1325 774.1, 1325 774.7 C 1325 775.0, 1322.9 778.5, 1320.3 782.4 C 1308.7 800.1, 1309.3 798.3, 1311.4 807.7 C 1313.2 815.3, 1314.4 819.6, 1317.5 829.5 C 1318.4 832.2, 1319.7 836.7, 1320.5 839.5 C 1321.2 842.2, 1322.5 846.5, 1323.3 849 C 1330.7 872.1, 1330.7 873.2, 1322.9 889.5 C 1321.9 891.7, 1320.6 894.6, 1320.0 896 C 1319.4 897.3, 1318.5 899.1, 1318.0 900 C 1317.5 900.8, 1315.8 904.2, 1314.4 907.5 C 1308.6 920.6, 1304.2 929.8, 1302.6 931.8 C 1301.1 933.7, 1294.3 932.6, 1291.5 930.0 C 1290.3 928.9, 1289.0 928, 1288.5 928 C 1288.1 928, 1286.3 926.8, 1284.6 925.4 C 1282.9 924.1, 1281.0 922.6, 1280.5 922.2 C 1276.0 918.8, 1256.1 901.7, 1254.7 900.0 C 1251.3 895.9, 1248.3 897.9, 1243.4 907.5 C 1242.6 909.1, 1240.6 912.5, 1239.0 915 C 1235.5 920.4, 1233.8 923.3, 1231.4 928 C 1230.5 929.9, 1229.0 932.2, 1228.2 933.2 C 1224.0 938.0, 1229.0 949.6, 1236.3 951.9 C 1248.9 955.8, 1268.8 957.0, 1290 955.0 C 1311.7 952.9, 1327.9 950.9, 1334.0 949.6 C 1337.5 948.8, 1343.6 947.8, 1347.4 947.4 C 1351.2 947.1, 1355.4 946.3, 1356.8 945.8 C 1358.1 945.3, 1362.4 944.5, 1366.3 943.9 C 1370.2 943.3, 1375.7 942.3, 1378.5 941.5 C 1381.2 940.8, 1386.6 939.4, 1390.5 938.4 C 1405.1 934.9, 1408.7 934.0, 1415.6 932.1 C 1419.5 931.1, 1423.3 929.9, 1423.9 929.5 C 1424.6 929.1, 1427.4 928.1, 1430.3 927.4 C 1438.7 925.3, 1453.2 920.2, 1460.6 916.8 C 1462.8 915.8, 1465.3 915, 1466.1 915 C 1466.9 915, 1468.4 914.3, 1469.5 913.6 C 1470.6 912.8, 1472.6 911.9, 1474 911.5 C 1476.6 910.6, 1487.6 905.6, 1502.9 898.1 C 1517.8 890.8, 1527.1 880.3, 1527.2 870.5 C 1527.3 864.8, 1523.5 849.9, 1514.0 818 C 1512.9 814.4, 1511.1 808.2, 1510.0 804.2 C 1504.9 786.5, 1503.6 782.2, 1502.3 778 C 1501.5 775.5, 1500.2 771.1, 1499.5 768.1 C 1497.4 760.2, 1497.8 760.3, 1480.7 759.6 C 1449.3 758.3, 1415 753.9, 1415 751.1 C 1415 747.4, 1408.0 744.9, 1403.5 747.0 M 1169.5 819.2 C 1169.1 825.9, 1168.2 836.2, 1167.5 842 C 1166.7 847.7, 1165.8 856.5, 1165.4 861.5 C 1165.1 866.4, 1164.4 873.2, 1163.9 876.5 C 1163.4 879.8, 1162.5 890.3, 1162.0 900 C 1161.4 909.6, 1160.2 921.7, 1159.5 927 C 1157.5 940.5, 1156.6 955.6, 1157.8 956.3 C 1159.0 957.1, 1160.0 955.8, 1163.4 949.5 C 1164.9 946.7, 1167.4 942.4, 1169.0 940 C 1170.6 937.5, 1172.2 934.8, 1172.6 934 C 1173.0 933.1, 1176.1 928.2, 1179.5 923 C 1196.4 897.0, 1198.5 892.3, 1195.5 887 C 1194.7 885.6, 1194.0 883.6, 1194.0 882.5 C 1194.0 881.4, 1193.1 877.5, 1192.0 874 C 1190.9 870.4, 1189.1 864.1, 1188.0 860 C 1186.8 855.8, 1185.0 849.8, 1184.0 846.5 C 1183.0 843.2, 1181.8 838.7, 1181.4 836.5 C 1181.0 834.3, 1180.1 831.2, 1179.3 829.8 C 1178.6 828.3, 1178.0 826.2, 1178.0 825.3 C 1178.0 822.0, 1172.6 807, 1171.4 807 C 1170.5 807, 1170.0 810.8, 1169.5 819.2 M 1084.2 1025.0 C 1074.7 1027.0, 1069.1 1029.2, 1068.5 1031.3 C 1067.4 1034.8, 1063.9 1052.5, 1062.9 1059 C 1062.3 1063.1, 1061.4 1068.5, 1060.9 1071 C 1059.9 1076.4, 1059.8 1094.9, 1060.8 1100.5 C 1061.3 1103.5, 1061.9 1104.5, 1063.4 1104.5 C 1066.0 1104.5, 1070.3 1093.7, 1069.4 1089.5 C 1069.0 1087.8, 1068.7 1083.8, 1068.6 1080.5 L 1068.5 1074.5 1071.7 1074.1 C 1074.6 1073.9, 1075.1 1074.2, 1077.4 1078.9 C 1078.8 1081.6, 1080 1084.6, 1080 1085.5 C 1080 1088.3, 1084.1 1097.2, 1088.9 1104.6 C 1093.7 1112.1, 1096.8 1114.7, 1098.8 1112.7 C 1100.7 1110.8, 1100.1 1097.2, 1097.9 1090.1 C 1096.3 1085.0, 1096 1080.9, 1096 1069.6 C 1096 1055.5, 1096.0 1055.3, 1098.9 1050.9 C 1103.5 1044.1, 1105.2 1041.8, 1108.7 1038.0 C 1110.5 1036.0, 1111.9 1034.1, 1111.9 1033.8 C 1111.9 1033.4, 1113.1 1031.8, 1114.5 1030.3 C 1115.9 1028.8, 1116.9 1026.6, 1116.7 1025.5 C 1116.3 1022.6, 1097.6 1022.3, 1084.2 1025.0 M 1144.7 1061.6 C 1143.4 1062.9, 1143.9 1065.6, 1146.5 1070.4 C 1147.8 1072.9, 1149.0 1076.3, 1149.0 1077.8 C 1149.0 1081.1, 1150.4 1083.4, 1151.8 1082.5 C 1153.3 1081.6, 1153.3 1073.3, 1151.7 1070.6 C 1151.0 1069.4, 1150.0 1066.9, 1149.4 1065.0 C 1148.4 1061.6, 1146.2 1060.1, 1144.7 1061.6 M 1129.6 1067.6 C 1128.3 1069.0, 1129.0 1074.2, 1131 1076.7 C 1132.1 1078.1, 1133 1079.8, 1133 1080.6 C 1133 1081.3, 1133.9 1083.6, 1135 1085.7 C 1136.1 1087.7, 1137 1091.1, 1137 1093.1 C 1137 1098.1, 1139.5 1100.2, 1141.0 1096.3 C 1142.7 1091.9, 1141.4 1085.8, 1136.7 1076.3 C 1132.6 1067.9, 1131.1 1066.1, 1129.6 1067.6 M 1117.0 1086.3 C 1116.0 1089.0, 1116.6 1092.7, 1118.5 1095 C 1120.7 1097.5, 1125 1108.8, 1125 1111.8 C 1125 1118.7, 1128.0 1120.1, 1130.7 1114.5 C 1132.2 1111.1, 1132.2 1110.7, 1130.0 1103.7 C 1128.7 1099.7, 1126.8 1094.9, 1125.8 1093.0 C 1124.8 1091.0, 1124 1089.0, 1124 1088.4 C 1124 1086.9, 1120.7 1084, 1119.1 1084 C 1118.4 1084, 1117.5 1085.0, 1117.0 1086.3 M 1073.3 1113.7 C 1071.5 1117.9, 1071.6 1117.7, 1065.9 1127.5 C 1062.0 1134.3, 1060.0 1137.4, 1051.5 1151.0 C 1045.5 1160.7, 1045.4 1160.9, 1040.7 1168.8 C 1038.4 1172.8, 1036.0 1176.9, 1035.5 1177.8 C 1033.9 1180.3, 1026.9 1191.1, 1024.8 1194.2 C 1023.8 1195.7, 1023 1197.1, 1023 1197.5 C 1023 1197.8, 1022.1 1199.3, 1021.1 1200.7 C 1015.0 1209.8, 1011 1216.1, 1011 1216.8 C 1011 1217.2, 1010.3 1218.4, 1009.5 1219.5 C 1007.1 1222.5, 999 1235.1, 999 1235.6 C 999 1235.8, 997.2 1238.6, 995.2 1241.7 C 993.1 1244.9, 989.8 1250.1, 987.9 1253.3 C 986.0 1256.5, 983.4 1260.7, 982.2 1262.8 C 981.0 1264.8, 979.4 1267.6, 978.7 1269 C 978.0 1270.3, 975.8 1273.9, 973.7 1277 C 971.6 1280.0, 970.0 1282.8, 970.0 1283.2 C 970.0 1283.7, 969.1 1285.3, 968.1 1286.7 C 962.8 1294.5, 958 1302.1, 958 1302.5 C 958 1302.8, 956.5 1305.1, 954.6 1307.7 C 952.8 1310.3, 949.6 1315.4, 947.6 1319 C 945.5 1322.5, 941.9 1328.5, 939.6 1332.1 C 929.7 1348.0, 923.3 1358.3, 920.7 1362.2 C 919.2 1364.6, 917.3 1367.8, 916.5 1369.5 C 915.6 1371.1, 914.1 1373.8, 913.0 1375.5 C 911.9 1377.1, 910.4 1379.6, 909.7 1381 C 908.4 1383.5, 907.6 1384.9, 901.0 1395 C 897.4 1400.6, 895.1 1404.5, 892.8 1409.0 C 892.0 1410.3, 889.8 1413.9, 887.8 1417.0 C 882.4 1425.0, 882.1 1427.0, 886.2 1429.4 C 890.3 1431.8, 896.9 1435, 898.0 1435 C 898.7 1435, 902.7 1429.1, 903.8 1426.5 C 904.1 1425.9, 906.2 1422.5, 908.6 1418.8 C 911.0 1415.2, 913 1411.9, 913 1411.6 C 913 1411.2, 914.5 1408.7, 916.5 1405.9 C 918.4 1403.1, 920.5 1399.9, 921.0 1398.6 C 921.6 1397.4, 923.3 1394.4, 925.0 1392 C 926.6 1389.5, 928.2 1386.8, 928.6 1386 C 929.0 1385.1, 930.8 1382.4, 932.5 1379.9 C 934.3 1377.4, 936.5 1374.0, 937.4 1372.4 C 938.3 1370.8, 939.9 1368.1, 940.9 1366.5 C 942.0 1364.8, 944.7 1360.3, 947.0 1356.5 C 949.3 1352.6, 953.9 1344.9, 957.3 1339.3 C 960.7 1333.7, 964.7 1326.9, 966.3 1324.3 C 967.9 1321.6, 972.0 1315.2, 975.4 1310 C 984.7 1295.7, 988.5 1289.8, 990.3 1286.5 C 991.3 1284.8, 992.9 1282.1, 994.0 1280.5 C 995.0 1278.8, 996.8 1275.9, 997.9 1274 C 1000.3 1270.0, 1001.0 1268.7, 1006.2 1260.7 C 1008.3 1257.4, 1010 1254.5, 1010 1254.2 C 1010 1253.9, 1011.9 1250.6, 1014.3 1247.0 C 1019.0 1239.9, 1022.8 1233.9, 1028.4 1224.5 C 1030.4 1221.2, 1034.0 1215.3, 1036.4 1211.5 C 1038.9 1207.6, 1041.8 1202.9, 1042.9 1201 C 1044.1 1199.0, 1045.9 1196.1, 1047 1194.5 C 1048.0 1192.8, 1049.8 1189.9, 1051 1188 C 1052.1 1186.0, 1053.9 1183.1, 1054.9 1181.5 C 1056.0 1179.8, 1057.6 1177.1, 1058.5 1175.5 C 1059.4 1173.9, 1060.6 1172.1, 1061.1 1171.5 C 1062.4 1170.0, 1072 1155.0, 1072 1154.5 C 1072 1154.3, 1073.8 1151.4, 1076 1148.1 C 1078.2 1144.8, 1080 1141.8, 1080 1141.5 C 1080 1141.2, 1082.0 1138.1, 1084.5 1134.7 C 1089.4 1127.9, 1089.9 1125.9, 1087.0 1123.2 C 1084.5 1120.9, 1080.3 1114.7, 1079.5 1112.1 C 1078.4 1108.6, 1075.1 1109.5, 1073.3 1113.7 M 1110.5 1115.2 C 1107.0 1123.6, 1107.0 1123.5, 1102.2 1131.0 C 1099.3 1135.6, 1099.4 1137.8, 1102.5 1139.0 C 1105.4 1140.1, 1109.7 1138.6, 1111.1 1136 C 1112.6 1133.0, 1116 1120.6, 1116 1117.9 C 1116 1111.4, 1112.8 1109.8, 1110.5 1115.2 M 689.5 1198.4 C 686.4 1199.8, 680.3 1201.9, 672 1204.5 C 661.1 1207.8, 651.8 1211.1, 641.8 1215.1 C 639.2 1216.1, 636.3 1217, 635.3 1217 C 634.3 1217, 631.2 1217.8, 628.5 1218.8 C 620.9 1221.7, 617.1 1223.0, 610.2 1225.1 C 606.8 1226.1, 600.9 1227.9, 597.2 1229.0 C 593.5 1230.2, 588.0 1231.8, 585 1232.6 C 567.0 1237.5, 564.0 1240.7, 567.7 1251.5 C 569.0 1255.0, 570 1258.4, 570 1259.2 C 570 1259.9, 570.9 1262.2, 572 1264.2 C 573.1 1266.3, 574 1268.5, 574 1269.1 C 574 1272.3, 586.8 1297.5, 593.7 1307.9 C 606.4 1326.9, 618.2 1340.1, 633.1 1351.8 C 644.1 1360.4, 649.0 1363.7, 652.5 1364.5 C 653.8 1364.9, 655.4 1365.8, 656.0 1366.5 C 656.7 1367.3, 657.9 1368.0, 658.8 1368.0 C 659.7 1368.0, 661.8 1368.7, 663.5 1369.5 C 676.7 1376.4, 702.1 1380.9, 717.7 1379.1 C 736.7 1376.8, 747.5 1375.1, 751.5 1373.6 C 753.7 1372.7, 756.1 1372.0, 756.9 1372.0 C 760.5 1371.9, 784.8 1361.2, 794.2 1355.7 C 805.1 1349.2, 822.7 1334.4, 826.6 1328.4 C 828.8 1325.0, 826.9 1320.6, 822.6 1318.9 C 820.9 1318.3, 818.1 1317.1, 816.5 1316.4 C 814.8 1315.7, 812.3 1314.9, 811 1314.5 C 809.6 1314.1, 807.1 1313.2, 805.5 1312.5 C 766.3 1295.6, 737.8 1269.4, 719.8 1234 C 718.0 1230.4, 716.0 1226.8, 715.4 1226 C 714.8 1225.1, 712.8 1221.1, 711.0 1217 C 704.9 1203.0, 703.6 1200.5, 702.1 1198.7 C 700.3 1196.6, 693.8 1196.4, 689.5 1198.4 M 691.8 1211.5 C 691.5 1211.8, 689.0 1212.6, 686.3 1213.4 C 683.7 1214.1, 678.3 1215.9, 674.5 1217.4 C 670.6 1218.9, 665.9 1220.5, 664 1221.1 C 662.0 1221.6, 659.1 1222.7, 657.5 1223.4 C 654.6 1224.8, 649.9 1226.4, 640 1229.5 C 632.5 1231.7, 625.6 1234.0, 622.5 1235.1 C 620.8 1235.7, 616.3 1237.0, 612.5 1238.1 C 608.6 1239.1, 602.3 1240.9, 598.5 1242.0 C 594.6 1243.1, 589.2 1244.6, 586.5 1245.3 C 579.7 1247.1, 578.2 1249.5, 580.9 1254.6 C 582.0 1256.7, 583 1259.0, 583 1259.7 C 583 1260.5, 583.8 1262.7, 584.9 1264.8 C 585.9 1266.8, 589.6 1274.3, 593.1 1281.5 C 605.5 1307.0, 619.7 1325.7, 638.5 1340.8 C 654.4 1353.7, 659.9 1356.4, 668.3 1355.6 C 677.3 1354.8, 693.1 1347.8, 703.3 1340.1 C 714.8 1331.4, 714.7 1331.4, 726.5 1340.9 C 735.0 1347.7, 739.6 1351, 740.7 1351 C 741.1 1351, 743.3 1351.9, 745.5 1353.1 C 751.5 1356.4, 764.3 1356.3, 772.5 1353.0 C 783.4 1348.5, 809.8 1331.1, 809.9 1328.4 C 810.0 1326.6, 806.7 1324.2, 803 1323.4 C 797.7 1322.3, 778.3 1313.4, 772.2 1309.2 C 770.4 1308.0, 768.6 1307, 768.4 1307 C 766.5 1307, 752.6 1295.8, 743.6 1287.0 C 733.2 1277.0, 717 1256.2, 717 1253.0 C 717 1252.6, 716.2 1251.6, 715.4 1250.9 C 714.5 1250.2, 713.2 1248.2, 712.4 1246.5 C 711.6 1244.8, 709.8 1241.7, 708.5 1239.5 C 707.2 1237.3, 705.6 1234.3, 705 1233 C 704.3 1231.6, 703.0 1228.7, 702.0 1226.5 C 701.0 1224.3, 699.0 1219.9, 697.5 1216.7 C 695.2 1211.6, 693.3 1209.9, 691.8 1211.5 M 710.3 1349.2 C 708.7 1350.4, 706.5 1352.0, 705.4 1352.7 C 697.4 1357.5, 692.8 1360, 691.6 1360 C 690.8 1360, 689.6 1360.7, 688.9 1361.6 C 686.9 1363.9, 689.8 1365.7, 696.7 1366.5 C 704.2 1367.5, 731.8 1366.4, 735.2 1365.1 C 738.5 1363.8, 738.8 1361.3, 735.7 1360.4 C 733.1 1359.6, 725.2 1354.6, 719.6 1350.1 C 714.9 1346.4, 714.0 1346.3, 710.3 1349.2 M 602.6 1436.6 C 599.5 1437.5, 590.9 1443.3, 585.5 1448.2 C 578.0 1454.8, 577.1 1455.1, 567.7 1454.4 C 556.0 1453.4, 549.4 1456.3, 546.2 1463.9 C 544.8 1467.3, 544.3 1487.5, 545.5 1492.4 C 546.3 1495.4, 550.4 1497.3, 553.0 1495.9 C 555.3 1494.7, 555.3 1494.4, 555.0 1482 C 554.8 1472.7, 554.9 1472.4, 557.7 1469.3 C 560.6 1466.2, 560.7 1466.2, 566.5 1467.2 C 577.1 1468.9, 582.4 1466.7, 596.9 1454.2 C 606.7 1445.8, 610.2 1446.8, 616.7 1459.9 C 617.9 1462.4, 618.9 1465.0, 618.9 1465.8 C 619.0 1467.9, 623.9 1473.7, 627.4 1475.9 C 629.7 1477.3, 632.4 1478, 636.4 1478 C 641.4 1478, 642.5 1478.3, 645.0 1480.9 C 648.3 1484.2, 648.5 1486.0, 646.8 1497.4 C 645.2 1508.1, 648.6 1513.3, 653.6 1507.7 C 658.0 1502.8, 660 1497.2, 660 1489.4 C 660 1474.7, 653.2 1467.2, 638.5 1465.5 C 632.5 1464.8, 629.3 1462.1, 627.8 1456.5 C 626.5 1451.3, 620.2 1441.2, 616.8 1438.6 C 614.1 1436.7, 606.3 1435.6, 602.6 1436.6 M 470 1467.0 C 461.8 1471.8, 453.2 1476.2, 444.5 1480.0 C 442.3 1481.0, 438.4 1482.7, 435.8 1483.9 C 433.3 1485.0, 430.8 1486.0, 430.3 1486.0 C 429.9 1486.0, 428.3 1486.5, 427 1487.2 C 425.6 1488, 420.4 1489.8, 415.5 1491.4 C 410.5 1492.9, 404.0 1495.0, 401 1496.0 C 397.9 1497.0, 393.4 1498.1, 391 1498.5 C 388.5 1498.9, 385.7 1499.6, 384.8 1500.1 C 383.9 1500.5, 378.8 1501.6, 373.6 1502.4 C 368.3 1503.1, 363.5 1504.1, 362.9 1504.5 C 362.3 1504.8, 356.6 1505.8, 350.1 1506.6 C 330.9 1508.9, 326.7 1510.0, 325.2 1513.2 C 324.1 1515.4, 324.1 1516.4, 325.2 1518.4 C 326.8 1521.5, 336.1 1532.0, 342.4 1537.9 C 345.1 1540.4, 348.4 1543.4, 349.6 1544.6 C 350.8 1545.8, 356.7 1550.7, 362.6 1555.5 C 368.6 1560.4, 374.2 1565.0, 375.1 1565.9 C 376.0 1566.8, 378.4 1568.6, 380.4 1570 C 382.4 1571.3, 386.3 1574.1, 389.0 1576.2 C 391.7 1578.3, 394.3 1580, 394.8 1580 C 395.3 1580, 396.3 1580.7, 397.0 1581.6 C 397.8 1582.4, 399.3 1583.6, 400.4 1584.1 C 401.5 1584.6, 404.5 1586.3, 407 1587.9 C 409.4 1589.6, 412.9 1591.5, 414.7 1592.4 C 418.9 1594.3, 419.1 1597.5, 415.2 1599.1 C 413.7 1599.7, 410.7 1601.0, 408.5 1601.9 C 401.7 1605.0, 394.6 1607.8, 390.7 1609.0 C 388.7 1609.6, 386.7 1610.5, 386.4 1611.0 C 386.1 1611.5, 384.8 1612.0, 383.6 1612.0 C 382.4 1612.0, 380.1 1612.8, 378.5 1613.8 C 376.8 1614.8, 374.2 1615.9, 372.6 1616.3 C 368.7 1617.3, 363.3 1621.5, 362.6 1624.1 C 362.0 1626.4, 366.7 1631.4, 370.4 1632.6 C 371.5 1632.9, 373.1 1633.8, 374 1634.4 C 374.8 1635.1, 378.4 1636.9, 382 1638.4 C 394.1 1643.5, 410.6 1651.0, 433.5 1662 C 471.1 1680.0, 472 1680.5, 472 1686.5 C 472 1688.1, 472.7 1692.0, 473.5 1695.0 C 474.4 1698.0, 475.7 1703.6, 476.4 1707.5 C 477.2 1711.3, 478.2 1715.6, 478.7 1717 C 479.3 1718.3, 480.0 1721.5, 480.4 1724 C 481.2 1729.4, 485.6 1736.1, 489.2 1737.4 C 491.0 1738.0, 494.1 1737.8, 499.1 1736.7 C 503.2 1735.8, 509.1 1734.8, 512.4 1734.5 C 515.7 1734.1, 520.6 1733.3, 523.4 1732.5 C 526.2 1731.7, 531.8 1730.8, 536 1730.5 C 540.1 1730.1, 545.0 1729.4, 547.0 1728.9 C 548.9 1728.4, 555.6 1727.5, 561.9 1727.0 C 574.4 1725.9, 574.1 1725.8, 580.8 1731.9 C 582.7 1733.6, 584.6 1735, 585.1 1735 C 585.6 1735, 586 1735.6, 586 1736.3 C 586 1737.7, 579.2 1743, 577.5 1743 C 577.0 1743, 575.8 1743.7, 574.8 1744.6 C 573.8 1745.5, 572.1 1746.8, 571.0 1747.4 C 569.9 1748.0, 565.1 1750.7, 560.2 1753.5 C 550.9 1758.9, 528.2 1770.2, 524 1771.5 C 522.6 1771.9, 520.6 1772.8, 519.5 1773.6 C 518.4 1774.3, 516.9 1775, 516.2 1775 C 514.9 1775, 507.7 1778.0, 499.1 1782.3 C 488.0 1787.8, 488.4 1795.6, 500.2 1801.2 C 505.1 1803.6, 510.6 1806.1, 522 1811.2 C 524.4 1812.3, 530.0 1815, 534.4 1817.1 C 538.8 1819.2, 542.9 1821, 543.5 1821 C 544.2 1821, 545.3 1821.6, 545.9 1822.4 C 546.6 1823.2, 548.7 1824.2, 550.5 1824.5 C 552.4 1824.9, 554.4 1825.8, 555.0 1826.5 C 555.6 1827.2, 557.4 1828.1, 559 1828.5 C 560.5 1828.8, 562.3 1829.7, 563.0 1830.5 C 563.7 1831.3, 564.6 1832, 565.1 1832 C 565.7 1832, 570.3 1834.0, 575.4 1836.5 C 580.5 1838.9, 585.0 1841, 585.4 1841 C 585.7 1841, 591.7 1843.7, 598.7 1847.0 C 617.1 1855.8, 620.4 1857.4, 630.5 1861.9 C 635.4 1864.2, 640.1 1866.4, 641 1867.0 C 641.8 1867.5, 643.6 1868.4, 645 1869.0 C 646.3 1869.6, 649.3 1871.0, 651.6 1872.1 C 659.3 1875.7, 662.0 1875.6, 669.4 1871.3 C 673.0 1869.2, 677.2 1866.8, 678.7 1865.9 C 682.4 1863.9, 689.7 1859.1, 715 1842.3 C 739.3 1826.0, 738.2 1826.8, 754.7 1813.7 C 761.5 1808.4, 768.1 1803.7, 769.4 1803.4 C 771.6 1802.8, 781.1 1809.9, 792.9 1821.0 C 801.1 1828.6, 828.3 1850.0, 830.6 1850.6 C 833.3 1851.3, 846.6 1848.5, 848.6 1846.8 C 849.2 1846.3, 851.9 1845.3, 854.6 1844.5 C 857.3 1843.8, 862.6 1842.0, 866.5 1840.5 C 870.3 1839.0, 874.8 1837.4, 876.5 1836.9 C 878.1 1836.4, 880.8 1835.4, 882.5 1834.6 C 884.1 1833.9, 887.7 1832.2, 890.5 1831.0 C 893.2 1829.8, 897.1 1827.9, 899.1 1826.9 C 903.6 1824.6, 909.2 1824.4, 912.8 1826.4 C 917.8 1829.3, 932.7 1834.0, 945.7 1837.0 C 950.3 1838.0, 954.4 1839.1, 954.9 1839.4 C 955.3 1839.7, 960.1 1840.4, 965.6 1841.0 C 977.8 1842.4, 979 1843.2, 979 1851.1 C 979 1854.5, 979.8 1859.1, 981.0 1862.3 C 984.7 1872.3, 993.1 1875.2, 1007.6 1871.5 C 1018.8 1868.5, 1022.3 1869.2, 1030.1 1875.6 C 1034.4 1879.1, 1038.4 1881.5, 1041.0 1882.1 C 1046.0 1883.2, 1062.0 1881.5, 1066.0 1879.4 C 1067.6 1878.6, 1069.5 1878, 1070.3 1878 C 1072.9 1878, 1083.4 1871.7, 1087.3 1867.8 C 1089.4 1865.7, 1092.6 1860.9, 1094.5 1857.1 C 1097.3 1851.2, 1098.2 1850.0, 1100.9 1849.5 C 1107.3 1848.1, 1123.0 1835.9, 1130.7 1826.5 C 1132.5 1824.3, 1134.4 1821.9, 1135.0 1821.2 C 1136.9 1818.8, 1146 1801.0, 1146 1799.5 C 1146 1798.7, 1146.6 1796.5, 1147.4 1794.7 C 1149.9 1788.8, 1153.2 1772.9, 1152.6 1769.3 C 1151.5 1762.6, 1147.9 1759.2, 1140.7 1758.5 C 1137.3 1758.1, 1131.3 1757.2, 1127.5 1756.5 C 1123.6 1755.7, 1116.6 1754.8, 1112 1754.4 C 1107.3 1754.0, 1102.4 1753.3, 1101.1 1752.8 C 1099.7 1752.3, 1095.2 1751.4, 1091.1 1750.9 C 1086.9 1750.3, 1081.4 1749.2, 1079 1748.5 C 1076.5 1747.7, 1072.4 1746.8, 1070 1746.4 C 1067.5 1746.0, 1064.3 1745.1, 1062.9 1744.4 C 1061.5 1743.7, 1058.1 1742.7, 1055.4 1742.1 C 1052.7 1741.6, 1049.1 1740.7, 1047.5 1740.1 C 1043.7 1738.8, 1035.8 1736.2, 1030 1734.4 C 1027.5 1733.7, 1022.3 1731.8, 1018.5 1730.4 C 1014.6 1728.9, 1009.4 1727.1, 1007 1726.4 C 1004.5 1725.6, 999.0 1723.8, 994.8 1722.3 C 984.7 1718.8, 983.7 1719.2, 968.5 1734.0 C 953.8 1748.2, 947.7 1753.9, 946.8 1753.9 C 946.4 1753.9, 943.7 1755.9, 940.8 1758.2 C 934.9 1762.8, 934.4 1763.2, 925 1768.6 C 909.3 1777.6, 905.5 1779.1, 903.3 1776.9 C 902.7 1776.3, 900.7 1775.4, 898.8 1774.9 C 894.8 1773.9, 884.2 1770.2, 881.5 1768.9 C 880.4 1768.4, 877.5 1767.3, 875.2 1766.5 C 872.9 1765.6, 869.0 1764.3, 866.7 1763.4 C 864.4 1762.6, 861.1 1761.3, 859.5 1760.5 C 847.4 1755.1, 833.9 1751.9, 831.5 1753.9 C 827.3 1757.4, 831.7 1760.9, 852 1769.8 C 854.4 1770.9, 858.5 1772.7, 861.1 1773.9 C 863.6 1775.0, 866.3 1776, 867.1 1776 C 867.9 1776, 869.4 1776.6, 870.5 1777.3 C 871.6 1778.1, 874.0 1779.2, 876.0 1779.8 C 881.7 1781.6, 890.0 1784.6, 890.5 1785.2 C 890.8 1785.5, 888.9 1787.2, 886.3 1789.0 C 875.0 1796.7, 871.8 1804.5, 878.4 1808.2 C 879.6 1808.9, 882.5 1810.5, 884.8 1811.7 C 887.1 1813.0, 889 1814.6, 889 1815.4 C 889 1817.1, 885.2 1820, 883.0 1820 C 882.1 1820, 879.7 1820.9, 877.7 1822 C 875.6 1823.1, 873.4 1824.0, 872.7 1824.0 C 872.0 1824.0, 870.1 1824.7, 868.5 1825.6 C 866.8 1826.4, 863.3 1827.8, 860.7 1828.6 C 858.2 1829.4, 855.8 1830.4, 855.4 1831.0 C 855.1 1831.5, 853.8 1832.0, 852.6 1832.0 C 851.4 1832.0, 849.1 1832.7, 847.5 1833.6 C 844.9 1835.0, 835.7 1837.9, 833.8 1837.9 C 833.2 1838, 819.9 1827.3, 819 1826.0 C 818.7 1825.7, 814.4 1822.0, 809.5 1818.0 C 804.5 1813.9, 799.7 1809.9, 798.7 1809.0 C 796.9 1807.3, 797.0 1807.4, 787.9 1799.8 C 784.6 1797.1, 782 1794.3, 782 1793.6 C 782 1792.9, 788.1 1786.3, 795.6 1778.9 C 820.2 1754.9, 822.6 1751.4, 816.5 1747.4 C 813.5 1745.4, 813.2 1743.9, 815.8 1743.3 C 819.7 1742.2, 828.3 1737.3, 829.6 1735.3 C 833.0 1730.1, 820.4 1727.9, 812.3 1732.2 C 808.1 1734.5, 800.4 1738, 799.6 1738 C 798.7 1738, 788.1 1742.7, 786 1744.0 C 785.1 1744.5, 783.3 1745.4, 782 1746.0 C 780.6 1746.5, 778.8 1747.4, 778 1748.0 C 777.1 1748.5, 775.3 1749.4, 774 1749.9 C 772.6 1750.5, 770.2 1751.6, 768.6 1752.4 C 767.1 1753.3, 764.6 1754, 763.1 1754 C 760.8 1754, 748.6 1748.3, 738.5 1742.5 C 736.3 1741.2, 731.3 1738.5, 727.5 1736.5 C 723.6 1734.5, 719.8 1732.4, 719 1731.9 C 718.1 1731.4, 716.3 1730.5, 715 1729.9 C 713.6 1729.3, 710.7 1727.8, 708.5 1726.4 C 706.3 1725.1, 703.3 1723.5, 702 1723.0 C 700.6 1722.4, 698.8 1721.5, 698 1720.9 C 697.1 1720.4, 695.3 1719.5, 694 1718.9 C 692.6 1718.4, 690.8 1717.5, 690 1717.0 C 688.3 1716.0, 673.0 1708.3, 661.5 1702.8 C 656.3 1700.3, 654.5 1698.9, 654.5 1697.5 C 654.5 1695.8, 655.5 1695.3, 661.5 1694.4 C 668.8 1693.3, 676.5 1691.0, 683.7 1687.8 C 686.1 1686.8, 688.6 1686, 689.4 1686 C 691.0 1686, 697 1681.2, 697 1679.9 C 697 1679.4, 695.4 1677.8, 693.4 1676.4 C 690.0 1673.7, 689.9 1673.7, 685.7 1675.3 C 683.4 1676.1, 679.7 1677.2, 677.5 1677.5 C 675.3 1677.9, 672.6 1678.7, 671.5 1679.2 C 669.3 1680.4, 654.8 1683.3, 641.1 1685.4 C 622.1 1688.2, 620.6 1696.6, 637.5 1704.9 C 641.0 1706.6, 644.1 1708.4, 644.4 1708.9 C 644.7 1709.4, 646.4 1710.1, 648.2 1710.5 C 650.0 1710.9, 652.1 1711.7, 653 1712.4 C 653.8 1713.1, 655.6 1714.0, 657 1714.5 C 658.3 1714.9, 660.1 1715.8, 661 1716.5 C 661.8 1717.1, 663.6 1718.0, 665 1718.5 C 666.3 1718.9, 668.1 1719.7, 668.8 1720.3 C 671.4 1722.4, 704.1 1739.0, 705.6 1739.0 C 706.2 1739.0, 707.3 1739.6, 708.0 1740.5 C 709.7 1742.5, 706.9 1745.6, 702.6 1746.5 C 700.9 1746.9, 697.9 1748.1, 696.0 1749.1 C 694.0 1750.1, 691.9 1751, 691.2 1751 C 690.6 1751, 688.1 1751.8, 685.7 1752.8 C 683.4 1753.9, 679.0 1755.7, 676 1757 C 672.9 1758.2, 668.7 1760.0, 666.5 1760.9 C 656.2 1765.4, 655.0 1765.1, 625.5 1747.7 C 614.0 1740.9, 591.6 1724.1, 580.7 1714.1 C 560.6 1695.5, 542.8 1675.1, 534.4 1660.9 C 533.8 1660.0, 532.7 1658.4, 532 1657.5 C 531.2 1656.5, 530.1 1654.9, 529.5 1653.9 C 528.9 1652.8, 525.6 1647.2, 522.2 1641.3 C 518.8 1635.5, 516.2 1630.4, 516.5 1629.9 C 516.7 1629.5, 523.1 1628.9, 530.7 1628.5 C 538.3 1628.1, 546.9 1627.4, 550 1626.9 C 553.0 1626.4, 560 1625.5, 565.5 1624.9 C 571 1624.4, 578.2 1623.3, 581.5 1622.5 C 584.8 1621.7, 590.2 1620.8, 593.5 1620.4 C 604.7 1619.2, 610.7 1613.4, 605.2 1609.1 C 603.3 1607.6, 586.6 1608.2, 579.8 1610.0 C 577.8 1610.5, 569.5 1611.6, 561.3 1612.5 C 553.1 1613.3, 543.3 1614.4, 539.5 1614.9 C 535.6 1615.4, 526.6 1615.9, 519.5 1615.9 C 504.2 1616.0, 502.6 1616.3, 501.1 1619.6 C 499.2 1623.7, 499.7 1625.9, 505.5 1637.4 C 511.8 1649.9, 514.6 1654.8, 521.3 1665.0 C 525.0 1670.6, 525.1 1672.1, 521.7 1673.0 C 518.8 1673.8, 511.4 1677.0, 506.8 1679.5 C 505.3 1680.3, 503.4 1681, 502.4 1681 C 501.1 1681, 469.6 1665.9, 463 1662.0 C 462.1 1661.6, 460.3 1660.7, 459 1660.1 C 457.6 1659.5, 455.8 1658.6, 455 1658.1 C 451.2 1655.8, 426.3 1643.9, 425.3 1643.9 C 424.7 1644, 423.6 1643.3, 423 1642.5 C 422.3 1641.6, 421.1 1641, 420.3 1641 C 419.0 1641, 412.5 1638.3, 404.5 1634.4 C 402.8 1633.6, 400.0 1632.7, 398.2 1632.3 C 396.4 1632.0, 394.7 1631.3, 394.4 1630.8 C 394.1 1630.4, 392.1 1629.5, 389.9 1628.9 C 387.7 1628.4, 386 1627.3, 386 1626.5 C 386 1625.1, 393.0 1621, 395.3 1621 C 396.0 1621, 398.3 1620.1, 400.5 1619 C 402.6 1617.9, 404.8 1617, 405.2 1617 C 405.7 1617, 408.6 1615.8, 411.8 1614.4 C 414.9 1613.0, 418.8 1611.3, 420.5 1610.6 C 425.8 1608.2, 435.4 1603.8, 437 1603.0 C 437.8 1602.5, 441.7 1600.4, 445.7 1598.3 C 449.7 1596.3, 453 1594.2, 453 1593.9 C 453 1593.5, 454.0 1592.9, 455.2 1592.6 C 456.4 1592.3, 461.2 1589.6, 465.7 1586.6 C 470.2 1583.6, 476.3 1579.7, 479.2 1578.0 C 482.1 1576.2, 486.5 1573.5, 489 1571.9 C 491.4 1570.3, 494.1 1568.7, 495 1568.3 C 495.8 1567.9, 499.1 1565.9, 502.3 1563.8 C 505.5 1561.7, 508.3 1560, 508.5 1560 C 508.7 1560, 511.3 1558.4, 514.2 1556.6 C 520.4 1552.6, 537.0 1544, 538.3 1544 C 539.3 1544, 547.0 1547.7, 553.5 1551.4 C 555.7 1552.7, 562.2 1556.1, 568 1559.0 C 573.7 1562.0, 579.5 1565.2, 580.8 1566.2 C 583.6 1568.2, 590.9 1568.6, 592.8 1566.8 C 595.0 1564.5, 594.0 1561.4, 590.0 1558.1 C 587.8 1556.4, 585.8 1555, 585.6 1555 C 585.3 1555, 583.5 1553.9, 581.6 1552.6 C 579.6 1551.3, 574.1 1548.3, 569.3 1546.0 C 564.4 1543.7, 559.8 1541.4, 559 1540.9 C 558.1 1540.4, 553.2 1537.9, 548.0 1535.4 C 539.4 1531.2, 538.1 1530.8, 533.5 1531.4 C 528.7 1532.0, 512.1 1530.1, 505.4 1528.1 C 503.8 1527.6, 498.8 1526.9, 494.4 1526.5 C 490.0 1526.1, 484.2 1525.2, 481.5 1524.4 C 478.8 1523.6, 473.2 1523, 469.0 1523 C 461.7 1523, 461.3 1523.1, 458.7 1526.1 C 455.7 1529.5, 455.2 1535.1, 457.0 1545.5 C 460.1 1563.6, 461.0 1570.6, 460.5 1572.4 C 460.2 1573.6, 457.3 1576.0, 453.9 1578 C 450.5 1579.9, 446.1 1582.5, 444.1 1583.7 C 432.9 1590.5, 434.7 1591.0, 408.7 1573.7 C 378.9 1554.0, 345 1526.2, 345 1521.7 C 345 1520.0, 346.4 1519.7, 359.8 1518.4 C 363.3 1518.1, 367.3 1517.4, 368.7 1516.9 C 370.1 1516.3, 374.6 1515.4, 378.8 1514.8 C 383.0 1514.3, 387.1 1513.4, 388.0 1512.9 C 389.0 1512.4, 392.6 1511.4, 396.1 1510.6 C 399.6 1509.8, 403.8 1508.7, 405.5 1508.2 C 412.0 1506.0, 418.7 1503.8, 423 1502.5 C 431.5 1499.9, 439.4 1496.9, 440.4 1495.9 C 440.9 1495.4, 442.0 1495, 442.8 1495 C 444.3 1495, 461.2 1486.7, 468.5 1482.4 C 473.7 1479.3, 478.9 1477, 480.5 1477 C 481.2 1477, 486.4 1480.7, 492.1 1485.2 C 501.6 1492.8, 514.2 1501.7, 518 1503.4 C 518.8 1503.7, 521.3 1505.1, 523.5 1506.5 C 525.7 1507.8, 528.6 1509.4, 530 1510.0 C 531.3 1510.7, 533.6 1511.8, 535.0 1512.5 C 540.5 1515.4, 560.3 1522, 563.4 1522 C 566.0 1522, 577.0 1511.6, 590.1 1496.9 L 596.8 1489.5 601.1 1493.6 C 619.4 1510.9, 639.4 1522.9, 645.5 1520.1 C 649.8 1518.2, 648.5 1515.6, 640.7 1510.4 C 636.7 1507.7, 632.8 1505.0, 632 1504.3 C 631.1 1503.6, 629.1 1501.9, 627.6 1500.5 C 626.0 1499.1, 624.4 1497.9, 624.1 1497.9 C 623.7 1497.9, 621.4 1496.0, 619 1493.8 C 613.0 1488.3, 601.9 1479.5, 599.4 1478.2 C 594.6 1475.7, 591.6 1477.9, 574.1 1496.8 C 564.0 1507.7, 562.0 1508.7, 554.1 1507.0 C 551.0 1506.3, 546.9 1504.9, 545 1503.9 C 543.0 1502.9, 540.8 1501.8, 540 1501.5 C 539.1 1501.1, 536.7 1499.8, 534.5 1498.4 C 532.3 1497.1, 529.1 1495.3, 527.4 1494.5 C 525.7 1493.7, 523.7 1492.4, 523.0 1491.5 C 522.3 1490.7, 521.3 1490, 520.9 1490 C 520.0 1490, 501.3 1476.0, 493.5 1469.5 C 482.4 1460.3, 481.6 1460.2, 470 1467.0 M 701.8 1508.2 C 682.2 1527.7, 677.8 1531.6, 659.0 1547.0 C 641.4 1561.3, 624.7 1574.1, 617.7 1578.5 C 610.8 1582.8, 611.7 1584.5, 620.9 1584.2 C 628.5 1584.0, 637.1 1580.7, 646.5 1574.4 C 648.4 1573.0, 650.4 1572, 650.9 1572 C 653.5 1572, 680.0 1548.9, 697.3 1531.7 C 717.4 1511.6, 720.3 1509.6, 721.5 1514.4 C 722.7 1519.3, 707.6 1538.0, 687.9 1556 C 682.1 1561.2, 677.0 1565.9, 676.5 1566.6 C 675.9 1567.2, 670.3 1571.8, 664 1576.9 C 642.9 1593.9, 632 1604.0, 632 1606.6 C 632 1610.4, 641.6 1609.7, 650 1605.2 C 668.4 1595.4, 690.3 1576.5, 723.2 1542.0 C 733.9 1530.8, 737.1 1528.9, 737.7 1533.5 C 738.2 1536.6, 722.2 1558.1, 709 1572.3 C 690.7 1591.9, 678.2 1602.2, 663.0 1610.2 C 657.0 1613.4, 652.9 1616.7, 653.0 1618.4 C 653.0 1619.0, 655.3 1620.8, 658.2 1622.4 C 661.1 1624.0, 665.6 1626.8, 668.2 1628.6 C 670.8 1630.5, 674.0 1632, 675.3 1632 C 678.8 1632, 705.5 1605.0, 726.9 1579.9 C 739.8 1564.9, 743.4 1561.6, 745.8 1562.9 C 749.3 1564.7, 748.9 1565.6, 735.5 1585.5 C 727.9 1596.8, 726.8 1598.3, 714.8 1614.2 C 710.0 1620.5, 704.1 1627.8, 701.8 1630.4 C 699.4 1633.0, 695.7 1637.0, 693.7 1639.3 C 688.8 1644.6, 689.0 1647.1, 694.4 1648.2 C 696.6 1648.6, 699.3 1649.8, 700.4 1650.8 C 703.1 1653.2, 707.8 1655.7, 711.1 1656.4 C 712.6 1656.7, 714.4 1657.5, 715.1 1658.2 C 716.6 1659.6, 722.5 1663.5, 728.1 1666.8 C 734.1 1670.4, 736.0 1669.7, 742.9 1662.3 C 746.2 1658.7, 750.5 1653.4, 752.5 1650.6 C 754.4 1647.8, 757.8 1643.0, 760.0 1640 C 765.5 1632.4, 769.6 1626.6, 774.8 1619 C 780.0 1611.3, 782.3 1610.6, 782.7 1616.5 C 783.1 1620.8, 782.3 1623.1, 778.5 1629.5 C 777.2 1631.7, 775.4 1634.8, 774.5 1636.5 C 773.6 1638.1, 771.9 1641.1, 770.7 1643.1 C 769.4 1645.1, 766.7 1649.8, 764.5 1653.6 C 762.4 1657.4, 760.3 1660.7, 759.9 1661 C 758.3 1662.0, 753.9 1674.3, 754.1 1676.7 C 754.7 1681.3, 756.6 1680.2, 766.8 1669.8 C 778.8 1657.4, 784.3 1650.6, 793 1637.2 C 796.5 1631.6, 800.0 1626.8, 800.8 1626.5 C 804.0 1625.2, 807.9 1630.6, 805.1 1632.4 C 804.6 1632.7, 803.9 1634.2, 803.5 1635.7 C 802.7 1639.1, 800.5 1644.0, 789.0 1668.1 C 782.7 1681.4, 780.7 1689.7, 782.9 1692.4 C 783.9 1693.5, 786.2 1694, 791.6 1694 C 799.0 1694, 799.0 1694.0, 803.8 1698.5 C 806.5 1700.9, 809.5 1703, 810.6 1703 C 815.2 1703, 826.1 1687.3, 838.0 1663.6 C 843.6 1652.4, 844.0 1651.9, 846.6 1650.7 C 848.8 1649.7, 849.4 1649.8, 850.6 1651.4 C 852.4 1653.9, 852.3 1655.9, 850.1 1665.5 C 849.0 1669.9, 847.9 1676.0, 847.6 1679.2 C 847.2 1682.3, 846.3 1687.3, 845.6 1690.2 C 843.1 1699.7, 842.4 1714.8, 844.4 1715.6 C 847.2 1716.6, 850.8 1714.3, 852.5 1710.2 C 858.6 1696.1, 865.4 1675.0, 867.5 1663.7 C 868.3 1659.4, 869.3 1655.1, 869.8 1654.2 C 870.3 1653.2, 871.0 1650.7, 871.4 1648.5 C 871.7 1646.3, 872.9 1641.8, 873.9 1638.5 C 875.0 1635.2, 876.8 1629.1, 878.0 1625 C 880.3 1617.0, 883.0 1609.7, 885.8 1604 C 887.1 1601.1, 888.0 1600.5, 890.5 1600.5 C 893.4 1600.5, 893.5 1600.5, 893.3 1606.0 C 893.2 1609.0, 892.4 1613.5, 891.5 1616.0 C 890.5 1618.4, 889.2 1623.2, 888.5 1626.5 C 887.8 1629.8, 886.7 1633.8, 886.1 1635.5 C 884.4 1640.4, 882.0 1650.8, 880.4 1660.5 C 879.6 1665.4, 878.5 1671.0, 877.9 1673 C 876.4 1678.6, 876.7 1706.4, 878.4 1712.4 C 879.2 1715.2, 880.1 1719.1, 880.5 1721.2 C 880.9 1724.0, 881.5 1725, 882.9 1725 C 886.6 1725, 887.4 1722.2, 888.1 1706.5 C 888.5 1698.2, 889.5 1688.3, 890.4 1684.6 C 891.2 1680.9, 892 1676.4, 892 1674.7 C 892 1671.8, 894.1 1661.1, 897.5 1647.5 C 898.4 1644.2, 899.5 1639.5, 900.1 1637.2 C 902.0 1629.4, 905.2 1624.5, 908.7 1624.1 C 912.4 1623.8, 913.3 1625.7, 912.0 1631 C 906.3 1652.1, 901.9 1681.9, 901.9 1698.3 C 902.0 1713.9, 907.4 1735, 911.4 1735 C 914.5 1735, 914.9 1731.9, 915.9 1702.1 C 916.5 1685.4, 917.5 1669.7, 918.1 1667.1 C 918.7 1664.6, 919.7 1658.2, 920.4 1653 C 921.8 1643.2, 923.9 1633.3, 926.6 1624.5 C 928.8 1617.1, 930.7 1607.1, 930.0 1606.2 C 928.9 1604.7, 923.4 1601.2, 920.9 1600.5 C 919.6 1600.1, 917.8 1599.2, 917 1598.5 C 916.1 1597.8, 914.1 1596.8, 912.5 1596.2 C 910.8 1595.6, 907.4 1594.0, 905 1592.5 C 902.5 1591.1, 899.1 1589.3, 897.4 1588.5 C 894.4 1587.1, 876.0 1576.8, 873 1574.9 C 872.1 1574.4, 869.7 1573.0, 867.5 1571.9 C 865.3 1570.8, 858.1 1567.0, 851.5 1563.5 C 844.9 1559.9, 838.3 1556.5, 837 1555.9 C 833.4 1554.5, 833.3 1554.4, 824.5 1549.5 C 820.1 1547.1, 813.8 1543.7, 810.5 1541.9 C 807.2 1540.2, 803.8 1538.2, 803 1537.5 C 802.1 1536.8, 798.5 1534.8, 795 1533.0 C 791.4 1531.2, 784.4 1527.6, 779.5 1525.0 C 774.5 1522.3, 767.3 1518.5, 763.5 1516.5 C 759.6 1514.5, 754.7 1511.8, 752.5 1510.5 C 750.3 1509.2, 745.3 1506.5, 741.5 1504.5 C 737.6 1502.5, 732.7 1499.8, 730.5 1498.5 C 725.2 1495.3, 720.0 1493, 718.5 1493 C 717.8 1493, 710.3 1499.8, 701.8 1508.2 M 1082 1525.3 C 1076.8 1527.8, 1072.4 1530.5, 1069.5 1533.0 C 1063.8 1537.7, 1060.6 1537.2, 1050.8 1530.3 C 1041.8 1524.0, 1030.4 1523.7, 1020.7 1529.4 C 1010.3 1535.5, 1007.7 1542.7, 1010.4 1557.6 C 1012.3 1567.5, 1011.6 1571.0, 1006.5 1577.5 C 999.1 1586.8, 997.5 1590.7, 997.5 1600.1 C 997.5 1607.2, 997.8 1609.3, 999.5 1611.6 C 1000.6 1613.2, 1002.1 1615.6, 1002.8 1617 C 1006.0 1623.0, 1012.6 1625.9, 1023.3 1625.9 C 1030.6 1626.0, 1037.1 1629.2, 1045.0 1636.8 C 1052.0 1643.5, 1057.2 1645.0, 1064.4 1642.6 C 1077.3 1638.3, 1080.2 1637.6, 1088.0 1637.0 C 1100.6 1636.0, 1106.8 1630.2, 1108.8 1617.4 C 1109.7 1611.4, 1112.4 1607.7, 1119.0 1603.1 C 1128.0 1596.9, 1130.3 1592.4, 1129.2 1583.7 C 1128.7 1580.1, 1127.6 1578.5, 1122.2 1573.2 C 1118.7 1569.8, 1115.2 1567, 1114.5 1567 C 1111.6 1567, 1108.4 1561.7, 1107.3 1555.1 C 1104.1 1536.0, 1101.5 1530.9, 1091.8 1525.1 C 1087.5 1522.5, 1087.6 1522.5, 1082 1525.3 M 469.4 1536.3 C 467.7 1537.6, 468.4 1546.7, 471.3 1560.4 C 472.7 1567.0, 474.0 1568.1, 477.3 1565.3 C 480.7 1562.4, 485.8 1559, 486.8 1559 C 487.2 1559, 488.5 1558.1, 489.5 1557 C 490.4 1555.9, 491.6 1555, 492.1 1555 C 492.5 1555, 494.5 1553.8, 496.6 1552.4 C 498.7 1551.0, 502.5 1548.9, 505.2 1547.7 C 514.0 1543.6, 510.6 1540.7, 495.5 1539.4 C 491.6 1539.1, 485.3 1538.2, 481.5 1537.3 C 477.6 1536.5, 473.7 1535.7, 472.7 1535.5 C 471.8 1535.3, 470.3 1535.7, 469.4 1536.3 M 1076.5 1543.4 C 1071.6 1547.4, 1065.8 1551.3, 1063.7 1551.9 C 1060.3 1552.9, 1060.0 1553.2, 1061.0 1555.1 C 1063.2 1559.1, 1058.6 1564.6, 1050 1568.6 C 1043.8 1571.3, 1039 1578.6, 1039 1585.0 C 1039 1589.7, 1037.3 1592, 1034.0 1592 C 1031.4 1592, 1030.9 1591.4, 1029.8 1587.9 C 1026.6 1577.2, 1035.3 1558, 1043.4 1558 C 1045.1 1558, 1049.3 1556.7, 1052.7 1555.2 C 1059.6 1552.2, 1060.1 1550.5, 1055.1 1546.5 C 1045.0 1538.4, 1035.7 1536.0, 1028.3 1539.6 C 1022.0 1542.6, 1020.6 1546.8, 1022.6 1556.0 C 1024.6 1565.6, 1023.9 1572.5, 1020.3 1578.6 C 1018.8 1581.3, 1017.0 1583.8, 1016.3 1584.3 C 1015.5 1584.7, 1015 1585.6, 1015 1586.3 C 1015 1587.1, 1014.1 1588.4, 1013.1 1589.3 C 1012.1 1590.2, 1010.7 1593.4, 1010.0 1596.3 C 1007.1 1608.3, 1013.3 1614.9, 1027.4 1615.0 C 1038.2 1615.0, 1041.0 1616.1, 1049.1 1624.1 C 1054.6 1629.4, 1056.8 1631.0, 1058.4 1630.6 C 1059.5 1630.3, 1062.7 1629.6, 1065.5 1628.9 C 1068.2 1628.3, 1072.5 1627.2, 1075 1626.5 C 1077.4 1625.7, 1082.4 1624.9, 1086 1624.5 C 1094.0 1623.8, 1095.4 1622.3, 1096.4 1613.8 C 1097.5 1603.7, 1100.3 1599.8, 1110.3 1594.0 C 1113.4 1592.3, 1116.1 1590.0, 1116.5 1588.9 C 1117.6 1585.4, 1116.0 1581.2, 1113.1 1580.0 C 1109.5 1578.5, 1103.6 1574.8, 1100.9 1572.4 C 1097.3 1569.2, 1096.3 1565.9, 1095.6 1556.2 C 1094.8 1544.7, 1090.9 1536.1, 1086.4 1536.0 C 1085.9 1536.0, 1081.4 1539.3, 1076.5 1543.4 M 785.2 1551.7 C 782.9 1553.5, 772.4 1566.9, 765.5 1576.5 C 759.1 1585.3, 751.6 1595.3, 750.1 1596.9 C 749.4 1597.6, 745.7 1602.4, 742.0 1607.4 C 738.2 1612.4, 734.0 1617.7, 732.5 1619.3 C 731.0 1620.9, 727.6 1624.9, 724.8 1628.3 C 722.1 1631.7, 719.0 1635.5, 717.9 1636.8 C 715.6 1639.5, 716.8 1642.3, 719.8 1641.2 C 725.2 1639.2, 746.5 1618.8, 758.0 1604.6 C 760.8 1601.2, 763.6 1597.8, 764.2 1597.0 C 765.4 1595.5, 769.9 1589.2, 775.4 1580.8 C 784.8 1566.7, 787 1563.2, 787 1562.0 C 787 1561.3, 787.9 1559.5, 789.0 1557.9 C 792.8 1552.5, 789.8 1547.7, 785.2 1551.7 M 1062 1568.2 C 1058.5 1570.0, 1058.0 1574.6, 1061.1 1575.9 C 1062.4 1576.4, 1066.0 1577.8, 1069.2 1579.0 C 1072.4 1580.2, 1075 1581.5, 1075 1581.9 C 1075 1582.3, 1077.2 1584.1, 1080.0 1585.8 C 1084.3 1588.5, 1085.0 1589.3, 1084.4 1591.2 C 1082.8 1596.5, 1078.0 1601.9, 1066.8 1611.0 C 1062.2 1614.8, 1063.4 1617, 1070.1 1617 C 1079.1 1617, 1086.7 1610.2, 1094.0 1595.6 L 1096.4 1590.9 1094.4 1587.2 C 1088.0 1575.2, 1069.5 1564.4, 1062 1568.2 M 846.8 1582.7 C 845.0 1584.7, 835 1605.4, 835 1607.1 C 835 1607.7, 834.3 1609.3, 833.5 1610.8 C 832.7 1612.3, 830.9 1616.4, 829.4 1620 C 828.0 1623.5, 826.0 1628.3, 824.9 1630.5 C 823.9 1632.7, 821.0 1639.4, 818.4 1645.5 C 812.2 1660.0, 810.1 1664.9, 808.5 1668 C 805.4 1674.0, 805.5 1680, 808.8 1680 C 810.7 1680, 815 1676.0, 815 1674.3 C 815 1673.7, 815.8 1672.1, 816.8 1670.8 C 819.2 1667.8, 826.7 1652.8, 833.5 1637.5 C 837.9 1627.6, 839.9 1622.8, 841.9 1617.5 C 843.2 1614.2, 844.8 1610.1, 845.6 1608.4 C 846.4 1606.7, 847.5 1603.7, 847.9 1601.9 C 848.4 1600.0, 849.5 1596.5, 850.4 1594.0 C 853.5 1585.6, 851.0 1577.8, 846.8 1582.7 M 1006 1659 C 1004.0 1660.0, 1001.6 1660.9, 1000.5 1660.9 C 999.4 1660.9, 997.2 1661.6, 995.6 1662.5 C 994.0 1663.3, 990.2 1664.6, 987.1 1665.4 C 976.3 1668.1, 972.4 1669.2, 968 1670.6 C 965.5 1671.4, 961.0 1672.7, 958 1673.5 C 941.1 1677.7, 938 1679.3, 938 1683.4 C 938 1688.4, 949.6 1688.6, 967 1684.0 C 970.5 1683.0, 975.3 1681.8, 977.5 1681.2 C 979.7 1680.6, 982.8 1679.7, 984.5 1679.1 C 986.1 1678.6, 991.5 1676.9, 996.5 1675.4 C 1001.4 1673.8, 1005.9 1672.2, 1006.4 1671.8 C 1006.9 1671.3, 1008.5 1671, 1010.0 1671 C 1012.8 1671, 1014.5 1672.6, 1022.5 1683.5 C 1025.0 1686.8, 1027.7 1690.4, 1028.5 1691.5 C 1030.8 1694.6, 1055.1 1725.3, 1056.7 1727.1 C 1058.0 1728.7, 1057.8 1729.0, 1054.6 1730.3 C 1051.4 1731.7, 1051 1732.3, 1051 1735.3 C 1051 1738.2, 1051.3 1738.8, 1053.7 1739.2 C 1058.8 1740.1, 1067.9 1738.5, 1070.1 1736.2 C 1073.9 1732.4, 1072.9 1728.5, 1065.5 1718.8 C 1064.4 1717.4, 1062.8 1715.2, 1062 1714.0 C 1061.1 1712.8, 1056.9 1707.1, 1052.5 1701.5 C 1048.1 1695.9, 1041.3 1687.1, 1037.5 1682.0 C 1033.6 1677.0, 1029.7 1671.9, 1028.7 1670.7 C 1027.7 1669.6, 1026.9 1668.4, 1026.9 1668.0 C 1026.9 1667.7, 1024.8 1665.1, 1022.1 1662.2 C 1016.6 1656.2, 1012.5 1655.4, 1006 1659 M 391.0 1673.1 C 388.0 1674.3, 381.3 1679.7, 373.5 1687.2 C 367.2 1693.4, 365.7 1693.8, 359.2 1691.5 C 357.0 1690.8, 351.0 1689.6, 345.8 1688.9 C 329.0 1686.8, 323.2 1690.0, 320.3 1702.8 C 318.8 1709.8, 318.8 1710.9, 320.3 1718.9 C 322.3 1729.3, 322.4 1732.7, 320.5 1736 C 319.7 1737.3, 318.7 1739.1, 318.3 1740 C 317.9 1740.8, 316.6 1742.8, 315.4 1744.5 C 309.0 1753.3, 306.7 1762.2, 309.7 1766.5 C 311.1 1768.5, 321.1 1776, 322.4 1776 C 323.2 1776, 326.7 1777.2, 330.2 1778.8 C 336.3 1781.6, 336.8 1782.0, 340.0 1788.6 C 346.9 1802.6, 351.2 1806.9, 360.6 1809.4 C 369.0 1811.5, 379.2 1809.2, 393.1 1801.9 C 397.4 1799.6, 403.3 1799.5, 411.5 1801.4 C 423.7 1804.4, 432.3 1802.1, 439.4 1793.8 C 446.5 1785.5, 448 1781.2, 448 1768.5 C 448 1759.8, 448.3 1756.9, 449.4 1756.0 C 456.6 1750.0, 458.9 1729.6, 453.5 1720.5 C 449.5 1713.8, 447.6 1712.0, 440.4 1708.3 C 426.6 1701.2, 424.8 1699.5, 417.7 1686 C 412.1 1675.6, 406.8 1671.9, 397.5 1672.0 C 395.3 1672.1, 392.3 1672.5, 391.0 1673.1 M 524.8 1683.7 C 523.5 1684.7, 521.3 1686.1, 520 1686.7 C 517.4 1688.0, 515.6 1689.1, 510.6 1692.3 C 506.2 1695.2, 499.5 1694.8, 492.5 1691.1 C 485.0 1687.1, 482.8 1688.7, 486.3 1695.8 C 487.1 1697.2, 488.2 1701.6, 488.9 1705.5 C 490.3 1713.9, 492.6 1721.5, 494.3 1722.7 C 495.6 1723.8, 505.1 1722.8, 516.5 1720.4 C 520.3 1719.6, 528 1718.5, 533.5 1717.9 C 539 1717.4, 545.3 1716.5, 547.5 1716.0 C 549.7 1715.4, 552.8 1715.0, 554.5 1715.0 C 561.1 1714.9, 560.8 1713.7, 551.2 1703.3 C 546.2 1697.9, 540.0 1690.9, 537.3 1687.7 C 532.0 1681.4, 529.1 1680.5, 524.8 1683.7 M 393.5 1685.8 C 389.9 1688.0, 381 1697.8, 381 1699.5 C 381 1701.0, 383.2 1702, 387.0 1702 C 390.7 1702, 392.9 1704.3, 393.0 1708.3 C 393.0 1710.0, 393.9 1715.3, 395.0 1720 C 398.5 1734.5, 398.5 1734.8, 395.5 1735.5 C 392.8 1736.2, 390 1734.7, 390 1732.5 C 390 1731.8, 389.3 1730.7, 388.5 1730.0 C 387.8 1729.4, 386.8 1726.5, 386.4 1723.7 C 385.3 1715.5, 382.4 1713.3, 377.2 1716.7 C 373.6 1719.1, 371.2 1720.5, 366.8 1722.9 C 358.6 1727.4, 352.4 1737.2, 350.3 1749.4 C 349.3 1754.9, 347.0 1757.1, 344.2 1755.3 C 341.5 1753.6, 341.9 1735.2, 344.7 1729.1 C 347.9 1722.3, 354.4 1716.3, 362.6 1712.5 C 371.9 1708.2, 372.2 1706, 363.4 1706 C 361.5 1706, 358.3 1705.3, 356.2 1704.5 C 351.4 1702.7, 342.8 1701, 338.6 1701 C 332.3 1701, 330.0 1706.4, 332.4 1715.7 C 333.2 1719.0, 334 1725.1, 334 1729.3 C 334 1736.3, 333.6 1737.5, 329.5 1745.6 C 327.0 1750.4, 324.5 1754.8, 324.0 1755.3 C 323.4 1755.9, 323 1757.5, 323 1758.9 C 323 1761.7, 325.8 1763.5, 338.9 1769.1 C 343.9 1771.3, 349.9 1776.3, 349.9 1778.4 C 350.0 1780.4, 355.9 1791.6, 358.1 1793.6 C 363.6 1798.8, 368.8 1798.3, 386.4 1791.2 C 396.5 1787.1, 404.0 1786.6, 411.8 1789.4 C 418.2 1791.7, 422.5 1791.4, 426.5 1788.4 C 430.1 1785.6, 435 1778.2, 435 1775.4 C 435 1773.4, 430.2 1760.0, 429.0 1758.5 C 428.6 1757.9, 427.9 1755.9, 427.5 1754 C 427.1 1752.0, 426.2 1748.9, 425.5 1747 C 423.3 1741.5, 420.6 1728.3, 421.3 1726.5 C 422.1 1724.5, 425.9 1724.6, 428.6 1726.7 C 431.0 1728.7, 435.9 1739.6, 436.0 1743.2 C 436.0 1748.9, 439.9 1749.3, 442.7 1743.9 C 444.3 1740.6, 444.3 1730.7, 442.6 1726.6 C 441.1 1723.0, 436.6 1719, 434.2 1719 C 431.4 1719, 420.5 1713.2, 417.8 1710.3 C 415.2 1707.4, 407 1693.8, 407 1692.3 C 407 1691.8, 405.6 1689.7, 403.9 1687.7 C 400.4 1683.5, 398.0 1683.0, 393.5 1685.8 M 1420.3 1726.5 C 1415.4 1729.1, 1410.8 1731.7, 1410 1732.3 C 1409.1 1733.0, 1407.3 1734.1, 1406 1734.8 C 1404.6 1735.4, 1401.2 1737.2, 1398.4 1738.7 C 1395.7 1740.2, 1390.1 1742.7, 1385.9 1744.3 C 1381.8 1745.9, 1376.3 1748.0, 1373.8 1749.1 C 1371.2 1750.1, 1368.1 1751, 1366.9 1751 C 1365.8 1751, 1363.8 1751.5, 1362.6 1752.1 C 1361.4 1752.8, 1357.8 1753.9, 1354.5 1754.5 C 1351.2 1755.2, 1345.5 1756.4, 1342 1757.3 C 1330.3 1760.1, 1316.7 1762.1, 1303 1763.0 C 1295.5 1763.5, 1286.5 1764.4, 1283 1764.9 C 1279.4 1765.4, 1271.3 1766.1, 1265.1 1766.5 C 1254.6 1767.2, 1253.4 1767.5, 1250.7 1769.9 C 1247.2 1773.0, 1247.4 1774.5, 1251.9 1780.7 C 1258.3 1789.6, 1298.5 1818.5, 1312 1823.9 C 1313.3 1824.5, 1315.1 1825.4, 1316 1826.0 C 1316.8 1826.5, 1318.6 1827.5, 1320 1828.1 C 1321.3 1828.7, 1323.1 1829.6, 1324 1830.1 C 1324.8 1830.6, 1326.6 1831.5, 1328 1832.1 C 1329.3 1832.7, 1332.3 1834.0, 1334.6 1835.1 C 1336.8 1836.1, 1339.3 1837, 1340.1 1837 C 1340.9 1837, 1342.4 1837.5, 1343.5 1838.3 C 1347.0 1840.6, 1359.4 1844.3, 1376 1848.0 C 1381.0 1849.1, 1419.6 1849.5, 1425.6 1848.4 C 1436.9 1846.5, 1450.0 1843.7, 1454.5 1842.3 C 1465.0 1839.0, 1480.9 1832.8, 1484 1830.9 C 1484.8 1830.4, 1486.1 1829.7, 1487 1829.3 C 1506.4 1821.7, 1547.5 1795.0, 1558.3 1783.0 C 1562.0 1778.9, 1563.7 1774.9, 1562.5 1773 C 1561.6 1771.5, 1551.6 1767, 1549.3 1767 C 1547.4 1767, 1536.7 1763.8, 1528.1 1760.8 C 1525.2 1759.8, 1522.0 1759, 1521.1 1759 C 1520.2 1759, 1517.7 1758.1, 1515.7 1757 C 1513.6 1755.9, 1511.2 1755, 1510.2 1755 C 1509.2 1755, 1506.9 1754.1, 1504.9 1753.1 C 1503.0 1752.1, 1499.9 1750.9, 1498 1750.5 C 1496.0 1750.0, 1493.6 1749.1, 1492.5 1748.3 C 1491.4 1747.6, 1489.8 1746.9, 1489.0 1746.9 C 1488.1 1746.9, 1486.1 1746.2, 1484.5 1745.4 C 1482.8 1744.5, 1477.9 1742.4, 1473.5 1740.7 C 1469.1 1738.9, 1458.5 1734.0, 1450.0 1729.7 C 1441.5 1725.5, 1433.3 1722, 1431.8 1722 C 1430.4 1722, 1425.2 1724.0, 1420.3 1726.5 M 975.9 1744.2 C 963.0 1757.1, 945.7 1770.9, 933.6 1778.0 C 930.4 1779.9, 926.2 1782.5, 924.1 1783.7 C 922.1 1784.9, 918.9 1786.6, 917 1787.5 C 907.1 1791.9, 892.9 1799.3, 891.9 1800.5 C 890.6 1802.0, 891.4 1804, 893.4 1804 C 894.6 1804, 900.6 1806.5, 914.7 1813.1 C 918.1 1814.7, 921.2 1816.0, 921.7 1816.0 C 922.1 1816.0, 924.3 1816.9, 926.5 1818 C 928.7 1819.0, 931.3 1819.9, 932.2 1819.9 C 933.2 1819.9, 935.7 1820.7, 937.7 1821.5 C 939.8 1822.4, 944.2 1823.5, 947.5 1824.1 C 950.8 1824.6, 955.5 1825.7, 958 1826.4 C 965.2 1828.6, 972.0 1829.0, 972.7 1827.2 C 973.0 1826.4, 972.6 1825.3, 971.7 1824.8 C 970.8 1824.3, 969.3 1821.3, 968.4 1818.2 C 966.9 1812.9, 966.9 1812.0, 968.3 1807.4 C 971.3 1798.0, 979.3 1793.7, 998.1 1791.5 C 1004.8 1790.7, 1005.6 1789.9, 1006.9 1783.4 C 1007.4 1780.7, 1008.3 1777.2, 1008.9 1775.6 C 1009.5 1774.1, 1010 1771.8, 1010 1770.5 C 1010 1767.3, 1014.3 1762.3, 1017.5 1761.7 C 1022.8 1760.7, 1038.0 1765.8, 1042.4 1770.0 C 1042.9 1770.5, 1046.3 1771, 1049.9 1771 C 1057.0 1771, 1062.1 1772.9, 1067.1 1777.6 C 1069.9 1780.3, 1071.8 1780.0, 1076.1 1776.2 C 1079.2 1773.6, 1094.1 1774.8, 1097.5 1778 C 1101.3 1781.5, 1104 1787.2, 1104 1791.9 C 1104 1797.0, 1099.8 1813.2, 1097.1 1818.6 C 1095.3 1822.1, 1095.1 1823.9, 1095.6 1828.9 C 1096.8 1840.1, 1098.7 1839.6, 1114.6 1824.5 C 1122.0 1817.4, 1129 1808.6, 1129 1806.4 C 1129 1806.0, 1129.6 1804.9, 1130.3 1804.0 C 1131.8 1802.2, 1134.4 1795.0, 1136.5 1786.9 C 1137.3 1783.8, 1138.6 1779.6, 1139.5 1777.5 C 1142.1 1771.2, 1138.4 1769.7, 1115.7 1767.9 C 1108.4 1767.3, 1100.0 1766.2, 1097 1765.5 C 1093.9 1764.7, 1089.0 1763.8, 1086 1763.4 C 1082.9 1763.0, 1079.1 1762.2, 1077.3 1761.5 C 1075.6 1760.8, 1072.3 1759.9, 1069.8 1759.5 C 1067.4 1759.1, 1062.8 1758.0, 1059.5 1757.0 C 1056.2 1756.0, 1050.1 1754.2, 1046 1753.0 C 1041.8 1751.8, 1037.1 1750.4, 1035.5 1749.8 C 1033.8 1749.2, 1030.2 1748.1, 1027.5 1747.3 C 1024.7 1746.6, 1021.6 1745.6, 1020.5 1745.1 C 1019.4 1744.5, 1016.4 1743.5, 1014 1742.7 C 1006.5 1740.2, 1002.7 1738.8, 998.2 1736.8 C 988.0 1732.4, 987.6 1732.5, 975.9 1744.2 M 1427.8 1736.7 C 1426.5 1737.7, 1424.3 1739.1, 1423 1739.7 C 1421.6 1740.4, 1418.9 1741.9, 1417 1743.1 C 1411.8 1746.3, 1394.6 1754.9, 1393.5 1755.0 C 1392.9 1755.0, 1391.1 1755.7, 1389.5 1756.5 C 1383.2 1759.8, 1366.5 1765.0, 1353.9 1767.5 C 1350.4 1768.2, 1346.3 1769.2, 1344.9 1769.7 C 1343.6 1770.3, 1340.2 1771.0, 1337.5 1771.4 C 1334.7 1771.7, 1329.1 1772.7, 1325 1773.5 C 1320.8 1774.3, 1307.3 1775.6, 1295.0 1776.5 C 1271.7 1778.1, 1268.0 1778.9, 1271.3 1782.1 C 1273.3 1783.9, 1283.3 1790.7, 1294.5 1797.8 C 1299.4 1801.0, 1304.8 1804.4, 1306.5 1805.5 C 1310.4 1808.1, 1313.3 1809.6, 1320.5 1813.3 C 1326.1 1816.2, 1327.1 1816.4, 1338 1816.4 C 1354.1 1816.3, 1364.6 1812.6, 1381.1 1801.2 C 1391.3 1794.2, 1392.7 1794.3, 1401.5 1802.2 C 1421.4 1820.1, 1434.4 1826.9, 1450.1 1827.7 C 1457.3 1828.0, 1459.5 1827.7, 1463.3 1826.0 C 1465.8 1824.9, 1468.3 1824, 1468.9 1824 C 1469.6 1824, 1471.7 1823.1, 1473.8 1822.0 C 1475.8 1821.0, 1481.5 1818.2, 1486.5 1815.8 C 1499.7 1809.5, 1511.2 1802.8, 1522.5 1795.0 C 1528 1791.2, 1534.3 1786.8, 1536.7 1785.2 C 1542.5 1781.4, 1542.5 1778.4, 1536.7 1776.9 C 1534.4 1776.3, 1530.4 1775.1, 1528 1774.3 C 1525.5 1773.5, 1521.2 1772.2, 1518.5 1771.5 C 1509.3 1769.0, 1495.9 1764.2, 1488.4 1760.8 C 1486.1 1759.8, 1483.8 1759, 1483.2 1759 C 1482.5 1759, 1480.1 1758.0, 1477.7 1756.8 C 1475.4 1755.7, 1471.7 1753.9, 1469.5 1752.9 C 1467.3 1751.9, 1458.0 1747.4, 1449 1743.0 C 1430.7 1734.1, 1431.2 1734.2, 1427.8 1736.7 M 594 1747.0 C 585.8 1753.6, 563.6 1767.0, 550 1773.6 C 536.2 1780.3, 520.3 1787.3, 516.2 1788.5 C 512.0 1789.6, 514.6 1794.1, 520.2 1795.5 C 521.6 1795.8, 523.4 1796.8, 524.0 1797.5 C 524.7 1798.3, 525.7 1799, 526.2 1799 C 526.8 1799, 531.6 1801.0, 536.8 1803.6 C 542.1 1806.2, 550.3 1810.0, 555 1812.2 C 579.2 1823.6, 582.6 1825.2, 584 1826.0 C 584.8 1826.5, 586.6 1827.4, 588 1828.0 C 589.3 1828.6, 592.5 1830.0, 595 1831.1 C 605.0 1835.7, 614.7 1840.2, 618.5 1841.9 C 620.7 1843.0, 625.2 1845.0, 628.5 1846.4 C 631.8 1847.9, 635.1 1849.5, 636 1850.0 C 636.8 1850.5, 638.1 1851.2, 639 1851.6 C 643.4 1853.4, 655.1 1859.4, 655.6 1860.1 C 655.8 1860.6, 657.7 1861, 659.6 1861 C 662.5 1861, 667.7 1857.9, 688.3 1844.3 C 702.1 1835.1, 715.3 1826.5, 717.5 1825.1 C 720.7 1822.9, 728.9 1817.1, 733.4 1813.7 C 739.0 1809.5, 759.2 1793.1, 765.1 1788.1 C 769.1 1784.6, 773.9 1780.5, 775.7 1778.9 C 777.5 1777.4, 782.5 1773.2, 786.8 1769.6 C 798.7 1759.6, 805.1 1751, 800.4 1751 C 799.1 1751, 791.7 1754.3, 787 1757.0 C 769.0 1767.2, 759.6 1769.8, 754.8 1766.1 C 753.5 1765.1, 751.3 1763.9, 750.0 1763.4 C 748.6 1763.0, 746.4 1761.9, 745.0 1761.0 C 740.4 1758.0, 738.5 1756.9, 735.3 1755.4 C 733.5 1754.6, 731.8 1753.5, 731.5 1753.0 C 731.2 1752.5, 729.2 1751.6, 727.2 1751.0 C 723.9 1750.1, 722.7 1750.4, 714.2 1754.5 C 709.1 1756.9, 704.6 1759.0, 704.2 1759.0 C 703.8 1759.0, 701.2 1760.1, 698.5 1761.5 C 695.7 1762.8, 692.7 1763.9, 691.8 1763.9 C 690.8 1763.9, 689.8 1764.4, 689.5 1764.9 C 689.2 1765.4, 687.2 1766.3, 685.2 1767.0 C 681.5 1768.1, 679.0 1769.2, 668.2 1774.0 C 658.7 1778.2, 653.4 1777.4, 637.8 1769.7 C 630.5 1766.0, 619.6 1759.7, 613.6 1755.7 C 597.9 1745.2, 597.5 1745.0, 597 1745.0 C 596.7 1745.0, 595.3 1745.9, 594 1747.0 M 406.9 1748.7 C 405.5 1749.6, 400.5 1754.1, 395.6 1758.6 C 390.7 1763.2, 385.9 1767, 384.9 1767 C 383.9 1767, 380.9 1765.2, 378.1 1763 C 375.3 1760.8, 372.7 1759, 372.4 1759 C 372.0 1759, 370.6 1758.1, 369.2 1757 C 365.4 1753.9, 359.2 1754.2, 358.0 1757.4 C 357.0 1760.0, 357.5 1763, 359.0 1763 C 359.4 1763, 364.5 1766.5, 370.4 1770.9 C 385.2 1782.1, 384.8 1782.1, 393.8 1771.3 C 395.1 1769.7, 399.8 1765.5, 404.3 1761.9 C 411.0 1756.6, 412.5 1754.9, 412.8 1752.3 C 413.2 1748.0, 410.3 1746.3, 406.9 1748.7 M 1021.7 1776.6 C 1020.4 1778.1, 1018 1793.1, 1018 1800.1 C 1018 1802.0, 1021.7 1800.8, 1024.5 1797.9 C 1026.8 1795.5, 1028.1 1794.9, 1030.9 1795.2 C 1036.9 1795.7, 1036.2 1798.8, 1028.8 1805.0 C 1025.3 1807.9, 1022.2 1810.6, 1021.9 1811.0 C 1021.0 1812.5, 1016.1 1813.1, 1014.1 1812.0 C 1012.9 1811.4, 1011.5 1809.0, 1010.7 1806.2 C 1009.5 1801.7, 1009.2 1801.4, 1005.6 1801.1 C 1003.5 1801.0, 1001.2 1801.3, 1000.5 1801.9 C 999.7 1802.5, 996.3 1803.5, 992.9 1804.0 C 976.9 1806.6, 975.2 1812.4, 986.6 1826.6 C 992.0 1833.4, 993.5 1837.4, 992.1 1841.3 C 990.3 1846.5, 990.6 1855.3, 992.8 1858.1 C 995.1 1860.8, 1001.8 1861.0, 1010.3 1858.4 C 1020.5 1855.4, 1026.5 1856.9, 1037.1 1865.1 C 1042.8 1869.6, 1047.1 1871.0, 1051.1 1869.9 C 1052.9 1869.4, 1055.9 1869, 1057.7 1869 C 1065.3 1869, 1080.8 1858.9, 1083.6 1852.2 C 1085.2 1848.4, 1084.5 1837.4, 1082.6 1835.9 C 1082 1835.4, 1080.3 1834.1, 1079 1833.0 C 1074.5 1829.7, 1075.6 1804.9, 1080.3 1800.1 C 1082.6 1797.8, 1084.8 1800.2, 1085.6 1806.0 C 1086.2 1810.7, 1088.3 1813.1, 1090.1 1811.2 C 1090.6 1810.7, 1091.3 1805.8, 1091.6 1800.4 C 1092.3 1788.6, 1091.8 1787.7, 1084.3 1788.1 C 1079.6 1788.4, 1079.4 1788.6, 1076.9 1793.4 C 1073.5 1800.0, 1070.8 1801.1, 1067.0 1797.5 C 1065.4 1796.0, 1063.9 1793.7, 1063.5 1792.5 C 1063.2 1791.2, 1061.6 1788.7, 1059.8 1786.8 C 1056.8 1783.6, 1056.4 1783.5, 1050.2 1783.7 C 1045.0 1783.8, 1042.8 1783.4, 1039.1 1781.4 C 1036.5 1780.1, 1034.0 1779, 1033.5 1779 C 1033.0 1779, 1031.9 1778.3, 1031.0 1777.5 C 1028.2 1774.9, 1023.6 1774.5, 1021.7 1776.6 M 1386.8 1810.8 C 1380.9 1815.4, 1374.1 1819.8, 1371.9 1820.4 C 1370.6 1820.8, 1368.4 1821.8, 1367.2 1822.6 C 1365.9 1823.4, 1362.3 1824.4, 1359.2 1824.7 C 1352.4 1825.6, 1352.1 1826.7, 1358.0 1829.6 C 1368.4 1834.7, 1384.5 1836.6, 1414.2 1836.1 C 1425.3 1835.9, 1426.5 1834.9, 1419.7 1831.1 C 1411.0 1826.2, 1404.5 1821.5, 1398 1815.3 C 1390.5 1808.3, 1390.2 1808.2, 1386.8 1810.8 M 1027.5 1821.6 C 1012.8 1835.1, 1011.2 1836.2, 1005.7 1836.7 C 1000.3 1837.2, 998 1838.8, 998 1842.2 C 998 1844.7, 1002.7 1849, 1005.5 1849 C 1011.0 1849, 1021.6 1842.2, 1032.2 1832.1 L 1036.9 1827.6 1039.4 1829.9 C 1040.8 1831.2, 1042.2 1833.2, 1042.6 1834.4 C 1045.0 1842.0, 1057.3 1852, 1064.2 1852 C 1071.3 1852, 1078 1845.7, 1078 1839.0 C 1078 1835.1, 1074.4 1834.8, 1071 1838.5 C 1069.2 1840.3, 1067.6 1841, 1064.7 1841 C 1060.1 1841, 1052.2 1834.1, 1043.7 1822.7 C 1037.3 1814.1, 1035.7 1813.9, 1027.5 1821.6" stroke="none" fill="#191919" fill-rule="evenodd"/> </svg>